<svg width="22" height="21" viewBox="0 0 22 21" fill="none" xmlns="http://www.w3.org/2000/svg">
<path d="M5 7V21H0V7H5Z" fill="#648FFF"/>
<path d="M5 2.49914C5 3.88838 4.03485 5 2.48513 5H2.45673C0.964621 5 0 3.88838 0 2.49914C0 1.08051 0.994 0 2.51442 0C4.03485 0 4.97115 1.08051 5 2.49914Z" fill="#648FFF"/>
<path d="M22 12.5966L21.9998 20.9996H17.4141V13.1589C17.4141 11.1895 16.7505 9.84564 15.0904 9.84564C13.8235 9.84564 13.0689 10.7516 12.7374 11.6266C12.6162 11.9402 12.5864 12.3772 12.5864 12.8152V21H8C8 21 8.06044 7.71972 8 6.34453H12.5864V8.42035C13.1951 7.42247 14.2852 6 16.7199 6C19.7377 6 22 8.09508 22 12.5966Z" fill="#648FFF"/>
</svg>
