<svg width="20" height="20" viewBox="0 0 20 20" fill="none" xmlns="http://www.w3.org/2000/svg">
<path d="M10 20C15.5228 20 20 15.5228 20 10C20 4.47715 15.5228 0 10 0C4.47715 0 0 4.47715 0 10C0 15.5228 4.47715 20 10 20Z" fill="url(#paint0_linear)"/>
<path d="M8.16671 14.5837C7.84274 14.5837 7.89779 14.4613 7.78606 14.1529L6.83337 11.0175L14.1667 6.66699" fill="#C8DAEA"/>
<path d="M8.16663 14.5836C8.41663 14.5836 8.52708 14.4693 8.66663 14.3336L9.99996 13.0371L8.33679 12.0342" fill="#A9C9DD"/>
<path d="M8.33664 12.0348L12.3666 15.0122C12.8265 15.2659 13.1584 15.1346 13.273 14.5852L14.9134 6.85498C15.0813 6.18163 14.6567 5.87623 14.2168 6.07596L4.58427 9.79021C3.92677 10.0539 3.9306 10.4208 4.46442 10.5842L6.93634 11.3557L12.6591 7.74532C12.9292 7.5815 13.1772 7.66957 12.9737 7.85019" fill="url(#paint1_linear)"/>
<defs>
<linearGradient id="paint0_linear" x1="7.501" y1="0.834" x2="2.501" y2="12.5" gradientUnits="userSpaceOnUse">
<stop stop-color="#37AEE2"/>
<stop offset="1" stop-color="#1E96C8"/>
</linearGradient>
<linearGradient id="paint1_linear" x1="8.74814" y1="10.6149" x2="9.81662" y2="14.0711" gradientUnits="userSpaceOnUse">
<stop stop-color="#EFF7FC"/>
<stop offset="1" stop-color="white"/>
</linearGradient>
</defs>
</svg>
