<svg width="20" height="20" viewBox="0 0 20 20" fill="none" xmlns="http://www.w3.org/2000/svg">
<path d="M0 10C0 4.47715 4.47715 0 10 0C15.5228 0 20 4.47715 20 10C20 15.5228 15.5228 20 10 20C4.47715 20 0 15.5228 0 10Z" fill="#2787F5"/>
<path d="M10.5231 13.2814C10.5231 13.2814 10.7156 13.2604 10.8142 13.1564C10.9045 13.0612 10.9014 12.8814 10.9014 12.8814C10.9014 12.8814 10.8894 12.0421 11.2864 11.9181C11.6777 11.7963 12.1801 12.7298 12.7133 13.0888C13.116 13.3602 13.4217 13.3008 13.4217 13.3008L14.8465 13.2814C14.8465 13.2814 15.5915 13.2363 15.2383 12.6612C15.2091 12.6141 15.0322 12.2357 14.1793 11.4583C13.2856 10.6445 13.4056 10.7762 14.4813 9.36837C15.1366 8.51111 15.3985 7.98774 15.3166 7.76395C15.2388 7.54989 14.7568 7.60673 14.7568 7.60673L13.1531 7.61646C13.1531 7.61646 13.0341 7.60058 12.9459 7.65231C12.8599 7.70301 12.804 7.8213 12.804 7.8213C12.804 7.8213 12.5505 8.48448 12.2119 9.04882C11.4977 10.239 11.2123 10.3019 11.0954 10.2282C10.8236 10.0556 10.8915 9.53583 10.8915 9.1666C10.8915 8.01283 11.0699 7.53196 10.5445 7.40752C10.3703 7.36604 10.2419 7.3389 9.79587 7.33429C9.22356 7.32866 8.73941 7.33634 8.465 7.46795C8.2824 7.55552 8.14154 7.75114 8.22762 7.76241C8.33353 7.77624 8.57351 7.82591 8.70081 7.99593C8.86514 8.21562 8.85941 8.70827 8.85941 8.70827C8.85941 8.70827 8.95384 10.0664 8.63872 10.2349C8.42274 10.3506 8.12641 10.1145 7.4894 9.03448C7.16334 8.48141 6.91709 7.86995 6.91709 7.86995C6.91709 7.86995 6.86962 7.75575 6.78458 7.6943C6.6818 7.62004 6.53833 7.597 6.53833 7.597L5.01442 7.60673C5.01442 7.60673 4.7854 7.61287 4.7014 7.71069C4.6268 7.79723 4.69566 7.97698 4.69566 7.97698C4.69566 7.97698 5.88881 10.7173 7.24003 12.0984C8.47908 13.3643 9.8856 13.2814 9.8856 13.2814H10.5231Z" fill="white"/>
</svg>
