<svg width="28" height="16" viewBox="0 0 28 16" fill="none" xmlns="http://www.w3.org/2000/svg">
<path d="M15.3732 15.9331C15.3732 15.9331 15.8785 15.8769 16.1373 15.5984C16.3743 15.3433 16.366 14.8618 16.366 14.8618C16.366 14.8618 16.3345 12.6136 17.3767 12.2816C18.4038 11.9552 19.7226 14.4558 21.1222 15.4174C22.1795 16.1444 22.982 15.9852 22.982 15.9852L26.7221 15.9331C26.7221 15.9331 28.6777 15.8124 27.7505 14.272C27.6738 14.1458 27.2096 13.1321 24.9705 11.0498C22.6246 8.87018 22.9395 9.22271 25.7634 5.45187C27.4835 3.15563 28.171 1.75374 27.956 1.1543C27.7519 0.580923 26.4865 0.733183 26.4865 0.733183L22.2767 0.759245C22.2767 0.759245 21.9645 0.716722 21.733 0.855265C21.5071 0.991065 21.3605 1.30793 21.3605 1.30793C21.3605 1.30793 20.695 3.0843 19.8062 4.59592C17.9314 7.78378 17.1822 7.9525 16.8755 7.75498C16.162 7.29271 16.34 5.90042 16.34 4.91142C16.34 1.82095 16.8084 0.532913 15.4293 0.199587C14.9719 0.0884782 14.635 0.0157775 13.4641 0.00343207C11.9618 -0.0116568 10.6909 0.00891894 9.97056 0.361449C9.49124 0.596012 9.12148 1.12001 9.34745 1.15018C9.62545 1.18722 10.2554 1.32028 10.5896 1.77568C11.021 2.36415 11.0059 3.68374 11.0059 3.68374C11.0059 3.68374 11.2538 7.32152 10.4266 7.77281C9.85963 8.08282 9.08177 7.45046 7.40963 4.55752C6.5537 3.07607 5.90731 1.43824 5.90731 1.43824C5.90731 1.43824 5.78269 1.13235 5.55946 0.967746C5.28967 0.768847 4.91307 0.70712 4.91307 0.70712L0.912812 0.733183C0.912812 0.733183 0.311609 0.749643 0.0911231 1.01164C-0.104713 1.24346 0.0760587 1.72493 0.0760587 1.72493C0.0760587 1.72493 3.20806 9.06496 6.75502 12.7645C10.0075 16.1553 13.6997 15.9331 13.6997 15.9331H15.3732Z" fill="#648FFF"/>
</svg>
