<svg width="19" height="21" viewBox="0 0 19 21" fill="none" xmlns="http://www.w3.org/2000/svg">
<path d="M1.26667 21C0.567106 21 0 20.4469 0 19.7647V1.23535C0 0.553118 0.567106 2.95296e-05 1.26667 2.95296e-05H9.348C9.82953 -0.00320856 10.2713 0.260084 10.488 0.679469L11.4 2.47064H17.7333C18.4329 2.47064 19 3.0237 19 3.70593V13.5883C19 14.2705 18.4329 14.8235 17.7333 14.8235H10.906C10.429 14.8221 9.9933 14.5595 9.77867 14.1441L8.86667 12.353H2.53333V19.7647C2.53333 20.4469 1.96623 21 1.26667 21ZM2.53333 2.47064V9.88239H10.1333L11.4 12.353H16.4667V4.94122H10.1333L8.86667 2.47064H2.53333Z" fill="#648FFF"/>
</svg>
