<svg width="20" height="21" viewBox="0 0 20 21" fill="none" xmlns="http://www.w3.org/2000/svg">
<path d="M16.2621 20.9998C15.1266 21.0129 14.0504 20.4953 13.3535 19.601C12.6567 18.7067 12.4193 17.5387 12.7121 16.4442L6.14327 12.6989C5.00818 13.7363 3.34434 13.9559 1.97789 13.2486C0.611449 12.5413 -0.166551 11.0578 0.030193 9.53477C0.226937 8.0117 1.35652 6.77344 2.85807 6.43482C4.35962 6.0962 5.91331 6.72935 6.74769 8.01989L12.7111 4.61895C12.6339 4.32815 12.5931 4.02895 12.5894 3.72816C12.5743 1.97662 13.7938 0.455078 15.5099 0.0841884C17.226 -0.286701 18.9674 0.594927 19.6804 2.19561C20.3935 3.79629 19.8823 5.67642 18.4562 6.69836C17.0301 7.72029 15.0808 7.60337 13.7877 6.41834L7.33322 10.0977C7.32683 10.3692 7.28879 10.639 7.21989 10.9016L13.7877 14.6459C14.9968 13.539 16.7959 13.3681 18.1927 14.2275C19.5895 15.087 20.2439 16.7674 19.795 18.3421C19.3461 19.9167 17.9032 21.0022 16.2621 20.9998ZM16.2621 15.7659C15.3928 15.7659 14.688 16.4689 14.688 17.3361C14.688 18.2033 15.3928 18.9062 16.2621 18.9062C17.1314 18.9062 17.8361 18.2033 17.8361 17.3361C17.8361 16.4689 17.1314 15.7659 16.2621 15.7659ZM3.66997 8.4386C2.80067 8.4386 2.09596 9.14157 2.09596 10.0087C2.09596 10.8759 2.80067 11.5789 3.66997 11.5789C4.53927 11.5789 5.24398 10.8759 5.24398 10.0087C5.24398 9.14157 4.53927 8.4386 3.66997 8.4386ZM16.2621 2.15801C15.3928 2.15801 14.688 2.86099 14.688 3.72816C14.688 4.59533 15.3928 5.2983 16.2621 5.2983C17.1314 5.2983 17.8361 4.59533 17.8361 3.72816C17.8361 2.86099 17.1314 2.15801 16.2621 2.15801Z" fill="#648FFF"/>
</svg>
