<svg width="30" height="30" viewBox="0 0 30 30" fill="none" xmlns="http://www.w3.org/2000/svg">
<g id="Iconly/Light-Outline/Arrow - Down Square">
<g id="Arrow - Down Square">
<path id="Fill 1" fill-rule="evenodd" clip-rule="evenodd" d="M9.5825 4.375C6.42 4.375 4.375 6.54125 4.375 9.895V20.105C4.375 23.4587 6.42 25.625 9.5825 25.625H20.4188C23.5812 25.625 25.625 23.4587 25.625 20.105V9.895C25.625 6.54125 23.5812 4.375 20.4188 4.375H9.5825ZM20.4188 27.5H9.5825C5.34625 27.5 2.5 24.5275 2.5 20.105V9.895C2.5 5.4725 5.34625 2.5 9.5825 2.5H20.4188C24.655 2.5 27.5 5.4725 27.5 9.895V20.105C27.5 24.5275 24.655 27.5 20.4188 27.5Z" fill="#2E2F33"/>
<path id="Fill 3" fill-rule="evenodd" clip-rule="evenodd" d="M15 21.0451C14.4825 21.0451 14.0625 20.6251 14.0625 20.1076V9.89258C14.0625 9.37508 14.4825 8.95508 15 8.95508C15.5175 8.95508 15.9375 9.37508 15.9375 9.89258V20.1076C15.9375 20.6251 15.5175 21.0451 15 21.0451Z" fill="#2E2F33"/>
<path id="Fill 5" fill-rule="evenodd" clip-rule="evenodd" d="M15 21.0463C14.7512 21.0463 14.5112 20.9475 14.3362 20.77L9.65125 16.065C9.285 15.6975 9.2875 15.1038 9.65375 14.7388C10.0212 14.375 10.6137 14.3725 10.9787 14.7413L15 18.78L19.0212 14.7413C19.3875 14.3725 19.98 14.375 20.3462 14.7388C20.7125 15.1038 20.715 15.6975 20.3487 16.065L15.6637 20.77C15.4887 20.9475 15.2487 21.0463 15 21.0463Z" fill="#2E2F33"/>
</g>
</g>
</svg>
