<svg width="520" height="520" viewBox="0 0 520 520" fill="none" xmlns="http://www.w3.org/2000/svg">
<path d="M520 397.696H0V397.956H520V397.696Z" fill="#E0E0E0"/>
<path d="M351.208 410.8H340.309V411.06H351.208V410.8Z" fill="#E0E0E0"/>
<path d="M86.0912 403.978H67.5272V404.238H86.0912V403.978Z" fill="#E0E0E0"/>
<path d="M187.086 410.675H155.199V410.935H187.086V410.675Z" fill="#E0E0E0"/>
<path d="M275.954 404.737H228.894V404.997H275.954V404.737Z" fill="#E0E0E0"/>
<path d="M463.206 406.391H407.098V406.651H463.206V406.391Z" fill="#E0E0E0"/>
<path d="M127.868 403.978H91.1144V404.238H127.868V403.978Z" fill="#E0E0E0"/>
<path d="M484.838 406.515H469.269V406.775H484.838V406.515Z" fill="#E0E0E0"/>
<path d="M146.047 121.68C146.045 129.934 144.037 138.064 140.198 145.371C136.358 152.677 130.801 158.942 124.004 163.625C117.208 168.309 109.376 171.272 101.181 172.259C92.986 173.246 84.6741 172.227 76.96 169.291C86.5949 165.605 94.8842 159.082 100.732 150.583C106.58 142.085 109.711 132.012 109.711 121.696C109.711 111.38 106.58 101.307 100.732 92.8083C94.8842 84.3099 86.5949 77.7863 76.96 74.1002C84.6717 71.165 92.9808 70.1464 101.173 71.1318C109.365 72.1172 117.196 75.0772 123.992 79.7573C130.787 84.4375 136.345 90.6978 140.187 98.0002C144.028 105.303 146.04 113.429 146.047 121.68Z" fill="#F5F5F5"/>
<path d="M111.28 88.6184C111.907 89.7302 112.28 90.9672 112.372 92.2405C112.464 93.5137 112.272 94.7915 111.81 95.9816C111.354 93.7636 110.546 91.6326 109.418 89.6688C108.312 87.6854 106.909 85.8828 105.258 84.3232C106.517 84.5504 107.71 85.0533 108.751 85.7959C109.792 86.5385 110.656 87.5024 111.28 88.6184Z" fill="#E6E6E6"/>
<path d="M136.417 110.989C136.087 112.221 135.489 113.366 134.665 114.34C133.842 115.314 132.814 116.095 131.654 116.626C132.875 114.7 133.788 112.594 134.358 110.386C134.949 108.198 135.205 105.932 135.117 103.667C135.865 104.714 136.37 105.915 136.595 107.181C136.819 108.448 136.759 109.749 136.417 110.989Z" fill="#E6E6E6"/>
<path d="M133.266 144.56C132.38 145.477 131.303 146.187 130.111 146.639C128.919 147.09 127.641 147.272 126.37 147.171C128.36 146.09 130.17 144.708 131.737 143.073C133.316 141.45 134.639 139.594 135.658 137.571C135.798 138.84 135.656 140.125 135.243 141.333C134.829 142.541 134.154 143.643 133.266 144.56Z" fill="#E6E6E6"/>
<path d="M109.98 161.616C109.095 162.535 108.018 163.246 106.826 163.699C105.634 164.152 104.356 164.336 103.085 164.237C107.079 162.044 110.317 158.694 112.372 154.627C112.516 155.897 112.376 157.182 111.962 158.391C111.549 159.6 110.872 160.701 109.98 161.616Z" fill="#E6E6E6"/>
<path d="M122.273 127.691C122.004 128.938 121.462 130.109 120.687 131.121C119.912 132.133 118.923 132.962 117.79 133.547C120.029 129.581 121.022 125.033 120.64 120.495C121.431 121.497 121.988 122.663 122.271 123.908C122.553 125.153 122.554 126.446 122.273 127.691Z" fill="#E6E6E6"/>
<path d="M393.349 156.572C393.047 156.572 392.752 156.485 392.499 156.32C392.246 156.156 392.047 155.922 391.924 155.647C388.97 148.97 405.631 137.405 423.613 129.439C441.594 121.472 461.354 116.886 464.318 123.563C464.401 123.75 464.446 123.953 464.45 124.158C464.455 124.363 464.419 124.567 464.344 124.758C464.27 124.949 464.159 125.124 464.017 125.272C463.875 125.42 463.705 125.539 463.518 125.622C463.33 125.705 463.128 125.749 462.922 125.754C462.717 125.758 462.513 125.722 462.322 125.648C462.131 125.574 461.956 125.462 461.808 125.32C461.66 125.179 461.541 125.009 461.458 124.821C460.138 121.847 445.234 123.261 424.882 132.288C404.529 141.315 393.453 151.393 394.722 154.378C394.81 154.566 394.859 154.77 394.867 154.977C394.874 155.184 394.84 155.391 394.767 155.585C394.693 155.779 394.581 155.956 394.437 156.106C394.294 156.256 394.122 156.376 393.931 156.458C393.746 156.534 393.549 156.573 393.349 156.572Z" fill="#F5F5F5"/>
<path d="M428.116 166.379C442.906 166.379 454.896 154.39 454.896 139.599C454.896 124.809 442.906 112.819 428.116 112.819C413.326 112.819 401.336 124.809 401.336 139.599C401.336 154.39 413.326 166.379 428.116 166.379Z" fill="#E6E6E6"/>
<path d="M399.755 158.891C395.512 158.891 392.881 157.851 391.924 155.646C391.839 155.457 391.793 155.253 391.787 155.046C391.782 154.839 391.817 154.633 391.891 154.44C391.966 154.246 392.078 154.07 392.221 153.92C392.364 153.77 392.535 153.65 392.725 153.566C392.913 153.478 393.117 153.429 393.324 153.421C393.531 153.414 393.738 153.448 393.932 153.521C394.126 153.595 394.303 153.707 394.453 153.85C394.603 153.994 394.723 154.166 394.805 154.357C395.221 155.293 398.05 156.499 406.047 155.126C414.788 153.386 423.295 150.625 431.392 146.9C451.714 137.904 462.8 127.806 461.458 124.8C461.292 124.421 461.282 123.991 461.432 123.604C461.583 123.218 461.88 122.908 462.259 122.741C462.638 122.574 463.068 122.564 463.455 122.715C463.841 122.865 464.152 123.162 464.318 123.542C467.272 130.218 450.611 141.783 432.63 149.75C424.295 153.576 415.541 156.414 406.546 158.205C404.306 158.623 402.034 158.853 399.755 158.891Z" fill="#F5F5F5"/>
<path d="M386.766 75.8575L387.65 77.6359C387.7 77.7381 387.775 77.8265 387.868 77.8935C387.96 77.9605 388.067 78.0041 388.18 78.0207L390.146 78.3119C390.277 78.3304 390.4 78.3852 390.501 78.47C390.602 78.5549 390.678 78.6664 390.719 78.7921C390.76 78.9177 390.765 79.0523 390.734 79.1807C390.702 79.309 390.635 79.426 390.541 79.5183L389.116 80.9119C389.034 80.9913 388.973 81.0899 388.938 81.1989C388.904 81.3078 388.897 81.4237 388.918 81.5359L389.251 83.4911C389.276 83.6233 389.263 83.7599 389.213 83.8849C389.163 84.0098 389.079 84.118 388.97 84.1966C388.86 84.2752 388.731 84.321 388.597 84.3287C388.462 84.3364 388.329 84.3056 388.211 84.2399L386.454 83.3143C386.35 83.263 386.236 83.2363 386.121 83.2363C386.005 83.2363 385.891 83.263 385.788 83.3143L384.03 84.2399C383.913 84.3056 383.779 84.3364 383.645 84.3287C383.511 84.321 383.381 84.2752 383.272 84.1966C383.163 84.118 383.078 84.0098 383.028 83.8849C382.979 83.7599 382.965 83.6233 382.99 83.4911L383.323 81.5359C383.346 81.4228 383.338 81.3058 383.302 81.1965C383.265 81.0871 383.201 80.989 383.115 80.9119L381.68 79.5183C381.585 79.426 381.519 79.309 381.487 79.1807C381.456 79.0523 381.461 78.9177 381.502 78.7921C381.543 78.6664 381.619 78.5549 381.72 78.47C381.821 78.3852 381.944 78.3304 382.075 78.3119L384.041 78.0207C384.154 78.0041 384.261 77.9605 384.353 77.8935C384.446 77.8265 384.52 77.7381 384.571 77.6359L385.455 75.8575C385.508 75.7272 385.599 75.6156 385.715 75.537C385.832 75.4585 385.97 75.4165 386.11 75.4165C386.251 75.4165 386.389 75.4585 386.505 75.537C386.622 75.6156 386.713 75.7272 386.766 75.8575Z" fill="#F5F5F5"/>
<path d="M62.5352 250.838L63.44 252.616C63.4916 252.719 63.5664 252.808 63.6585 252.876C63.7505 252.945 63.8573 252.991 63.9704 253.011L65.936 253.292C66.0668 253.313 66.1894 253.369 66.2902 253.455C66.3909 253.541 66.4659 253.653 66.5068 253.779C66.5477 253.905 66.553 254.04 66.522 254.169C66.491 254.297 66.425 254.415 66.3312 254.509L64.9064 255.892C64.8249 255.972 64.7642 256.071 64.7298 256.179C64.6953 256.288 64.6881 256.404 64.7088 256.516L65.0416 258.482C65.0666 258.614 65.0534 258.75 65.0035 258.875C64.9536 259 64.8691 259.108 64.76 259.187C64.6508 259.266 64.5214 259.311 64.3871 259.319C64.2528 259.327 64.119 259.296 64.0016 259.23L62.244 258.305C62.1422 258.248 62.0276 258.219 61.9112 258.219C61.7948 258.219 61.6802 258.248 61.5784 258.305L59.8208 259.23C59.7034 259.296 59.5696 259.327 59.4353 259.319C59.301 259.311 59.1716 259.266 59.0624 259.187C58.9532 259.108 58.8687 259 58.8189 258.875C58.769 258.75 58.7558 258.614 58.7808 258.482L59.1136 256.516C59.1343 256.404 59.1271 256.288 59.0926 256.179C59.0582 256.071 58.9975 255.972 58.916 255.892L57.4912 254.509C57.3974 254.415 57.3314 254.297 57.3004 254.169C57.2694 254.04 57.2747 253.905 57.3156 253.779C57.3565 253.653 57.4315 253.541 57.5322 253.455C57.633 253.369 57.7556 253.313 57.8864 253.292L59.852 253.011C59.965 252.991 60.0719 252.945 60.1639 252.876C60.256 252.808 60.3308 252.719 60.3824 252.616L61.2664 250.838C61.3247 250.719 61.4151 250.619 61.5272 250.55C61.6393 250.48 61.7688 250.443 61.9008 250.443C62.0328 250.443 62.1623 250.48 62.2744 250.55C62.3865 250.619 62.4768 250.719 62.5352 250.838Z" fill="#E6E6E6"/>
<path d="M315.713 328.432L316.586 330.211C316.637 330.315 316.714 330.404 316.808 330.471C316.902 330.539 317.012 330.581 317.127 330.595L319.093 330.886C319.223 330.907 319.345 330.962 319.445 331.048C319.545 331.133 319.619 331.245 319.659 331.371C319.699 331.496 319.703 331.63 319.671 331.757C319.639 331.885 319.572 332.001 319.478 332.093L318.063 333.487C317.98 333.565 317.917 333.664 317.881 333.772C317.845 333.881 317.836 333.997 317.855 334.111L318.188 336.076C318.213 336.208 318.2 336.345 318.15 336.47C318.1 336.595 318.016 336.703 317.906 336.782C317.797 336.86 317.668 336.906 317.534 336.914C317.399 336.921 317.265 336.891 317.148 336.825L315.39 335.899C315.29 335.843 315.178 335.813 315.063 335.813C314.948 335.813 314.835 335.843 314.735 335.899L312.967 336.825C312.849 336.886 312.717 336.914 312.584 336.904C312.452 336.894 312.324 336.848 312.217 336.771C312.109 336.693 312.025 336.587 311.974 336.464C311.922 336.342 311.906 336.207 311.927 336.076L312.27 334.111C312.287 333.997 312.277 333.882 312.241 333.774C312.205 333.665 312.144 333.567 312.062 333.487L310.638 332.093C310.543 332.001 310.476 331.884 310.445 331.755C310.413 331.627 310.418 331.492 310.459 331.367C310.501 331.241 310.576 331.129 310.678 331.045C310.779 330.96 310.902 330.905 311.033 330.886L312.998 330.595C313.113 330.579 313.222 330.536 313.316 330.469C313.41 330.402 313.487 330.313 313.539 330.211L314.413 328.432C314.471 328.308 314.562 328.204 314.678 328.131C314.793 328.057 314.926 328.019 315.063 328.019C315.199 328.019 315.333 328.057 315.448 328.131C315.563 328.204 315.655 328.308 315.713 328.432Z" fill="#E6E6E6"/>
<path d="M303.098 35.2873L303.628 36.3273C303.658 36.3879 303.701 36.4403 303.756 36.4802C303.81 36.5201 303.873 36.5461 303.94 36.5561L305.115 36.7225C305.194 36.7334 305.269 36.7663 305.33 36.8175C305.391 36.8686 305.437 36.936 305.462 37.0118C305.487 37.0877 305.49 37.1691 305.471 37.2466C305.452 37.3242 305.412 37.3948 305.354 37.4505L304.502 38.2825C304.453 38.3308 304.418 38.3901 304.398 38.4554C304.378 38.5207 304.374 38.5899 304.387 38.6569L304.585 39.8217C304.601 39.9002 304.595 39.9819 304.566 40.0568C304.538 40.1318 304.488 40.1968 304.423 40.2441C304.358 40.2913 304.281 40.3188 304.201 40.3232C304.121 40.3276 304.041 40.3088 303.971 40.2689L302.931 39.7177C302.87 39.6867 302.802 39.6705 302.734 39.6705C302.665 39.6705 302.597 39.6867 302.536 39.7177L301.496 40.2689C301.426 40.3044 301.347 40.3198 301.269 40.3134C301.191 40.3071 301.116 40.2793 301.052 40.233C300.989 40.1868 300.94 40.1239 300.91 40.0513C300.88 39.9787 300.87 39.8993 300.882 39.8217L301.09 38.6569C301.1 38.5891 301.093 38.5201 301.072 38.4552C301.05 38.3903 301.014 38.3312 300.966 38.2825L300.113 37.4505C300.056 37.3948 300.015 37.3242 299.996 37.2466C299.977 37.1691 299.98 37.0877 300.005 37.0118C300.03 36.936 300.076 36.8686 300.137 36.8175C300.198 36.7663 300.273 36.7334 300.352 36.7225L301.527 36.5561C301.594 36.5461 301.657 36.5201 301.711 36.4802C301.766 36.4403 301.81 36.3879 301.839 36.3273L302.37 35.2873C302.408 35.2249 302.461 35.1734 302.525 35.1376C302.589 35.1018 302.661 35.083 302.734 35.083C302.807 35.083 302.879 35.1018 302.942 35.1376C303.006 35.1734 303.06 35.2249 303.098 35.2873Z" fill="#E6E6E6"/>
<path d="M118.165 219.232L118.695 220.272C118.725 220.333 118.769 220.385 118.823 220.425C118.877 220.465 118.941 220.491 119.007 220.501L120.182 220.678C120.262 220.686 120.337 220.717 120.399 220.767C120.461 220.817 120.507 220.884 120.532 220.96C120.558 221.035 120.56 221.117 120.541 221.194C120.521 221.271 120.48 221.341 120.422 221.395L119.569 222.227C119.52 222.276 119.485 222.335 119.465 222.4C119.445 222.466 119.441 222.535 119.454 222.602L119.652 223.777C119.664 223.854 119.655 223.934 119.625 224.006C119.595 224.079 119.545 224.142 119.482 224.188C119.419 224.234 119.344 224.262 119.265 224.269C119.187 224.275 119.108 224.26 119.038 224.224L117.998 223.673C117.939 223.637 117.87 223.618 117.801 223.618C117.731 223.618 117.663 223.637 117.603 223.673L116.563 224.224C116.493 224.262 116.413 224.28 116.333 224.275C116.253 224.27 116.176 224.243 116.111 224.196C116.046 224.149 115.995 224.085 115.965 224.011C115.934 223.937 115.926 223.856 115.939 223.777L116.147 222.602C116.156 222.534 116.15 222.465 116.128 222.4C116.107 222.335 116.07 222.276 116.022 222.227L115.17 221.395C115.111 221.341 115.07 221.271 115.05 221.194C115.031 221.117 115.034 221.035 115.059 220.96C115.084 220.884 115.13 220.817 115.193 220.767C115.255 220.717 115.33 220.686 115.409 220.678L116.584 220.501C116.651 220.491 116.714 220.465 116.768 220.425C116.823 220.385 116.866 220.333 116.896 220.272L117.426 219.232C117.462 219.165 117.515 219.108 117.58 219.068C117.645 219.029 117.719 219.008 117.796 219.008C117.872 219.008 117.947 219.029 118.012 219.068C118.077 219.108 118.13 219.165 118.165 219.232Z" fill="#F5F5F5"/>
<path d="M65.052 318.562L65.572 319.602C65.602 319.666 65.6471 319.721 65.7033 319.762C65.7595 319.804 65.8252 319.831 65.8944 319.842L67.0696 320.008C67.1479 320.02 67.2211 320.054 67.2811 320.106C67.3411 320.158 67.3854 320.226 67.4092 320.301C67.4329 320.377 67.4352 320.458 67.4156 320.534C67.396 320.611 67.3554 320.681 67.2984 320.736L66.456 321.568C66.405 321.615 66.3668 321.673 66.345 321.739C66.3232 321.804 66.3184 321.874 66.3312 321.942L66.56 323.128C66.5766 323.206 66.5702 323.288 66.5414 323.363C66.5127 323.438 66.4629 323.503 66.398 323.55C66.3332 323.598 66.256 323.625 66.1759 323.629C66.0958 323.634 66.0161 323.615 65.9464 323.575L64.9064 323.024C64.8452 322.993 64.7775 322.977 64.7088 322.977C64.6401 322.977 64.5724 322.993 64.5112 323.024L63.4712 323.575C63.4015 323.615 63.3218 323.634 63.2417 323.629C63.1616 323.625 63.0844 323.598 63.0196 323.55C62.9547 323.503 62.9049 323.438 62.8762 323.363C62.8474 323.288 62.841 323.206 62.8576 323.128L63.0552 321.963C63.068 321.895 63.0632 321.825 63.0414 321.76C63.0196 321.694 62.9814 321.635 62.9304 321.589L62.0776 320.757C62.0204 320.701 61.9799 320.63 61.9609 320.553C61.9418 320.475 61.945 320.394 61.9699 320.318C61.9948 320.242 62.0405 320.175 62.1019 320.124C62.1632 320.073 62.2377 320.04 62.3168 320.029L63.492 319.862C63.5607 319.85 63.6256 319.823 63.6815 319.781C63.7375 319.739 63.783 319.685 63.8144 319.623L64.3344 318.583C64.3729 318.524 64.4252 318.475 64.4867 318.441C64.5482 318.406 64.6172 318.387 64.6878 318.385C64.7583 318.383 64.8283 318.398 64.8917 318.429C64.9551 318.46 65.0101 318.506 65.052 318.562Z" fill="#F5F5F5"/>
<path d="M435.531 318.718L436.062 319.758C436.092 319.82 436.138 319.874 436.194 319.914C436.25 319.954 436.316 319.979 436.384 319.987L437.559 320.154C437.637 320.166 437.711 320.2 437.771 320.252C437.831 320.304 437.875 320.371 437.899 320.447C437.923 320.522 437.925 320.603 437.905 320.68C437.886 320.757 437.845 320.827 437.788 320.882L436.946 321.714C436.895 321.761 436.858 321.82 436.836 321.885C436.814 321.95 436.809 322.02 436.821 322.088L437.018 323.253C437.035 323.331 437.029 323.413 437 323.488C436.971 323.563 436.921 323.628 436.856 323.675C436.792 323.722 436.714 323.75 436.634 323.754C436.554 323.759 436.474 323.74 436.405 323.7L435.365 323.149C435.304 323.118 435.236 323.102 435.167 323.102C435.099 323.102 435.031 323.118 434.97 323.149L433.93 323.7C433.859 323.738 433.779 323.756 433.699 323.751C433.619 323.746 433.543 323.719 433.477 323.672C433.412 323.625 433.362 323.561 433.331 323.487C433.301 323.413 433.292 323.332 433.306 323.253L433.514 322.088C433.525 322.02 433.52 321.95 433.498 321.885C433.477 321.82 433.439 321.761 433.389 321.714L432.536 320.882C432.479 320.826 432.438 320.755 432.419 320.678C432.4 320.6 432.403 320.519 432.428 320.443C432.453 320.367 432.499 320.3 432.56 320.249C432.622 320.197 432.696 320.165 432.775 320.154L433.95 319.987C434.018 319.977 434.083 319.951 434.139 319.911C434.195 319.872 434.241 319.819 434.273 319.758L434.793 318.718C434.83 318.654 434.884 318.6 434.949 318.562C435.014 318.525 435.087 318.505 435.162 318.505C435.237 318.505 435.31 318.525 435.375 318.562C435.44 318.6 435.494 318.654 435.531 318.718Z" fill="#E6E6E6"/>
<path d="M178.87 68.7859C179.634 68.7859 180.253 68.1667 180.253 67.4027C180.253 66.6388 179.634 66.0195 178.87 66.0195C178.106 66.0195 177.486 66.6388 177.486 67.4027C177.486 68.1667 178.106 68.7859 178.87 68.7859Z" fill="#E6E6E6"/>
<path d="M322.587 84.3235C322.589 84.5975 322.51 84.8659 322.359 85.0947C322.208 85.3236 321.993 85.5025 321.741 85.6088C321.488 85.7151 321.21 85.7439 320.941 85.6917C320.672 85.6396 320.424 85.5087 320.23 85.3156C320.035 85.1226 319.902 84.8762 319.848 84.6076C319.794 84.339 319.821 84.0603 319.925 83.807C320.029 83.5536 320.207 83.337 320.434 83.1845C320.662 83.0321 320.93 82.9507 321.204 82.9507C321.569 82.9507 321.919 83.095 322.178 83.3521C322.437 83.6093 322.584 83.9584 322.587 84.3235Z" fill="#F5F5F5"/>
<path d="M171.787 194.127C172.551 194.127 173.17 193.507 173.17 192.744C173.17 191.98 172.551 191.36 171.787 191.36C171.023 191.36 170.404 191.98 170.404 192.744C170.404 193.507 171.023 194.127 171.787 194.127Z" fill="#F5F5F5"/>
<path d="M127.743 296.671C127.745 296.945 127.666 297.214 127.514 297.443C127.363 297.672 127.147 297.851 126.894 297.957C126.641 298.063 126.362 298.091 126.093 298.038C125.823 297.985 125.576 297.853 125.382 297.659C125.188 297.465 125.056 297.218 125.003 296.948C124.95 296.679 124.978 296.4 125.084 296.147C125.19 295.894 125.369 295.678 125.598 295.527C125.827 295.375 126.096 295.296 126.37 295.298C126.734 295.298 127.084 295.443 127.341 295.7C127.599 295.957 127.743 296.307 127.743 296.671Z" fill="#F5F5F5"/>
<path d="M416.343 214.927C417.107 214.927 417.726 214.307 417.726 213.543C417.726 212.779 417.107 212.16 416.343 212.16C415.579 212.16 414.96 212.779 414.96 213.543C414.96 214.307 415.579 214.927 416.343 214.927Z" fill="#E6E6E6"/>
<path d="M260 444.662C371.366 444.662 461.646 439.391 461.646 432.889C461.646 426.388 371.366 421.117 260 421.117C148.634 421.117 58.3544 426.388 58.3544 432.889C58.3544 439.391 148.634 444.662 260 444.662Z" fill="#F5F5F5"/>
<path d="M169.998 124.519C169.748 124.518 169.5 124.463 169.273 124.356C169.046 124.25 168.844 124.095 168.683 123.903C168.522 123.711 168.404 123.486 168.339 123.244C168.273 123.002 168.261 122.749 168.303 122.502L168.875 119.205C168.892 119.096 168.882 118.984 168.848 118.88C168.814 118.775 168.755 118.68 168.678 118.602L166.275 116.262C166.044 116.038 165.88 115.754 165.803 115.442C165.726 115.129 165.737 114.802 165.837 114.496C165.937 114.19 166.121 113.919 166.367 113.712C166.614 113.506 166.913 113.373 167.232 113.329L170.55 112.85C170.658 112.833 170.761 112.789 170.849 112.724C170.938 112.659 171.01 112.574 171.059 112.476L172.536 109.47C172.676 109.175 172.897 108.926 173.173 108.751C173.449 108.576 173.769 108.483 174.096 108.483C174.423 108.483 174.743 108.576 175.019 108.751C175.295 108.926 175.516 109.175 175.656 109.47L177.133 112.476C177.183 112.575 177.257 112.661 177.347 112.726C177.438 112.792 177.543 112.834 177.653 112.85L180.96 113.36C181.279 113.404 181.578 113.537 181.825 113.744C182.071 113.95 182.255 114.222 182.355 114.527C182.455 114.833 182.466 115.161 182.389 115.473C182.312 115.785 182.148 116.069 181.917 116.293L179.483 118.56C179.405 118.638 179.347 118.733 179.315 118.838C179.282 118.943 179.276 119.055 179.296 119.163L179.858 122.46C179.913 122.776 179.878 123.102 179.757 123.4C179.636 123.697 179.434 123.955 179.174 124.144C178.914 124.332 178.606 124.444 178.286 124.466C177.966 124.488 177.645 124.42 177.362 124.269L174.398 122.709C174.301 122.656 174.191 122.628 174.08 122.628C173.969 122.628 173.86 122.656 173.763 122.709L170.799 124.259C170.558 124.411 170.283 124.501 169.998 124.519ZM174.086 109.553C173.958 109.549 173.832 109.583 173.723 109.649C173.614 109.716 173.527 109.812 173.472 109.928L171.985 112.933C171.863 113.184 171.682 113.401 171.457 113.566C171.232 113.731 170.971 113.839 170.695 113.88L167.378 114.358C167.253 114.376 167.135 114.429 167.038 114.51C166.942 114.592 166.87 114.699 166.831 114.819C166.792 114.939 166.787 115.068 166.818 115.19C166.848 115.313 166.912 115.425 167.003 115.513L169.406 117.853C169.605 118.049 169.753 118.291 169.838 118.557C169.924 118.823 169.943 119.106 169.894 119.382L169.333 122.678C169.311 122.803 169.324 122.931 169.371 123.048C169.418 123.165 169.497 123.266 169.598 123.341C169.7 123.416 169.821 123.461 169.947 123.47C170.072 123.48 170.198 123.454 170.31 123.396L173.285 121.836C173.53 121.707 173.803 121.64 174.08 121.64C174.357 121.64 174.63 121.707 174.876 121.836L177.85 123.396C177.96 123.465 178.088 123.502 178.218 123.501C178.348 123.5 178.475 123.461 178.583 123.39C178.692 123.319 178.778 123.217 178.83 123.099C178.883 122.98 178.9 122.848 178.88 122.72L178.318 119.423C178.273 119.148 178.293 118.865 178.378 118.6C178.463 118.334 178.61 118.092 178.807 117.894L181.21 115.554C181.303 115.467 181.369 115.355 181.4 115.232C181.432 115.108 181.427 114.978 181.386 114.858C181.347 114.737 181.274 114.631 181.176 114.55C181.079 114.469 180.961 114.417 180.835 114.4L177.518 113.922C177.242 113.88 176.98 113.773 176.756 113.608C176.531 113.443 176.35 113.226 176.228 112.975L174.72 109.928C174.664 109.809 174.574 109.71 174.46 109.643C174.347 109.576 174.217 109.545 174.086 109.553Z" fill="#407BFF"/>
<path opacity="0.5" d="M169.998 124.519C169.748 124.518 169.5 124.463 169.273 124.356C169.046 124.25 168.844 124.095 168.683 123.903C168.522 123.711 168.404 123.486 168.339 123.244C168.273 123.002 168.261 122.749 168.303 122.502L168.875 119.205C168.892 119.096 168.882 118.984 168.848 118.88C168.814 118.775 168.755 118.68 168.678 118.602L166.275 116.262C166.044 116.038 165.88 115.754 165.803 115.442C165.726 115.129 165.737 114.802 165.837 114.496C165.937 114.19 166.121 113.919 166.367 113.712C166.614 113.506 166.913 113.373 167.232 113.329L170.55 112.85C170.658 112.833 170.761 112.789 170.849 112.724C170.938 112.659 171.01 112.574 171.059 112.476L172.536 109.47C172.676 109.175 172.897 108.926 173.173 108.751C173.449 108.576 173.769 108.483 174.096 108.483C174.423 108.483 174.743 108.576 175.019 108.751C175.295 108.926 175.516 109.175 175.656 109.47L177.133 112.476C177.183 112.575 177.257 112.661 177.347 112.726C177.438 112.792 177.543 112.834 177.653 112.85L180.96 113.36C181.279 113.404 181.578 113.537 181.825 113.744C182.071 113.95 182.255 114.222 182.355 114.527C182.455 114.833 182.466 115.161 182.389 115.473C182.312 115.785 182.148 116.069 181.917 116.293L179.483 118.56C179.405 118.638 179.347 118.733 179.315 118.838C179.282 118.943 179.276 119.055 179.296 119.163L179.858 122.46C179.913 122.776 179.878 123.102 179.757 123.4C179.636 123.697 179.434 123.955 179.174 124.144C178.914 124.332 178.606 124.444 178.286 124.466C177.966 124.488 177.645 124.42 177.362 124.269L174.398 122.709C174.301 122.656 174.191 122.628 174.08 122.628C173.969 122.628 173.86 122.656 173.763 122.709L170.799 124.259C170.558 124.411 170.283 124.501 169.998 124.519ZM174.086 109.553C173.958 109.549 173.832 109.583 173.723 109.649C173.614 109.716 173.527 109.812 173.472 109.928L171.985 112.933C171.863 113.184 171.682 113.401 171.457 113.566C171.232 113.731 170.971 113.839 170.695 113.88L167.378 114.358C167.253 114.376 167.135 114.429 167.038 114.51C166.942 114.592 166.87 114.699 166.831 114.819C166.792 114.939 166.787 115.068 166.818 115.19C166.848 115.313 166.912 115.425 167.003 115.513L169.406 117.853C169.605 118.049 169.753 118.291 169.838 118.557C169.924 118.823 169.943 119.106 169.894 119.382L169.333 122.678C169.311 122.803 169.324 122.931 169.371 123.048C169.418 123.165 169.497 123.266 169.598 123.341C169.7 123.416 169.821 123.461 169.947 123.47C170.072 123.48 170.198 123.454 170.31 123.396L173.285 121.836C173.53 121.707 173.803 121.64 174.08 121.64C174.357 121.64 174.63 121.707 174.876 121.836L177.85 123.396C177.96 123.465 178.088 123.502 178.218 123.501C178.348 123.5 178.475 123.461 178.583 123.39C178.692 123.319 178.778 123.217 178.83 123.099C178.883 122.98 178.9 122.848 178.88 122.72L178.318 119.423C178.273 119.148 178.293 118.865 178.378 118.6C178.463 118.334 178.61 118.092 178.807 117.894L181.21 115.554C181.303 115.467 181.369 115.355 181.4 115.232C181.432 115.108 181.427 114.978 181.386 114.858C181.347 114.737 181.274 114.631 181.176 114.55C181.079 114.469 180.961 114.417 180.835 114.4L177.518 113.922C177.242 113.88 176.98 113.773 176.756 113.608C176.531 113.443 176.35 113.226 176.228 112.975L174.72 109.928C174.664 109.809 174.574 109.71 174.46 109.643C174.347 109.576 174.217 109.545 174.086 109.553Z" fill="white"/>
<path d="M229.476 94.1094L229.778 100.526C229.789 100.894 229.89 101.254 230.071 101.575C230.252 101.895 230.508 102.167 230.818 102.367L236.267 105.757C236.63 105.984 236.922 106.308 237.111 106.693C237.299 107.077 237.377 107.506 237.335 107.932C237.293 108.358 237.132 108.764 236.872 109.103C236.612 109.443 236.262 109.703 235.862 109.855L229.861 112.122C229.513 112.251 229.202 112.464 228.955 112.741C228.709 113.019 228.534 113.353 228.446 113.713L226.907 119.953C226.805 120.37 226.589 120.75 226.283 121.05C225.976 121.351 225.592 121.559 225.173 121.652C224.754 121.745 224.318 121.719 223.913 121.577C223.508 121.435 223.151 121.182 222.882 120.848L218.868 115.835C218.638 115.542 218.339 115.311 217.998 115.162C217.657 115.013 217.284 114.951 216.913 114.982L210.517 115.44C210.091 115.468 209.666 115.378 209.288 115.178C208.911 114.978 208.597 114.677 208.381 114.309C208.165 113.941 208.056 113.52 208.066 113.093C208.076 112.667 208.204 112.251 208.437 111.893L211.962 106.527C212.161 106.222 212.284 105.874 212.32 105.512C212.357 105.15 212.305 104.785 212.17 104.447L209.758 98.4982C209.587 98.1003 209.533 97.6624 209.6 97.2349C209.668 96.8075 209.855 96.4077 210.139 96.0818C210.424 95.7558 210.795 95.5168 211.209 95.3923C211.624 95.2679 212.065 95.263 212.482 95.3782L218.67 97.0734C219.028 97.1706 219.404 97.1797 219.767 97.1C220.129 97.0203 220.466 96.8542 220.75 96.6158L225.659 92.4558C225.986 92.1674 226.389 91.9781 226.82 91.91C227.251 91.8419 227.692 91.8978 228.092 92.0713C228.493 92.2447 228.835 92.5284 229.08 92.8893C229.325 93.2502 229.463 93.6734 229.476 94.1094Z" fill="#407BFF"/>
<path opacity="0.2" d="M229.476 94.1094L229.778 100.526C229.789 100.894 229.89 101.254 230.071 101.575C230.252 101.895 230.508 102.167 230.818 102.367L236.267 105.757C236.63 105.984 236.922 106.308 237.111 106.693C237.299 107.077 237.377 107.506 237.335 107.932C237.293 108.358 237.132 108.764 236.872 109.103C236.612 109.443 236.262 109.703 235.862 109.855L229.861 112.122C229.513 112.251 229.202 112.464 228.955 112.741C228.709 113.019 228.534 113.353 228.446 113.713L226.907 119.953C226.805 120.37 226.589 120.75 226.283 121.05C225.976 121.351 225.592 121.559 225.173 121.652C224.754 121.745 224.318 121.719 223.913 121.577C223.508 121.435 223.151 121.182 222.882 120.848L218.868 115.835C218.638 115.542 218.339 115.311 217.998 115.162C217.657 115.013 217.284 114.951 216.913 114.982L210.517 115.44C210.091 115.468 209.666 115.378 209.288 115.178C208.911 114.978 208.597 114.677 208.381 114.309C208.165 113.941 208.056 113.52 208.066 113.093C208.076 112.667 208.204 112.251 208.437 111.893L211.962 106.527C212.161 106.222 212.284 105.874 212.32 105.512C212.357 105.15 212.305 104.785 212.17 104.447L209.758 98.4982C209.587 98.1003 209.533 97.6624 209.6 97.2349C209.668 96.8075 209.855 96.4077 210.139 96.0818C210.424 95.7558 210.795 95.5168 211.209 95.3923C211.624 95.2679 212.065 95.263 212.482 95.3782L218.67 97.0734C219.028 97.1706 219.404 97.1797 219.767 97.1C220.129 97.0203 220.466 96.8542 220.75 96.6158L225.659 92.4558C225.986 92.1674 226.389 91.9781 226.82 91.91C227.251 91.8419 227.692 91.8978 228.092 92.0713C228.493 92.2447 228.835 92.5284 229.08 92.8893C229.325 93.2502 229.463 93.6734 229.476 94.1094Z" fill="black"/>
<path d="M362.055 204.755C361.67 204.75 361.29 204.667 360.938 204.511C360.586 204.355 360.269 204.129 360.006 203.848C359.744 203.566 359.541 203.234 359.411 202.871C359.28 202.509 359.225 202.124 359.247 201.739L359.684 195.333C359.704 195.046 359.654 194.759 359.538 194.496C359.422 194.234 359.243 194.003 359.018 193.825L353.995 189.831C353.583 189.506 353.271 189.072 353.092 188.579C352.913 188.086 352.876 187.552 352.984 187.039C353.092 186.525 353.342 186.052 353.704 185.673C354.066 185.294 354.527 185.023 355.035 184.891L361.275 183.331C361.555 183.264 361.815 183.129 362.029 182.936C362.243 182.743 362.406 182.5 362.502 182.229L364.749 176.218C364.933 175.726 365.252 175.296 365.667 174.976C366.083 174.656 366.58 174.458 367.102 174.406C367.625 174.353 368.151 174.446 368.623 174.677C369.094 174.907 369.492 175.264 369.772 175.708L373.183 181.147C373.334 181.392 373.543 181.596 373.792 181.741C374.04 181.886 374.321 181.968 374.608 181.979L381.025 182.26C381.552 182.277 382.065 182.441 382.503 182.734C382.942 183.028 383.29 183.438 383.506 183.919C383.723 184.401 383.8 184.933 383.729 185.456C383.658 185.979 383.442 186.472 383.105 186.878L378.945 191.797C378.75 192.017 378.612 192.283 378.545 192.57C378.478 192.857 378.483 193.156 378.56 193.44L380.276 199.628C380.419 200.133 380.416 200.668 380.269 201.172C380.122 201.676 379.836 202.129 379.444 202.478C379.052 202.828 378.57 203.063 378.052 203.155C377.534 203.247 377 203.192 376.511 202.998L370.562 200.595C370.295 200.488 370.007 200.447 369.72 200.476C369.434 200.505 369.159 200.603 368.919 200.762L363.574 204.308C363.12 204.597 362.593 204.752 362.055 204.755ZM367.411 175.427H367.224C366.893 175.455 366.576 175.578 366.313 175.781C366.049 175.984 365.849 176.258 365.737 176.571L363.49 182.582C363.334 183.012 363.073 183.396 362.732 183.701C362.391 184.006 361.98 184.222 361.535 184.33L355.295 185.89C354.973 185.97 354.679 186.139 354.447 186.377C354.216 186.616 354.056 186.914 353.985 187.239C353.915 187.564 353.937 187.902 354.049 188.215C354.161 188.528 354.359 188.803 354.619 189.01L359.642 193.003C359.997 193.287 360.277 193.654 360.458 194.071C360.639 194.487 360.716 194.942 360.682 195.395L360.246 201.802C360.218 202.132 360.286 202.463 360.441 202.756C360.596 203.049 360.831 203.292 361.119 203.455C361.4 203.63 361.724 203.723 362.055 203.723C362.386 203.723 362.71 203.63 362.991 203.455L368.347 199.909C368.727 199.657 369.161 199.501 369.614 199.454C370.067 199.407 370.524 199.47 370.947 199.638L376.906 202.041C377.21 202.158 377.539 202.191 377.859 202.134C378.18 202.078 378.478 201.934 378.723 201.72C378.967 201.505 379.148 201.228 379.246 200.918C379.344 200.608 379.355 200.277 379.278 199.961L377.562 193.773C377.439 193.334 377.425 192.871 377.521 192.425C377.617 191.98 377.82 191.564 378.113 191.214L382.273 186.295C382.483 186.039 382.618 185.73 382.663 185.402C382.708 185.074 382.661 184.74 382.528 184.437C382.394 184.134 382.179 183.874 381.906 183.686C381.633 183.498 381.314 183.39 380.983 183.373L374.577 183.102C374.12 183.082 373.676 182.951 373.281 182.721C372.886 182.491 372.553 182.168 372.31 181.782L368.909 176.342C368.762 176.071 368.546 175.844 368.283 175.683C368.02 175.522 367.719 175.434 367.411 175.427Z" fill="#407BFF"/>
<path opacity="0.5" d="M362.055 204.755C361.67 204.75 361.29 204.667 360.938 204.511C360.586 204.355 360.269 204.129 360.006 203.848C359.744 203.566 359.541 203.234 359.411 202.871C359.28 202.509 359.225 202.124 359.247 201.739L359.684 195.333C359.704 195.046 359.654 194.759 359.538 194.496C359.422 194.234 359.243 194.003 359.018 193.825L353.995 189.831C353.583 189.506 353.271 189.072 353.092 188.579C352.913 188.086 352.876 187.552 352.984 187.039C353.092 186.525 353.342 186.052 353.704 185.673C354.066 185.294 354.527 185.023 355.035 184.891L361.275 183.331C361.555 183.264 361.815 183.129 362.029 182.936C362.243 182.743 362.406 182.5 362.502 182.229L364.749 176.218C364.933 175.726 365.252 175.296 365.667 174.976C366.083 174.656 366.58 174.458 367.102 174.406C367.625 174.353 368.151 174.446 368.623 174.677C369.094 174.907 369.492 175.264 369.772 175.708L373.183 181.147C373.334 181.392 373.543 181.596 373.792 181.741C374.04 181.886 374.321 181.968 374.608 181.979L381.025 182.26C381.552 182.277 382.065 182.441 382.503 182.734C382.942 183.028 383.29 183.438 383.506 183.919C383.723 184.401 383.8 184.933 383.729 185.456C383.658 185.979 383.442 186.472 383.105 186.878L378.945 191.797C378.75 192.017 378.612 192.283 378.545 192.57C378.478 192.857 378.483 193.156 378.56 193.44L380.276 199.628C380.419 200.133 380.416 200.668 380.269 201.172C380.122 201.676 379.836 202.129 379.444 202.478C379.052 202.828 378.57 203.063 378.052 203.155C377.534 203.247 377 203.192 376.511 202.998L370.562 200.595C370.295 200.488 370.007 200.447 369.72 200.476C369.434 200.505 369.159 200.603 368.919 200.762L363.574 204.308C363.12 204.597 362.593 204.752 362.055 204.755ZM367.411 175.427H367.224C366.893 175.455 366.576 175.578 366.313 175.781C366.049 175.984 365.849 176.258 365.737 176.571L363.49 182.582C363.334 183.012 363.073 183.396 362.732 183.701C362.391 184.006 361.98 184.222 361.535 184.33L355.295 185.89C354.973 185.97 354.679 186.139 354.447 186.377C354.216 186.616 354.056 186.914 353.985 187.239C353.915 187.564 353.937 187.902 354.049 188.215C354.161 188.528 354.359 188.803 354.619 189.01L359.642 193.003C359.997 193.287 360.277 193.654 360.458 194.071C360.639 194.487 360.716 194.942 360.682 195.395L360.246 201.802C360.218 202.132 360.286 202.463 360.441 202.756C360.596 203.049 360.831 203.292 361.119 203.455C361.4 203.63 361.724 203.723 362.055 203.723C362.386 203.723 362.71 203.63 362.991 203.455L368.347 199.909C368.727 199.657 369.161 199.501 369.614 199.454C370.067 199.407 370.524 199.47 370.947 199.638L376.906 202.041C377.21 202.158 377.539 202.191 377.859 202.134C378.18 202.078 378.478 201.934 378.723 201.72C378.967 201.505 379.148 201.228 379.246 200.918C379.344 200.608 379.355 200.277 379.278 199.961L377.562 193.773C377.439 193.334 377.425 192.871 377.521 192.425C377.617 191.98 377.82 191.564 378.113 191.214L382.273 186.295C382.483 186.039 382.618 185.73 382.663 185.402C382.708 185.074 382.661 184.74 382.528 184.437C382.394 184.134 382.179 183.874 381.906 183.686C381.633 183.498 381.314 183.39 380.983 183.373L374.577 183.102C374.12 183.082 373.676 182.951 373.281 182.721C372.886 182.491 372.553 182.168 372.31 181.782L368.909 176.342C368.762 176.071 368.546 175.844 368.283 175.683C368.02 175.522 367.719 175.434 367.411 175.427Z" fill="white"/>
<path d="M366.902 247.062L366.049 250.265C366.003 250.446 366.002 250.635 366.046 250.816C366.089 250.997 366.176 251.165 366.298 251.305L368.451 253.822C368.595 253.991 368.689 254.196 368.723 254.415C368.756 254.634 368.727 254.859 368.639 255.062C368.552 255.266 368.409 255.441 368.226 255.567C368.044 255.694 367.83 255.766 367.609 255.777L364.302 255.954C364.11 255.967 363.924 256.026 363.759 256.125C363.594 256.225 363.456 256.362 363.355 256.526L361.629 259.355C361.508 259.53 361.342 259.67 361.149 259.76C360.956 259.85 360.743 259.887 360.531 259.867C360.319 259.847 360.116 259.77 359.943 259.646C359.771 259.521 359.634 259.352 359.549 259.157L358.363 256.037C358.292 255.859 358.179 255.7 358.035 255.573C357.89 255.447 357.718 255.356 357.531 255.309L354.307 254.54C354.09 254.49 353.891 254.38 353.734 254.223C353.576 254.065 353.466 253.867 353.416 253.65C353.366 253.433 353.378 253.206 353.451 252.995C353.524 252.785 353.655 252.599 353.829 252.46L356.408 250.38C356.56 250.255 356.678 250.095 356.752 249.913C356.827 249.732 356.855 249.535 356.834 249.34L356.574 246.033C356.567 245.817 356.619 245.604 356.724 245.415C356.829 245.227 356.984 245.071 357.171 244.964C357.358 244.857 357.571 244.803 357.787 244.808C358.002 244.813 358.212 244.877 358.394 244.993L361.182 246.792C361.344 246.895 361.529 246.958 361.72 246.976C361.912 246.994 362.105 246.967 362.284 246.896L365.342 245.617C365.548 245.542 365.771 245.525 365.987 245.569C366.202 245.612 366.401 245.714 366.562 245.864C366.724 246.013 366.841 246.204 366.9 246.415C366.96 246.627 366.961 246.85 366.902 247.062Z" fill="#407BFF"/>
<path opacity="0.2" d="M366.902 247.062L366.049 250.265C366.003 250.446 366.002 250.635 366.046 250.816C366.089 250.997 366.176 251.165 366.298 251.305L368.451 253.822C368.595 253.991 368.689 254.196 368.723 254.415C368.756 254.634 368.727 254.859 368.639 255.062C368.552 255.266 368.409 255.441 368.226 255.567C368.044 255.694 367.83 255.766 367.609 255.777L364.302 255.954C364.11 255.967 363.924 256.026 363.759 256.125C363.594 256.225 363.456 256.362 363.355 256.526L361.629 259.355C361.508 259.53 361.342 259.67 361.149 259.76C360.956 259.85 360.743 259.887 360.531 259.867C360.319 259.847 360.116 259.77 359.943 259.646C359.771 259.521 359.634 259.352 359.549 259.157L358.363 256.037C358.292 255.859 358.179 255.7 358.035 255.573C357.89 255.447 357.718 255.356 357.531 255.309L354.307 254.54C354.09 254.49 353.891 254.38 353.734 254.223C353.576 254.065 353.466 253.867 353.416 253.65C353.366 253.433 353.378 253.206 353.451 252.995C353.524 252.785 353.655 252.599 353.829 252.46L356.408 250.38C356.56 250.255 356.678 250.095 356.752 249.913C356.827 249.732 356.855 249.535 356.834 249.34L356.574 246.033C356.567 245.817 356.619 245.604 356.724 245.415C356.829 245.227 356.984 245.071 357.171 244.964C357.358 244.857 357.571 244.803 357.787 244.808C358.002 244.813 358.212 244.877 358.394 244.993L361.182 246.792C361.344 246.895 361.529 246.958 361.72 246.976C361.912 246.994 362.105 246.967 362.284 246.896L365.342 245.617C365.548 245.542 365.771 245.525 365.987 245.569C366.202 245.612 366.401 245.714 366.562 245.864C366.724 246.013 366.841 246.204 366.9 246.415C366.96 246.627 366.961 246.85 366.902 247.062Z" fill="black"/>
<path d="M172.838 251.254L172.255 253.427C172.224 253.553 172.223 253.685 172.252 253.811C172.281 253.937 172.339 254.055 172.422 254.155L173.888 255.84C173.985 255.955 174.047 256.095 174.069 256.243C174.091 256.392 174.071 256.544 174.012 256.682C173.953 256.82 173.856 256.939 173.733 257.025C173.61 257.111 173.466 257.162 173.316 257.171L171.07 257.296C170.94 257.302 170.814 257.341 170.704 257.408C170.593 257.475 170.501 257.569 170.435 257.681L169.26 259.594C169.183 259.723 169.071 259.828 168.937 259.896C168.803 259.965 168.653 259.994 168.503 259.981C168.354 259.968 168.211 259.913 168.091 259.823C167.971 259.732 167.879 259.61 167.825 259.47L167.014 257.39C166.968 257.267 166.893 257.157 166.795 257.07C166.697 256.983 166.579 256.921 166.452 256.89L164.268 256.37C164.122 256.337 163.988 256.262 163.881 256.156C163.775 256.05 163.701 255.916 163.667 255.769C163.634 255.623 163.642 255.47 163.691 255.328C163.74 255.186 163.829 255.061 163.946 254.966L165.682 253.552C165.785 253.471 165.866 253.366 165.918 253.246C165.971 253.127 165.994 252.996 165.984 252.866L165.797 250.619C165.786 250.469 165.818 250.319 165.888 250.186C165.958 250.053 166.064 249.942 166.193 249.865C166.322 249.788 166.471 249.749 166.621 249.752C166.772 249.755 166.918 249.799 167.045 249.881L168.927 251.098C169.037 251.17 169.162 251.215 169.293 251.227C169.423 251.24 169.555 251.221 169.676 251.17L171.756 250.307C171.894 250.25 172.046 250.232 172.193 250.256C172.341 250.28 172.479 250.345 172.591 250.444C172.704 250.542 172.787 250.67 172.83 250.813C172.874 250.957 172.876 251.109 172.838 251.254Z" fill="#407BFF"/>
<path opacity="0.2" d="M172.838 251.254L172.255 253.427C172.224 253.553 172.223 253.685 172.252 253.811C172.281 253.937 172.339 254.055 172.422 254.155L173.888 255.84C173.985 255.955 174.047 256.095 174.069 256.243C174.091 256.392 174.071 256.544 174.012 256.682C173.953 256.82 173.856 256.939 173.733 257.025C173.61 257.111 173.466 257.162 173.316 257.171L171.07 257.296C170.94 257.302 170.814 257.341 170.704 257.408C170.593 257.475 170.501 257.569 170.435 257.681L169.26 259.594C169.183 259.723 169.071 259.828 168.937 259.896C168.803 259.965 168.653 259.994 168.503 259.981C168.354 259.968 168.211 259.913 168.091 259.823C167.971 259.732 167.879 259.61 167.825 259.47L167.014 257.39C166.968 257.267 166.893 257.157 166.795 257.07C166.697 256.983 166.579 256.921 166.452 256.89L164.268 256.37C164.122 256.337 163.988 256.262 163.881 256.156C163.775 256.05 163.701 255.916 163.667 255.769C163.634 255.623 163.642 255.47 163.691 255.328C163.74 255.186 163.829 255.061 163.946 254.966L165.682 253.552C165.785 253.471 165.866 253.366 165.918 253.246C165.971 253.127 165.994 252.996 165.984 252.866L165.797 250.619C165.786 250.469 165.818 250.319 165.888 250.186C165.958 250.053 166.064 249.942 166.193 249.865C166.322 249.788 166.471 249.749 166.621 249.752C166.772 249.755 166.918 249.799 167.045 249.881L168.927 251.098C169.037 251.17 169.162 251.215 169.293 251.227C169.423 251.24 169.555 251.221 169.676 251.17L171.756 250.307C171.894 250.25 172.046 250.232 172.193 250.256C172.341 250.28 172.479 250.345 172.591 250.444C172.704 250.542 172.787 250.67 172.83 250.813C172.874 250.957 172.876 251.109 172.838 251.254Z" fill="black"/>
<path d="M369.054 298.698C342.961 298.698 315.401 288.028 298.168 269.797C280.779 251.389 276.12 228.114 285.054 204.277L288.943 205.733C280.623 228.02 284.95 249.756 301.194 266.947C323.128 290.16 362.554 300.55 392.87 291.106C426.442 280.706 439.462 255.934 452.057 232.014C466.159 205.223 479.44 179.92 520 179.92V184.08C481.998 184.08 469.83 207.189 455.738 233.948C443.352 257.462 429.322 284.118 394.108 295.069C385.987 297.532 377.541 298.756 369.054 298.698Z" fill="#407BFF"/>
<path opacity="0.5" d="M369.054 298.698C342.961 298.698 315.401 288.028 298.168 269.797C280.779 251.389 276.12 228.114 285.054 204.277L288.943 205.733C280.623 228.02 284.95 249.756 301.194 266.947C323.128 290.16 362.554 300.55 392.87 291.106C426.442 280.706 439.462 255.934 452.057 232.014C466.159 205.223 479.44 179.92 520 179.92V184.08C481.998 184.08 469.83 207.189 455.738 233.948C443.352 257.462 429.322 284.118 394.108 295.069C385.987 297.532 377.541 298.756 369.054 298.698Z" fill="white"/>
<path d="M277.888 176.249L276.484 176.8L275.184 177.289L272.584 178.173C270.847 178.745 269.1 179.213 267.384 179.722C263.798 180.675 260.158 181.415 256.485 181.938C252.565 182.517 248.599 182.733 244.639 182.582C242.411 182.472 240.195 182.18 238.014 181.709C235.797 181.208 233.629 180.512 231.535 179.629C223.413 176.041 217.568 170.373 212.95 164.455C210.686 161.502 208.662 158.372 206.898 155.095C206.034 153.473 205.213 151.861 204.474 150.197C204.1 149.365 203.746 148.522 203.434 147.68C203.122 146.838 202.81 146.006 202.446 144.997L211.682 140.431L213.086 142.199C213.585 142.813 214.074 143.426 214.594 144.03C215.634 145.246 216.674 146.442 217.714 147.597C219.768 149.884 221.952 152.051 224.255 154.086C226.404 156.019 228.718 157.759 231.171 159.286C232.301 159.982 233.468 160.618 234.666 161.19C235.783 161.695 236.937 162.116 238.118 162.448C240.28 163.101 242.553 163.299 244.795 163.03C247.575 162.815 250.335 162.394 253.053 161.772C255.944 161.148 258.908 160.378 261.862 159.505C263.349 159.099 264.826 158.631 266.302 158.174L268.902 157.227L277.888 176.249Z" fill="#407BFF"/>
<path opacity="0.6" d="M277.888 176.249L276.484 176.8L275.184 177.289L272.584 178.173C270.847 178.745 269.1 179.213 267.384 179.722C263.798 180.675 260.158 181.415 256.485 181.938C252.565 182.517 248.599 182.733 244.639 182.582C242.411 182.472 240.195 182.18 238.014 181.709C235.797 181.208 233.629 180.512 231.535 179.629C223.413 176.041 217.568 170.373 212.95 164.455C210.686 161.502 208.662 158.372 206.898 155.095C206.034 153.473 205.213 151.861 204.474 150.197C204.1 149.365 203.746 148.522 203.434 147.68C203.122 146.838 202.81 146.006 202.446 144.997L211.682 140.431L213.086 142.199C213.585 142.813 214.074 143.426 214.594 144.03C215.634 145.246 216.674 146.442 217.714 147.597C219.768 149.884 221.952 152.051 224.255 154.086C226.404 156.019 228.718 157.759 231.171 159.286C232.301 159.982 233.468 160.618 234.666 161.19C235.783 161.695 236.937 162.116 238.118 162.448C240.28 163.101 242.553 163.299 244.795 163.03C247.575 162.815 250.335 162.394 253.053 161.772C255.944 161.148 258.908 160.378 261.862 159.505C263.349 159.099 264.826 158.631 266.302 158.174L268.902 157.227L277.888 176.249Z" fill="white"/>
<path d="M268.798 157.227C268.798 157.227 250.307 175.396 243.36 220.105L287.706 237.619C290.368 231.743 297.066 201.718 314.746 176.082C310.551 172.776 305.994 169.957 301.163 167.679C295.007 164.882 288.714 162.396 282.308 160.233C277.879 158.923 273.365 157.919 268.798 157.227Z" fill="#407BFF"/>
<path opacity="0.6" d="M268.798 157.227C268.798 157.227 250.307 175.396 243.36 220.105L287.706 237.619C290.368 231.743 297.066 201.718 314.746 176.082C310.551 172.776 305.994 169.957 301.163 167.679C295.007 164.882 288.714 162.396 282.308 160.233C277.879 158.923 273.365 157.919 268.798 157.227Z" fill="white"/>
<path d="M304.377 147.337C301.257 152.267 296.306 161.627 298.636 166.671C298.636 166.671 297.357 168.886 288.34 165.298C280.977 162.365 282.048 160.098 282.048 160.098C288.558 161.023 290.15 156.551 290.753 151.986L304.377 147.337Z" fill="#FFCEB0"/>
<path d="M298.823 149.25L290.763 152.007C290.632 153.063 290.412 154.106 290.108 155.127C292.51 155.688 296.618 154.43 297.804 152.142C298.313 151.246 298.658 150.267 298.823 149.25Z" fill="#EB996E"/>
<path d="M299.52 121.68C295.36 121.077 287.04 130.541 289.931 135.2C292.822 139.859 307.372 122.865 299.52 121.68Z" fill="#263238"/>
<path d="M308.412 141.638C303.555 147.732 301.028 151.538 295.526 152.547C287.206 154.076 281.434 145.652 284.367 138.237C287.009 131.56 294.507 122.72 302.515 124.561C304.281 124.958 305.917 125.799 307.266 127.006C308.615 128.213 309.634 129.744 310.225 131.455C310.815 133.166 310.959 135 310.642 136.782C310.325 138.564 309.557 140.236 308.412 141.638Z" fill="#FFCEB0"/>
<path d="M303.597 147.566C299.27 146.588 302.026 130.219 313.206 133.235C326.747 136.885 310.596 149.136 303.597 147.566Z" fill="#263238"/>
<path d="M313.529 137.519C308.329 135.595 294.07 128.326 296.681 119.538C297.96 115.263 306.124 115.939 311.792 118.966C302.588 119.298 307.206 123.677 313.227 125.57C323.024 128.648 320.486 140.119 313.529 137.519Z" fill="#263238"/>
<path d="M314.87 135.304C314.87 135.304 320.403 134.576 319.249 139.599C318.946 138.569 318.385 137.634 317.618 136.882C316.852 136.13 315.906 135.587 314.87 135.304Z" fill="#263238"/>
<path d="M315.12 134.847C315.12 134.847 318.5 139.277 321.256 134.93C320.311 135.439 319.251 135.699 318.177 135.684C317.104 135.669 316.051 135.381 315.12 134.847Z" fill="#263238"/>
<path d="M306.363 150.665C305.468 151.036 304.509 151.227 303.54 151.227C302.571 151.227 301.611 151.036 300.716 150.665C298.314 149.625 298.719 147.139 300.716 145.714C302.526 144.435 305.916 143.416 307.705 145.236C309.494 147.056 308.568 149.76 306.363 150.665Z" fill="#FFCEB0"/>
<path d="M243.36 220.105C243.36 220.105 208.541 246.324 197.683 267.654C186.42 289.858 175.812 334.88 175.812 334.88L192.317 340.87C192.317 340.87 206.118 302.65 218.66 281.663C232.336 258.783 254.998 253.531 272.542 231.577L243.36 220.105Z" fill="#407BFF"/>
<path opacity="0.6" d="M243.36 220.105C243.36 220.105 208.541 246.324 197.683 267.654C186.42 289.858 175.812 334.88 175.812 334.88L192.317 340.87C192.317 340.87 206.118 302.65 218.66 281.663C232.336 258.783 254.998 253.531 272.542 231.577L243.36 220.105Z" fill="white"/>
<path d="M259.126 226.314C259.126 226.314 236.246 263.609 233.126 286.541C229.746 311.646 237.775 358.883 237.775 358.883L254.207 354.942C254.207 354.942 250.276 320.694 255.996 296.764C262.236 270.764 280.478 255.902 287.706 237.619L259.126 226.314Z" fill="#407BFF"/>
<path opacity="0.6" d="M259.126 226.314C259.126 226.314 236.246 263.609 233.126 286.541C229.746 311.646 237.775 358.883 237.775 358.883L254.207 354.942C254.207 354.942 250.276 320.694 255.996 296.764C262.236 270.764 280.478 255.902 287.706 237.619L259.126 226.314Z" fill="white"/>
<path d="M297.513 136.646C297.149 137.166 296.577 137.395 296.244 137.155C295.911 136.916 295.922 136.313 296.244 135.793C296.566 135.273 297.18 135.044 297.513 135.283C297.846 135.523 297.877 136.136 297.513 136.646Z" fill="#263238"/>
<path d="M291.658 132.538C291.294 133.058 290.722 133.287 290.389 133.047C290.056 132.808 290.066 132.205 290.389 131.685C290.711 131.165 291.325 130.936 291.658 131.175C291.99 131.415 292.022 132.08 291.658 132.538Z" fill="#263238"/>
<path d="M293.342 134.16C291.613 135.31 289.734 136.217 287.758 136.854C288.07 138.351 289.9 139.059 289.9 139.059L293.342 134.16Z" fill="#F48F8B"/>
<path d="M293.623 142.542C292.47 142.54 291.346 142.176 290.41 141.502C290.387 141.489 290.367 141.471 290.352 141.45C290.336 141.429 290.325 141.405 290.32 141.379C290.314 141.354 290.314 141.327 290.32 141.301C290.325 141.276 290.336 141.251 290.351 141.23C290.367 141.209 290.386 141.191 290.409 141.178C290.432 141.165 290.457 141.157 290.483 141.154C290.509 141.151 290.536 141.154 290.561 141.162C290.585 141.17 290.608 141.183 290.628 141.201C291.263 141.667 291.998 141.977 292.776 142.105C293.553 142.234 294.349 142.177 295.1 141.939C295.146 141.924 295.195 141.927 295.239 141.946C295.283 141.965 295.319 142 295.339 142.043C295.356 142.089 295.355 142.139 295.336 142.184C295.316 142.228 295.28 142.264 295.235 142.282C294.718 142.466 294.172 142.554 293.623 142.542Z" fill="#263238"/>
<path d="M300.82 136.063C300.724 136.064 300.632 136.027 300.562 135.961C300.493 135.895 300.451 135.805 300.446 135.71C300.442 135.243 300.328 134.784 300.113 134.37C299.898 133.956 299.588 133.599 299.208 133.328C299.122 133.277 299.061 133.194 299.036 133.098C299.012 133.001 299.027 132.899 299.078 132.813C299.129 132.728 299.212 132.666 299.308 132.642C299.405 132.617 299.507 132.632 299.593 132.683C300.077 133.02 300.474 133.468 300.75 133.989C301.027 134.51 301.176 135.089 301.184 135.679C301.188 135.728 301.182 135.777 301.167 135.824C301.151 135.87 301.125 135.913 301.092 135.949C301.059 135.985 301.018 136.014 300.973 136.034C300.928 136.054 300.88 136.064 300.83 136.063H300.82Z" fill="#263238"/>
<path d="M290.722 128.804C290.654 128.803 290.587 128.785 290.529 128.75C290.47 128.715 290.422 128.666 290.389 128.606C290.344 128.521 290.334 128.421 290.361 128.327C290.388 128.234 290.45 128.155 290.534 128.107C291.044 127.809 291.617 127.636 292.207 127.603C292.797 127.571 293.386 127.679 293.925 127.92C293.969 127.943 294.008 127.974 294.039 128.013C294.071 128.051 294.095 128.095 294.109 128.142C294.124 128.19 294.129 128.239 294.124 128.289C294.119 128.338 294.104 128.386 294.081 128.43C294.034 128.516 293.956 128.58 293.863 128.609C293.77 128.638 293.669 128.63 293.582 128.586C293.153 128.398 292.686 128.316 292.22 128.345C291.753 128.373 291.3 128.513 290.898 128.752C290.845 128.785 290.784 128.803 290.722 128.804Z" fill="#263238"/>
<path d="M314.787 176.083L315.474 176.759L316.254 177.799L317.741 179.879C318.687 181.272 319.613 182.676 320.486 184.111C321.36 185.547 322.202 187.013 323.014 188.511C323.825 190.008 324.574 191.527 325.312 193.076C326.807 196.253 328.079 199.53 329.118 202.883C329.389 203.726 329.628 204.61 329.846 205.504L330.19 206.835L330.273 207.168L330.377 207.647L330.585 208.593C330.998 210.828 331.134 213.105 330.99 215.374C330.718 219.092 330.02 222.766 328.91 226.325C327.925 229.567 326.741 232.745 325.364 235.841C324.033 238.878 322.556 241.79 320.986 244.639C319.415 247.489 317.751 250.203 315.786 252.959L306.55 248.383C308.131 242.674 309.774 236.756 311.012 231.067C311.594 228.207 312.166 225.389 312.489 222.675C312.655 221.302 312.77 219.991 312.863 218.723C312.932 217.548 312.932 216.371 312.863 215.197C312.793 214.359 312.625 213.532 312.364 212.732L312.291 212.555V212.462L312.198 212.254L311.823 211.37C311.574 210.787 311.324 210.195 311.022 209.602C309.878 207.148 308.611 204.753 307.226 202.426C306.54 201.219 305.822 200.023 305.063 198.827C304.304 197.631 303.576 196.435 302.786 195.25C301.995 194.064 301.226 192.879 300.435 191.703L298.168 188.355L314.787 176.083Z" fill="#407BFF"/>
<path opacity="0.6" d="M314.787 176.083L315.474 176.759L316.254 177.799L317.741 179.879C318.687 181.272 319.613 182.676 320.486 184.111C321.36 185.547 322.202 187.013 323.014 188.511C323.825 190.008 324.574 191.527 325.312 193.076C326.807 196.253 328.079 199.53 329.118 202.883C329.389 203.726 329.628 204.61 329.846 205.504L330.19 206.835L330.273 207.168L330.377 207.647L330.585 208.593C330.998 210.828 331.134 213.105 330.99 215.374C330.718 219.092 330.02 222.766 328.91 226.325C327.925 229.567 326.741 232.745 325.364 235.841C324.033 238.878 322.556 241.79 320.986 244.639C319.415 247.489 317.751 250.203 315.786 252.959L306.55 248.383C308.131 242.674 309.774 236.756 311.012 231.067C311.594 228.207 312.166 225.389 312.489 222.675C312.655 221.302 312.77 219.991 312.863 218.723C312.932 217.548 312.932 216.371 312.863 215.197C312.793 214.359 312.625 213.532 312.364 212.732L312.291 212.555V212.462L312.198 212.254L311.823 211.37C311.574 210.787 311.324 210.195 311.022 209.602C309.878 207.148 308.611 204.753 307.226 202.426C306.54 201.219 305.822 200.023 305.063 198.827C304.304 197.631 303.576 196.435 302.786 195.25C301.995 194.064 301.226 192.879 300.435 191.703L298.168 188.355L314.787 176.083Z" fill="white"/>
<path opacity="0.1" d="M310.996 166.879C326.075 160.406 333.053 142.935 326.58 127.855C320.108 112.776 302.636 105.798 287.557 112.271C272.477 118.743 265.5 136.215 271.972 151.294C278.445 166.374 295.916 173.351 310.996 166.879Z" fill="#407BFF"/>
<path d="M299.291 170.342C294.801 170.334 290.366 169.348 286.296 167.451C282.226 165.554 278.619 162.793 275.725 159.359C275.637 159.254 275.572 159.133 275.531 159.002C275.491 158.872 275.476 158.734 275.489 158.598C275.501 158.462 275.541 158.33 275.604 158.209C275.668 158.088 275.755 157.98 275.86 157.893C275.965 157.805 276.087 157.74 276.217 157.699C276.348 157.659 276.485 157.644 276.621 157.657C276.757 157.669 276.89 157.709 277.011 157.772C277.132 157.836 277.239 157.923 277.326 158.028C280.508 161.808 284.611 164.702 289.238 166.433C293.866 168.164 298.861 168.672 303.742 167.908C304.018 167.865 304.3 167.934 304.525 168.099C304.75 168.263 304.901 168.511 304.944 168.787C304.986 169.063 304.918 169.344 304.753 169.569C304.588 169.795 304.341 169.945 304.065 169.988C302.485 170.231 300.889 170.349 299.291 170.342Z" fill="#263238"/>
<path d="M256.402 358.301L236.257 363.47L234.77 343.689L254.394 341.224L256.402 358.301Z" fill="#407BFF"/>
<path opacity="0.2" d="M256.402 358.301L236.257 363.47L234.77 343.689L254.394 341.224L256.402 358.301Z" fill="black"/>
<path d="M237.297 359.31L254.519 355.462C254.769 355.418 255.026 355.46 255.249 355.581C255.472 355.702 255.647 355.894 255.746 356.127L260.26 366.839C260.367 367.101 260.413 367.383 260.396 367.666C260.379 367.948 260.299 368.222 260.161 368.469C260.023 368.716 259.831 368.928 259.6 369.091C259.369 369.254 259.104 369.362 258.825 369.408C253.885 370.219 251.441 370.365 245.242 371.488C241.426 372.185 233.626 374.015 228.363 374.972C223.101 375.929 221.603 371.145 223.527 369.98C230.589 365.675 232.814 363.792 235.404 360.443C235.876 359.848 236.549 359.444 237.297 359.31Z" fill="#407BFF"/>
<path opacity="0.2" d="M237.297 359.31L254.519 355.462C254.769 355.418 255.026 355.46 255.249 355.581C255.472 355.702 255.647 355.894 255.746 356.127L260.26 366.839C260.367 367.101 260.413 367.383 260.396 367.666C260.379 367.948 260.299 368.222 260.161 368.469C260.023 368.716 259.831 368.928 259.6 369.091C259.369 369.254 259.104 369.362 258.825 369.408C253.885 370.219 251.441 370.365 245.242 371.488C241.426 372.185 233.626 374.015 228.363 374.972C223.101 375.929 221.603 371.145 223.527 369.98C230.589 365.675 232.814 363.792 235.404 360.443C235.876 359.848 236.549 359.444 237.297 359.31Z" fill="black"/>
<path d="M192.005 343.959L171.787 339.05L178.485 320.975L198.255 327.943L192.005 343.959Z" fill="#407BFF"/>
<path opacity="0.2" d="M192.005 343.959L171.787 339.05L178.485 320.975L198.255 327.943L192.005 343.959Z" fill="black"/>
<path d="M174.72 335.92L191.724 340.631C191.965 340.706 192.173 340.862 192.313 341.072C192.453 341.282 192.517 341.534 192.494 341.786L191.454 353.361C191.427 353.643 191.336 353.915 191.189 354.157C191.041 354.399 190.841 354.604 190.602 354.758C190.364 354.911 190.094 355.008 189.813 355.042C189.531 355.075 189.246 355.045 188.978 354.952C184.236 353.35 182.01 352.331 175.999 350.407C172.307 349.232 164.559 347.183 159.474 345.55C154.388 343.918 155.314 338.998 157.55 338.874C165.807 338.395 168.657 337.782 172.515 336.045C173.21 335.736 173.994 335.691 174.72 335.92Z" fill="#407BFF"/>
<path opacity="0.2" d="M174.72 335.92L191.724 340.631C191.965 340.706 192.173 340.862 192.313 341.072C192.453 341.282 192.517 341.534 192.494 341.786L191.454 353.361C191.427 353.643 191.336 353.915 191.189 354.157C191.041 354.399 190.841 354.604 190.602 354.758C190.364 354.911 190.094 355.008 189.813 355.042C189.531 355.075 189.246 355.045 188.978 354.952C184.236 353.35 182.01 352.331 175.999 350.407C172.307 349.232 164.559 347.183 159.474 345.55C154.388 343.918 155.314 338.998 157.55 338.874C165.807 338.395 168.657 337.782 172.515 336.045C173.21 335.736 173.994 335.691 174.72 335.92Z" fill="black"/>
<path d="M288.08 240.802C258.378 232.929 240.874 222.082 240.146 221.634L243.454 216.341C243.62 216.455 260.957 227.157 289.682 234.77L288.08 240.802Z" fill="#407BFF"/>
<path opacity="0.2" d="M288.08 240.802C258.378 232.929 240.874 222.082 240.146 221.634L243.454 216.341C243.62 216.455 260.957 227.157 289.682 234.77L288.08 240.802Z" fill="black"/>
<path d="M199.108 278.887C198.521 278.891 197.94 278.759 197.413 278.502C195.905 277.732 195 275.995 194.875 273.603C194.887 270.95 195.522 268.337 196.729 265.974C197.935 263.612 199.68 261.565 201.822 260C203.819 258.7 205.764 258.409 207.272 259.179C208.78 259.948 209.695 261.685 209.82 264.067C209.863 266.737 209.226 269.375 207.969 271.731C206.798 274.157 205.003 276.228 202.769 277.732C201.678 278.447 200.411 278.846 199.108 278.887ZM205.462 258.96C204.206 259.018 202.993 259.437 201.968 260.167C199.858 261.714 198.141 263.735 196.954 266.067C195.767 268.399 195.144 270.977 195.135 273.593C195.25 275.881 196.102 277.545 197.538 278.273C198.973 279.001 200.658 278.647 202.602 277.462C204.809 275.984 206.583 273.945 207.74 271.555C208.976 269.243 209.602 266.656 209.56 264.035C209.435 261.747 208.582 260.083 207.158 259.355C206.632 259.092 206.051 258.957 205.462 258.96Z" fill="#407BFF"/>
<path opacity="0.2" d="M199.108 278.887C198.521 278.891 197.94 278.759 197.413 278.502C195.905 277.732 195 275.995 194.875 273.603C194.887 270.95 195.522 268.337 196.729 265.974C197.935 263.612 199.68 261.565 201.822 260C203.819 258.7 205.764 258.409 207.272 259.179C208.78 259.948 209.695 261.685 209.82 264.067C209.863 266.737 209.226 269.375 207.969 271.731C206.798 274.157 205.003 276.228 202.769 277.732C201.678 278.447 200.411 278.846 199.108 278.887ZM205.462 258.96C204.206 259.018 202.993 259.437 201.968 260.167C199.858 261.714 198.141 263.735 196.954 266.067C195.767 268.399 195.144 270.977 195.135 273.593C195.25 275.881 196.102 277.545 197.538 278.273C198.973 279.001 200.658 278.647 202.602 277.462C204.809 275.984 206.583 273.945 207.74 271.555C208.976 269.243 209.602 266.656 209.56 264.035C209.435 261.747 208.582 260.083 207.158 259.355C206.632 259.092 206.051 258.957 205.462 258.96Z" fill="black"/>
<path d="M237.006 299.957H236.756C233.282 299.676 230.838 294.59 231.317 288.621C231.774 282.807 234.811 278.221 238.17 278.221H238.462C241.935 278.491 244.369 283.577 243.901 289.546C243.36 295.911 239.99 299.957 237.006 299.957ZM238.16 278.522C234.936 278.522 232.014 282.963 231.566 288.642C231.119 294.32 233.438 299.426 236.766 299.697C239.637 299.925 243.152 295.828 243.641 289.588C244.098 283.764 241.769 278.803 238.441 278.543L238.16 278.522Z" fill="#407BFF"/>
<path opacity="0.2" d="M237.006 299.957H236.756C233.282 299.676 230.838 294.59 231.317 288.621C231.774 282.807 234.811 278.221 238.17 278.221H238.462C241.935 278.491 244.369 283.577 243.901 289.546C243.36 295.911 239.99 299.957 237.006 299.957ZM238.16 278.522C234.936 278.522 232.014 282.963 231.566 288.642C231.119 294.32 233.438 299.426 236.766 299.697C239.637 299.925 243.152 295.828 243.641 289.588C244.098 283.764 241.769 278.803 238.441 278.543L238.16 278.522Z" fill="black"/>
<path d="M274.269 200.491C273.012 200.495 271.768 200.248 270.608 199.763C264.805 197.34 262.517 189.561 265.491 182.406C266.823 179.069 269.256 176.287 272.386 174.523C273.731 173.697 275.252 173.203 276.825 173.081C278.398 172.96 279.978 173.214 281.433 173.824C282.888 174.434 284.177 175.381 285.194 176.588C286.21 177.794 286.925 179.225 287.279 180.763C288.22 184.213 287.959 187.88 286.541 191.163C285.209 194.5 282.776 197.281 279.646 199.046C278.003 199.971 276.154 200.468 274.269 200.491ZM277.753 173.347C275.93 173.375 274.142 173.858 272.553 174.751C269.474 176.488 267.081 179.226 265.772 182.51C262.85 189.53 265.086 197.163 270.754 199.524C272.179 200.083 273.712 200.311 275.238 200.19C276.764 200.07 278.243 199.604 279.562 198.827C282.641 197.09 285.034 194.353 286.343 191.069L286.458 191.121L286.343 191.069C287.747 187.83 288.004 184.209 287.071 180.804C286.694 179.319 285.984 177.94 284.995 176.771C284.006 175.601 282.763 174.672 281.362 174.055C280.217 173.582 278.991 173.342 277.753 173.347Z" fill="#407BFF"/>
<path opacity="0.2" d="M274.269 200.491C273.012 200.495 271.768 200.248 270.608 199.763C264.805 197.34 262.517 189.561 265.491 182.406C266.823 179.069 269.256 176.287 272.386 174.523C273.731 173.697 275.252 173.203 276.825 173.081C278.398 172.96 279.978 173.214 281.433 173.824C282.888 174.434 284.177 175.381 285.194 176.588C286.21 177.794 286.925 179.225 287.279 180.763C288.22 184.213 287.959 187.88 286.541 191.163C285.209 194.5 282.776 197.281 279.646 199.046C278.003 199.971 276.154 200.468 274.269 200.491ZM277.753 173.347C275.93 173.375 274.142 173.858 272.553 174.751C269.474 176.488 267.081 179.226 265.772 182.51C262.85 189.53 265.086 197.163 270.754 199.524C272.179 200.083 273.712 200.311 275.238 200.19C276.764 200.07 278.243 199.604 279.562 198.827C282.641 197.09 285.034 194.353 286.343 191.069L286.458 191.121L286.343 191.069C287.747 187.83 288.004 184.209 287.071 180.804C286.694 179.319 285.984 177.94 284.995 176.771C284.006 175.601 282.763 174.672 281.362 174.055C280.217 173.582 278.991 173.342 277.753 173.347Z" fill="black"/>
<path d="M203.247 149.885L215.342 143.946C215.342 143.946 208.78 127.837 201.926 129.262C194.844 130.728 196.882 137.675 203.247 149.885Z" fill="#407BFF"/>
<path opacity="0.2" d="M203.247 149.885L215.342 143.946C215.342 143.946 208.78 127.837 201.926 129.262C194.844 130.728 196.882 137.675 203.247 149.885Z" fill="black"/>
<path d="M209.04 139.62L214.448 142.74C214.448 142.74 214.843 131.404 212.181 130.884C209.518 130.364 208.437 133.526 209.04 139.62Z" fill="#407BFF"/>
<path opacity="0.2" d="M209.04 139.62L214.448 142.74C214.448 142.74 214.843 131.404 212.181 130.884C209.518 130.364 208.437 133.526 209.04 139.62Z" fill="black"/>
<path d="M319.987 247.697L307.913 241.696C307.913 241.696 299.114 256.714 304.418 261.29C309.92 266.022 314.163 260.177 319.987 247.697Z" fill="#407BFF"/>
<path opacity="0.2" d="M319.987 247.697L307.913 241.696C307.913 241.696 299.114 256.714 304.418 261.29C309.92 266.022 314.163 260.177 319.987 247.697Z" fill="black"/>
<path d="M308.329 249.361L307.549 243.121C307.549 243.121 298.303 249.704 299.52 252.127C300.737 254.551 303.836 253.521 308.329 249.361Z" fill="#407BFF"/>
<path opacity="0.2" d="M308.329 249.361L307.549 243.121C307.549 243.121 298.303 249.704 299.52 252.127C300.737 254.551 303.836 253.521 308.329 249.361Z" fill="black"/>
<path d="M322.731 192.172L313.439 196.868L316.451 202.827L325.742 198.131L322.731 192.172Z" fill="#407BFF"/>
<path opacity="0.2" d="M322.731 192.172L313.439 196.868L316.451 202.827L325.742 198.131L322.731 192.172Z" fill="black"/>
<path d="M287.706 224.089C287.568 224.074 287.438 224.017 287.335 223.925C287.231 223.833 287.159 223.711 287.127 223.577C287.096 223.442 287.108 223.301 287.161 223.173C287.214 223.045 287.305 222.936 287.422 222.863C287.54 222.789 287.677 222.754 287.815 222.762C287.953 222.771 288.086 222.822 288.193 222.908C288.301 222.995 288.379 223.113 288.417 223.247C288.454 223.38 288.449 223.522 288.402 223.652C288.365 223.801 288.272 223.929 288.142 224.011C288.012 224.092 287.856 224.12 287.706 224.089Z" fill="#407BFF"/>
<path d="M286.78 226.658C286.656 226.576 286.563 226.454 286.516 226.313C286.469 226.171 286.471 226.018 286.521 225.878C286.572 225.738 286.667 225.619 286.794 225.54C286.92 225.46 287.069 225.426 287.217 225.441C287.341 225.523 287.434 225.645 287.481 225.786C287.528 225.928 287.526 226.081 287.476 226.221C287.425 226.361 287.329 226.48 287.203 226.559C287.077 226.639 286.928 226.673 286.78 226.658Z" fill="#407BFF"/>
<path d="M285.854 229.216C285.716 229.204 285.585 229.148 285.48 229.057C285.375 228.967 285.301 228.845 285.268 228.71C285.235 228.575 285.246 228.433 285.297 228.305C285.349 228.176 285.44 228.066 285.557 227.992C285.675 227.917 285.812 227.881 285.951 227.889C286.09 227.896 286.222 227.947 286.331 228.034C286.439 228.121 286.518 228.239 286.555 228.373C286.593 228.507 286.588 228.649 286.541 228.779C286.506 228.927 286.415 229.056 286.287 229.137C286.158 229.219 286.003 229.247 285.854 229.216Z" fill="#407BFF"/>
<path d="M288.631 225.878C288.493 225.865 288.362 225.81 288.257 225.719C288.152 225.628 288.077 225.507 288.045 225.372C288.012 225.237 288.022 225.095 288.074 224.966C288.126 224.837 288.217 224.728 288.334 224.653C288.451 224.579 288.589 224.543 288.728 224.55C288.866 224.558 288.999 224.609 289.108 224.695C289.216 224.782 289.295 224.901 289.332 225.035C289.37 225.168 289.365 225.31 289.318 225.441C289.283 225.589 289.192 225.717 289.063 225.799C288.935 225.881 288.78 225.909 288.631 225.878Z" fill="#407BFF"/>
<path d="M287.706 228.436C287.567 228.423 287.436 228.368 287.331 228.277C287.226 228.186 287.152 228.065 287.119 227.93C287.086 227.795 287.097 227.653 287.149 227.524C287.201 227.395 287.291 227.286 287.409 227.211C287.526 227.137 287.663 227.101 287.802 227.108C287.941 227.116 288.074 227.167 288.182 227.254C288.29 227.34 288.369 227.459 288.407 227.593C288.444 227.726 288.439 227.868 288.392 227.999C288.357 228.147 288.266 228.276 288.138 228.357C288.009 228.439 287.854 228.467 287.706 228.436Z" fill="#407BFF"/>
<path d="M286.78 231.005C286.644 230.934 286.542 230.812 286.495 230.666C286.448 230.52 286.461 230.362 286.53 230.225C286.539 230.149 286.565 230.076 286.606 230.011C286.647 229.946 286.702 229.892 286.767 229.851C286.832 229.811 286.906 229.786 286.982 229.777C287.058 229.769 287.135 229.778 287.207 229.804C287.279 229.83 287.345 229.871 287.399 229.926C287.453 229.98 287.494 230.046 287.519 230.118C287.543 230.191 287.552 230.268 287.543 230.344C287.534 230.42 287.508 230.493 287.466 230.558C287.434 230.708 287.344 230.839 287.215 230.922C287.087 231.006 286.93 231.036 286.78 231.005Z" fill="#407BFF"/>
<g opacity="0.2">
<path opacity="0.2" d="M287.706 224.089C287.568 224.074 287.438 224.017 287.335 223.925C287.231 223.833 287.159 223.711 287.127 223.577C287.096 223.442 287.108 223.301 287.161 223.173C287.214 223.045 287.305 222.936 287.422 222.863C287.54 222.789 287.677 222.754 287.815 222.762C287.953 222.771 288.086 222.822 288.193 222.908C288.301 222.995 288.379 223.113 288.417 223.247C288.454 223.38 288.449 223.522 288.402 223.652C288.365 223.801 288.272 223.929 288.142 224.011C288.012 224.092 287.856 224.12 287.706 224.089Z" fill="black"/>
<path opacity="0.2" d="M286.78 226.657C286.656 226.575 286.563 226.454 286.516 226.312C286.469 226.171 286.471 226.018 286.521 225.878C286.572 225.738 286.667 225.618 286.794 225.539C286.92 225.46 287.069 225.425 287.217 225.441C287.341 225.523 287.434 225.644 287.481 225.786C287.528 225.927 287.526 226.08 287.476 226.22C287.425 226.36 287.329 226.48 287.203 226.559C287.077 226.638 286.928 226.673 286.78 226.657Z" fill="black"/>
<path opacity="0.2" d="M285.854 229.216C285.716 229.203 285.585 229.148 285.48 229.057C285.375 228.966 285.301 228.845 285.268 228.71C285.235 228.575 285.246 228.433 285.297 228.304C285.349 228.175 285.44 228.066 285.557 227.991C285.675 227.917 285.812 227.881 285.951 227.888C286.09 227.896 286.222 227.946 286.331 228.033C286.439 228.12 286.518 228.239 286.555 228.372C286.593 228.506 286.588 228.648 286.541 228.779C286.506 228.927 286.415 229.055 286.287 229.137C286.158 229.219 286.003 229.247 285.854 229.216Z" fill="black"/>
<path opacity="0.2" d="M288.631 225.877C288.493 225.865 288.362 225.809 288.257 225.718C288.152 225.628 288.077 225.506 288.045 225.371C288.012 225.236 288.022 225.094 288.074 224.966C288.126 224.837 288.217 224.727 288.334 224.653C288.451 224.578 288.589 224.542 288.728 224.55C288.866 224.557 288.999 224.608 289.108 224.695C289.216 224.782 289.295 224.9 289.332 225.034C289.37 225.168 289.365 225.31 289.318 225.44C289.283 225.588 289.192 225.717 289.063 225.799C288.935 225.88 288.78 225.908 288.631 225.877Z" fill="black"/>
<path opacity="0.2" d="M287.706 228.436C287.567 228.423 287.436 228.368 287.331 228.277C287.226 228.186 287.152 228.065 287.119 227.93C287.086 227.795 287.097 227.653 287.149 227.524C287.201 227.395 287.291 227.286 287.409 227.211C287.526 227.137 287.663 227.101 287.802 227.108C287.941 227.116 288.074 227.167 288.182 227.254C288.29 227.34 288.369 227.459 288.407 227.593C288.444 227.726 288.439 227.868 288.392 227.999C288.357 228.147 288.266 228.276 288.138 228.357C288.009 228.439 287.854 228.467 287.706 228.436Z" fill="black"/>
<path opacity="0.2" d="M286.78 231.005C286.644 230.934 286.542 230.812 286.495 230.666C286.448 230.52 286.461 230.361 286.53 230.224C286.539 230.148 286.565 230.075 286.606 230.011C286.647 229.946 286.702 229.891 286.767 229.851C286.832 229.81 286.906 229.785 286.982 229.777C287.058 229.769 287.135 229.778 287.207 229.803C287.279 229.829 287.345 229.871 287.399 229.925C287.453 229.98 287.494 230.045 287.519 230.118C287.543 230.19 287.552 230.267 287.543 230.344C287.534 230.42 287.508 230.493 287.466 230.557C287.434 230.707 287.344 230.838 287.215 230.922C287.087 231.006 286.93 231.035 286.78 231.005Z" fill="black"/>
</g>
</svg>
