<svg width="37" height="37" viewBox="0 0 37 37" fill="none" xmlns="http://www.w3.org/2000/svg">
<path d="M18.5 0C8.2991 0 0 8.2991 0 18.5C0 28.7009 8.2991 37 18.5 37C28.7009 37 37 28.7009 37 18.5C37 8.2991 28.7009 0 18.5 0ZM14.8019 26.6641L9.24158 21.1158C8.51869 20.3944 8.51723 19.2237 9.23833 18.5006C9.95987 17.777 11.1315 17.7757 11.8547 18.4976L14.7981 21.4359L23.2841 12.95C24.0065 12.2276 25.1776 12.2276 25.9 12.95C26.6224 13.6724 26.6224 14.8435 25.9 15.5659L14.8019 26.6641Z" fill="#326BFF"/>
</svg>
