<svg width="21" height="21" viewBox="0 0 21 21" fill="none" xmlns="http://www.w3.org/2000/svg">
<path d="M2.478 10.6325L2.48113 10.6474C2.92713 12.7649 4.35416 14.5828 6.37377 15.5008L10.5 17.3763V15.1667H12.8333C16.055 15.1667 18.6667 12.555 18.6667 9.33333V8.16667C18.6667 4.94501 16.055 2.33333 12.8333 2.33333H8.16667C4.94501 2.33333 2.33333 4.94501 2.33333 8.16667V9.33333C2.33333 9.7771 2.38247 10.2066 2.47467 10.6177L2.478 10.6325ZM12.8333 21L5.40823 17.625C2.70418 16.3958 0.794815 13.9623 0.1979 11.1283C0.0683544 10.5507 0 9.95002 0 9.33333V8.16667C0 3.65634 3.65634 0 8.16667 0H12.8333C17.3437 0 21 3.65634 21 8.16667V9.33333C21 13.8437 17.3437 17.5 12.8333 17.5V21Z" fill="#648FFF"/>
</svg>
