<svg width="21" height="21" viewBox="0 0 21 21" fill="none" xmlns="http://www.w3.org/2000/svg">
<path d="M10.5001 0C4.70181 0 0 4.81991 0 10.7658C0 15.5225 3.00859 19.5579 7.1806 20.9815C7.70536 21.0812 7.89802 20.748 7.89802 20.4636C7.89802 20.2069 7.88828 19.3588 7.88376 18.4592C4.96263 19.1105 4.34623 17.189 4.34623 17.189C3.86859 15.9446 3.18039 15.6137 3.18039 15.6137C2.22771 14.9456 3.2522 14.9593 3.2522 14.9593C4.30659 15.0352 4.86178 16.0687 4.86178 16.0687C5.79828 17.7146 7.31814 17.2387 7.91732 16.9637C8.01156 16.2678 8.28368 15.7929 8.58396 15.5241C6.25175 15.2518 3.80008 14.3287 3.80008 10.2035C3.80008 9.02816 4.21026 8.06778 4.88195 7.31384C4.77292 7.04268 4.41352 5.9477 4.98366 4.46479C4.98366 4.46479 5.86539 4.17544 7.87194 5.56832C8.7095 5.32979 9.60775 5.21016 10.5001 5.20606C11.3924 5.21016 12.2914 5.32979 13.1305 5.56832C15.1346 4.17544 16.0151 4.46479 16.0151 4.46479C16.5867 5.9477 16.2271 7.04268 16.1181 7.31384C16.7913 8.06778 17.1987 9.02816 17.1987 10.2035C17.1987 14.3385 14.7423 15.249 12.4042 15.5155C12.7808 15.8496 13.1164 16.5048 13.1164 17.5092C13.1164 18.9497 13.1042 20.109 13.1042 20.4636C13.1042 20.7501 13.2932 21.0858 13.8255 20.9801C17.9952 19.5549 21 15.5209 21 10.7658C21 4.81991 16.2989 0 10.5001 0" fill="#161514"/>
<path d="M4.00786 15.3836C3.98477 15.4366 3.90286 15.4525 3.82823 15.4161C3.75221 15.3813 3.70952 15.3091 3.73416 15.256C3.75672 15.2015 3.83881 15.1863 3.91466 15.2228C3.99085 15.2576 4.03424 15.3305 4.00786 15.3836" fill="#161514"/>
<path d="M4.43241 15.8652C4.38243 15.9123 4.28472 15.8904 4.21842 15.8159C4.14986 15.7416 4.13702 15.6422 4.1877 15.5944C4.23924 15.5472 4.334 15.5693 4.40273 15.6436C4.47129 15.7188 4.48465 15.8175 4.43241 15.8652" fill="#161514"/>
<path d="M4.84559 16.4789C4.78137 16.5242 4.67637 16.4817 4.61147 16.3869C4.54725 16.2921 4.54725 16.1784 4.61285 16.1329C4.67794 16.0874 4.78137 16.1283 4.84715 16.2224C4.91119 16.3188 4.91119 16.4325 4.84559 16.4789" fill="#161514"/>
<path d="M5.41183 17.072C5.35439 17.1365 5.23203 17.1192 5.14248 17.0313C5.05084 16.9453 5.02533 16.8233 5.08295 16.7589C5.14109 16.6943 5.26414 16.7125 5.35439 16.7997C5.44533 16.8855 5.4731 17.0083 5.41183 17.072" fill="#161514"/>
<path d="M6.19279 17.4164C6.16746 17.4999 6.04961 17.5379 5.9309 17.5024C5.81237 17.4658 5.73479 17.368 5.75874 17.2837C5.78338 17.1996 5.90175 17.1601 6.02132 17.1981C6.13969 17.2344 6.21744 17.3315 6.19279 17.4164" fill="#161514"/>
<path d="M7.05047 17.4803C7.05342 17.5682 6.95276 17.6411 6.82815 17.6427C6.70284 17.6455 6.60149 17.5744 6.6001 17.4879C6.6001 17.3991 6.6985 17.3269 6.82381 17.3248C6.94842 17.3223 7.05047 17.3929 7.05047 17.4803" fill="#161514"/>
<path d="M7.84858 17.3421C7.86351 17.4279 7.77691 17.516 7.65316 17.5394C7.5315 17.562 7.41886 17.5091 7.40342 17.424C7.38832 17.3361 7.47648 17.248 7.59797 17.2252C7.72189 17.2034 7.83279 17.2549 7.84858 17.3421" fill="#161514"/>
</svg>
