<svg width="21" height="21" viewBox="0 0 21 21" fill="none" xmlns="http://www.w3.org/2000/svg">
<g clip-path="url(#clip0)">
<path d="M20.7952 10.742C20.7952 10.0282 20.7374 9.31058 20.6139 8.6084H10.71V12.6518H16.3815C16.1461 13.9558 15.3899 15.1094 14.2826 15.8425V18.466H17.6662C19.6532 16.6372 20.7952 13.9365 20.7952 10.742Z" fill="#4285F4"/>
<path d="M10.71 21.0007C13.5419 21.0007 15.9301 20.0708 17.6701 18.4658L14.2865 15.8423C13.3451 16.4827 12.1298 16.8454 10.7138 16.8454C7.97453 16.8454 5.65191 14.9974 4.81855 12.5127H1.3269V15.2173C3.10938 18.7629 6.73991 21.0007 10.71 21.0007V21.0007Z" fill="#34A853"/>
<path d="M4.81468 12.5126C4.37485 11.2086 4.37485 9.79648 4.81468 8.49242V5.78784H1.3269C-0.162352 8.75477 -0.162352 12.2503 1.3269 15.2172L4.81468 12.5126V12.5126Z" fill="#FBBC04"/>
<path d="M10.71 4.15595C12.2069 4.1328 13.6537 4.6961 14.7379 5.73009L17.7357 2.73229C15.8375 0.949817 13.3181 -0.0301578 10.71 0.000707583C6.73991 0.000707583 3.10938 2.23844 1.3269 5.78796L4.81469 8.49253C5.64419 6.00402 7.97067 4.15595 10.71 4.15595V4.15595Z" fill="#EA4335"/>
</g>
<defs>
<clipPath id="clip0">
<rect width="21" height="21" fill="white"/>
</clipPath>
</defs>
</svg>
