<svg width="118" height="118" viewBox="0 0 118 118" fill="none" xmlns="http://www.w3.org/2000/svg">
<path d="M83.362 86.7263C83.1656 87.1795 82.9541 87.6176 82.7426 88.0557C82.5462 88.4636 82.2289 89.0377 82.2441 89.083L82.3045 88.9773L82.4253 88.7657L82.7577 88.1766C82.9692 87.7838 83.1807 87.3759 83.3922 86.9529C83.8152 86.122 84.208 85.276 84.6008 84.43C85.3713 82.7077 86.1115 80.9553 86.8065 79.1878C87.6676 76.9972 88.4985 74.7764 89.2992 72.5557C87.4259 77.2238 85.5526 81.6653 83.9663 85.3666C83.7397 85.8349 83.5433 86.2882 83.362 86.7263Z" fill="url(#paint0_linear)"/>
<path d="M54.3258 68.1436C53.8122 70.183 53.2985 72.2074 52.8 74.1865C53.3589 72.1621 53.8575 70.1528 54.3258 68.1436Z" fill="url(#paint1_linear)"/>
<path d="M69.0403 69.1265C69.1763 69.5495 69.2972 69.9574 69.418 70.3653C68.9044 68.5071 68.3907 66.6036 67.8922 64.6396C68.2245 65.9238 68.6475 67.8575 69.0403 69.1265Z" fill="url(#paint2_linear)"/>
<path d="M73.6027 78.1304C74.2674 80.2454 74.9775 82.3453 75.7479 84.3848C76.1256 85.397 76.5335 86.4092 76.9716 87.376C77.1831 87.8595 77.4097 88.3429 77.6515 88.8112L78.014 89.5061C78.15 89.763 78.2255 89.8838 78.3313 90.0651C78.6485 90.5788 78.9658 91.0773 79.3586 91.5456C79.7514 91.9837 80.2197 92.437 80.824 92.5578C80.9751 92.5729 81.1261 92.6031 81.2772 92.5729C81.4283 92.5427 81.5643 92.4823 81.7002 92.4067C81.9571 92.2557 82.1988 92.0442 82.4103 91.8327C82.8333 91.3946 83.1959 90.896 83.5282 90.3975C83.8153 89.9745 84.2987 89.1738 84.6613 88.4789C85.0541 87.7688 85.4166 87.0437 85.749 86.3336C86.4288 84.8984 87.018 83.4632 87.5014 82.0734L87.305 81.9827L87.1087 82.6021C86.1267 84.6718 85.2202 86.2581 84.2836 87.8746C84.3289 87.7839 84.3742 87.6782 84.4195 87.5724C84.3289 87.7386 84.2534 87.9048 84.1627 88.071C83.9965 88.3429 83.8455 88.5997 83.6793 88.8716C83.5282 89.1134 83.3771 89.3702 83.211 89.627C82.9995 89.9594 82.788 90.3068 82.5311 90.6845C82.2894 91.032 82.0326 91.3946 81.67 91.6816C81.534 91.7722 81.3981 91.8478 81.247 91.878C81.1715 91.8931 81.0959 91.8931 81.0204 91.8931C80.9449 91.8931 80.8693 91.878 80.7938 91.8629C80.4916 91.7873 80.2197 91.6061 79.9931 91.4097C79.5248 90.9867 79.1773 90.4579 78.8449 89.914C78.7543 89.7781 78.6939 89.6421 78.6032 89.491C78.4824 89.2795 78.3766 89.0529 78.2709 88.8414C78.0594 88.4033 77.8479 87.9652 77.6364 87.512C77.2285 86.6056 76.8508 85.684 76.4882 84.7474C75.053 81.0008 73.8444 77.2088 72.666 73.6737C71.2762 69.2775 69.9769 65.5158 68.6022 61.1045C68.9345 62.3735 69.3726 64.3223 69.7654 65.5762C71.0345 69.625 72.2581 73.9155 73.6027 78.1304Z" fill="url(#paint3_linear)"/>
<path d="M69.4332 70.3672C70.7928 75.2015 72.1978 79.779 73.8747 84.281C74.0409 84.6436 74.3128 85.2176 74.5545 85.7464C73.5272 82.8005 72.7114 80.2927 71.8805 77.8604C71.0647 75.4281 70.2641 73.0563 69.4332 70.3672Z" fill="url(#paint4_linear)"/>
<path d="M74.5545 85.7451C74.6754 86.0775 74.7811 86.3947 74.902 86.7271C74.9624 86.7875 75.0228 86.8631 75.0832 86.9537C75.053 86.8631 75.0077 86.7875 74.9775 86.6969C74.8718 86.4552 74.7358 86.1077 74.5545 85.7451Z" fill="url(#paint5_linear)"/>
<path d="M82.1685 88.1463L82.0023 88.4635C81.957 88.5542 81.8815 88.7053 81.8815 88.7053C81.8663 88.7657 81.8512 88.8261 81.821 88.8865C81.7757 89.0074 81.7304 89.1434 81.6548 89.2642C81.7757 89.098 81.8664 88.9168 81.9419 88.7506L82.4253 87.8744C82.5915 87.5571 82.7728 87.2247 82.939 86.8924C83.6037 85.5781 84.2382 84.1882 84.8425 82.7983C86.0511 80.0035 87.1539 77.1331 88.2115 74.2627C87.1388 76.8763 86.0662 79.3992 85.0389 81.7559C84.0267 84.0975 83.0447 86.3032 82.1685 88.1463Z" fill="url(#paint6_linear)"/>
<path d="M52.6942 87.331C52.105 88.9324 51.5612 90.2316 50.9569 91.4402C50.8813 91.5913 50.8058 91.7424 50.7303 91.8934L50.5792 92.1654L50.413 92.4524L50.0656 93.0114L49.8843 93.2984L49.6879 93.5703C49.1742 94.2955 48.5548 94.9602 47.8146 95.489C48.585 95.0055 49.2951 94.371 49.9145 93.6006C48.4793 95.4739 46.7873 96.5767 44.9593 96.6673C44.068 96.6976 43.2824 96.3803 42.5572 95.9573C41.8321 95.5192 41.1523 94.93 40.5177 94.2351C39.8984 93.5703 39.2034 92.6186 38.8711 92.12C38.4632 91.5158 38.0704 90.8812 37.6776 90.1863C37.6172 90.2165 37.1337 89.7029 36.8014 89.0986C35.0489 86.1376 33.7497 83.0406 32.4958 80.6536C31.0455 77.6322 29.7463 74.5654 28.5981 72.1633C28.3413 71.5439 27.6463 70.3958 27.0874 69.1872C26.4529 67.6916 25.8486 66.1808 25.2443 64.6852C25.2443 64.7608 25.2594 64.8363 25.2594 64.8967C25.7277 66.1355 26.2263 67.3743 26.7701 68.598C28.3866 72.254 30.3052 76.5142 32.0275 80.14C33.4475 83.1463 34.913 86.062 36.5596 88.8871C36.9826 89.5971 37.4057 90.2921 37.8589 90.987C38.0855 91.3345 38.3121 91.6819 38.5538 92.0294L38.9164 92.543L39.3847 93.1624C40.8954 95.1113 42.6781 96.8637 44.9442 96.8788C45.5334 96.8335 46.0923 96.7278 46.6362 96.5314C46.893 96.4105 47.165 96.3048 47.4067 96.1537L47.7844 95.9271L48.1318 95.6703C49.0534 94.9753 49.8389 94.0236 50.4886 92.9963C50.6547 92.7394 50.8209 92.4826 50.972 92.2107C51.108 91.969 51.1986 91.8028 51.3044 91.6064C51.5159 91.2136 51.6971 90.8208 51.8784 90.4431C52.2259 89.6727 52.5431 88.8871 52.8302 88.1166C53.5553 86.1678 54.069 84.1887 54.6128 82.255C56.1538 76.3934 57.8911 69.3383 58.3594 65.3802C58.4501 64.7154 58.7673 63.4464 58.7825 62.7666C57.8458 67.9635 56.3804 74.3992 54.5977 80.85C54.0086 82.7837 53.6762 84.7779 52.6942 87.331Z" fill="url(#paint7_linear)"/>
<path d="M47.6937 92.2101C47.875 91.8324 48.0865 91.3792 48.3131 90.8655C48.434 90.5936 48.5548 90.2915 48.7059 89.9893C48.857 89.6721 48.993 89.3095 49.144 88.9469C49.7332 87.4664 50.3828 85.6384 51.0173 83.5989C52.3015 79.52 53.5856 74.6101 54.7337 70.0024C55.8668 65.3947 56.879 61.0891 57.5286 58.2036C58.3293 54.6685 58.8731 52.5232 58.0724 53.6412C57.7401 54.8347 57.4228 56.0584 57.1358 57.282L56.9394 58.128L56.7883 58.7928C56.6977 59.2309 56.5919 59.669 56.5013 60.1222C56.1085 61.8898 55.7157 63.6724 55.3229 65.44C54.5222 68.9751 53.6913 72.4347 52.8151 75.5619C52.1353 78.0848 50.8814 83.0098 49.5519 86.8017C49.2196 87.7534 48.8872 88.6297 48.57 89.385C48.4189 89.7627 48.2678 90.1102 48.1167 90.4274C48.011 90.6994 47.8901 90.9411 47.7995 91.1526C47.6031 91.5907 47.452 91.9231 47.4067 92.1195C47.3463 92.3007 47.4218 92.3612 47.6937 92.2101Z" fill="url(#paint8_linear)"/>
<path d="M11.9046 22.566C13.2945 27.219 15.3037 32.8389 17.177 38.0509C15.8325 33.7151 13.8081 28.0801 11.9801 22.5962C11.9348 22.566 11.9197 22.5509 11.9046 22.566Z" fill="url(#paint9_linear)"/>
<path d="M21.7847 55.5768C21.8 55.6073 21.8152 55.6377 21.8305 55.6682C21.8305 55.6377 21.8152 55.592 21.8152 55.5615C21.8 55.5615 21.8 55.5615 21.7847 55.5768Z" fill="url(#paint10_linear)"/>
<path d="M13.098 24.9543C12.9016 24.3501 12.6448 23.7609 12.4182 23.3228C12.6599 23.9573 12.9016 24.622 13.1433 25.2716C13.1282 25.1658 13.1131 25.0601 13.098 24.9543Z" fill="url(#paint11_linear)"/>
<path d="M96.9888 60.6963C96.2787 62.9926 95.5385 65.304 94.7529 67.6456C95.191 66.5126 95.6291 65.3796 96.0823 64.2314L94.7227 67.9478C94.4961 68.537 94.2846 69.1262 94.0579 69.7153C92.7285 73.613 91.2933 77.6316 89.6013 81.8163C90.9156 78.4625 92.1544 75.0029 93.3781 71.498C92.0185 74.9727 90.5833 78.5078 89.0423 81.9825C88.2719 83.7198 87.4863 85.442 86.6554 87.1189C85.8245 88.7958 84.9634 90.4425 83.9512 91.9684C83.6792 92.3763 83.3771 92.7993 83.0296 93.2072C82.6822 93.6151 82.2743 94.0078 81.7757 94.2647C81.2772 94.5517 80.6427 94.4762 80.1139 94.2496C79.5852 94.0078 79.1168 93.6302 78.7089 93.1921C78.3011 92.7539 77.9234 92.2705 77.5759 91.7418C77.2284 91.2281 76.8961 90.654 76.609 90.1253C76.035 89.0678 75.5364 87.9951 75.0832 86.9376C75.0228 86.8621 74.9624 86.7866 74.9019 86.711C74.7811 86.3787 74.6602 86.0614 74.5544 85.7291C74.3127 85.2003 74.0408 84.6111 73.8746 84.2637C72.1977 79.7617 70.7776 75.1842 69.4331 70.3499C69.3122 69.942 69.1763 69.519 69.0554 69.1111C68.6626 67.842 68.2396 65.9083 67.9072 64.6393C68.4058 66.5881 68.9194 68.4917 69.4331 70.365C70.264 73.0541 71.0647 75.4259 71.8956 77.8582C72.7265 80.2904 73.5423 82.7982 74.5696 85.7442C74.7357 86.1067 74.8868 86.4542 74.9926 86.6959C75.0228 86.7715 75.0681 86.8621 75.0983 86.9527C75.5817 87.6326 76.2162 88.962 77.0774 90.503C77.5155 91.2734 78.014 92.0892 78.6183 92.8295C78.9356 93.192 79.2679 93.5546 79.6607 93.8266C80.0535 94.0985 80.5067 94.31 80.975 94.3553C80.8089 94.31 80.8089 94.2798 80.8995 94.2647C80.9901 94.2496 81.1714 94.2647 81.3829 94.2042C81.7908 94.0985 82.1836 93.7661 82.1685 93.6906C82.9239 93.0259 83.4526 92.195 83.921 91.4094C84.1627 91.0166 84.3591 90.6238 84.5706 90.231C84.7972 89.808 84.9936 89.385 85.2051 88.962C86.0058 87.27 86.6856 85.5931 87.2748 84.0673C89.2236 79.2027 91.2782 74.3533 92.517 69.9117C92.8494 68.6276 93.8313 66.1954 94.4356 64.3069C94.6622 63.5063 94.904 62.63 95.1608 61.7387C94.8133 62.6451 94.4658 63.5516 94.1033 64.458C93.9522 64.7602 95.2816 60.802 96.5053 56.8137C97.7441 52.8254 98.9074 48.8069 98.6657 49.0788C98.6657 49.0788 98.6354 49.1241 98.6052 49.2299C98.575 49.3356 98.5146 49.4867 98.4542 49.668C98.3333 50.0608 98.152 50.6197 97.9103 51.3298C97.4571 52.7499 96.8075 54.744 96.0672 57.0252C94.5716 61.6027 92.5925 67.3435 90.7797 72.057C89.8732 73.8094 90.4322 70.093 90.825 68.8391C90.8552 68.7032 90.9005 68.537 90.9458 68.3859C90.402 69.7909 89.8581 71.1807 89.2991 72.5555C88.5136 74.7763 87.6827 76.9971 86.8064 79.1876C86.1115 80.9552 85.3713 82.7076 84.6008 84.4298C84.208 85.291 83.8152 86.1369 83.3922 86.9527C83.1807 87.3606 82.9692 87.7685 82.7577 88.1764L82.4253 88.7656L82.3045 88.9771L82.2441 89.0829C82.2441 89.0376 82.5613 88.4635 82.7426 88.0556C82.9541 87.6175 83.1656 87.1793 83.362 86.7261C83.5433 86.288 83.7397 85.8348 83.9361 85.3816C85.5072 81.6803 87.3805 77.2388 89.2689 72.5706C90.1754 70.0477 91.0214 67.5248 91.8523 65.017C91.8674 64.9414 91.8825 64.881 91.9127 64.8206C90.7495 67.978 89.4955 71.1807 88.2265 74.2626C87.1841 77.133 86.0662 80.0034 84.8576 82.7982C84.2533 84.2032 83.6188 85.578 82.9541 86.8923C82.7879 87.2247 82.6217 87.5419 82.4404 87.8743L81.957 88.7505C81.8815 88.9167 81.7757 89.098 81.67 89.2642C81.7304 89.1282 81.7908 89.0073 81.8362 88.8865C81.8513 88.826 81.8815 88.7656 81.8966 88.7052C81.8815 88.7052 81.957 88.5692 82.0174 88.4635L82.1836 88.1462C83.0598 86.288 84.0418 84.0975 85.0691 81.7407C86.0964 79.384 87.169 76.846 88.2416 74.2475C90.2358 68.7787 92.0185 63.2796 93.6501 57.9166C92.3961 61.5121 90.9307 65.5911 89.6617 69.1111C88.4078 72.6613 87.1388 76.1208 85.7943 79.4444C85.1295 81.1062 84.4346 82.7378 83.7246 84.309C83.362 85.0945 82.9994 85.865 82.6217 86.6204C82.4404 86.9981 82.2441 87.3607 82.0477 87.7232L81.7606 88.252L81.6247 88.4937L81.6095 88.539C81.5642 88.6599 81.5038 88.7958 81.4132 88.9167C81.3376 89.0375 81.2168 89.2037 81.0657 89.2188C80.9146 89.2339 80.7786 89.1433 80.6578 89.0527C80.5369 88.9469 80.4312 88.826 80.3254 88.675L80.2952 88.6297L80.2801 88.6145C80.2801 88.6145 80.2801 88.6145 80.265 88.5843L80.1895 88.4635L79.9175 87.9498C79.7362 87.6024 79.5701 87.2398 79.4039 86.8772C79.0715 86.1521 78.7392 85.3816 78.4219 84.6111C77.8025 83.0551 77.2284 81.4386 76.6695 79.807C76.0199 78.251 75.4307 76.6798 74.9321 75.0482C73.7538 71.3167 72.6358 66.845 71.5632 63.0228C71.5934 63.7027 71.0949 61.7689 71.0193 61.784C70.7021 60.8323 70.3848 59.8503 70.0827 58.823C69.9014 58.2338 69.7352 57.6446 69.5539 57.0403C69.3273 56.2397 69.0856 55.4541 68.8288 54.6534C68.3303 53.0671 67.7864 51.4658 67.1368 50.1212C66.4872 48.7767 65.7771 47.7796 65.0067 47.0242C64.78 46.8127 64.6743 46.6919 64.5534 46.571C64.493 46.5106 64.4326 46.4501 64.357 46.3746C64.2664 46.3142 64.1758 46.2386 64.0247 46.148C63.8585 46.0876 63.6621 46.0271 63.4506 45.9818C63.3448 45.9516 63.224 45.9365 63.1031 45.9365C63.0427 45.9214 62.9823 45.9365 62.9218 45.9516C62.8614 45.9667 62.801 45.9818 62.7406 45.9969C62.2722 46.148 61.9399 46.3746 61.6226 46.6465C61.0183 47.2055 60.5047 47.9004 60.0061 48.7767C58.994 50.4838 58.1631 53.1276 57.453 55.8015C57.2717 56.4663 57.1055 57.1461 56.9243 57.8259C56.8034 58.3245 56.6825 58.8079 56.5466 59.3064C56.3049 60.2733 56.0631 61.2553 55.8214 62.2523C55.338 64.2163 54.8395 66.2105 54.3409 68.1744C53.8726 70.1837 53.374 72.1929 52.8151 74.2173C53.3136 72.2383 53.8273 70.2139 54.3409 68.1744C54.8848 65.8932 55.3833 63.6271 55.8819 61.361C56.1387 60.228 56.3955 59.0949 56.6372 57.9619L56.9243 56.7684L57.2415 55.5296C57.453 54.6987 57.6796 53.8678 57.9213 53.0671C57.6192 54.0491 57.3322 55.0613 57.0753 56.0584C56.9394 56.5569 56.8185 57.0706 56.6825 57.5691L56.4106 58.687C56.0934 60.0467 55.7761 61.4063 55.474 62.7509C54.8546 65.44 54.2654 68.0989 53.6309 70.7426C52.9964 73.3864 52.3468 76 51.6216 78.5984C50.8965 81.1969 50.1109 83.7651 49.1289 86.2578C48.8268 87.0132 48.5246 87.7534 48.1923 88.4484C48.0261 88.7958 47.8599 89.1584 47.6786 89.4908C47.588 89.6569 47.4973 89.8231 47.4067 89.9893L47.3009 90.1706C47.2707 90.2159 47.2405 90.2763 47.2103 90.3368C46.9535 90.7598 46.6664 91.1828 46.3038 91.5303C46.1226 91.7115 45.9262 91.8626 45.6996 91.9986C45.4729 92.1194 45.2312 92.195 44.9744 92.2101C44.7025 92.2252 44.4456 92.1043 44.219 91.9684C43.9924 91.8173 43.7809 91.6511 43.5845 91.4547C43.3881 91.2734 43.2068 91.0619 43.0256 90.8504L42.7687 90.5332L42.6479 90.367L42.4666 90.1253C41.5148 88.8109 40.6386 87.3909 39.8077 85.9406C38.1459 83.04 36.6352 80.0487 35.1849 77.0122C33.4627 73.3864 31.9368 69.6549 30.5016 65.9083C30.6678 66.2105 30.834 66.4975 31.0002 66.7845C29.2024 62.1164 27.4802 57.6144 25.6522 52.8556C25.486 52.4175 25.3198 51.9945 25.1537 51.5564C21.3768 41.7216 18.4158 33.1708 15.1677 22.9432C14.3671 20.4354 13.5211 17.9427 12.7657 15.4198C12.1312 13.5465 12.675 16.8248 11.6629 13.6825C11.6931 13.8637 11.7233 14.0299 11.7384 14.181C12.5391 16.5679 13.3247 18.6376 13.3851 19.3477C13.37 20.3146 11.8139 15.7975 10.6658 12.9724C10.5902 12.912 10.4996 12.8062 10.409 12.6552C10.409 12.6552 10.2881 12.2473 10.137 11.7487C10.0917 11.643 10.0464 11.5674 10.0011 11.4768C9.94063 11.6128 9.80466 11.507 9.65359 11.3257C9.98595 12.4437 10.3032 13.5465 10.6356 14.6644C10.1068 13.6976 9.6687 12.6854 9.0493 10.9783C9.0493 10.9783 9.0493 10.9783 9.0493 10.9934C9.03419 10.948 9.01908 10.9178 9.01908 10.8725C8.89822 10.525 8.77737 10.1625 8.62629 9.75456C10.2428 17.2931 7.93136 10.4193 6.42063 7.83594C6.5717 8.50066 6.79831 9.30134 7.07024 10.1776C7.00981 10.1927 6.87385 10.238 6.87385 10.238C8.38458 16.0392 9.29101 19.9218 10.56 25.0884C10.8924 26.3726 10.6205 26.4632 11.2399 28.3516C12.8714 33.3975 14.4879 38.4584 16.2857 43.4589C18.2496 48.7767 20.1985 53.9434 22.1775 59.0496C24.1717 64.1559 26.1961 69.2017 28.3564 74.2626C28.3413 74.1871 28.3413 74.1569 28.3564 74.1569C29.3988 76.6043 30.4714 79.0516 31.6196 81.5292C32.7526 83.9766 33.8252 85.7291 35.1245 88.1613C36.0158 89.808 36.9524 91.4547 38.0855 93.1014L38.297 93.4187L38.4632 93.6453L38.6445 93.887C38.8862 94.2042 39.1279 94.5215 39.3847 94.8236C39.8984 95.4279 40.4422 96.002 41.0314 96.4703C42.1947 97.4221 43.4939 98.0264 44.9291 98.0415C45.2917 98.0113 45.6542 97.9811 46.0168 97.9206C46.1981 97.9055 46.3643 97.8451 46.5456 97.7998C46.7268 97.7545 46.893 97.7091 47.0592 97.6336C47.739 97.3919 48.3735 96.9991 48.9627 96.5761C50.1562 95.6545 51.1382 94.4006 51.9691 93.0259L52.2108 92.6029C52.2712 92.482 52.3316 92.3763 52.3921 92.2705C52.5129 92.0439 52.6338 91.8173 52.7546 91.5907C52.9813 91.1375 53.1928 90.6993 53.3892 90.2612C53.7819 89.3699 54.1445 88.4937 54.4769 87.6326C55.7761 84.1428 56.743 80.7285 57.6494 77.3143C58.5407 73.9001 59.3414 70.5009 60.127 67.132C60.5198 65.4551 60.9126 63.7631 61.3054 62.0862L61.9097 59.5784L61.9852 59.2762L62.0003 59.2007L62.0305 59.0345L62.1061 58.7021C62.0909 58.264 62.1363 57.7051 62.2571 57.0706C62.1363 57.4029 62.0305 57.7202 61.8945 58.0676C61.9097 57.4936 62.0003 56.7835 62.1816 55.9828C62.2873 55.59 62.3931 55.1519 62.6046 54.744C62.7103 54.5476 62.8463 54.3361 63.0578 54.2908C63.2542 54.2606 63.4053 54.3815 63.5261 54.4872C64.0096 54.9858 64.3268 55.726 64.6592 56.5569C64.8254 56.9648 64.9915 57.4029 65.1426 57.8561L65.3843 58.5511L65.5052 58.9136L65.7016 59.5633C66.7289 63.0077 67.6806 66.5126 68.6173 69.7758C69.5388 73.0389 70.4453 76.0604 71.3215 78.5682C72.3035 81.4235 73.3157 84.3694 74.5696 87.3304C74.8868 88.0707 75.2192 88.8109 75.5817 89.5512C75.763 89.9138 75.9594 90.2914 76.1407 90.654L76.4882 91.2885L76.8659 91.9079C77.3795 92.7237 77.9536 93.4791 78.6485 94.0985C78.996 94.4006 79.3586 94.6877 79.7816 94.869C80.1895 95.0654 80.6427 95.1862 81.111 95.1862C81.5793 95.1711 82.0174 94.9747 82.3951 94.7179C82.7728 94.4611 83.1354 94.1589 83.4526 93.8114C84.1022 93.1316 84.6763 92.3309 85.19 91.5151C85.3108 91.3188 85.4619 91.0921 85.5677 90.8958L85.8849 90.3368C86.0964 89.9591 86.3079 89.5965 86.5043 89.2188C86.9122 88.4635 87.2899 87.7081 87.6676 86.9376C89.1632 83.8709 90.5077 80.6983 91.807 77.4805C94.1486 71.0448 96.3391 64.3523 98.5146 57.5087C96.6111 63.7782 94.5263 70.1686 91.9731 77.0575C94.7227 70.1988 97.2909 63.1437 99.7534 56.0433C102.322 48.0062 104.86 40.3317 107.292 32.1133C107.821 30.1947 108.395 28.3063 108.652 27.0071C108.757 26.0553 108.848 25.1036 108.924 24.2575C108.183 26.7654 107.458 29.3487 106.854 31.5695C106.914 31.2824 106.854 31.2975 106.808 31.2824C105.751 34.7118 105.086 37.2045 103.953 40.7547C105.222 35.6182 107.156 29.4696 108.984 23.2756C108.999 22.9281 108.999 22.6109 108.999 22.3389C105.056 35.0744 101.068 48.127 96.9888 60.6963ZM72.6358 73.6281C73.8142 77.1632 75.0228 80.9552 76.458 84.7018C76.8205 85.6384 77.1982 86.56 77.6061 87.4664C77.8025 87.9196 78.014 88.3728 78.2406 88.7958C78.3464 89.0073 78.4521 89.2339 78.573 89.4454C78.6636 89.5965 78.7241 89.7174 78.8147 89.8685C79.1471 90.4123 79.4945 90.9411 79.9629 91.3641C80.1895 91.5756 80.4614 91.7418 80.7635 91.8173C80.8391 91.8324 80.9146 91.8475 80.9902 91.8475C81.0657 91.8626 81.1412 91.8475 81.2168 91.8324C81.3678 91.8022 81.5189 91.7266 81.6398 91.636C82.0023 91.3641 82.2743 90.9864 82.5009 90.6389C82.7577 90.2612 82.9843 89.9138 83.1807 89.5814C83.3318 89.3246 83.498 89.0678 83.649 88.826C83.8152 88.5541 83.9663 88.2822 84.1325 88.0254C84.2231 87.8592 84.3137 87.693 84.3893 87.5268C84.344 87.6175 84.2986 87.7232 84.2533 87.829C85.2051 86.2125 86.0964 84.6111 87.0784 82.5565L87.2748 81.9371L87.4712 82.0278C86.9877 83.4176 86.3986 84.8528 85.7187 86.288C85.3864 87.0132 85.0238 87.7232 84.631 88.4333C84.2533 89.1131 83.785 89.9289 83.498 90.3519C83.1656 90.8655 82.803 91.349 82.38 91.7871C82.1685 91.9986 81.9419 92.2101 81.67 92.3612C81.534 92.4367 81.3981 92.4971 81.247 92.5273C81.0959 92.5575 80.9448 92.5424 80.7938 92.5122C80.1895 92.3763 79.7211 91.9382 79.3284 91.5C78.9356 91.0468 78.6032 90.5483 78.3011 90.0195C78.1953 89.8382 78.1198 89.7174 77.9838 89.4606L77.6212 88.7656C77.3946 88.2973 77.168 87.829 76.9414 87.3304C76.5033 86.3636 76.0954 85.3514 75.7177 84.3392C74.9472 82.2997 74.2523 80.1998 73.5725 78.0848C72.2279 73.8547 71.0042 69.5794 69.705 65.4853C69.3122 64.2163 68.8741 62.2826 68.5418 61.0136C69.9467 65.4853 71.2309 69.247 72.6358 73.6281ZM13.098 24.9525C13.1132 25.0582 13.1283 25.164 13.1434 25.2697C12.9017 24.6201 12.6599 23.9554 12.4182 23.3209C12.6599 23.759 12.9017 24.3482 13.098 24.9525ZM11.9046 22.5655C11.9197 22.5655 11.9499 22.5806 11.965 22.5957C13.8081 28.0797 15.8325 33.6996 17.1619 38.0505C15.3037 32.8234 13.2944 27.2035 11.9046 22.5655ZM21.7847 55.5749C21.7998 55.5749 21.7998 55.5598 21.8149 55.5598C21.8149 55.59 21.8301 55.6354 21.8301 55.6656C21.8149 55.6354 21.7998 55.6052 21.7847 55.5749ZM47.3916 92.1043C47.4369 91.9079 47.588 91.5756 47.7844 91.1375C47.8901 90.9109 47.9959 90.6842 48.1016 90.4123C48.2376 90.0951 48.3886 89.7476 48.5548 89.3699C48.8721 88.6145 49.2044 87.7383 49.5368 86.7866C50.8662 82.9946 52.1201 78.0848 52.8 75.5468C53.6762 72.4044 54.5071 68.9449 55.3078 65.4249C55.7006 63.6573 56.0934 61.8747 56.4861 60.1071C56.5919 59.669 56.6825 59.2158 56.7732 58.7777L56.9243 58.113L57.1207 57.2669C57.4077 56.0433 57.7249 54.8196 58.0573 53.6261C58.858 52.5233 58.3141 54.6534 57.5134 58.1885C56.8638 61.074 55.8516 65.3644 54.7186 69.9873C53.5704 74.595 52.2863 79.52 51.0022 83.5838C50.3677 85.6233 49.7181 87.4513 49.1289 88.9318C48.9778 89.2944 48.8419 89.6569 48.6908 89.9742C48.5548 90.2914 48.4189 90.5785 48.298 90.8504C48.0714 91.3641 47.8599 91.8173 47.6786 92.195C47.4218 92.3612 47.3462 92.3007 47.3916 92.1043ZM58.3443 65.3947C57.876 69.3528 56.1387 76.4079 54.5977 82.2695C54.0539 84.2183 53.5402 86.1823 52.8151 88.1311C52.528 88.9016 52.2108 89.6721 51.8633 90.4576C51.682 90.8504 51.5007 91.2281 51.2892 91.6209C51.1835 91.8173 51.0928 91.9986 50.9569 92.2252C50.8058 92.4971 50.6547 92.7539 50.4735 93.0108C49.8238 94.0381 49.0383 94.9747 48.1167 95.6848L47.7692 95.9416L47.3916 96.1682C47.1498 96.3344 46.8779 96.425 46.6211 96.5459C46.0772 96.7423 45.5183 96.848 44.9291 96.8933C42.663 96.8631 40.8803 95.1258 39.3696 93.1769L38.9013 92.5576L38.5387 92.0439C38.297 91.6964 38.0553 91.349 37.8438 91.0015C37.3905 90.3066 36.9524 89.5965 36.5445 88.9016C34.8827 86.0765 33.4173 83.1608 32.0124 80.1545C30.2901 76.5287 28.3715 72.2685 26.755 68.6125C26.2112 67.3888 25.7126 66.1349 25.2443 64.9112C25.2443 64.8508 25.2292 64.7753 25.2292 64.6997C25.8335 66.2105 26.4529 67.7061 27.0723 69.2017C27.6312 70.4103 28.3262 71.5584 28.583 72.1778C29.7312 74.595 31.0304 77.6618 32.4807 80.6681C33.7195 83.04 35.0338 86.137 36.7863 89.1131C37.1186 89.7174 37.602 90.2461 37.6625 90.2008C38.0553 90.8957 38.4481 91.5454 38.856 92.1345C39.1883 92.6331 39.8833 93.5848 40.5026 94.2496C41.1372 94.9445 41.817 95.5337 42.5421 95.9718C43.2673 96.3948 44.0529 96.712 44.9442 96.6818C46.7722 96.6063 48.4642 95.4884 49.8994 93.6151C49.28 94.3704 48.5699 95.02 47.7995 95.5035C48.5397 94.9596 49.1591 94.2949 49.6728 93.5848L49.8692 93.3129L50.0504 93.0259L50.3979 92.4669L50.5641 92.1799L50.7152 91.9079C50.8058 91.7569 50.8813 91.6058 50.9418 91.4547C51.5461 90.2461 52.0748 88.9469 52.6791 87.3455C53.6762 84.7924 53.9934 82.7831 54.5826 80.8645C56.3502 74.4288 57.8307 67.978 58.7673 62.7811C58.7522 63.4609 58.435 64.7451 58.3443 65.3947Z" fill="url(#paint12_linear)"/>
<path d="M109.739 26.5539C109.8 26.3424 109.86 26.146 109.936 25.9194C109.694 26.4784 109.694 26.5388 109.739 26.5539Z" fill="url(#paint13_linear)"/>
<path d="M6.7379 4.01465C6.72279 4.01465 6.69257 4.04486 6.67747 4.04486C6.81343 4.45276 6.93429 4.83044 7.04004 5.17791C6.87386 4.57362 6.7379 4.01465 6.7379 4.01465Z" fill="url(#paint14_linear)"/>
<path d="M8.05223 5.73633C8.03713 5.78165 8.02202 5.79676 8.02202 5.82697C8.06734 5.91762 8.11266 6.00826 8.15799 6.11401C8.11266 5.99315 8.08245 5.85719 8.05223 5.73633Z" fill="url(#paint15_linear)"/>
<path d="M5.90705 4.21093C5.74087 3.56132 5.42362 2.23188 5.28765 1.52183C5.01572 0.842006 5.01572 1.58226 4.87975 1.61248C4.80422 1.2499 4.74379 0.887328 4.68336 0.615397C4.62293 0.328358 4.57761 0.116856 4.54739 0.116856C4.48696 0.0111045 4.44164 -0.0191097 4.41143 0.0111049C4.38121 0.0413195 4.351 0.116856 4.351 0.313251C4.351 0.690933 4.41143 1.26501 4.53228 1.94484C5.22722 3.38003 6.13366 5.78209 6.67752 6.90003C7.23649 8.01797 7.37245 7.8669 6.67752 4.02964C6.4358 4.19583 6.31494 4.75479 5.90705 4.21093Z" fill="url(#paint16_linear)"/>
<path d="M7.07027 5.29886C7.64435 7.0362 8.06735 8.04838 8.581 9.03036C8.26375 7.91242 7.9616 6.79448 7.65946 5.66143C7.41774 5.35928 7.1307 4.90607 7.07027 5.29886Z" fill="url(#paint17_linear)"/>
<path d="M109.739 26.5547C109.694 26.5395 109.694 26.4791 109.936 25.9201C109.86 26.1468 109.8 26.3583 109.739 26.5547C109.77 26.5698 109.845 26.5547 109.785 26.8417C110.389 24.6209 111.099 22.0225 111.824 19.5147C111.854 19.1672 111.87 18.8348 111.885 18.5176C110.087 24.7267 108.168 30.8904 106.929 36.042C108.047 32.4918 108.697 29.9991 109.739 26.5547Z" fill="url(#paint18_linear)"/>
<path d="M111.613 17.9285C111.673 17.717 111.733 17.5054 111.794 17.2939C111.567 17.8529 111.567 17.9133 111.613 17.9285Z" fill="url(#paint19_linear)"/>
<path d="M65.762 60.4551C65.6261 60.032 65.475 59.609 65.339 59.186L65.2786 59.035L65.2484 58.9594L65.2333 58.9141L65.1728 58.763L65.052 58.476C64.8858 58.0983 64.7196 57.7508 64.5685 57.4336C64.7045 57.7962 64.8405 58.189 64.9915 58.5969L65.0973 58.899L65.1728 59.1256L65.2786 59.458C65.4146 59.8961 65.5354 60.3493 65.6714 60.7874C66.185 62.5701 66.6836 64.3376 67.167 66.0598C68.1339 69.5043 69.0555 72.7373 69.9468 75.4868C69.0555 72.2992 68.2397 69.0964 67.4087 65.8786C66.8649 63.9448 66.321 62.1622 65.762 60.4551Z" fill="url(#paint20_linear)"/>
<path d="M63.0428 56.3019C62.9068 56.3623 62.8161 56.5134 62.7406 56.6342C62.6651 56.7702 62.6046 56.9062 62.5593 57.0572C62.3629 57.6162 62.2269 58.1601 62.1212 58.6737C62.1212 58.7946 62.1212 58.9003 62.1363 59.0061C62.3478 58.4773 62.4536 58.0543 62.6197 57.4651C62.6651 57.3292 62.7104 57.1781 62.7708 57.0119C62.8312 56.8609 62.9068 56.6947 63.0276 56.5889C63.1636 56.4983 63.2694 56.5738 63.36 56.604C63.4507 56.6493 63.5111 56.7098 63.5866 56.7853C63.5262 56.6645 63.4507 56.5587 63.36 56.453C63.2996 56.3774 63.1938 56.2566 63.0428 56.3019Z" fill="url(#paint21_linear)"/>
<path d="M63.4657 55.3486C63.3449 55.2428 63.1787 55.122 62.9823 55.2428C62.801 55.3788 62.6952 55.5903 62.6197 55.8018C62.4535 56.2248 62.3629 56.6327 62.2874 57.0255C62.4233 56.678 62.5442 56.3155 62.7406 55.9529C62.8312 55.7867 62.9823 55.5752 63.1636 55.5903C63.3297 55.6205 63.4506 55.7263 63.5412 55.832C63.934 56.255 64.2211 56.7687 64.5685 57.4334C64.4024 57.0104 64.2513 56.6176 64.07 56.2701C63.8887 55.9076 63.7074 55.5903 63.4657 55.3486Z" fill="url(#paint22_linear)"/>
<path d="M94.5263 57.5549C94.5868 57.1017 94.6623 56.4974 94.7832 55.6816C94.7227 55.8478 94.6623 56.014 94.617 56.1802C93.7408 59.0959 92.8192 62.0418 91.8524 65.0028C91.5049 66.2265 91.1725 67.4049 90.9157 68.402C91.5955 66.6344 92.2754 64.8518 92.9099 63.0842C93.7105 60.2289 94.2091 58.5218 94.5263 57.5549Z" fill="url(#paint23_linear)"/>
<path d="M94.5264 57.5543C94.058 61.452 95.7501 53.7623 94.5264 57.5543V57.5543Z" fill="url(#paint24_linear)"/>
<path d="M92.0033 77.0283C91.9429 77.1643 91.8825 77.3154 91.8372 77.4513C91.6861 77.8592 91.535 78.2822 91.384 78.6901C91.5955 78.1161 91.7918 77.5873 92.0033 77.0283Z" fill="url(#paint25_linear)"/>
<path d="M74.8113 80.5183C75.5969 82.9657 76.458 85.4131 77.5005 87.6641C76.4731 85.3376 75.612 82.8449 74.8113 80.4579C74.0257 78.0558 73.3006 75.7444 72.6359 73.6445C72.802 74.279 72.9078 74.9287 73.0891 75.5632C73.5725 76.7868 74.2372 78.6299 74.8113 80.5183Z" fill="url(#paint26_linear)"/>
<path d="M82.1383 93.7068C82.6067 93.3744 82.9995 92.9363 83.362 92.4982C83.7246 92.045 84.057 91.5766 84.3591 91.1083C84.6613 90.64 84.9634 90.1415 85.2655 89.6278C85.5526 89.1142 85.8396 88.6005 86.1115 88.0869C87.1842 86.0323 88.1359 83.9173 89.0575 81.8022C90.9006 77.5571 92.5624 73.2515 94.2695 68.8855C95.191 66.1813 96.0824 63.462 96.9737 60.6974C97.6384 58.5672 98.2729 56.4371 98.8923 54.307C101.959 44.17 105.827 32.4316 108.954 21.5091C108.848 21.1314 108.667 21.0257 108.334 21.358C104.542 33.0964 101.174 44.9707 97.0492 56.5731C97.019 56.6637 97.0039 56.7544 96.9737 56.8601C95.6594 61.9815 92.6379 69.9884 90.4927 76.1974C89.4503 79.3246 88.3021 82.4065 87.0029 85.4129C86.3533 86.9236 85.6583 88.4041 84.8879 89.8393L84.6008 90.3681L84.3138 90.8666C84.1174 91.199 83.921 91.5313 83.6944 91.8637C83.2563 92.5133 82.7728 93.178 82.1383 93.7068Z" fill="url(#paint27_linear)"/>
<path d="M65.3693 60.4699C65.2787 60.198 65.2031 59.926 65.1125 59.6541L64.9765 59.2613L64.9161 59.0649C64.901 59.0045 64.8859 59.0045 64.8708 58.9743C64.7801 58.7628 64.6895 58.5513 64.5989 58.37C64.2363 57.6146 63.919 57.1161 63.5867 56.7988C63.919 57.4182 64.1759 58.1434 64.4478 58.9441L64.478 59.0498L64.5233 59.1858C64.5837 59.3973 64.6442 59.6088 64.7197 59.8203C64.8406 60.2433 64.9765 60.6663 65.0974 61.0893C65.3391 61.9353 65.5808 62.7662 65.8225 63.5971C66.306 65.2589 66.7743 66.8905 67.2426 68.507C68.1792 71.7399 69.1159 74.8973 70.1583 78.0699C68.7835 73.3564 67.5901 68.6127 66.3513 63.869C66.0491 62.6756 65.7168 61.5576 65.3693 60.4699Z" fill="url(#paint28_linear)"/>
<path d="M90.8553 81.0611C89.7978 83.5235 88.71 85.9558 87.5015 88.3277C87.1993 88.9168 86.8821 89.506 86.5648 90.0952C86.3986 90.3822 86.2324 90.6844 86.0663 90.9714L85.9303 91.198L85.7641 91.4549C85.6584 91.6361 85.5526 91.8023 85.4318 91.9685C84.5253 93.3282 83.5131 94.6425 82.1686 95.3072C81.8362 95.4734 81.4586 95.5791 81.0658 95.5791C80.8694 95.564 80.673 95.564 80.4917 95.5187C80.4011 95.5036 80.2953 95.4885 80.2198 95.4583L79.9478 95.3676C79.2378 95.0957 78.6335 94.6425 78.0896 94.0986C77.5458 93.5548 77.0624 92.9051 76.6242 92.2404C76.2012 91.5606 75.7631 90.7901 75.5063 90.2614C74.3279 87.9349 73.4366 85.5932 72.5906 83.2969C71.7597 81.0006 71.0043 78.7345 70.2792 76.5138C70.1734 76.1814 70.0526 75.8188 69.9468 75.4865C70.536 77.6166 71.1554 79.7467 71.8352 81.8617C72.5151 83.9768 73.2402 86.0918 74.1164 88.1766C74.3279 88.7053 74.5545 89.219 74.8114 89.7477C74.9322 90.0046 75.0531 90.2614 75.1891 90.5333L75.3854 90.9261L75.6272 91.3793C75.9897 92.0591 76.3976 92.6936 76.8206 93.2979C77.2739 93.8871 77.7422 94.431 78.2709 94.8842C78.8148 95.3223 79.3889 95.6849 80.0536 95.8964C80.3859 96.0021 80.7334 96.0324 81.0809 96.0626C81.4283 96.0626 81.7758 96.0021 82.0931 95.8662C83.347 95.3676 84.344 94.3101 85.2354 93.1318C84.6311 93.9778 83.9513 94.7482 83.1657 95.3072C82.7729 95.5942 82.365 95.8209 81.8967 95.9719C81.6701 96.0324 81.4284 96.0777 81.1715 96.1079C80.9298 96.0928 80.673 96.0928 80.4464 96.0324C80.2047 96.0172 79.9781 95.9115 79.7514 95.836C79.5399 95.7302 79.2982 95.6547 79.1018 95.5187L78.7846 95.3374L78.4824 95.1259C78.286 94.99 78.1048 94.8238 77.9084 94.6576C77.1681 93.9778 76.5336 93.1318 75.9746 92.2102C75.8387 91.9836 75.6876 91.757 75.5516 91.5153L75.2042 90.8808C75.0229 90.5182 74.8265 90.1556 74.6603 89.7931C74.3128 89.0679 73.9805 88.3428 73.6783 87.6176C73.0589 86.1673 72.5 84.7019 71.9863 83.2365C71.3518 81.4992 70.7626 79.792 70.2188 78.0849C71.2461 81.5747 72.3338 85.0494 73.769 88.5089C74.1316 89.3701 74.5243 90.2312 74.9624 91.1074C75.0531 91.2736 75.2495 91.6512 75.4006 91.9232L75.9142 92.7843C76.0955 93.0562 76.2919 93.3282 76.4732 93.6001C76.6696 93.8569 76.866 94.1137 77.0775 94.3554C77.5005 94.8087 77.9386 95.2619 78.4371 95.5942C78.9205 95.9417 79.4493 96.2136 80.0234 96.3798C80.5974 96.5158 81.2168 96.6064 81.806 96.4554C82.3801 96.3194 82.8937 96.0324 83.3923 95.7C84.193 95.1259 84.8879 94.3555 85.5224 93.4943C85.8397 93.0562 86.1418 92.6181 86.4137 92.1649L86.6252 91.8174C86.7008 91.6966 86.7612 91.5908 86.8065 91.5153L87.0936 91.0167C87.8489 89.6722 88.4985 88.3125 89.133 86.9529C90.3869 84.2336 91.4898 81.4841 92.5473 78.7345C94.6623 73.2204 96.5507 67.6458 98.3334 62.0561C98.7412 60.7871 99.1491 59.5332 99.557 58.2793C97.7442 63.4309 95.886 68.5522 93.922 73.5981C92.9099 76.0908 91.8977 78.5835 90.8553 81.0611Z" fill="url(#paint29_linear)"/>
<path d="M94.0579 69.7152C94.2996 69.0203 94.5263 68.3253 94.7529 67.6455C94.5867 68.0534 94.4356 68.4764 94.2694 68.8843C93.9673 69.7605 93.6651 70.6367 93.3781 71.4979C93.6047 70.8936 93.8313 70.3044 94.0579 69.7152Z" fill="url(#paint30_linear)"/>
<path d="M79.1168 90.6841C79.3737 91.0618 79.6758 91.4092 80.0082 91.6812C80.3405 91.9531 80.7635 92.1495 81.2016 92.089C81.6246 91.9984 81.957 91.666 82.2289 91.3639C82.5009 91.0466 82.7275 90.7143 82.939 90.3819C83.0447 90.2158 83.1354 90.0496 83.226 89.8985C83.3318 89.7021 83.4375 89.5057 83.5433 89.3244C83.8001 88.8259 84.0569 88.3424 84.2835 87.859C84.2382 87.9194 84.208 87.995 84.1627 88.0554C83.9361 88.4935 83.6944 88.9316 83.4375 89.3697L83.1656 89.8381L82.9239 90.2309C82.5764 90.7445 82.1987 91.2884 81.67 91.666C81.3074 91.9833 80.7786 91.9682 80.3859 91.7567C79.978 91.5452 79.6456 91.2128 79.3435 90.8503C79.0413 90.4726 78.7694 90.0647 78.5125 89.6266L78.3917 89.4302L78.2557 89.1885L77.9989 88.6899C77.8327 88.3576 77.6665 88.0252 77.5155 87.6777C77.7874 88.3122 78.0895 88.9165 78.3917 89.5057C78.6183 89.9287 78.8449 90.3064 79.1168 90.6841Z" fill="url(#paint31_linear)"/>
<path d="M78.5731 84.6569C78.3465 84.0828 77.9386 82.8893 77.7422 82.285C77.576 81.9225 77.4249 81.575 77.2587 81.2275C77.44 81.8016 77.6213 82.3757 77.8026 82.9347C78.0594 83.5087 78.3163 84.0979 78.5731 84.6569Z" fill="url(#paint32_linear)"/>
<path d="M43.645 106.923C43.5996 107.407 43.5543 107.83 43.4939 108.177C43.4335 108.525 43.3428 108.812 43.2522 109.023C43.1615 109.25 43.0407 109.401 42.9047 109.507C42.7687 109.612 42.6177 109.658 42.4364 109.658L42.376 109.31C42.4515 109.31 42.5119 109.295 42.5723 109.265C42.6328 109.235 42.6932 109.189 42.7536 109.129C42.8141 109.069 42.8745 108.978 42.9198 108.857C42.9651 108.751 43.0256 108.6 43.0709 108.419C43.1162 108.238 43.1615 108.026 43.1917 107.769C43.222 107.513 43.2673 107.21 43.2824 106.863L43.3579 105.911H45.2312V109.612H44.8687V106.274H43.6752L43.645 106.923Z" fill="#474747"/>
<path d="M46.8023 109.704C46.6815 109.704 46.5606 109.688 46.4397 109.643C46.3189 109.598 46.2282 109.537 46.1527 109.462C46.0772 109.386 46.0016 109.296 45.9563 109.19C45.911 109.084 45.8959 108.978 45.8959 108.857C45.8959 108.737 45.9261 108.631 45.9714 108.525C46.0318 108.419 46.1074 108.344 46.2131 108.268C46.3189 108.193 46.4397 108.132 46.5757 108.102C46.7117 108.057 46.8627 108.042 47.0289 108.042C47.1649 108.042 47.316 108.057 47.4519 108.072C47.5879 108.102 47.7239 108.132 47.8296 108.178V107.936C47.8296 107.694 47.7692 107.513 47.6332 107.362C47.4972 107.226 47.316 107.15 47.0742 107.15C46.9383 107.15 46.7872 107.181 46.6512 107.241C46.5002 107.301 46.3642 107.377 46.2131 107.483L46.0923 107.241C46.4397 106.999 46.7872 106.894 47.1196 106.894C47.4519 106.894 47.7238 106.984 47.9202 107.181C48.1166 107.377 48.2073 107.634 48.2073 107.966V109.19C48.2073 109.28 48.2526 109.341 48.3432 109.341V109.658C48.2828 109.673 48.2375 109.673 48.2073 109.673C48.1166 109.673 48.0411 109.643 47.9958 109.613C47.9505 109.568 47.9202 109.507 47.9202 109.432L47.9051 109.22C47.7843 109.386 47.6181 109.507 47.4368 109.598C47.2253 109.658 47.0138 109.704 46.8023 109.704ZM46.8778 109.432C47.0591 109.432 47.2253 109.401 47.3915 109.326C47.5426 109.25 47.6634 109.16 47.739 109.054C47.7692 109.024 47.7994 108.993 47.8145 108.948C47.8296 108.918 47.8447 108.873 47.8447 108.842V108.404C47.7238 108.359 47.603 108.329 47.4821 108.299C47.3613 108.268 47.2253 108.268 47.0893 108.268C46.8325 108.268 46.6361 108.314 46.4851 108.419C46.334 108.525 46.2433 108.661 46.2433 108.827C46.2433 108.903 46.2584 108.993 46.2887 109.054C46.3189 109.129 46.3642 109.19 46.4246 109.25C46.4851 109.311 46.5455 109.341 46.6361 109.371C46.7117 109.416 46.7872 109.432 46.8778 109.432Z" fill="#474747"/>
<path d="M50.2771 106.29C49.9749 106.366 49.7332 106.502 49.5519 106.698C49.3706 106.909 49.2649 107.196 49.2196 107.574C49.3253 107.408 49.4613 107.272 49.6275 107.196C49.7936 107.106 49.9749 107.06 50.1864 107.06C50.3677 107.06 50.5188 107.091 50.6699 107.166C50.8209 107.227 50.9418 107.317 51.0475 107.438C51.1533 107.559 51.2288 107.695 51.2893 107.861C51.3497 108.027 51.3799 108.209 51.3799 108.39C51.3799 108.586 51.3497 108.768 51.2893 108.919C51.2288 109.085 51.1382 109.221 51.0324 109.327C50.9267 109.447 50.7907 109.523 50.6245 109.598C50.4735 109.659 50.2922 109.689 50.0958 109.689C49.703 109.689 49.3857 109.553 49.1893 109.266C48.9778 108.979 48.8721 108.586 48.8721 108.073C48.8721 107.755 48.9023 107.483 48.9627 107.242C49.0232 107 49.1138 106.804 49.2347 106.622C49.3555 106.456 49.5066 106.305 49.6728 106.199C49.839 106.094 50.0353 106.018 50.262 105.958L51.0778 105.776L51.1382 106.079L50.2771 106.29ZM49.2347 108.375C49.2347 108.526 49.2498 108.662 49.2951 108.783C49.3404 108.904 49.4008 109.024 49.4764 109.115C49.5519 109.206 49.6426 109.281 49.7634 109.327C49.8692 109.372 49.99 109.402 50.126 109.402C50.262 109.402 50.3828 109.372 50.4886 109.327C50.5943 109.281 50.685 109.206 50.7756 109.115C50.8511 109.024 50.9116 108.919 50.9569 108.798C51.0022 108.677 51.0173 108.541 51.0173 108.39C51.0173 108.088 50.9418 107.831 50.7756 107.65C50.6094 107.468 50.3979 107.378 50.1109 107.378C49.99 107.378 49.8692 107.408 49.7634 107.438C49.6577 107.483 49.567 107.544 49.4915 107.635C49.416 107.725 49.3555 107.816 49.3102 107.952C49.2498 108.088 49.2347 108.224 49.2347 108.375Z" fill="#474747"/>
<path d="M53.1323 109.704C52.9359 109.704 52.7546 109.673 52.5884 109.598C52.4222 109.522 52.2863 109.416 52.1654 109.296C52.0445 109.175 51.9539 109.024 51.8935 108.842C51.833 108.676 51.7877 108.495 51.7877 108.314C51.7877 108.117 51.8179 107.936 51.8935 107.77C51.9539 107.604 52.0597 107.453 52.1805 107.317C52.3014 107.181 52.4373 107.09 52.6035 107.014C52.7697 106.939 52.951 106.894 53.1323 106.894C53.3287 106.894 53.51 106.939 53.6761 107.014C53.8423 107.09 53.9783 107.196 54.0991 107.317C54.22 107.437 54.3106 107.588 54.3862 107.77C54.4466 107.936 54.4919 108.117 54.4919 108.314C54.4919 108.495 54.4617 108.676 54.3862 108.842C54.3258 109.009 54.22 109.16 54.1142 109.296C53.9934 109.416 53.8574 109.522 53.6912 109.598C53.51 109.658 53.3287 109.704 53.1323 109.704ZM52.1503 108.299C52.1503 108.45 52.1805 108.586 52.2258 108.722C52.2712 108.857 52.3467 108.963 52.4373 109.069C52.528 109.175 52.6337 109.25 52.7546 109.296C52.8754 109.356 52.9963 109.371 53.1323 109.371C53.2682 109.371 53.3891 109.341 53.51 109.281C53.6308 109.22 53.7366 109.145 53.8272 109.039C53.9179 108.933 53.9934 108.827 54.0387 108.691C54.084 108.555 54.1142 108.419 54.1142 108.268C54.1142 108.117 54.084 107.981 54.0387 107.845C53.9934 107.709 53.9179 107.588 53.8272 107.498C53.7366 107.392 53.6308 107.317 53.51 107.256C53.3891 107.196 53.2682 107.165 53.1323 107.165C52.9963 107.165 52.8754 107.196 52.7546 107.256C52.6337 107.317 52.528 107.392 52.4373 107.498C52.3467 107.604 52.2712 107.709 52.2258 107.845C52.1805 108.011 52.1503 108.147 52.1503 108.299Z" fill="#474747"/>
<path d="M56.4711 109.704C56.2445 109.704 56.0329 109.643 55.8668 109.522C55.6855 109.401 55.5495 109.265 55.4438 109.084V110.761H55.0963V106.939H55.4136V107.468C55.5193 107.301 55.6704 107.165 55.8517 107.06C56.0329 106.954 56.2142 106.894 56.4257 106.894C56.607 106.894 56.7883 106.939 56.9394 107.014C57.0905 107.09 57.2264 107.196 57.3473 107.332C57.4681 107.468 57.5437 107.619 57.6192 107.785C57.6948 107.951 57.7099 108.132 57.7099 108.314C57.7099 108.51 57.6796 108.691 57.6192 108.857C57.5588 109.024 57.4832 109.175 57.3624 109.311C57.2566 109.432 57.1207 109.537 56.9696 109.613C56.8185 109.658 56.6523 109.704 56.4711 109.704ZM56.3653 109.386C56.5164 109.386 56.6372 109.356 56.7581 109.296C56.879 109.235 56.9847 109.145 57.0602 109.054C57.1358 108.963 57.2113 108.842 57.2566 108.706C57.302 108.57 57.3171 108.45 57.3171 108.299C57.3171 108.147 57.2869 108.011 57.2415 107.876C57.1962 107.74 57.1207 107.634 57.03 107.528C56.9394 107.422 56.8336 107.347 56.7128 107.286C56.5919 107.226 56.456 107.196 56.32 107.196C56.2293 107.196 56.1387 107.211 56.033 107.256C55.9272 107.286 55.8366 107.347 55.761 107.407C55.6704 107.468 55.6099 107.543 55.5495 107.619C55.4891 107.694 55.4438 107.785 55.4438 107.876V108.706C55.4891 108.797 55.5344 108.888 55.6099 108.978C55.6704 109.054 55.7459 109.129 55.8214 109.19C55.897 109.25 55.9876 109.296 56.0783 109.326C56.1689 109.356 56.2596 109.386 56.3653 109.386Z" fill="#474747"/>
<path d="M58.9788 109.704C58.8579 109.704 58.7371 109.688 58.6162 109.643C58.4954 109.598 58.4047 109.537 58.3292 109.462C58.2537 109.386 58.1781 109.296 58.1328 109.19C58.0875 109.084 58.0724 108.978 58.0724 108.857C58.0724 108.737 58.1026 108.631 58.1479 108.525C58.2083 108.419 58.2839 108.344 58.3896 108.268C58.4954 108.193 58.6162 108.132 58.7522 108.102C58.8882 108.057 59.0392 108.042 59.2054 108.042C59.3414 108.042 59.4924 108.057 59.6284 108.072C59.7644 108.102 59.9003 108.132 60.0061 108.178V107.936C60.0061 107.694 59.9457 107.513 59.8097 107.362C59.6737 107.226 59.4924 107.15 59.2507 107.15C59.1148 107.15 58.9637 107.181 58.8277 107.241C58.6767 107.301 58.5407 107.377 58.3896 107.483L58.2688 107.241C58.6162 106.999 58.9637 106.894 59.2961 106.894C59.6284 106.894 59.9003 106.984 60.0967 107.181C60.2931 107.377 60.3838 107.634 60.3838 107.966V109.19C60.3838 109.28 60.4291 109.341 60.5197 109.341V109.658C60.4593 109.673 60.414 109.673 60.3838 109.673C60.2931 109.673 60.2176 109.643 60.1723 109.613C60.127 109.568 60.0967 109.507 60.0967 109.432L60.0816 109.22C59.9608 109.386 59.7946 109.507 59.6133 109.598C59.4018 109.658 59.2054 109.704 58.9788 109.704ZM59.0695 109.432C59.2507 109.432 59.4169 109.401 59.5831 109.326C59.7342 109.25 59.855 109.16 59.9306 109.054C59.9608 109.024 59.991 108.993 60.0061 108.948C60.0212 108.903 60.0363 108.873 60.0363 108.842V108.404C59.9155 108.359 59.7946 108.329 59.6737 108.299C59.5529 108.268 59.4169 108.268 59.281 108.268C59.0241 108.268 58.8277 108.314 58.6767 108.419C58.5256 108.525 58.4349 108.661 58.4349 108.827C58.4349 108.903 58.4501 108.993 58.4803 109.054C58.5105 109.129 58.5558 109.19 58.6162 109.25C58.6767 109.311 58.7371 109.341 58.8277 109.371C58.8882 109.416 58.9788 109.432 59.0695 109.432Z" fill="#474747"/>
<path d="M62.1513 109.644H61.8039V107.242H60.8521V106.939H63.1031V107.242H62.1513V109.644Z" fill="#474747"/>
<path d="M64.7649 109.704C64.5685 109.704 64.3872 109.673 64.221 109.598C64.0548 109.522 63.9189 109.416 63.798 109.296C63.6772 109.175 63.5865 109.024 63.5261 108.842C63.4657 108.676 63.4203 108.495 63.4203 108.314C63.4203 108.117 63.4506 107.936 63.5261 107.77C63.5865 107.604 63.6923 107.453 63.8131 107.317C63.934 107.181 64.0699 107.09 64.2361 107.014C64.4023 106.939 64.5836 106.894 64.7649 106.894C64.9613 106.894 65.1425 106.939 65.3087 107.014C65.4749 107.09 65.6109 107.196 65.7317 107.317C65.8526 107.437 65.9432 107.588 66.0187 107.77C66.0792 107.936 66.1245 108.117 66.1245 108.314C66.1245 108.495 66.0943 108.676 66.0187 108.842C65.9583 109.009 65.8526 109.16 65.7468 109.296C65.626 109.416 65.49 109.522 65.3238 109.598C65.1425 109.658 64.9613 109.704 64.7649 109.704ZM63.7829 108.299C63.7829 108.45 63.8131 108.586 63.8584 108.722C63.9038 108.857 63.9793 108.963 64.0699 109.069C64.1606 109.175 64.2663 109.25 64.3872 109.296C64.508 109.356 64.6289 109.371 64.7649 109.371C64.9008 109.371 65.0217 109.341 65.1425 109.281C65.2634 109.22 65.3691 109.145 65.4598 109.039C65.5504 108.933 65.626 108.827 65.6713 108.691C65.7166 108.555 65.7468 108.419 65.7468 108.268C65.7468 108.117 65.7166 107.981 65.6713 107.845C65.626 107.709 65.5504 107.588 65.4598 107.498C65.3691 107.392 65.2634 107.317 65.1425 107.256C65.0217 107.196 64.9008 107.165 64.7649 107.165C64.6289 107.165 64.508 107.196 64.3872 107.256C64.2663 107.317 64.1606 107.392 64.0699 107.498C63.9793 107.604 63.9038 107.709 63.8584 107.845C63.798 108.011 63.7829 108.147 63.7829 108.299Z" fill="#474747"/>
<path d="M68.0885 109.704C67.8619 109.704 67.6504 109.643 67.4842 109.522C67.3029 109.401 67.1669 109.265 67.0612 109.084V110.761H66.7137V106.939H67.0309V107.468C67.1367 107.301 67.2878 107.165 67.4691 107.06C67.6504 106.954 67.8316 106.894 68.0432 106.894C68.2244 106.894 68.4057 106.939 68.5568 107.014C68.7079 107.09 68.8439 107.196 68.9647 107.332C69.0856 107.468 69.1611 107.619 69.2367 107.785C69.2971 107.951 69.3273 108.132 69.3273 108.314C69.3273 108.51 69.2971 108.691 69.2367 108.857C69.1762 109.024 69.1007 109.175 68.9798 109.311C68.8741 109.432 68.7381 109.537 68.587 109.613C68.4359 109.658 68.2698 109.704 68.0885 109.704ZM67.9978 109.386C68.1489 109.386 68.2698 109.356 68.3906 109.296C68.5115 109.235 68.6172 109.145 68.6928 109.054C68.7683 108.963 68.8439 108.842 68.8892 108.706C68.9345 108.57 68.9496 108.45 68.9496 108.299C68.9496 108.147 68.9194 108.011 68.8741 107.876C68.8287 107.74 68.7532 107.634 68.6626 107.528C68.5719 107.422 68.4662 107.347 68.3453 107.286C68.2244 107.226 68.0885 107.196 67.9525 107.196C67.8619 107.196 67.7712 107.211 67.6655 107.256C67.5597 107.286 67.4691 107.347 67.3935 107.407C67.3029 107.468 67.2424 107.543 67.182 107.619C67.1216 107.694 67.0763 107.785 67.0763 107.876V108.706C67.1216 108.797 67.1669 108.888 67.2425 108.978C67.3029 109.054 67.3784 109.129 67.454 109.19C67.5295 109.25 67.6201 109.296 67.7108 109.326C67.8014 109.371 67.8921 109.386 67.9978 109.386Z" fill="#474747"/>
<path d="M70.279 109.145L71.8955 106.939H72.1825V109.644H71.8351V107.483L70.2488 109.659H69.9316V106.955H70.279V109.145Z" fill="#474747"/>
<path d="M73.4667 108.572C73.3005 108.527 73.1645 108.437 73.0588 108.301C72.953 108.165 72.8926 107.998 72.8926 107.772C72.8926 107.651 72.9077 107.53 72.953 107.439C72.9983 107.334 73.0588 107.243 73.1343 107.168C73.2098 107.092 73.3005 107.032 73.4213 106.986C73.5271 106.941 73.648 106.926 73.7839 106.926H74.7508V109.63H74.4033V108.603H73.8141L73.1343 109.63H72.7264L73.4667 108.572ZM74.4184 108.316V107.243H73.8141C73.7386 107.243 73.6782 107.258 73.6026 107.273C73.5422 107.303 73.4818 107.334 73.4213 107.379C73.376 107.424 73.3307 107.485 73.3005 107.545C73.2703 107.606 73.2552 107.681 73.2552 107.772C73.2552 107.938 73.3005 108.059 73.3911 108.149C73.4818 108.24 73.6177 108.301 73.7688 108.301H74.4184V108.316Z" fill="#474747"/>
<path d="M2.13013 112.515H0.362575V115.884H0V112.183H2.13013V112.515V112.515Z" fill="#474747"/>
<path d="M4.00341 115.941C3.7768 115.941 3.5653 115.88 3.39912 115.76C3.21783 115.639 3.08187 115.503 2.97611 115.321V116.998H2.62865V113.176H2.9459V113.705C3.05165 113.539 3.20272 113.403 3.38401 113.297C3.5653 113.191 3.74659 113.131 3.95809 113.131C4.13938 113.131 4.32066 113.176 4.47174 113.252C4.62281 113.327 4.75877 113.433 4.87963 113.569C5.00049 113.705 5.07603 113.856 5.15156 114.022C5.21199 114.188 5.24221 114.37 5.24221 114.551C5.24221 114.747 5.21199 114.929 5.15156 115.095C5.09113 115.261 5.0156 115.412 4.89474 115.548C4.78899 115.669 4.65302 115.775 4.50195 115.85C4.35088 115.911 4.1847 115.941 4.00341 115.941ZM3.91277 115.624C4.06384 115.624 4.1847 115.593 4.30556 115.533C4.42641 115.472 4.53217 115.382 4.6077 115.291C4.69835 115.185 4.75877 115.08 4.80409 114.944C4.84942 114.808 4.86453 114.687 4.86453 114.536C4.86453 114.385 4.83431 114.249 4.78899 114.113C4.74367 113.977 4.66813 113.871 4.57749 113.765C4.48684 113.66 4.38109 113.584 4.26023 113.524C4.13938 113.463 4.00341 113.433 3.86744 113.433C3.7768 113.433 3.68616 113.448 3.58041 113.493C3.47466 113.524 3.38401 113.584 3.30847 113.645C3.21783 113.705 3.1574 113.78 3.09697 113.856C3.03654 113.932 3.00633 114.022 2.99122 114.113V114.944C3.03654 115.034 3.08187 115.125 3.1574 115.216C3.21783 115.291 3.29337 115.367 3.3689 115.427C3.44444 115.488 3.53508 115.533 3.62573 115.563C3.71637 115.608 3.80702 115.624 3.91277 115.624Z" fill="#474747"/>
<path d="M6.52637 115.941C6.39041 115.941 6.28465 115.926 6.1638 115.88C6.05804 115.835 5.95229 115.775 5.87676 115.699C5.80122 115.624 5.72568 115.533 5.68036 115.427C5.63504 115.321 5.61993 115.216 5.61993 115.095C5.61993 114.974 5.65015 114.868 5.71058 114.762C5.77101 114.657 5.84654 114.581 5.95229 114.506C6.05805 114.43 6.1789 114.37 6.31487 114.339C6.45083 114.294 6.60191 114.279 6.76809 114.279C6.90405 114.279 7.04002 114.294 7.19109 114.309C7.32706 114.339 7.46302 114.37 7.56877 114.415V114.173C7.56877 113.932 7.50835 113.75 7.37238 113.599C7.23641 113.463 7.05513 113.388 6.81341 113.388C6.67744 113.388 6.52637 113.418 6.3904 113.478C6.23933 113.539 6.10337 113.614 5.95229 113.72L5.83144 113.478C6.1789 113.237 6.52637 113.131 6.85873 113.131C7.2062 113.131 7.46302 113.221 7.65942 113.418C7.85581 113.614 7.94646 113.871 7.94646 114.203V115.427C7.94646 115.518 7.99178 115.578 8.08242 115.578V115.895C8.022 115.911 7.97667 115.911 7.94646 115.911C7.85581 115.911 7.78028 115.88 7.73496 115.85C7.68963 115.805 7.65942 115.744 7.65942 115.669L7.64431 115.457C7.52345 115.624 7.35727 115.744 7.17599 115.835C6.94938 115.895 6.73787 115.941 6.52637 115.941ZM6.60191 115.669C6.7832 115.669 6.94938 115.639 7.11556 115.563C7.26663 115.488 7.38749 115.397 7.46302 115.291C7.49324 115.261 7.52345 115.231 7.53856 115.185C7.55367 115.155 7.56877 115.11 7.56877 115.08V114.642C7.44792 114.596 7.32706 114.566 7.2062 114.536C7.08534 114.506 6.94938 114.506 6.81341 114.506C6.55659 114.506 6.36019 114.551 6.20912 114.657C6.05804 114.762 5.9674 114.898 5.9674 115.065C5.9674 115.14 5.98251 115.231 6.01272 115.291C6.04294 115.367 6.08826 115.427 6.14869 115.488C6.20912 115.548 6.26955 115.578 6.36019 115.608C6.43573 115.654 6.51126 115.669 6.60191 115.669Z" fill="#474747"/>
<path d="M10.2427 113.149C10.4542 113.164 10.6506 113.209 10.8168 113.285C10.983 113.36 11.1341 113.451 11.2549 113.587C11.3758 113.708 11.4664 113.859 11.5269 114.01C11.5873 114.176 11.6175 114.357 11.6175 114.539C11.6175 114.735 11.5873 114.916 11.5269 115.083C11.4664 115.249 11.3758 115.385 11.2549 115.506C11.1341 115.626 10.983 115.717 10.8168 115.793C10.6506 115.868 10.4542 115.913 10.2427 115.929V117.001H9.88017V115.944C9.66867 115.929 9.47228 115.883 9.3061 115.808C9.13992 115.732 8.98884 115.642 8.86799 115.521C8.74713 115.4 8.65648 115.264 8.59605 115.098C8.53562 114.931 8.50541 114.75 8.50541 114.554C8.50541 114.357 8.53562 114.176 8.59605 114.01C8.65648 113.844 8.74713 113.708 8.86799 113.572C8.98884 113.451 9.13992 113.345 9.3061 113.27C9.47228 113.194 9.66867 113.149 9.88017 113.134V112.076H10.2276V113.149H10.2427ZM9.88017 113.481C9.54781 113.511 9.3061 113.617 9.12481 113.783C8.94352 113.965 8.85288 114.206 8.85288 114.524C8.85288 114.841 8.94352 115.098 9.12481 115.279C9.3061 115.46 9.56292 115.566 9.88017 115.596V113.481ZM10.2427 115.611C10.56 115.581 10.8017 115.475 10.983 115.294C11.1643 115.113 11.2549 114.856 11.2549 114.539C11.2549 114.237 11.1643 113.98 10.983 113.798C10.8017 113.617 10.56 113.511 10.2276 113.481V115.611H10.2427Z" fill="#474747"/>
<path d="M12.5693 115.399L14.1858 113.193H14.4728V115.898H14.1253V113.722L12.5391 115.898H12.2218V113.193H12.5693V115.399Z" fill="#474747"/>
<path d="M16.9806 115.899H16.6331V114.766C16.5424 114.796 16.4518 114.826 16.3612 114.841C16.2705 114.857 16.1345 114.872 15.9835 114.872C15.8173 114.872 15.6813 114.841 15.5756 114.796C15.4698 114.751 15.3792 114.675 15.3036 114.6C15.2281 114.509 15.1828 114.418 15.1526 114.298C15.1224 114.177 15.1073 114.056 15.1073 113.92V113.18H15.4547V113.844C15.4547 114.101 15.5 114.283 15.6058 114.388C15.7115 114.494 15.8475 114.554 16.0439 114.554C16.195 114.554 16.3158 114.539 16.4065 114.509C16.5122 114.479 16.5878 114.449 16.6331 114.403V113.18H16.9806V115.899Z" fill="#474747"/>
<path d="M18.9294 115.943C18.733 115.943 18.5517 115.913 18.3855 115.838C18.2194 115.762 18.0834 115.656 17.9625 115.535C17.8417 115.399 17.751 115.248 17.6755 115.082C17.6151 114.916 17.5697 114.735 17.5697 114.538C17.5697 114.342 17.6 114.161 17.6755 113.994C17.7359 113.828 17.8417 113.677 17.9625 113.556C18.0834 113.435 18.2194 113.33 18.3855 113.254C18.5517 113.179 18.733 113.148 18.9294 113.148C19.1258 113.148 19.3071 113.179 19.4733 113.254C19.6394 113.33 19.7754 113.435 19.8963 113.556C20.0171 113.677 20.1078 113.828 20.1682 113.994C20.2286 114.161 20.2739 114.342 20.2739 114.523C20.2739 114.553 20.2739 114.584 20.2739 114.599C20.2739 114.629 20.2739 114.644 20.2739 114.659H17.9474C17.9625 114.81 17.9927 114.946 18.0532 115.067C18.1136 115.188 18.1891 115.294 18.2798 115.384C18.3704 115.475 18.4762 115.55 18.5819 115.596C18.7028 115.641 18.8236 115.671 18.9596 115.671C19.0503 115.671 19.1258 115.656 19.2164 115.641C19.3071 115.611 19.3826 115.581 19.4582 115.535C19.5337 115.49 19.5941 115.445 19.6545 115.384C19.715 115.324 19.7603 115.263 19.7905 115.188L20.0927 115.263C20.0473 115.369 19.9869 115.46 19.9114 115.535C19.8358 115.611 19.7452 115.686 19.6394 115.747C19.5337 115.807 19.4279 115.853 19.3071 115.883C19.1862 115.928 19.0654 115.943 18.9294 115.943ZM19.9265 114.387C19.9114 114.236 19.8812 114.115 19.8207 113.994C19.7603 113.874 19.6848 113.768 19.6092 113.692C19.5186 113.602 19.4128 113.541 19.3071 113.496C19.1862 113.451 19.0654 113.42 18.9294 113.42C18.7934 113.42 18.6726 113.451 18.5517 113.496C18.4309 113.541 18.3251 113.617 18.2496 113.692C18.1589 113.783 18.0834 113.889 18.0381 114.01C17.9776 114.13 17.9474 114.266 17.9474 114.402H19.9265V114.387Z" fill="#474747"/>
<path d="M20.6214 114.521C20.6214 114.324 20.6516 114.143 20.7271 113.977C20.7876 113.811 20.8933 113.66 20.9991 113.539C21.1048 113.418 21.2559 113.312 21.4221 113.237C21.5883 113.161 21.7696 113.131 21.9811 113.131C22.2379 113.131 22.4645 113.191 22.6458 113.312C22.8422 113.433 22.9781 113.584 23.0839 113.78L22.7364 113.886C22.6609 113.75 22.5551 113.645 22.4192 113.554C22.2832 113.478 22.1321 113.433 21.9659 113.433C21.83 113.433 21.694 113.463 21.5732 113.509C21.4523 113.569 21.3465 113.645 21.2559 113.735C21.1653 113.826 21.1048 113.947 21.0444 114.083C20.9991 114.219 20.9689 114.355 20.9689 114.521C20.9689 114.672 20.9991 114.823 21.0444 114.959C21.0897 115.095 21.1653 115.216 21.2559 115.306C21.3465 115.412 21.4523 115.488 21.5732 115.548C21.694 115.608 21.8149 115.639 21.9508 115.639C22.0415 115.639 22.117 115.624 22.2077 115.608C22.2983 115.578 22.3738 115.548 22.4494 115.503C22.5249 115.457 22.5853 115.412 22.6307 115.352C22.676 115.291 22.7213 115.231 22.7364 115.17L23.0839 115.276C23.0386 115.367 22.9932 115.457 22.9177 115.548C22.8422 115.624 22.7666 115.699 22.6609 115.76C22.5551 115.82 22.4494 115.865 22.3285 115.895C22.2077 115.926 22.0868 115.941 21.9508 115.941C21.7544 115.941 21.5732 115.911 21.407 115.835C21.2408 115.76 21.0897 115.654 20.9689 115.533C20.848 115.397 20.7574 115.246 20.6818 115.08C20.6667 114.898 20.6214 114.717 20.6214 114.521Z" fill="#474747"/>
<path d="M25.2745 113.18H25.6673L24.64 114.494L25.7579 115.899H25.3651L24.4134 114.66H24.0357V115.899H23.6882V113.195H24.0357V114.388H24.3832L25.2745 113.18Z" fill="#474747"/>
<path d="M27.3442 115.941C27.1478 115.941 26.9665 115.911 26.8003 115.835C26.6341 115.76 26.4982 115.654 26.3773 115.533C26.2564 115.412 26.1658 115.261 26.1054 115.08C26.0449 114.914 25.9996 114.732 25.9996 114.551C25.9996 114.355 26.0298 114.173 26.1054 114.007C26.1658 113.841 26.2715 113.69 26.3924 113.554C26.5133 113.418 26.6492 113.327 26.8154 113.252C26.9816 113.176 27.1629 113.131 27.3442 113.131C27.5406 113.131 27.7218 113.176 27.888 113.252C28.0542 113.327 28.1902 113.433 28.311 113.554C28.4319 113.675 28.5225 113.826 28.5981 114.007C28.6585 114.173 28.7038 114.355 28.7038 114.551C28.7038 114.732 28.6736 114.914 28.5981 115.08C28.5376 115.246 28.447 115.397 28.3261 115.533C28.2053 115.654 28.0693 115.76 27.9031 115.835C27.7218 115.911 27.5406 115.941 27.3442 115.941ZM26.3622 114.551C26.3622 114.702 26.3924 114.838 26.4377 114.974C26.483 115.11 26.5586 115.216 26.6492 115.321C26.7399 115.427 26.8456 115.503 26.9665 115.548C27.0873 115.608 27.2082 115.624 27.3442 115.624C27.4801 115.624 27.601 115.593 27.7218 115.533C27.8427 115.472 27.9485 115.397 28.0391 115.291C28.1297 115.185 28.2053 115.08 28.2506 114.944C28.2959 114.808 28.3261 114.672 28.3261 114.521C28.3261 114.37 28.2959 114.234 28.2506 114.098C28.2053 113.962 28.1297 113.841 28.0391 113.75C27.9485 113.644 27.8427 113.569 27.7218 113.509C27.601 113.448 27.4801 113.418 27.3442 113.418C27.2082 113.418 27.0873 113.448 26.9665 113.509C26.8456 113.569 26.7399 113.644 26.6492 113.75C26.5586 113.856 26.483 113.962 26.4377 114.098C26.3924 114.249 26.3622 114.4 26.3622 114.551Z" fill="#474747"/>
<path d="M30.9398 113.45H29.6405V115.898H29.2931V113.193H30.9549V113.45H30.9398Z" fill="#474747"/>
<path d="M32.6015 115.941C32.4051 115.941 32.2238 115.911 32.0577 115.835C31.8915 115.76 31.7555 115.654 31.6347 115.533C31.5138 115.412 31.4232 115.261 31.3627 115.08C31.3023 114.914 31.257 114.732 31.257 114.551C31.257 114.355 31.2872 114.173 31.3627 114.007C31.4232 113.841 31.5289 113.69 31.6498 113.554C31.7706 113.418 31.9066 113.327 32.0728 113.252C32.239 113.176 32.4202 113.131 32.6015 113.131C32.7979 113.131 32.9792 113.176 33.1454 113.252C33.3116 113.327 33.4475 113.433 33.5684 113.554C33.6892 113.675 33.7799 113.826 33.8554 114.007C33.9159 114.173 33.9612 114.355 33.9612 114.551C33.9612 114.732 33.931 114.914 33.8554 115.08C33.795 115.246 33.6893 115.397 33.5835 115.533C33.4626 115.654 33.3267 115.76 33.1605 115.835C32.9792 115.911 32.7979 115.941 32.6015 115.941ZM31.6196 114.551C31.6196 114.702 31.6498 114.838 31.6951 114.974C31.7404 115.11 31.8159 115.216 31.9066 115.321C31.9972 115.427 32.103 115.503 32.2238 115.548C32.3447 115.608 32.4656 115.624 32.6015 115.624C32.7375 115.624 32.8584 115.593 32.9792 115.533C33.1001 115.472 33.2058 115.397 33.2965 115.291C33.3871 115.185 33.4626 115.08 33.508 114.944C33.5533 114.808 33.5835 114.672 33.5835 114.521C33.5835 114.37 33.5533 114.234 33.508 114.098C33.4626 113.962 33.3871 113.841 33.2965 113.75C33.2058 113.644 33.1001 113.569 32.9792 113.509C32.8584 113.448 32.7375 113.418 32.6015 113.418C32.4656 113.418 32.3447 113.448 32.2238 113.509C32.103 113.569 31.9972 113.644 31.9066 113.75C31.8159 113.856 31.7404 113.962 31.6951 114.098C31.6498 114.234 31.6196 114.4 31.6196 114.551Z" fill="#474747"/>
<path d="M35.5777 115.581H35.7287C35.8043 115.566 35.8647 115.521 35.9251 115.46C35.9855 115.4 36.0309 115.309 36.0762 115.173C36.1215 115.052 36.1668 114.886 36.1971 114.675C36.2273 114.463 36.2726 114.206 36.3028 113.904L36.3934 113.164H37.9797V115.566H38.3121V116.714H37.9948V115.883H35.8647V116.714H35.5625V115.581H35.5777ZM37.6322 115.581V113.451H36.7107L36.6352 114.055C36.5747 114.478 36.5143 114.826 36.4388 115.068C36.3783 115.309 36.2877 115.475 36.1971 115.581H37.6322Z" fill="#474747"/>
<path d="M39.2185 115.399L40.8349 113.193H41.122V115.898H40.7745V113.722L39.1882 115.898H38.871V113.193H39.2185V115.399Z" fill="#474747"/>
<path d="M41.7717 113.466C41.8623 113.36 41.9832 113.269 42.1191 113.209C42.2551 113.148 42.3911 113.118 42.5421 113.118C42.7838 113.118 42.9651 113.179 43.1162 113.299C43.2522 113.42 43.3277 113.571 43.3277 113.768C43.3277 113.934 43.2824 114.055 43.2068 114.176C43.1162 114.281 43.0104 114.342 42.8594 114.372C43.0558 114.402 43.2068 114.478 43.3126 114.614C43.4183 114.75 43.4788 114.901 43.4788 115.097C43.4788 115.218 43.4486 115.339 43.4183 115.445C43.373 115.55 43.3126 115.641 43.222 115.702C43.1464 115.777 43.0407 115.837 42.9198 115.868C42.799 115.913 42.6781 115.928 42.527 115.928C42.3457 115.928 42.1796 115.898 42.0436 115.822C41.9076 115.762 41.8019 115.656 41.6961 115.535L41.8925 115.294C41.968 115.399 42.0587 115.49 42.1644 115.535C42.2702 115.596 42.3911 115.611 42.5421 115.611C42.7385 115.611 42.8745 115.566 42.9802 115.475C43.086 115.384 43.1313 115.248 43.1313 115.082C43.1313 114.901 43.0709 114.765 42.95 114.659C42.8292 114.568 42.6479 114.508 42.4213 114.508H42.2098V114.236H42.3911C42.5723 114.236 42.7234 114.191 42.8292 114.115C42.9349 114.04 42.9802 113.919 42.9802 113.783C42.9802 113.662 42.9349 113.571 42.8594 113.496C42.7838 113.42 42.663 113.39 42.5119 113.39C42.4062 113.39 42.3155 113.405 42.2249 113.451C42.1342 113.496 42.0436 113.556 41.9529 113.647L41.7717 113.466Z" fill="#474747"/>
<path d="M44.7326 115.941C44.6118 115.941 44.4909 115.926 44.3701 115.88C44.2643 115.835 44.1586 115.775 44.083 115.699C44.0075 115.624 43.932 115.533 43.8866 115.427C43.8413 115.321 43.8262 115.216 43.8262 115.095C43.8262 114.974 43.8564 114.868 43.9018 114.762C43.9622 114.657 44.0377 114.581 44.1435 114.506C44.2492 114.43 44.3701 114.37 44.506 114.339C44.642 114.294 44.7931 114.279 44.9593 114.279C45.0952 114.279 45.2463 114.294 45.3823 114.309C45.5182 114.339 45.6542 114.37 45.7599 114.415V114.173C45.7599 113.932 45.6995 113.75 45.5635 113.599C45.4276 113.463 45.2463 113.388 45.0046 113.388C44.8686 113.388 44.7175 113.418 44.5816 113.478C44.4305 113.539 44.2945 113.614 44.1435 113.72L44.0226 113.478C44.3701 113.237 44.7175 113.131 45.0499 113.131C45.3823 113.131 45.6542 113.221 45.8506 113.418C46.047 113.614 46.1376 113.871 46.1376 114.203V115.427C46.1376 115.518 46.1829 115.578 46.2736 115.578V115.895C46.2132 115.911 46.1678 115.911 46.1376 115.911C46.047 115.911 45.9714 115.88 45.9261 115.85C45.8808 115.805 45.8506 115.744 45.8506 115.669L45.8355 115.457C45.7146 115.624 45.5484 115.744 45.3671 115.835C45.1556 115.895 44.9442 115.941 44.7326 115.941ZM44.8082 115.669C44.9895 115.669 45.1557 115.639 45.3218 115.563C45.4729 115.488 45.5938 115.397 45.6693 115.291C45.6995 115.261 45.7297 115.231 45.7448 115.185C45.7599 115.14 45.775 115.11 45.775 115.08V114.642C45.6542 114.596 45.5333 114.566 45.4125 114.536C45.2916 114.506 45.1557 114.506 45.0197 114.506C44.7629 114.506 44.5665 114.551 44.4154 114.657C44.2643 114.762 44.1737 114.898 44.1737 115.065C44.1737 115.14 44.1888 115.231 44.219 115.291C44.2492 115.367 44.2945 115.427 44.355 115.488C44.4154 115.548 44.4758 115.578 44.5665 115.608C44.642 115.654 44.7175 115.669 44.8082 115.669Z" fill="#474747"/>
<path d="M47.2404 115.399L48.8569 113.193H49.144V115.898H48.7965V113.722L47.2102 115.898H46.893V113.193H47.2404V115.399ZM48.7814 112.166C48.7814 112.332 48.7058 112.453 48.585 112.544C48.4641 112.634 48.2828 112.665 48.0562 112.665C47.8296 112.665 47.6483 112.619 47.5275 112.544C47.4066 112.453 47.3311 112.332 47.3311 112.166H47.5577C47.5577 112.287 47.603 112.362 47.6937 112.408C47.7843 112.453 47.9052 112.483 48.0562 112.483C48.2224 112.483 48.3433 112.468 48.4188 112.423C48.4943 112.378 48.5397 112.302 48.5548 112.166H48.7814Z" fill="#474747"/>
<path d="M50.292 114.358H51.8179V113.18H52.1654V115.884H51.8179V114.645H50.292V115.884H49.9446V113.18H50.292V114.358Z" fill="#474747"/>
<path d="M53.6308 115.941C53.5099 115.941 53.3891 115.926 53.2682 115.88C53.1625 115.835 53.0567 115.775 52.9812 115.699C52.9056 115.624 52.8301 115.533 52.7848 115.427C52.7395 115.321 52.7243 115.216 52.7243 115.095C52.7243 114.974 52.7546 114.868 52.7999 114.762C52.8603 114.657 52.9359 114.581 53.0416 114.506C53.1474 114.43 53.2682 114.37 53.4042 114.339C53.5401 114.294 53.6912 114.279 53.8574 114.279C53.9934 114.279 54.1444 114.294 54.2804 114.309C54.4164 114.339 54.5523 114.37 54.6581 114.415V114.173C54.6581 113.932 54.5977 113.75 54.4617 113.599C54.3257 113.463 54.1444 113.388 53.9027 113.388C53.7668 113.388 53.6157 113.418 53.4797 113.478C53.3286 113.539 53.1927 113.614 53.0416 113.72L52.9207 113.478C53.2682 113.237 53.6157 113.131 53.948 113.131C54.2804 113.131 54.5523 113.221 54.7487 113.418C54.9451 113.614 55.0358 113.871 55.0358 114.203V115.427C55.0358 115.518 55.0811 115.578 55.1717 115.578V115.895C55.1113 115.911 55.066 115.911 55.0358 115.911C54.9451 115.911 54.8696 115.88 54.8243 115.85C54.7789 115.805 54.7487 115.744 54.7487 115.669L54.7336 115.457C54.6128 115.624 54.4466 115.744 54.2653 115.835C54.0538 115.895 53.8423 115.941 53.6308 115.941ZM53.7063 115.669C53.8876 115.669 54.0538 115.639 54.22 115.563C54.371 115.488 54.4919 115.397 54.5674 115.291C54.5977 115.261 54.6279 115.231 54.643 115.185C54.6581 115.14 54.6732 115.11 54.6732 115.08V114.642C54.5523 114.596 54.4315 114.566 54.3106 114.536C54.1898 114.506 54.0538 114.506 53.9178 114.506C53.661 114.506 53.4646 114.551 53.3135 114.657C53.1625 114.762 53.0718 114.898 53.0718 115.065C53.0718 115.14 53.0869 115.231 53.1171 115.291C53.1474 115.367 53.1927 115.427 53.2531 115.488C53.3135 115.548 53.374 115.578 53.4646 115.608C53.525 115.654 53.6157 115.669 53.7063 115.669Z" fill="#474747"/>
<path d="M59.6889 115.898L59.2659 115.445C59.1148 115.596 58.9486 115.717 58.7673 115.807C58.5709 115.898 58.3745 115.943 58.1479 115.943C57.9817 115.943 57.8307 115.913 57.6796 115.868C57.5285 115.822 57.4077 115.747 57.3019 115.656C57.1962 115.566 57.1055 115.46 57.0451 115.339C56.9847 115.218 56.9545 115.082 56.9545 114.931C56.9545 114.81 56.9696 114.689 57.0149 114.584C57.0602 114.478 57.1206 114.387 57.1811 114.297C57.2566 114.206 57.3321 114.13 57.4379 114.055C57.5285 113.979 57.6343 113.904 57.74 113.843C57.6494 113.738 57.5739 113.647 57.4983 113.571C57.4379 113.496 57.3775 113.42 57.3472 113.345C57.3019 113.284 57.2717 113.209 57.2566 113.148C57.2415 113.088 57.2264 113.028 57.2264 112.952C57.2264 112.831 57.2566 112.725 57.3019 112.635C57.3472 112.529 57.4077 112.454 57.4983 112.378C57.589 112.302 57.6796 112.242 57.7854 112.212C57.8911 112.166 58.0271 112.151 58.1479 112.151C58.2688 112.151 58.3896 112.166 58.4803 112.197C58.586 112.227 58.6767 112.287 58.7522 112.348C58.8278 112.408 58.8882 112.484 58.9335 112.574C58.9788 112.665 58.9939 112.771 58.9939 112.877C58.9939 112.982 58.9788 113.088 58.9335 113.164C58.8882 113.254 58.8278 113.33 58.7522 113.42C58.6767 113.496 58.6011 113.571 58.4954 113.647C58.4048 113.723 58.299 113.798 58.1781 113.858L59.2206 114.946C59.2961 114.81 59.3414 114.674 59.3867 114.523C59.4321 114.372 59.4472 114.206 59.4472 114.04H59.7493C59.7493 114.251 59.7191 114.463 59.6587 114.644C59.5982 114.84 59.5227 115.007 59.4321 115.173L60.127 115.898H59.6889ZM58.1781 115.656C58.3594 115.656 58.5256 115.626 58.6616 115.551C58.8127 115.475 58.9486 115.369 59.0544 115.233L57.9364 114.055C57.7551 114.176 57.6041 114.312 57.4832 114.463C57.3624 114.599 57.3019 114.765 57.3019 114.961C57.3019 115.082 57.3321 115.173 57.3775 115.263C57.4228 115.354 57.4983 115.43 57.5739 115.49C57.6494 115.551 57.7551 115.596 57.8609 115.626C57.9666 115.641 58.0724 115.656 58.1781 115.656ZM57.5739 112.952C57.5739 112.997 57.5739 113.043 57.589 113.073C57.6041 113.118 57.6192 113.164 57.6645 113.209C57.6947 113.269 57.74 113.33 57.8005 113.39C57.8609 113.466 57.9364 113.541 58.0271 113.647C58.2235 113.511 58.3896 113.39 58.5256 113.269C58.6616 113.148 58.722 113.028 58.722 112.877C58.722 112.741 58.6767 112.635 58.5709 112.544C58.4652 112.454 58.3443 112.408 58.1933 112.408C58.1026 112.408 58.0271 112.423 57.9515 112.454C57.876 112.484 57.8156 112.514 57.7551 112.574C57.6947 112.62 57.6645 112.68 57.6343 112.741C57.589 112.816 57.5739 112.877 57.5739 112.952Z" fill="#474747"/>
<path d="M64.7045 112.227H65.0519L65.5656 113.542L66.0943 112.227H66.4418L65.7922 113.799L66.5022 115.476L67.8468 112.197H68.2396L66.6684 115.899H66.3512L65.5807 114.071L64.7951 115.899H64.4779L62.9067 112.197H63.2995L64.644 115.476L65.3541 113.799L64.7045 112.227Z" fill="#474747"/>
<path d="M71.2308 115.567V115.884H68.7532V112.183H71.1855V112.5H69.1158V113.829H70.9286V114.131H69.1158V115.536H71.2308V115.567Z" fill="#474747"/>
<path d="M74.7055 114.947C74.7055 115.083 74.6752 115.219 74.6299 115.324C74.5695 115.445 74.494 115.536 74.4033 115.627C74.3127 115.717 74.2069 115.778 74.071 115.823C73.935 115.868 73.8141 115.899 73.6631 115.899H71.9258V112.197H73.7084C73.8293 112.197 73.9501 112.227 74.0559 112.288C74.1616 112.348 74.2522 112.409 74.3278 112.499C74.4033 112.59 74.4637 112.696 74.494 112.802C74.5393 112.907 74.5544 113.028 74.5544 113.149C74.5544 113.33 74.5091 113.512 74.4184 113.663C74.3278 113.814 74.1918 113.935 74.0256 114.01C74.2371 114.071 74.4033 114.191 74.5242 114.358C74.645 114.524 74.7055 114.72 74.7055 114.947ZM72.2883 112.515V113.874H73.5573C73.648 113.874 73.7386 113.859 73.8141 113.814C73.8897 113.768 73.9652 113.723 74.0105 113.663C74.071 113.602 74.1163 113.527 74.1465 113.451C74.1767 113.376 74.1918 113.285 74.1918 113.194C74.1918 113.104 74.1767 113.013 74.1465 112.922C74.1163 112.832 74.071 112.771 74.0256 112.711C73.9652 112.65 73.9048 112.605 73.8293 112.56C73.7537 112.515 73.6782 112.499 73.5875 112.499H72.2883V112.515ZM74.3429 114.886C74.3429 114.796 74.3278 114.705 74.2976 114.63C74.2674 114.539 74.222 114.463 74.1616 114.403C74.1012 114.342 74.0408 114.282 73.9652 114.252C73.8897 114.207 73.799 114.191 73.7084 114.191H72.2883V115.596H73.6631C73.7537 115.596 73.8444 115.581 73.9199 115.536C73.9954 115.491 74.071 115.445 74.1314 115.385C74.1918 115.324 74.2371 115.249 74.2674 115.158C74.3127 115.053 74.3429 114.962 74.3429 114.886Z" fill="#474747"/>
<path d="M75.2645 114.646V114.313H76.7904V114.646H75.2645Z" fill="#474747"/>
<path d="M79.6456 115.898H79.2981V113.496H77.863V115.898H77.5155V113.193H79.6456V115.898V115.898Z" fill="#474747"/>
<path d="M81.8362 115.941C81.6095 115.941 81.398 115.88 81.2319 115.76C81.0506 115.639 80.9146 115.503 80.8089 115.321V116.998H80.4614V113.176H80.7786V113.705C80.8844 113.539 81.0355 113.403 81.2168 113.297C81.398 113.191 81.5793 113.131 81.7908 113.131C81.9721 113.131 82.1534 113.176 82.3045 113.252C82.4556 113.327 82.5915 113.433 82.7124 113.569C82.8332 113.705 82.9088 113.856 82.9843 114.022C83.0447 114.188 83.0749 114.37 83.0749 114.551C83.0749 114.747 83.0447 114.929 82.9843 115.095C82.9239 115.261 82.8483 115.412 82.7275 115.548C82.6217 115.669 82.4858 115.775 82.3347 115.85C82.1836 115.926 82.0023 115.941 81.8362 115.941ZM81.7304 115.624C81.8815 115.624 82.0023 115.593 82.1232 115.533C82.2441 115.472 82.3498 115.382 82.4253 115.291C82.516 115.185 82.5764 115.08 82.6217 114.944C82.6671 114.808 82.6822 114.687 82.6822 114.536C82.6822 114.385 82.6519 114.249 82.6066 114.113C82.5613 113.977 82.4858 113.871 82.3951 113.765C82.3045 113.66 82.1987 113.584 82.0779 113.524C81.957 113.463 81.821 113.433 81.6851 113.433C81.5944 113.433 81.5038 113.448 81.398 113.493C81.2923 113.539 81.2016 113.584 81.1261 113.645C81.0355 113.705 80.975 113.78 80.9146 113.856C80.8542 113.932 80.8089 114.022 80.8089 114.113V114.944C80.8542 115.034 80.8995 115.125 80.975 115.216C81.0355 115.291 81.111 115.367 81.1865 115.427C81.2621 115.488 81.3527 115.533 81.4434 115.563C81.534 115.608 81.6246 115.624 81.7304 115.624Z" fill="#474747"/>
<path d="M84.8123 115.941C84.6159 115.941 84.4346 115.911 84.2684 115.835C84.1022 115.76 83.9663 115.654 83.8454 115.533C83.7245 115.412 83.6339 115.261 83.5735 115.08C83.513 114.914 83.4677 114.732 83.4677 114.551C83.4677 114.355 83.4979 114.173 83.5735 114.007C83.6339 113.841 83.7396 113.69 83.8605 113.554C83.9814 113.418 84.1173 113.327 84.2835 113.252C84.4497 113.176 84.631 113.131 84.8123 113.131C85.0087 113.131 85.1899 113.176 85.3561 113.252C85.5223 113.327 85.6583 113.433 85.7791 113.554C85.9 113.675 85.9906 113.826 86.0662 114.007C86.1266 114.173 86.1719 114.355 86.1719 114.551C86.1719 114.732 86.1417 114.914 86.0662 115.08C86.0057 115.246 85.9 115.397 85.7942 115.533C85.6734 115.654 85.5374 115.76 85.3712 115.835C85.1899 115.911 85.0087 115.941 84.8123 115.941ZM83.8303 114.551C83.8303 114.702 83.8605 114.838 83.9058 114.974C83.9511 115.11 84.0267 115.216 84.1173 115.321C84.208 115.427 84.3137 115.503 84.4346 115.548C84.5554 115.608 84.6763 115.624 84.8123 115.624C84.9482 115.624 85.0691 115.593 85.1899 115.533C85.3108 115.472 85.4166 115.397 85.5072 115.291C85.5978 115.185 85.6734 115.08 85.7187 114.944C85.764 114.808 85.7942 114.672 85.7942 114.521C85.7942 114.37 85.764 114.234 85.7187 114.098C85.6734 113.962 85.5978 113.841 85.5072 113.75C85.4166 113.644 85.3108 113.569 85.1899 113.509C85.0691 113.448 84.9482 113.418 84.8123 113.418C84.6763 113.418 84.5554 113.448 84.4346 113.509C84.3137 113.569 84.208 113.644 84.1173 113.75C84.0267 113.856 83.9511 113.962 83.9058 114.098C83.8605 114.249 83.8303 114.4 83.8303 114.551Z" fill="#474747"/>
<path d="M87.9244 115.943C87.728 115.943 87.5467 115.913 87.3805 115.838C87.2143 115.762 87.0784 115.656 86.9575 115.535C86.8366 115.399 86.746 115.248 86.6705 115.082C86.5949 114.916 86.5647 114.735 86.5647 114.538C86.5647 114.342 86.5949 114.161 86.6705 113.994C86.7309 113.828 86.8366 113.677 86.9575 113.556C87.0784 113.435 87.2143 113.33 87.3805 113.254C87.5467 113.179 87.728 113.148 87.9244 113.148C88.1208 113.148 88.3021 113.179 88.4682 113.254C88.6344 113.33 88.7704 113.435 88.8912 113.556C89.0121 113.677 89.1027 113.828 89.1632 113.994C89.2236 114.161 89.2689 114.342 89.2689 114.523C89.2689 114.553 89.2689 114.584 89.2689 114.599C89.2689 114.629 89.2689 114.644 89.2689 114.659H86.9424C86.9575 114.81 86.9877 114.946 87.0481 115.067C87.1086 115.188 87.1841 115.294 87.2748 115.384C87.3654 115.475 87.4711 115.55 87.5769 115.596C87.6978 115.641 87.8186 115.671 87.9546 115.671C88.0452 115.671 88.1208 115.656 88.2114 115.641C88.302 115.611 88.3776 115.581 88.4531 115.535C88.5287 115.49 88.5891 115.445 88.6495 115.384C88.7099 115.324 88.7553 115.263 88.7855 115.188L89.0876 115.263C89.0423 115.369 88.9819 115.46 88.9063 115.535C88.8308 115.611 88.7402 115.686 88.6344 115.747C88.5287 115.807 88.4229 115.853 88.302 115.883C88.1812 115.928 88.0603 115.943 87.9244 115.943ZM88.9214 114.387C88.9063 114.236 88.8761 114.115 88.8157 113.994C88.7553 113.874 88.6797 113.768 88.6042 113.692C88.5135 113.602 88.4078 113.541 88.302 113.496C88.1812 113.451 88.0603 113.42 87.9244 113.42C87.7884 113.42 87.6675 113.451 87.5467 113.496C87.4258 113.541 87.3201 113.617 87.2445 113.692C87.1539 113.783 87.0784 113.889 87.033 114.01C86.9726 114.13 86.9424 114.266 86.9424 114.402H88.9214V114.387Z" fill="#474747"/>
<path d="M91.4142 113.18H91.807L90.7797 114.494L91.8976 115.899H91.5048L90.5531 114.66H90.1754V115.899H89.8279V113.195H90.1754V114.388H90.5228L91.4142 113.18Z" fill="#474747"/>
<path d="M93.3478 115.898H93.0004V113.496H92.0486V113.193H94.2996V113.496H93.3478V115.898V115.898Z" fill="#474747"/>
<path d="M95.1457 115.399L96.7621 113.193H97.0492V115.898H96.7017V113.722L95.1154 115.898H94.7982V113.193H95.1457V115.399Z" fill="#474747"/>
<path d="M99.2398 115.941C99.0131 115.941 98.8016 115.88 98.6355 115.76C98.4542 115.639 98.3182 115.503 98.2125 115.321V116.998H97.865V113.176H98.1822V113.705C98.288 113.539 98.4391 113.403 98.6204 113.297C98.8016 113.191 98.9829 113.131 99.1944 113.131C99.3757 113.131 99.557 113.176 99.7081 113.252C99.8591 113.327 99.9951 113.433 100.116 113.569C100.237 113.705 100.312 113.856 100.388 114.022C100.448 114.188 100.479 114.37 100.479 114.551C100.479 114.747 100.448 114.929 100.388 115.095C100.327 115.261 100.252 115.412 100.131 115.548C100.025 115.669 99.8894 115.775 99.7383 115.85C99.5872 115.911 99.421 115.941 99.2398 115.941ZM99.134 115.624C99.2851 115.624 99.4059 115.593 99.5268 115.533C99.6477 115.472 99.7534 115.382 99.8289 115.291C99.9196 115.185 99.98 115.08 100.025 114.944C100.071 114.808 100.086 114.687 100.086 114.536C100.086 114.385 100.056 114.249 100.01 114.113C99.9649 113.977 99.8894 113.871 99.7987 113.765C99.7081 113.66 99.6023 113.584 99.4815 113.524C99.3606 113.463 99.2246 113.433 99.0887 113.433C98.998 113.433 98.9074 113.448 98.8016 113.493C98.6959 113.524 98.6052 113.584 98.5297 113.645C98.4391 113.705 98.3786 113.78 98.3182 113.856C98.2578 113.932 98.2125 114.022 98.2125 114.113V114.944C98.2578 115.034 98.3031 115.125 98.3786 115.216C98.4391 115.291 98.5146 115.367 98.5901 115.427C98.6657 115.488 98.7563 115.533 98.847 115.563C98.9376 115.608 99.0434 115.624 99.134 115.624Z" fill="#474747"/>
<path d="M102.231 115.941C102.035 115.941 101.853 115.911 101.687 115.835C101.521 115.76 101.385 115.654 101.264 115.533C101.143 115.412 101.053 115.261 100.992 115.08C100.932 114.914 100.886 114.732 100.886 114.551C100.886 114.355 100.917 114.173 100.992 114.007C101.053 113.841 101.158 113.69 101.279 113.554C101.4 113.418 101.536 113.327 101.702 113.252C101.868 113.176 102.05 113.131 102.231 113.131C102.427 113.131 102.609 113.176 102.775 113.252C102.941 113.327 103.077 113.433 103.198 113.554C103.319 113.675 103.409 113.826 103.485 114.007C103.545 114.173 103.591 114.355 103.591 114.551C103.591 114.732 103.56 114.914 103.485 115.08C103.424 115.246 103.319 115.397 103.213 115.533C103.092 115.654 102.956 115.76 102.79 115.835C102.609 115.911 102.427 115.941 102.231 115.941ZM101.234 114.551C101.234 114.702 101.264 114.838 101.309 114.974C101.355 115.11 101.43 115.216 101.521 115.321C101.612 115.427 101.717 115.503 101.838 115.548C101.959 115.608 102.08 115.624 102.216 115.624C102.352 115.624 102.473 115.593 102.594 115.533C102.714 115.472 102.82 115.397 102.911 115.291C103.001 115.185 103.077 115.08 103.122 114.944C103.168 114.808 103.198 114.672 103.198 114.521C103.198 114.37 103.168 114.234 103.122 114.098C103.077 113.962 103.001 113.841 102.911 113.75C102.82 113.644 102.714 113.569 102.594 113.509C102.473 113.448 102.352 113.418 102.216 113.418C102.08 113.418 101.959 113.448 101.838 113.509C101.717 113.569 101.612 113.644 101.521 113.75C101.43 113.856 101.355 113.962 101.309 114.098C101.264 114.249 101.234 114.4 101.234 114.551Z" fill="#474747"/>
<path d="M105.509 113.179C105.6 113.179 105.69 113.194 105.781 113.224C105.857 113.255 105.932 113.3 105.993 113.36C106.053 113.421 106.098 113.496 106.129 113.572C106.159 113.647 106.174 113.738 106.174 113.829C106.174 113.889 106.159 113.95 106.144 114.01C106.129 114.071 106.098 114.131 106.068 114.191C106.038 114.252 105.993 114.297 105.947 114.342C105.902 114.388 105.842 114.433 105.781 114.448C105.932 114.494 106.053 114.569 106.144 114.69C106.234 114.811 106.28 114.947 106.28 115.113C106.28 115.219 106.265 115.324 106.219 115.415C106.174 115.506 106.129 115.581 106.053 115.657C105.978 115.717 105.902 115.778 105.796 115.808C105.706 115.838 105.6 115.868 105.479 115.868H104.18V113.164H105.509V113.179ZM105.373 114.373C105.509 114.373 105.63 114.327 105.706 114.237C105.781 114.146 105.826 114.025 105.826 113.889C105.826 113.768 105.796 113.663 105.721 113.572C105.645 113.481 105.539 113.436 105.403 113.436H104.527V114.373H105.373V114.373ZM105.449 115.627C105.524 115.627 105.585 115.611 105.645 115.581C105.706 115.551 105.751 115.521 105.796 115.475C105.842 115.43 105.872 115.37 105.902 115.309C105.932 115.249 105.932 115.188 105.932 115.128C105.932 115.007 105.887 114.886 105.811 114.796C105.721 114.705 105.615 114.645 105.464 114.645H104.527V115.627H105.449V115.627Z" fill="#474747"/>
<path d="M107.564 115.941C107.443 115.941 107.322 115.926 107.201 115.88C107.096 115.835 106.99 115.775 106.914 115.699C106.839 115.624 106.763 115.533 106.718 115.427C106.673 115.321 106.657 115.216 106.657 115.095C106.657 114.974 106.688 114.868 106.733 114.762C106.793 114.657 106.869 114.581 106.975 114.506C107.08 114.43 107.201 114.37 107.337 114.339C107.473 114.294 107.624 114.279 107.79 114.279C107.926 114.279 108.078 114.294 108.213 114.309C108.349 114.339 108.485 114.37 108.591 114.415V114.173C108.591 113.932 108.531 113.75 108.395 113.599C108.259 113.463 108.078 113.388 107.836 113.388C107.7 113.388 107.549 113.418 107.413 113.478C107.262 113.539 107.126 113.614 106.975 113.72L106.854 113.478C107.201 113.237 107.549 113.131 107.881 113.131C108.213 113.131 108.485 113.221 108.682 113.418C108.878 113.614 108.969 113.871 108.969 114.203V115.427C108.969 115.518 109.014 115.578 109.105 115.578V115.895C109.044 115.911 108.999 115.911 108.969 115.911C108.878 115.911 108.803 115.88 108.757 115.85C108.712 115.805 108.682 115.744 108.682 115.669L108.667 115.457C108.546 115.624 108.38 115.744 108.198 115.835C107.987 115.895 107.79 115.941 107.564 115.941ZM107.654 115.669C107.836 115.669 108.002 115.639 108.168 115.563C108.319 115.488 108.44 115.397 108.516 115.291C108.546 115.261 108.576 115.231 108.591 115.185C108.606 115.14 108.621 115.11 108.621 115.08V114.642C108.5 114.596 108.38 114.566 108.259 114.536C108.138 114.506 108.002 114.506 107.866 114.506C107.609 114.506 107.413 114.551 107.262 114.657C107.111 114.762 107.02 114.898 107.02 115.065C107.02 115.14 107.035 115.231 107.065 115.291C107.096 115.367 107.141 115.427 107.201 115.488C107.262 115.548 107.322 115.578 107.413 115.608C107.473 115.654 107.564 115.669 107.654 115.669Z" fill="#474747"/>
<path d="M110.087 114.358H111.613V113.18H111.96V115.884H111.613V114.645H110.087V115.884H109.739V113.18H110.087V114.358Z" fill="#474747"/>
<path d="M113.093 115.399L114.71 113.193H114.997V115.898H114.649V113.722L113.063 115.898H112.746V113.193H113.093V115.399V115.399Z" fill="#474747"/>
<path d="M116.281 114.811C116.115 114.765 115.979 114.675 115.873 114.539C115.767 114.403 115.707 114.237 115.707 114.01C115.707 113.889 115.722 113.768 115.767 113.678C115.812 113.572 115.873 113.481 115.948 113.406C116.024 113.33 116.115 113.27 116.235 113.224C116.356 113.179 116.462 113.164 116.598 113.164H117.565V115.868H117.217V114.841H116.628L115.948 115.868H115.541L116.281 114.811ZM117.233 114.554V113.481H116.628C116.553 113.481 116.492 113.496 116.417 113.512C116.356 113.542 116.296 113.572 116.235 113.617C116.19 113.663 116.145 113.723 116.115 113.783C116.084 113.844 116.069 113.919 116.069 114.01C116.069 114.176 116.115 114.297 116.205 114.388C116.296 114.478 116.432 114.539 116.583 114.539H117.233V114.554Z" fill="#474747"/>
<defs>
<linearGradient id="paint0_linear" x1="3.4574" y1="80.8217" x2="121.937" y2="80.8217" gradientUnits="userSpaceOnUse">
<stop offset="4.47534e-07" stop-color="#43BBED"/>
<stop offset="1" stop-color="#D0709A"/>
</linearGradient>
<linearGradient id="paint1_linear" x1="3.4576" y1="71.1693" x2="121.937" y2="71.1693" gradientUnits="userSpaceOnUse">
<stop offset="4.47534e-07" stop-color="#43BBED"/>
<stop offset="1" stop-color="#D0709A"/>
</linearGradient>
<linearGradient id="paint2_linear" x1="3.45526" y1="67.5047" x2="121.939" y2="67.5047" gradientUnits="userSpaceOnUse">
<stop offset="4.47534e-07" stop-color="#43BBED"/>
<stop offset="1" stop-color="#D0709A"/>
</linearGradient>
<linearGradient id="paint3_linear" x1="3.45761" y1="76.8154" x2="121.937" y2="76.8154" gradientUnits="userSpaceOnUse">
<stop offset="4.47534e-07" stop-color="#43BBED"/>
<stop offset="1" stop-color="#D0709A"/>
</linearGradient>
<linearGradient id="paint4_linear" x1="3.45822" y1="78.0552" x2="121.936" y2="78.0552" gradientUnits="userSpaceOnUse">
<stop offset="4.47534e-07" stop-color="#43BBED"/>
<stop offset="1" stop-color="#D0709A"/>
</linearGradient>
<linearGradient id="paint5_linear" x1="3.46493" y1="86.3468" x2="121.932" y2="86.3468" gradientUnits="userSpaceOnUse">
<stop offset="4.47534e-07" stop-color="#43BBED"/>
<stop offset="1" stop-color="#D0709A"/>
</linearGradient>
<linearGradient id="paint6_linear" x1="3.45713" y1="81.7567" x2="121.937" y2="81.7567" gradientUnits="userSpaceOnUse">
<stop offset="4.47534e-07" stop-color="#43BBED"/>
<stop offset="1" stop-color="#D0709A"/>
</linearGradient>
<linearGradient id="paint7_linear" x1="3.45783" y1="79.8407" x2="121.936" y2="79.8407" gradientUnits="userSpaceOnUse">
<stop offset="4.47534e-07" stop-color="#43BBED"/>
<stop offset="1" stop-color="#D0709A"/>
</linearGradient>
<linearGradient id="paint8_linear" x1="3.45777" y1="72.8211" x2="121.937" y2="72.8211" gradientUnits="userSpaceOnUse">
<stop offset="4.47534e-07" stop-color="#43BBED"/>
<stop offset="1" stop-color="#D0709A"/>
</linearGradient>
<linearGradient id="paint9_linear" x1="3.45785" y1="30.2997" x2="121.936" y2="30.2997" gradientUnits="userSpaceOnUse">
<stop offset="4.47534e-07" stop-color="#43BBED"/>
<stop offset="1" stop-color="#D0709A"/>
</linearGradient>
<linearGradient id="paint10_linear" x1="3.29289" y1="55.6069" x2="122.838" y2="55.6069" gradientUnits="userSpaceOnUse">
<stop offset="4.47534e-07" stop-color="#43BBED"/>
<stop offset="1" stop-color="#D0709A"/>
</linearGradient>
<linearGradient id="paint11_linear" x1="3.45781" y1="24.2928" x2="121.936" y2="24.2928" gradientUnits="userSpaceOnUse">
<stop offset="4.47534e-07" stop-color="#43BBED"/>
<stop offset="1" stop-color="#D0709A"/>
</linearGradient>
<linearGradient id="paint12_linear" x1="3.45784" y1="52.9199" x2="121.936" y2="52.9199" gradientUnits="userSpaceOnUse">
<stop offset="4.47534e-07" stop-color="#43BBED"/>
<stop offset="1" stop-color="#D0709A"/>
</linearGradient>
<linearGradient id="paint13_linear" x1="3.46163" y1="26.2448" x2="121.936" y2="26.2448" gradientUnits="userSpaceOnUse">
<stop offset="4.47534e-07" stop-color="#43BBED"/>
<stop offset="1" stop-color="#D0709A"/>
</linearGradient>
<linearGradient id="paint14_linear" x1="3.45786" y1="4.59726" x2="121.936" y2="4.59726" gradientUnits="userSpaceOnUse">
<stop offset="4.47534e-07" stop-color="#43BBED"/>
<stop offset="1" stop-color="#D0709A"/>
</linearGradient>
<linearGradient id="paint15_linear" x1="3.45778" y1="5.92443" x2="121.938" y2="5.92443" gradientUnits="userSpaceOnUse">
<stop offset="4.47534e-07" stop-color="#43BBED"/>
<stop offset="1" stop-color="#D0709A"/>
</linearGradient>
<linearGradient id="paint16_linear" x1="3.4579" y1="3.76055" x2="121.936" y2="3.76055" gradientUnits="userSpaceOnUse">
<stop offset="4.47534e-07" stop-color="#43BBED"/>
<stop offset="1" stop-color="#D0709A"/>
</linearGradient>
<linearGradient id="paint17_linear" x1="3.45787" y1="7.09104" x2="121.936" y2="7.09104" gradientUnits="userSpaceOnUse">
<stop offset="4.47534e-07" stop-color="#43BBED"/>
<stop offset="1" stop-color="#D0709A"/>
</linearGradient>
<linearGradient id="paint18_linear" x1="3.45796" y1="27.3007" x2="121.936" y2="27.3007" gradientUnits="userSpaceOnUse">
<stop offset="4.47534e-07" stop-color="#43BBED"/>
<stop offset="1" stop-color="#D0709A"/>
</linearGradient>
<linearGradient id="paint19_linear" x1="3.43772" y1="17.617" x2="121.938" y2="17.617" gradientUnits="userSpaceOnUse">
<stop offset="4.47534e-07" stop-color="#43BBED"/>
<stop offset="1" stop-color="#D0709A"/>
</linearGradient>
<linearGradient id="paint20_linear" x1="3.45716" y1="66.4504" x2="121.937" y2="66.4504" gradientUnits="userSpaceOnUse">
<stop offset="4.47534e-07" stop-color="#43BBED"/>
<stop offset="1" stop-color="#D0709A"/>
</linearGradient>
<linearGradient id="paint21_linear" x1="3.45654" y1="57.6413" x2="121.938" y2="57.6413" gradientUnits="userSpaceOnUse">
<stop offset="4.47534e-07" stop-color="#43BBED"/>
<stop offset="1" stop-color="#D0709A"/>
</linearGradient>
<linearGradient id="paint22_linear" x1="3.45845" y1="56.3077" x2="121.936" y2="56.3077" gradientUnits="userSpaceOnUse">
<stop offset="4.47534e-07" stop-color="#43BBED"/>
<stop offset="1" stop-color="#D0709A"/>
</linearGradient>
<linearGradient id="paint23_linear" x1="3.45799" y1="62.0359" x2="121.936" y2="62.0359" gradientUnits="userSpaceOnUse">
<stop offset="4.47534e-07" stop-color="#43BBED"/>
<stop offset="1" stop-color="#D0709A"/>
</linearGradient>
<linearGradient id="paint24_linear" x1="3.45399" y1="57.5792" x2="121.938" y2="57.5792" gradientUnits="userSpaceOnUse">
<stop offset="4.47534e-07" stop-color="#43BBED"/>
<stop offset="1" stop-color="#D0709A"/>
</linearGradient>
<linearGradient id="paint25_linear" x1="3.45922" y1="77.8551" x2="121.936" y2="77.8551" gradientUnits="userSpaceOnUse">
<stop offset="4.47534e-07" stop-color="#43BBED"/>
<stop offset="1" stop-color="#D0709A"/>
</linearGradient>
<linearGradient id="paint26_linear" x1="3.45718" y1="80.6437" x2="121.937" y2="80.6437" gradientUnits="userSpaceOnUse">
<stop offset="4.47534e-07" stop-color="#43BBED"/>
<stop offset="1" stop-color="#D0709A"/>
</linearGradient>
<linearGradient id="paint27_linear" x1="3.45786" y1="57.4343" x2="121.936" y2="57.4343" gradientUnits="userSpaceOnUse">
<stop offset="4.47534e-07" stop-color="#43BBED"/>
<stop offset="1" stop-color="#D0709A"/>
</linearGradient>
<linearGradient id="paint28_linear" x1="3.45848" y1="67.4288" x2="121.936" y2="67.4288" gradientUnits="userSpaceOnUse">
<stop offset="4.47534e-07" stop-color="#43BBED"/>
<stop offset="1" stop-color="#D0709A"/>
</linearGradient>
<linearGradient id="paint29_linear" x1="3.45809" y1="77.3748" x2="121.936" y2="77.3748" gradientUnits="userSpaceOnUse">
<stop offset="4.47534e-07" stop-color="#43BBED"/>
<stop offset="1" stop-color="#D0709A"/>
</linearGradient>
<linearGradient id="paint30_linear" x1="3.45743" y1="69.5688" x2="121.936" y2="69.5688" gradientUnits="userSpaceOnUse">
<stop offset="4.47534e-07" stop-color="#43BBED"/>
<stop offset="1" stop-color="#D0709A"/>
</linearGradient>
<linearGradient id="paint31_linear" x1="3.45781" y1="89.872" x2="121.936" y2="89.872" gradientUnits="userSpaceOnUse">
<stop offset="4.47534e-07" stop-color="#43BBED"/>
<stop offset="1" stop-color="#D0709A"/>
</linearGradient>
<linearGradient id="paint32_linear" x1="3.45746" y1="82.9393" x2="121.937" y2="82.9393" gradientUnits="userSpaceOnUse">
<stop offset="4.47534e-07" stop-color="#43BBED"/>
<stop offset="1" stop-color="#D0709A"/>
</linearGradient>
</defs>
</svg>
