<svg width="76" height="75" viewBox="0 0 76 75" fill="none" xmlns="http://www.w3.org/2000/svg">
<path d="M53.4363 55.5933C53.3104 55.8838 53.1748 56.1646 53.0393 56.4454C52.9134 56.7069 52.71 57.0749 52.7197 57.104L52.7584 57.0362L52.8359 56.9006L53.049 56.5229C53.1845 56.2711 53.3201 56.0097 53.4557 55.7385C53.7268 55.2059 53.9786 54.6636 54.2304 54.1213C54.7243 53.0173 55.1988 51.894 55.6443 50.7609C56.1963 49.3568 56.7289 47.9332 57.2421 46.5097C56.0413 49.502 54.8405 52.3491 53.8237 54.7217C53.6784 55.0219 53.5525 55.3124 53.4363 55.5933Z" fill="url(#paint0_linear)"/>
<path d="M34.8237 43.6819C34.4944 44.9893 34.1652 46.2869 33.8456 47.5555C34.2039 46.2579 34.5235 44.9699 34.8237 43.6819Z" fill="url(#paint1_linear)"/>
<path d="M44.2559 44.3114C44.3431 44.5826 44.4205 44.844 44.498 45.1055C44.1688 43.9144 43.8395 42.6942 43.5199 41.4353C43.733 42.2584 44.0041 43.498 44.2559 44.3114Z" fill="url(#paint2_linear)"/>
<path d="M47.1804 50.0831C47.6065 51.4388 48.0617 52.7849 48.5556 54.0922C48.7977 54.7411 49.0592 55.3899 49.34 56.0097C49.4756 56.3196 49.6208 56.6295 49.7758 56.9297L50.0082 57.3751C50.0953 57.5397 50.1438 57.6172 50.2116 57.7334C50.4149 58.0627 50.6183 58.3823 50.8701 58.6825C51.1219 58.9633 51.4221 59.2538 51.8094 59.3313C51.9063 59.341 52.0031 59.3603 52.0999 59.341C52.1968 59.3216 52.2839 59.2829 52.3711 59.2344C52.5357 59.1376 52.6907 59.002 52.8262 58.8665C53.0974 58.5856 53.3298 58.2661 53.5429 57.9465C53.7269 57.6753 54.0367 57.1621 54.2692 56.7166C54.5209 56.2615 54.7534 55.7966 54.9664 55.3415C55.4022 54.4215 55.7799 53.5015 56.0898 52.6106L55.9639 52.5525L55.838 52.9495C55.2085 54.2762 54.6275 55.2931 54.0271 56.3293C54.0561 56.2711 54.0852 56.2034 54.1142 56.1356C54.0561 56.2421 54.0077 56.3486 53.9496 56.4551C53.8431 56.6295 53.7462 56.7941 53.6397 56.9684C53.5429 57.1233 53.446 57.288 53.3395 57.4526C53.2039 57.6656 53.0683 57.8884 52.9037 58.1305C52.7488 58.3532 52.5841 58.5856 52.3517 58.7696C52.2646 58.8277 52.1774 58.8761 52.0806 58.8955C52.0322 58.9052 51.9837 58.9052 51.9353 58.9052C51.8869 58.9052 51.8385 58.8955 51.7901 58.8858C51.5964 58.8374 51.4221 58.7212 51.2768 58.5953C50.9766 58.3242 50.7539 57.9852 50.5408 57.6366C50.4827 57.5494 50.444 57.4623 50.3859 57.3654C50.3084 57.2299 50.2406 57.0846 50.1728 56.949C50.0372 56.6682 49.9017 56.3874 49.7661 56.0968C49.5046 55.5158 49.2625 54.9251 49.0301 54.3247C48.1101 51.923 47.3354 49.4924 46.58 47.2263C45.6891 44.4083 44.8563 41.9969 43.975 39.1692C44.1881 39.9827 44.4689 41.2319 44.7207 42.0357C45.5342 44.631 46.3186 47.3812 47.1804 50.0831Z" fill="url(#paint3_linear)"/>
<path d="M44.5077 45.1055C45.3793 48.2044 46.2799 51.1386 47.3548 54.0245C47.4613 54.2569 47.6356 54.6249 47.7906 54.9638C47.1321 53.0754 46.6091 51.4679 46.0765 49.9088C45.5536 48.3496 45.0403 46.8293 44.5077 45.1055Z" fill="url(#paint4_linear)"/>
<path d="M47.7906 54.9638C47.8681 55.1768 47.9358 55.3802 48.0133 55.5932C48.052 55.632 48.0908 55.6804 48.1295 55.7385C48.1101 55.6804 48.0811 55.632 48.0617 55.5739C47.9939 55.4189 47.9068 55.1962 47.7906 54.9638Z" fill="url(#paint5_linear)"/>
<path d="M52.6713 56.5036L52.5647 56.7069C52.5357 56.765 52.4873 56.8619 52.4873 56.8619C52.4776 56.9006 52.4679 56.9394 52.4485 56.9781C52.4195 57.0556 52.3904 57.1427 52.342 57.2202C52.4195 57.1137 52.4776 56.9975 52.526 56.8909L52.8359 56.3293C52.9424 56.1259 53.0586 55.9128 53.1652 55.6998C53.5913 54.8573 53.998 53.9664 54.3854 53.0754C55.1601 51.2839 55.867 49.4439 56.5449 47.604C55.8573 49.2793 55.1698 50.8965 54.5112 52.4072C53.8624 53.9083 53.2329 55.3221 52.6713 56.5036Z" fill="url(#paint6_linear)"/>
<path d="M33.7778 55.9806C33.4001 57.0071 33.0515 57.84 32.6641 58.6147C32.6157 58.7115 32.5673 58.8084 32.5189 58.9052L32.422 59.0795L32.3155 59.2635L32.0928 59.6218L31.9766 59.8058L31.8507 59.9801C31.5214 60.445 31.1244 60.8711 30.6499 61.21C31.1438 60.9001 31.5989 60.4934 31.9959 59.9995C31.076 61.2003 29.9914 61.9073 28.8196 61.9654C28.2482 61.9847 27.7447 61.7814 27.2798 61.5102C26.815 61.2294 26.3792 60.8517 25.9725 60.4062C25.5755 59.9801 25.13 59.37 24.9169 59.0505C24.6555 58.6631 24.4037 58.2564 24.1519 57.8109C24.1132 57.8303 23.8033 57.501 23.5902 57.1137C22.4669 55.2156 21.6341 53.2304 20.8303 51.7003C19.9006 49.7635 19.0678 47.7977 18.3318 46.2579C18.1672 45.8609 17.7217 45.1249 17.3634 44.3502C16.9567 43.3915 16.5693 42.4231 16.182 41.4643C16.182 41.5128 16.1917 41.5612 16.1917 41.5999C16.4919 42.394 16.8114 43.1881 17.1601 43.9725C18.1962 46.316 19.4261 49.0469 20.5301 51.3711C21.4404 53.2982 22.3797 55.1672 23.4353 56.9781C23.7064 57.4333 23.9776 57.8787 24.2681 58.3242C24.4134 58.5469 24.5586 58.7696 24.7136 58.9924L24.946 59.3216L25.2462 59.7187C26.2146 60.9679 27.3573 62.0913 28.8099 62.1009C29.1876 62.0719 29.5459 62.0041 29.8945 61.8782C30.0591 61.8007 30.2335 61.7329 30.3884 61.6361L30.6305 61.4908L30.8532 61.3262C31.444 60.8808 31.9475 60.2707 32.3639 59.6121C32.4705 59.4475 32.577 59.2829 32.6738 59.1086C32.761 58.9536 32.8191 58.8471 32.8869 58.7212C33.0225 58.4694 33.1387 58.2177 33.2549 57.9756C33.4776 57.4817 33.681 56.9781 33.865 56.4842C34.3298 55.235 34.659 53.9664 35.0077 52.7268C35.9954 48.9694 37.1091 44.447 37.4093 41.9098C37.4674 41.4837 37.6708 40.6702 37.6805 40.2345C37.08 43.5658 36.1407 47.6911 34.998 51.8262C34.6203 53.0658 34.4073 54.3441 33.7778 55.9806Z" fill="url(#paint7_linear)"/>
<path d="M30.5724 59.1086C30.6886 58.8665 30.8242 58.576 30.9694 58.2467C31.0469 58.0724 31.1244 57.8787 31.2212 57.685C31.3181 57.4817 31.4052 57.2492 31.5021 57.0168C31.8797 56.0678 32.2962 54.896 32.7029 53.5887C33.526 50.974 34.3492 47.8267 35.0851 44.8731C35.8114 41.9195 36.4603 39.1595 36.8767 37.3099C37.3899 35.0438 37.7386 33.6687 37.2253 34.3853C37.0123 35.1503 36.8089 35.9347 36.6249 36.7191L36.499 37.2615L36.4022 37.6875C36.3441 37.9684 36.2763 38.2492 36.2182 38.5397C35.9664 39.6728 35.7146 40.8155 35.4628 41.9485C34.9496 44.2146 34.417 46.4322 33.8553 48.4368C33.4195 50.054 32.6157 53.211 31.7635 55.6417C31.5505 56.2518 31.3374 56.8135 31.1341 57.2977C31.0372 57.5398 30.9404 57.7625 30.8436 57.9659C30.7758 58.1402 30.6983 58.2951 30.6402 58.4307C30.5143 58.7115 30.4175 58.9246 30.3884 59.0505C30.3497 59.1667 30.3981 59.2054 30.5724 59.1086Z" fill="url(#paint8_linear)"/>
<path d="M7.63101 14.4653C8.52194 17.448 9.80991 21.0505 11.0107 24.3914C10.1489 21.6121 8.8512 18 7.67943 14.4847C7.65038 14.4653 7.6407 14.4557 7.63101 14.4653Z" fill="url(#paint9_linear)"/>
<path d="M13.9643 35.6249C13.974 35.6443 13.9837 35.6636 13.9934 35.683C13.9934 35.6636 13.9837 35.6346 13.9837 35.6152C13.974 35.6152 13.974 35.6152 13.9643 35.6249Z" fill="url(#paint10_linear)"/>
<path d="M8.39601 15.9954C8.27012 15.608 8.1055 15.2304 7.96024 14.9495C8.11518 15.3563 8.27012 15.7823 8.42507 16.1988C8.41538 16.131 8.4057 16.0632 8.39601 15.9954Z" fill="url(#paint11_linear)"/>
<path d="M62.1713 38.9078C61.7161 40.3797 61.2416 41.8614 60.7381 43.3624C61.0189 42.6361 61.2997 41.9098 61.5903 41.1738L60.7187 43.5561C60.5734 43.9338 60.4379 44.3115 60.2926 44.6891C59.4404 47.1876 58.5204 49.7635 57.4358 52.446C58.2783 50.2962 59.0724 48.0785 59.8568 45.8318C58.9853 48.0592 58.0653 50.3252 57.0775 52.5525C56.5836 53.6662 56.0801 54.7702 55.5474 55.8451C55.0148 56.92 54.4628 57.9756 53.814 58.9537C53.6397 59.2151 53.446 59.4863 53.2233 59.7477C53.0005 60.0092 52.7391 60.261 52.4195 60.4256C52.0999 60.6096 51.6932 60.5612 51.3543 60.4159C51.0153 60.261 50.7151 60.0189 50.4537 59.7381C50.1922 59.4572 49.9501 59.1473 49.7274 58.8084C49.5046 58.4791 49.2916 58.1111 49.1076 57.7722C48.7396 57.0943 48.42 56.4068 48.1295 55.7289C48.0908 55.6805 48.052 55.632 48.0133 55.5836C47.9358 55.3706 47.8583 55.1672 47.7906 54.9542C47.6356 54.6152 47.4613 54.2376 47.3548 54.0148C46.2798 51.129 45.3696 48.1947 44.5077 45.0959C44.4302 44.8344 44.3431 44.5632 44.2656 44.3018C44.0138 43.4883 43.7426 42.2488 43.5296 41.4353C43.8492 42.6845 44.1784 43.9047 44.5077 45.1055C45.0403 46.8293 45.5536 48.3497 46.0862 49.9088C46.6188 51.4679 47.1417 53.0755 47.8002 54.9638C47.9068 55.1963 48.0036 55.419 48.0714 55.5739C48.0908 55.6224 48.1198 55.6805 48.1392 55.7386C48.4491 56.1743 48.8558 57.0265 49.4078 58.0143C49.6886 58.5082 50.0082 59.0311 50.3956 59.5056C50.5989 59.7381 50.812 59.9705 51.0638 60.1448C51.3155 60.3191 51.606 60.4547 51.9063 60.4837C51.7997 60.4547 51.7997 60.4353 51.8578 60.4256C51.9159 60.4159 52.0321 60.4256 52.1677 60.3869C52.4292 60.3191 52.681 60.1061 52.6713 60.0576C53.1555 59.6315 53.4944 59.0989 53.7946 58.5953C53.9496 58.3436 54.0755 58.0918 54.2111 57.84C54.3563 57.5689 54.4822 57.2977 54.6178 57.0265C55.131 55.9419 55.5668 54.867 55.9445 53.8889C57.1937 50.7707 58.5107 47.6621 59.3048 44.815C59.5179 43.9919 60.1473 42.4328 60.5347 41.2223C60.68 40.709 60.8349 40.1473 60.9995 39.576C60.7768 40.157 60.5541 40.7381 60.3217 41.3191C60.2248 41.5128 61.077 38.9756 61.8614 36.419C62.6555 33.8624 63.4012 31.2865 63.2462 31.4608C63.2462 31.4608 63.2268 31.4898 63.2075 31.5576C63.1881 31.6254 63.1494 31.7223 63.1106 31.8385C63.0332 32.0902 62.917 32.4486 62.762 32.9037C62.4715 33.814 62.0551 35.0923 61.5806 36.5546C60.6219 39.4888 59.3533 43.1687 58.1912 46.1902C57.6101 47.3135 57.9684 44.9312 58.2202 44.1275C58.2396 44.0403 58.2686 43.9338 58.2977 43.8369C57.9491 44.7376 57.6004 45.6285 57.2421 46.5097C56.7386 47.9333 56.2059 49.3568 55.6443 50.761C55.1988 51.894 54.7243 53.0174 54.2304 54.1213C53.9786 54.6733 53.7268 55.2156 53.4557 55.7386C53.3201 56 53.1845 56.2615 53.049 56.523L52.8359 56.9006L52.7584 57.0362L52.7197 57.104C52.7197 57.075 52.9231 56.707 53.0393 56.4455C53.1749 56.1647 53.3104 55.8838 53.4363 55.5933C53.5525 55.3125 53.6784 55.022 53.8043 54.7314C54.8115 52.3589 56.0123 49.5118 57.2228 46.5194C57.8038 44.9022 58.3461 43.285 58.8787 41.6774C58.8884 41.629 58.8981 41.5902 58.9175 41.5515C58.1718 43.5755 57.368 45.6285 56.5546 47.604C55.8864 49.444 55.1698 51.2839 54.395 53.0755C54.0077 53.9761 53.601 54.8573 53.1749 55.6998C53.0683 55.9129 52.9618 56.1163 52.8456 56.3293L52.5357 56.891C52.4873 56.9975 52.4195 57.1137 52.3517 57.2202C52.3905 57.1331 52.4292 57.0556 52.4582 56.9781C52.4679 56.9394 52.4873 56.9007 52.497 56.8619C52.4873 56.8619 52.5357 56.7748 52.5745 56.707L52.681 56.5036C53.2426 55.3125 53.8721 53.9083 54.5306 52.3976C55.1891 50.8869 55.8767 49.26 56.5643 47.5943C57.8425 44.0887 58.9853 40.5637 60.0311 37.1259C59.2274 39.4307 58.288 42.0454 57.4746 44.3018C56.6708 46.5775 55.8573 48.7951 54.9955 50.9256C54.5694 51.9909 54.1239 53.0367 53.6687 54.0439C53.4363 54.5474 53.2039 55.0413 52.9618 55.5255C52.8456 55.7676 52.7197 56 52.5938 56.2325L52.4098 56.5714L52.3227 56.7263L52.313 56.7554C52.2839 56.8329 52.2452 56.92 52.1871 56.9975C52.1387 57.075 52.0612 57.1815 51.9644 57.1912C51.8675 57.2009 51.7804 57.1428 51.7029 57.0846C51.6254 57.0169 51.5576 56.9394 51.4898 56.8425L51.4705 56.8135L51.4608 56.8038C51.4608 56.8038 51.4608 56.8038 51.4511 56.7844L51.4027 56.707L51.2284 56.3777C51.1122 56.155 51.0056 55.9226 50.8991 55.6901C50.6861 55.2253 50.473 54.7314 50.2697 54.2376C49.8726 53.2401 49.5046 52.2039 49.1463 51.158C48.7299 50.1606 48.3522 49.1535 48.0327 48.1076C47.2773 45.7156 46.5607 42.8492 45.8731 40.3991C45.8925 40.8349 45.5729 39.5953 45.5245 39.605C45.3211 38.9949 45.1178 38.3655 44.9241 37.707C44.8079 37.3293 44.7014 36.9516 44.5852 36.5643C44.4399 36.051 44.2849 35.5474 44.1203 35.0342C43.8007 34.0174 43.4521 32.9909 43.0357 32.129C42.6193 31.2671 42.1642 30.628 41.6703 30.1438C41.525 30.0082 41.4572 29.9307 41.3798 29.8532C41.341 29.8145 41.3023 29.7758 41.2539 29.7274C41.1958 29.6886 41.1377 29.6402 41.0408 29.5821C40.9343 29.5434 40.8084 29.5046 40.6728 29.4756C40.605 29.4562 40.5276 29.4465 40.4501 29.4465C40.4113 29.4368 40.3726 29.4465 40.3339 29.4562C40.2951 29.4659 40.2564 29.4756 40.2177 29.4853C39.9175 29.5821 39.7044 29.7273 39.5011 29.9017C39.1137 30.26 38.7844 30.7054 38.4649 31.2671C37.816 32.3614 37.2834 34.0561 36.8283 35.7702C36.7121 36.1963 36.6055 36.632 36.4893 37.0678C36.4119 37.3874 36.3344 37.6973 36.2472 38.0169C36.0923 38.6366 35.9373 39.2661 35.7824 39.9052C35.4725 41.1642 35.1529 42.4424 34.8334 43.7014C34.5332 44.9893 34.2136 46.2773 33.8553 47.575C34.1749 46.3064 34.5041 45.0087 34.8334 43.7014C35.182 42.2391 35.5016 40.7865 35.8211 39.3339C35.9858 38.6076 36.1504 37.8813 36.3053 37.155L36.4893 36.3899L36.6927 35.5959C36.8283 35.0632 36.9735 34.5306 37.1285 34.0174C36.9348 34.6468 36.7508 35.2956 36.5862 35.9348C36.499 36.2544 36.4215 36.5836 36.3344 36.9032L36.1601 37.6198C35.9567 38.4914 35.7533 39.3629 35.5597 40.2248C35.1626 41.9486 34.7849 43.6529 34.3782 45.3476C33.9715 47.0423 33.5551 48.7177 33.0902 50.3833C32.6254 52.049 32.1218 53.6952 31.4924 55.2931C31.2987 55.7773 31.105 56.2518 30.892 56.6973C30.7855 56.92 30.6789 57.1524 30.5627 57.3655C30.5046 57.472 30.4465 57.5785 30.3884 57.6851L30.3206 57.8013C30.3013 57.8303 30.2819 57.8691 30.2625 57.9078C30.0979 58.1789 29.9139 58.4501 29.6815 58.6728C29.5653 58.789 29.4394 58.8859 29.2941 58.973C29.1489 59.0505 28.9939 59.0989 28.8293 59.1086C28.655 59.1183 28.4903 59.0408 28.3451 58.9537C28.1998 58.8568 28.0643 58.7503 27.9384 58.6244C27.8125 58.5082 27.6963 58.3726 27.5801 58.237L27.4154 58.0337L27.338 57.9272L27.2217 57.7722C26.6117 56.9297 26.05 56.0194 25.5174 55.0897C24.4521 53.2304 23.4837 51.313 22.5541 49.3665C21.4501 47.0423 20.472 44.6504 19.552 42.2488C19.6585 42.4424 19.7651 42.6264 19.8716 42.8104C18.7192 39.8181 17.6152 36.9322 16.4435 33.8818C16.3369 33.601 16.2304 33.3298 16.1239 33.049C13.7029 26.7447 11.8048 21.2635 9.72276 14.7075C9.20951 13.0999 8.6672 11.5021 8.183 9.88484C7.77627 8.68402 8.1249 10.7854 7.47607 8.77118C7.49544 8.88738 7.51481 8.99391 7.52449 9.09075C8.03774 10.6208 8.54131 11.9475 8.58005 12.4027C8.57036 13.0225 7.57291 10.1269 6.83693 8.31603C6.78851 8.27729 6.7304 8.2095 6.6723 8.11266C6.6723 8.11266 6.59483 7.8512 6.49799 7.53162C6.46893 7.46384 6.43988 7.41542 6.41083 7.35731C6.37209 7.44447 6.28494 7.37668 6.1881 7.26047C6.40115 7.97709 6.60451 8.68402 6.81756 9.40064C6.47862 8.78086 6.19778 8.13203 5.80074 7.03774C5.80074 7.03774 5.80074 7.03774 5.80074 7.04742C5.79105 7.01837 5.78137 6.999 5.78137 6.96995C5.7039 6.74722 5.62643 6.51481 5.52959 6.25334C6.56577 11.0857 5.08412 6.67943 4.11572 5.02347C4.21256 5.44956 4.35782 5.96282 4.53213 6.52449C4.4934 6.53417 4.40624 6.56322 4.40624 6.56322C5.37464 10.2819 5.95568 12.7707 6.76914 16.0826C6.98219 16.9057 6.80787 16.9638 7.20492 18.1743C8.25079 21.4088 9.28698 24.6529 10.4394 27.8583C11.6983 31.2671 12.9475 34.579 14.2161 37.8522C15.4944 41.1254 16.7921 44.3599 18.1769 47.604C18.1672 47.5556 18.1672 47.5362 18.1769 47.5362C18.8451 49.105 19.5326 50.6738 20.2686 52.262C20.9949 53.8308 21.6825 54.9542 22.5153 56.5133C23.0867 57.5688 23.6871 58.6244 24.4134 59.68L24.549 59.8833L24.6555 60.0286L24.7717 60.1835C24.9266 60.3869 25.0816 60.5903 25.2462 60.7839C25.5755 61.1713 25.9241 61.5393 26.3018 61.8395C27.0474 62.4496 27.8803 62.8369 28.8002 62.8466C29.0327 62.8273 29.2651 62.8079 29.4975 62.7692C29.6137 62.7595 29.7202 62.7207 29.8364 62.6917C29.9526 62.6626 30.0592 62.6336 30.1657 62.5852C30.6015 62.4302 31.0082 62.1784 31.3859 61.9073C32.1509 61.3166 32.7804 60.5128 33.313 59.6315L33.4679 59.3604C33.5067 59.2829 33.5454 59.2151 33.5841 59.1473C33.6616 59.0021 33.7391 58.8568 33.8165 58.7116C33.9618 58.421 34.0974 58.1402 34.2233 57.8594C34.4751 57.288 34.7075 56.7263 34.9205 56.1743C35.7533 53.9373 36.3731 51.7488 36.9542 49.5602C37.5255 47.3716 38.0388 45.1927 38.5423 43.0332C38.7941 41.9582 39.0459 40.8736 39.2977 39.7987L39.685 38.1912L39.7335 37.9975L39.7432 37.9491L39.7625 37.8425L39.8109 37.6295C39.8013 37.3487 39.8303 36.9903 39.9078 36.5836C39.8303 36.7967 39.7625 37 39.6754 37.2228C39.685 36.8548 39.7432 36.3996 39.8594 35.8864C39.9272 35.6346 39.9949 35.3538 40.1305 35.0923C40.1983 34.9664 40.2855 34.8308 40.421 34.8018C40.5469 34.7824 40.6438 34.8599 40.7212 34.9277C41.0311 35.2472 41.2345 35.7217 41.4475 36.2544C41.5541 36.5158 41.6606 36.7967 41.7574 37.0872L41.9124 37.5327L41.9898 37.7651L42.1157 38.1815C42.7742 40.3894 43.3843 42.6361 43.9847 44.7279C44.5755 46.8196 45.1565 48.7564 45.7182 50.364C46.3476 52.1942 46.9965 54.0826 47.8002 55.9807C48.0036 56.4552 48.2167 56.9297 48.4491 57.4042C48.5653 57.6366 48.6912 57.8787 48.8074 58.1111L49.0301 58.5179L49.2722 58.9149C49.6015 59.4379 49.9695 59.9221 50.4149 60.3191C50.6377 60.5128 50.8701 60.6968 51.1412 60.813C51.4027 60.9389 51.6932 61.0163 51.9934 61.0163C52.2936 61.0067 52.5745 60.8808 52.8166 60.7161C53.0587 60.5515 53.2911 60.3578 53.4944 60.1351C53.9108 59.6993 54.2788 59.1861 54.6081 58.6631C54.6856 58.5373 54.7824 58.392 54.8502 58.2661L55.0536 57.9078C55.1891 57.6657 55.3247 57.4333 55.4506 57.1912C55.7121 56.707 55.9542 56.2228 56.1963 55.7289C57.155 53.763 58.0169 51.7294 58.8497 49.6667C60.3507 45.5413 61.7549 41.2513 63.1494 36.8645C61.9292 40.8833 60.5928 44.9796 58.9562 49.3956C60.7187 44.999 62.365 40.4766 63.9435 35.9251C65.5898 30.7732 67.2167 25.8538 68.7758 20.5857C69.1147 19.3558 69.4827 18.1453 69.6473 17.3125C69.7151 16.7024 69.7732 16.0923 69.8217 15.55C69.3471 17.1575 68.8823 18.8135 68.495 20.237C68.5337 20.053 68.4949 20.0627 68.4659 20.053C67.788 22.2513 67.3619 23.8492 66.6356 26.1249C67.4491 22.8323 68.6886 18.891 69.8604 14.9205C69.8701 14.6978 69.8701 14.4944 69.8701 14.3201C67.3425 22.4837 64.786 30.8507 62.1713 38.9078ZM46.5607 47.1973C47.316 49.4633 48.0908 51.894 49.0107 54.2957C49.2432 54.8961 49.4853 55.4868 49.7467 56.0678C49.8726 56.3583 50.0082 56.6489 50.1535 56.92C50.2212 57.0556 50.289 57.2009 50.3665 57.3364C50.4246 57.4333 50.4633 57.5107 50.5214 57.6076C50.7345 57.9562 50.9572 58.2952 51.2574 58.5663C51.4027 58.7019 51.577 58.8084 51.7707 58.8568C51.8191 58.8665 51.8675 58.8762 51.9159 58.8762C51.9644 58.8859 52.0128 58.8762 52.0612 58.8665C52.158 58.8471 52.2549 58.7987 52.3324 58.7406C52.5648 58.5663 52.7391 58.3242 52.8843 58.1015C53.049 57.8594 53.1942 57.6366 53.3201 57.4236C53.417 57.259 53.5235 57.0943 53.6203 56.9394C53.7268 56.7651 53.8237 56.5908 53.9302 56.4261C53.9883 56.3196 54.0464 56.2131 54.0948 56.1066C54.0658 56.1647 54.0367 56.2325 54.0077 56.3002C54.6178 55.2641 55.1891 54.2376 55.8186 52.9205L55.9445 52.5235L56.0704 52.5816C55.7605 53.4725 55.3828 54.3925 54.947 55.3125C54.734 55.7773 54.5016 56.2325 54.2498 56.6876C54.0077 57.1234 53.7075 57.6463 53.5235 57.9175C53.3104 58.2467 53.078 58.5566 52.8069 58.8374C52.6713 58.973 52.526 59.1086 52.3517 59.2054C52.2646 59.2539 52.1774 59.2926 52.0806 59.312C51.9837 59.3313 51.8869 59.3217 51.79 59.3023C51.4027 59.2151 51.1025 58.9343 50.8507 58.6535C50.5989 58.3629 50.3859 58.0434 50.1922 57.7044C50.1244 57.5882 50.076 57.5107 49.9888 57.3461L49.7564 56.9006C49.6112 56.6004 49.4659 56.3002 49.3206 55.9807C49.0398 55.3609 48.7783 54.7121 48.5362 54.0632C48.0423 52.7559 47.5969 51.4098 47.1611 50.0541C46.2992 47.3425 45.5148 44.602 44.682 41.9776C44.4302 41.1642 44.1494 39.9246 43.9363 39.1111C44.8369 41.9776 45.6601 44.3889 46.5607 47.1973ZM8.39605 15.9954C8.40573 16.0632 8.41542 16.131 8.4251 16.1988C8.27016 15.7824 8.11521 15.3563 7.96027 14.9496C8.11521 15.2304 8.27016 15.6081 8.39605 15.9954ZM7.63101 14.4654C7.6407 14.4654 7.66007 14.4751 7.66975 14.4847C8.8512 18 10.1489 21.6025 11.001 24.3915C9.80991 21.0408 8.52194 17.4384 7.63101 14.4654ZM13.9643 35.6249C13.974 35.6249 13.974 35.6152 13.9837 35.6152C13.9837 35.6346 13.9934 35.6636 13.9934 35.683C13.9837 35.6636 13.974 35.6443 13.9643 35.6249ZM30.3787 59.0408C30.4078 58.9149 30.5046 58.7019 30.6305 58.421C30.6983 58.2758 30.7661 58.1305 30.8339 57.9562C30.921 57.7528 31.0179 57.5301 31.1244 57.288C31.3278 56.8038 31.5408 56.2421 31.7539 55.632C32.606 53.2014 33.4098 50.0541 33.8456 48.4272C34.4073 46.4129 34.9399 44.1952 35.4531 41.9389C35.7049 40.8058 35.9567 39.6631 36.2085 38.5301C36.2763 38.2493 36.3344 37.9587 36.3925 37.6779L36.4893 37.2518L36.6152 36.7095C36.7992 35.9251 37.0026 35.1407 37.2156 34.3757C37.7289 33.6687 37.3803 35.0342 36.867 37.3002C36.4506 39.1499 35.8018 41.9001 35.0755 44.8634C34.3395 47.8171 33.5163 50.974 32.6932 53.579C32.2865 54.8864 31.8701 56.0581 31.4924 57.0072C31.3955 57.2396 31.3084 57.472 31.2115 57.6754C31.1244 57.8787 31.0372 58.0627 30.9598 58.237C30.8145 58.5663 30.6789 58.8568 30.5627 59.0989C30.3981 59.2054 30.3497 59.1667 30.3787 59.0408ZM37.3996 41.9195C37.0994 44.4567 35.9858 48.9791 34.998 52.7365C34.6494 53.9858 34.3201 55.2447 33.8553 56.4939C33.6713 56.9878 33.4679 57.4817 33.2452 57.9853C33.129 58.237 33.0128 58.4791 32.8772 58.7309C32.8094 58.8568 32.7513 58.973 32.6641 59.1183C32.5673 59.2926 32.4705 59.4572 32.3543 59.6219C31.9379 60.2804 31.4343 60.8808 30.8436 61.3359L30.6208 61.5005L30.3787 61.6458C30.2238 61.7523 30.0495 61.8104 29.8848 61.8879C29.5362 62.0138 29.1779 62.0816 28.8002 62.1106C27.3476 62.0913 26.2049 60.9776 25.2365 59.7284L24.9363 59.3313L24.7039 59.0021C24.549 58.7794 24.394 58.5566 24.2584 58.3339C23.9679 57.8884 23.6871 57.4333 23.4256 56.9878C22.3604 55.1769 21.421 53.3079 20.5204 51.3808C19.4164 49.0566 18.1866 46.3257 17.1504 43.9822C16.8018 43.1978 16.4822 42.394 16.182 41.6096C16.182 41.5709 16.1723 41.5225 16.1723 41.474C16.5597 42.4424 16.9567 43.4012 17.3537 44.3599C17.7121 45.1346 18.1575 45.8706 18.3221 46.2676C19.0581 47.8171 19.891 49.7829 20.8206 51.71C21.6147 53.2304 22.4572 55.2156 23.5806 57.1234C23.7936 57.5107 24.1035 57.8497 24.1422 57.8206C24.394 58.2661 24.6458 58.6825 24.9073 59.0602C25.1203 59.3798 25.5658 59.9898 25.9628 60.4159C26.3696 60.8614 26.8053 61.2391 27.2702 61.5199C27.735 61.7911 28.2386 61.9944 28.8099 61.9751C29.9817 61.9266 31.0663 61.21 31.9863 60.0092C31.5892 60.4934 31.1341 60.9098 30.6402 61.2197C31.1147 60.8711 31.5118 60.445 31.841 59.9898L31.9669 59.8155L32.0831 59.6315L32.3058 59.2732L32.4124 59.0892L32.5092 58.9149C32.5673 58.8181 32.6157 58.7212 32.6545 58.6244C33.0418 57.8497 33.3808 57.0169 33.7681 55.9904C34.4073 54.3538 34.6106 53.0658 34.9883 51.8359C36.1213 47.7105 37.0704 43.5755 37.6708 40.2442C37.6611 40.68 37.4577 41.5031 37.3996 41.9195Z" fill="url(#paint12_linear)"/>
<path d="M70.3446 17.0219C70.3833 16.8863 70.422 16.7604 70.4704 16.6152C70.3155 16.9735 70.3155 17.0122 70.3446 17.0219Z" fill="url(#paint13_linear)"/>
<path d="M4.31907 2.57343C4.30939 2.57343 4.29002 2.59279 4.28033 2.59279C4.36749 2.85426 4.44496 3.09636 4.51275 3.31909C4.40623 2.93173 4.31907 2.57343 4.31907 2.57343Z" fill="url(#paint14_linear)"/>
<path d="M5.16161 3.67734C5.15193 3.70639 5.14224 3.71607 5.14224 3.73544C5.17129 3.79355 5.20035 3.85165 5.2294 3.91944C5.20035 3.84197 5.18098 3.75481 5.16161 3.67734Z" fill="url(#paint15_linear)"/>
<path d="M3.78648 2.69927C3.67996 2.28286 3.4766 1.43067 3.38944 0.97552C3.21513 0.539739 3.21513 1.01425 3.12797 1.03362C3.07955 0.801206 3.04082 0.568791 3.00208 0.394479C2.96334 0.210483 2.93429 0.0749062 2.91492 0.0749062C2.87619 0.00711813 2.84714 -0.0122496 2.82777 0.00711842C2.8084 0.0264864 2.78903 0.0749065 2.78903 0.200799C2.78903 0.442899 2.82777 0.81089 2.90524 1.24667C3.3507 2.16665 3.93174 3.70641 4.28037 4.42303C4.63868 5.13964 4.72583 5.0428 4.28037 2.58306C4.12542 2.68959 4.04795 3.0479 3.78648 2.69927Z" fill="url(#paint16_linear)"/>
<path d="M4.53214 3.39657C4.90013 4.51023 5.17128 5.15906 5.50053 5.78852C5.29717 5.0719 5.10349 4.35529 4.90981 3.62899C4.75487 3.43531 4.57087 3.14479 4.53214 3.39657Z" fill="url(#paint17_linear)"/>
<path d="M70.3446 17.0219C70.3156 17.0123 70.3156 16.9735 70.4705 16.6152C70.4221 16.7605 70.3834 16.8961 70.3446 17.0219C70.364 17.0316 70.4124 17.0219 70.3737 17.2059C70.761 15.7824 71.2162 14.1167 71.681 12.5092C71.7004 12.2865 71.7101 12.0734 71.7197 11.8701C70.5674 15.8502 69.3375 19.8013 68.5434 23.1035C69.26 20.8278 69.6764 19.2299 70.3446 17.0219Z" fill="url(#paint18_linear)"/>
<path d="M71.5454 11.4923C71.5841 11.3568 71.6229 11.2212 71.6616 11.0856C71.5163 11.4439 71.5163 11.4826 71.5454 11.4923Z" fill="url(#paint19_linear)"/>
<path d="M42.1545 38.7528C42.0673 38.4816 41.9704 38.2105 41.8833 37.9393L41.8446 37.8425L41.8252 37.7941L41.8155 37.765L41.7768 37.6682L41.6993 37.4842C41.5928 37.2421 41.4862 37.0193 41.3894 36.816C41.4766 37.0484 41.5637 37.3002 41.6606 37.5616L41.7283 37.7553L41.7768 37.9006L41.8446 38.1136C41.9317 38.3945 42.0092 38.685 42.0963 38.9658C42.4256 40.1085 42.7452 41.2416 43.0551 42.3455C43.6749 44.5535 44.2656 46.6259 44.8369 48.3884C44.2656 46.345 43.7426 44.292 43.21 42.2293C42.8614 40.9898 42.5128 39.8471 42.1545 38.7528Z" fill="url(#paint20_linear)"/>
<path d="M40.4114 36.0897C40.3242 36.1285 40.2661 36.2253 40.2177 36.3028C40.1693 36.3899 40.1305 36.4771 40.1015 36.5739C39.9756 36.9322 39.8884 37.2808 39.8206 37.6101C39.8206 37.6876 39.8206 37.7553 39.8303 37.8231C39.9659 37.4842 40.0337 37.2131 40.1402 36.8354C40.1692 36.7482 40.1983 36.6514 40.237 36.5449C40.2758 36.448 40.3242 36.3415 40.4017 36.2737C40.4888 36.2156 40.5566 36.264 40.6147 36.2834C40.6728 36.3124 40.7116 36.3512 40.76 36.3996C40.7212 36.3221 40.6728 36.2543 40.6147 36.1866C40.576 36.1381 40.5082 36.0607 40.4114 36.0897Z" fill="url(#paint21_linear)"/>
<path d="M40.6825 35.4796C40.605 35.4118 40.4985 35.3343 40.3726 35.4118C40.2564 35.499 40.1886 35.6345 40.1402 35.7701C40.0336 36.0413 39.9755 36.3027 39.9271 36.5545C40.0143 36.3318 40.0918 36.0994 40.2176 35.867C40.2757 35.7604 40.3726 35.6248 40.4888 35.6345C40.5953 35.6539 40.6728 35.7217 40.7309 35.7895C40.9827 36.0606 41.1667 36.3899 41.3894 36.816C41.2829 36.5448 41.186 36.2931 41.0698 36.0703C40.9536 35.8379 40.8374 35.6345 40.6825 35.4796Z" fill="url(#paint22_linear)"/>
<path d="M60.5928 36.8934C60.6316 36.6029 60.68 36.2156 60.7575 35.6926C60.7187 35.7992 60.68 35.9057 60.6509 36.0122C60.0893 37.8812 59.4985 39.7696 58.8788 41.6677C58.656 42.4521 58.443 43.2074 58.2784 43.8465C58.7141 42.7135 59.1499 41.5708 59.5566 40.4378C60.0699 38.6075 60.3895 37.5132 60.5928 36.8934Z" fill="url(#paint23_linear)"/>
<path d="M60.5928 36.8935C60.2926 39.392 61.3773 34.4628 60.5928 36.8935V36.8935Z" fill="url(#paint24_linear)"/>
<path d="M58.9756 49.3762C58.9368 49.4633 58.8981 49.5602 58.869 49.6473C58.7722 49.9088 58.6754 50.1799 58.5785 50.4414C58.7141 50.0734 58.84 49.7345 58.9756 49.3762Z" fill="url(#paint25_linear)"/>
<path d="M47.9552 51.6132C48.4588 53.182 49.0108 54.7508 49.679 56.1937C49.0205 54.7023 48.4685 53.1045 47.9552 51.5744C47.4516 50.0347 46.9868 48.553 46.5607 47.2069C46.6672 47.6137 46.735 48.0301 46.8512 48.4368C47.1611 49.2212 47.5872 50.4027 47.9552 51.6132Z" fill="url(#paint26_linear)"/>
<path d="M52.6519 60.0673C52.9521 59.8542 53.2039 59.5734 53.4363 59.2926C53.6687 59.002 53.8818 58.7018 54.0755 58.4016C54.2691 58.1014 54.4628 57.7819 54.6565 57.4526C54.8405 57.1233 55.0245 56.7941 55.1988 56.4648C55.8864 55.1478 56.4965 53.792 57.0872 52.4363C58.2686 49.7151 59.3339 46.9551 60.4282 44.1565C61.0189 42.423 61.5902 40.6799 62.1616 38.9077C62.5877 37.5423 62.9944 36.1768 63.3915 34.8114C65.3573 28.3134 67.8364 20.789 69.841 13.7874C69.7732 13.5453 69.657 13.4776 69.444 13.6906C67.0133 21.2151 64.8538 28.8267 62.21 36.264C62.1907 36.3221 62.181 36.3802 62.1616 36.448C61.3191 39.7309 59.3823 44.8634 58.0072 48.8435C57.339 50.8481 56.603 52.8236 55.7702 54.7508C55.3538 55.7192 54.9083 56.6682 54.4144 57.5882L54.2304 57.9271L54.0464 58.2467C53.9205 58.4597 53.7946 58.6728 53.6494 58.8858C53.3685 59.3022 53.0586 59.7283 52.6519 60.0673Z" fill="url(#paint27_linear)"/>
<path d="M41.9027 38.7625C41.8446 38.5882 41.7962 38.4139 41.7381 38.2395L41.6509 37.9878L41.6122 37.8619C41.6025 37.8231 41.5928 37.8231 41.5831 37.8038C41.525 37.6682 41.4669 37.5326 41.4088 37.4164C41.1764 36.9322 40.9731 36.6126 40.76 36.4093C40.9731 36.8063 41.1377 37.2711 41.312 37.7844L41.3314 37.8522L41.3604 37.9393C41.3991 38.0749 41.4379 38.2105 41.4863 38.3461C41.5638 38.6172 41.6509 38.8884 41.7284 39.1595C41.8833 39.7018 42.0383 40.2345 42.1932 40.7671C42.5031 41.8323 42.8033 42.8782 43.1035 43.9144C43.7039 45.9867 44.3043 48.0107 44.9725 50.0443C44.0913 47.0229 43.3262 43.9822 42.5322 40.9414C42.3385 40.1763 42.1254 39.4597 41.9027 38.7625Z" fill="url(#paint28_linear)"/>
<path d="M58.2396 51.9617C57.5617 53.5402 56.8645 55.0993 56.0898 56.6197C55.8961 56.9974 55.6927 57.3751 55.4894 57.7528C55.3828 57.9368 55.2763 58.1304 55.1698 58.3144L55.0826 58.4597L54.9761 58.6243C54.9083 58.7405 54.8405 58.847 54.7631 58.9536C54.182 59.8251 53.5332 60.6676 52.6713 61.0937C52.4583 61.2003 52.2162 61.268 51.9644 61.268C51.8385 61.2584 51.7126 61.2584 51.5964 61.2293C51.5383 61.2196 51.4705 61.2099 51.4221 61.1906L51.2478 61.1325C50.7926 60.9582 50.4053 60.6676 50.0566 60.319C49.708 59.9704 49.3981 59.554 49.1173 59.1279C48.8461 58.6921 48.5653 58.1982 48.4007 57.8593C47.6453 56.3679 47.074 54.8669 46.5317 53.395C45.9991 51.923 45.5149 50.4704 45.05 49.0469C44.9822 48.8338 44.9048 48.6014 44.837 48.3883C45.2147 49.7538 45.6117 51.1192 46.0475 52.475C46.4833 53.8307 46.9481 55.1865 47.5098 56.5229C47.6453 56.8618 47.7906 57.1911 47.9552 57.53C48.0327 57.6947 48.1102 57.8593 48.1973 58.0336L48.3232 58.2854L48.4782 58.5759C48.7106 59.0117 48.972 59.4184 49.2432 59.8058C49.5337 60.1834 49.8339 60.5321 50.1729 60.8226C50.5215 61.1034 50.8895 61.3358 51.3156 61.4714C51.5286 61.5392 51.7513 61.5586 51.9741 61.5779C52.1968 61.5779 52.4195 61.5392 52.6229 61.452C53.4267 61.1325 54.0658 60.4546 54.6372 59.6992C54.2498 60.2415 53.814 60.7354 53.3105 61.0937C53.0587 61.2777 52.7972 61.423 52.497 61.5198C52.3517 61.5586 52.1968 61.5876 52.0322 61.607C51.8772 61.5973 51.7126 61.5973 51.5673 61.5586C51.4124 61.5489 51.2671 61.4811 51.1219 61.4327C50.9863 61.3649 50.8314 61.3165 50.7055 61.2293L50.5021 61.1131L50.3084 60.9775C50.1825 60.8904 50.0663 60.7838 49.9404 60.6773C49.4659 60.2415 49.0592 59.6992 48.7009 59.1085C48.6137 58.9633 48.5169 58.818 48.4297 58.6631L48.207 58.2563C48.0908 58.0239 47.9649 57.7915 47.8584 57.5591C47.6356 57.0943 47.4226 56.6294 47.2289 56.1646C46.8319 55.2349 46.4736 54.2956 46.1443 53.3562C45.7376 52.2426 45.3599 51.1483 45.0113 50.054C45.6698 52.291 46.367 54.5183 47.287 56.7359C47.5194 57.2879 47.7712 57.8399 48.0521 58.4016C48.1102 58.5081 48.2361 58.7502 48.3329 58.9245L48.6621 59.4765C48.7784 59.6508 48.9042 59.8251 49.0205 59.9994C49.1463 60.1641 49.2722 60.3287 49.4078 60.4836C49.679 60.7742 49.9598 61.0647 50.2794 61.2777C50.5893 61.5005 50.9282 61.6748 51.2962 61.7813C51.6642 61.8685 52.0612 61.9266 52.4389 61.8297C52.8069 61.7426 53.1361 61.5586 53.4557 61.3455C53.969 60.9775 54.4144 60.4836 54.8212 59.9317C55.0245 59.6508 55.2182 59.37 55.3925 59.0795L55.5281 58.8567C55.5765 58.7793 55.6152 58.7115 55.6443 58.6631L55.8283 58.3435C56.3125 57.4816 56.7289 56.61 57.1356 55.7385C57.9394 53.9954 58.6463 52.2329 59.3242 50.4704C60.68 46.9357 61.8905 43.3624 63.0332 39.7793C63.2946 38.9658 63.5561 38.162 63.8176 37.3583C62.6555 40.6605 61.4644 43.9434 60.2054 47.1778C59.5566 48.7757 58.9078 50.3736 58.2396 51.9617Z" fill="url(#paint29_linear)"/>
<path d="M60.2926 44.6891C60.4475 44.2436 60.5928 43.7982 60.7381 43.3624C60.6315 43.6239 60.5347 43.895 60.4282 44.1565C60.2345 44.7182 60.0408 45.2798 59.8568 45.8318C60.0021 45.4445 60.1473 45.0668 60.2926 44.6891Z" fill="url(#paint30_linear)"/>
<path d="M50.7151 58.1305C50.8797 58.3726 51.0734 58.5953 51.2865 58.7696C51.4995 58.9439 51.7707 59.0698 52.0515 59.0311C52.3226 58.973 52.5357 58.7599 52.71 58.5663C52.8843 58.3629 53.0296 58.1498 53.1652 57.9368C53.2329 57.8303 53.291 57.7238 53.3492 57.6269C53.4169 57.501 53.4847 57.3751 53.5525 57.2589C53.7171 56.9393 53.8818 56.6295 54.027 56.3196C53.998 56.3583 53.9786 56.4067 53.9496 56.4455C53.8043 56.7263 53.6494 57.0071 53.4847 57.288L53.3104 57.5882L53.1555 57.84C52.9327 58.1692 52.6906 58.5178 52.3517 58.7599C52.1193 58.9633 51.7803 58.9536 51.5286 58.818C51.2671 58.6825 51.054 58.4694 50.8604 58.237C50.6667 57.9949 50.4924 57.7334 50.3277 57.4526L50.2503 57.3267L50.1631 57.1718L49.9985 56.8522C49.892 56.6391 49.7854 56.4261 49.6886 56.2034C49.8629 56.6101 50.0566 56.9975 50.2503 57.3751C50.3955 57.6463 50.5408 57.8884 50.7151 58.1305Z" fill="url(#paint31_linear)"/>
<path d="M50.3665 54.2666C50.2213 53.8986 49.9598 53.1336 49.8339 52.7462C49.7274 52.5138 49.6305 52.2911 49.524 52.0683C49.6402 52.4363 49.7564 52.8043 49.8726 53.1626C50.0373 53.5306 50.2019 53.9083 50.3665 54.2666Z" fill="url(#paint32_linear)"/>
<path d="M27.9771 68.5408C27.948 68.8507 27.919 69.1218 27.8802 69.3446C27.8415 69.5673 27.7834 69.7513 27.7253 69.8869C27.6672 70.0321 27.5897 70.129 27.5025 70.1968C27.4154 70.2646 27.3185 70.2936 27.2023 70.2936L27.1636 70.0709C27.212 70.0709 27.2508 70.0612 27.2895 70.0418C27.3282 70.0224 27.367 69.9934 27.4057 69.9547C27.4444 69.9159 27.4832 69.8578 27.5122 69.7803C27.5413 69.7126 27.58 69.6157 27.6091 69.4995C27.6381 69.3833 27.6672 69.2477 27.6865 69.0831C27.7059 68.9185 27.735 68.7248 27.7446 68.5021L27.7931 67.892H28.9939V70.2645H28.7615V68.1244H27.9964L27.9771 68.5408Z" fill="#474747"/>
<path d="M30.001 70.3226C29.9235 70.3226 29.846 70.3129 29.7686 70.2839C29.6911 70.2548 29.633 70.2161 29.5846 70.1677C29.5362 70.1192 29.4877 70.0611 29.4587 69.9934C29.4296 69.9256 29.42 69.8578 29.42 69.7803C29.42 69.7028 29.4393 69.6351 29.4684 69.5673C29.5071 69.4995 29.5555 69.4511 29.6233 69.4026C29.6911 69.3542 29.7686 69.3155 29.8557 69.2961C29.9429 69.2671 30.0397 69.2574 30.1463 69.2574C30.2334 69.2574 30.3302 69.2671 30.4174 69.2767C30.5046 69.2961 30.5917 69.3155 30.6595 69.3445V69.1896C30.6595 69.0346 30.6208 68.9184 30.5336 68.8216C30.4465 68.7344 30.3302 68.686 30.1753 68.686C30.0881 68.686 29.9913 68.7054 29.9042 68.7441C29.8073 68.7829 29.7202 68.8313 29.6233 68.8991L29.5458 68.7441C29.7686 68.5892 29.9913 68.5214 30.2044 68.5214C30.4174 68.5214 30.5917 68.5795 30.7176 68.7054C30.8435 68.8313 30.9016 68.9959 30.9016 69.209V69.9934C30.9016 70.0515 30.9307 70.0902 30.9888 70.0902V70.2936C30.95 70.3032 30.921 70.3032 30.9016 70.3032C30.8435 70.3032 30.7951 70.2839 30.766 70.2645C30.737 70.2355 30.7176 70.1967 30.7176 70.1483L30.7079 70.0127C30.6305 70.1192 30.5239 70.1967 30.4077 70.2548C30.2721 70.2936 30.1366 70.3226 30.001 70.3226ZM30.0494 70.1483C30.1656 70.1483 30.2721 70.1289 30.3787 70.0805C30.4755 70.0321 30.553 69.974 30.6014 69.9062C30.6208 69.8868 30.6401 69.8675 30.6498 69.8384C30.6595 69.819 30.6692 69.79 30.6692 69.7706V69.4898C30.5917 69.4607 30.5142 69.4414 30.4368 69.422C30.3593 69.4026 30.2721 69.4026 30.185 69.4026C30.0204 69.4026 29.8945 69.4317 29.7976 69.4995C29.7008 69.5673 29.6427 69.6544 29.6427 69.7609C29.6427 69.8094 29.6524 69.8675 29.6717 69.9062C29.6911 69.9546 29.7202 69.9934 29.7589 70.0321C29.7976 70.0708 29.8364 70.0902 29.8945 70.1096C29.9429 70.1386 29.9913 70.1483 30.0494 70.1483Z" fill="#474747"/>
<path d="M32.2283 68.134C32.0347 68.1825 31.8797 68.2696 31.7635 68.3955C31.6473 68.5311 31.5795 68.7151 31.5505 68.9572C31.6182 68.8506 31.7054 68.7635 31.8119 68.7151C31.9185 68.657 32.0347 68.6279 32.1702 68.6279C32.2864 68.6279 32.3833 68.6473 32.4801 68.6957C32.577 68.7344 32.6544 68.7925 32.7222 68.87C32.79 68.9475 32.8384 69.0346 32.8772 69.1412C32.9159 69.2477 32.9353 69.3639 32.9353 69.4801C32.9353 69.606 32.9159 69.7222 32.8772 69.819C32.8384 69.9256 32.7803 70.0127 32.7125 70.0805C32.6448 70.158 32.5576 70.2064 32.4511 70.2548C32.3542 70.2936 32.238 70.3129 32.1121 70.3129C31.8604 70.3129 31.657 70.2258 31.5311 70.0418C31.3955 69.8578 31.3277 69.606 31.3277 69.2767C31.3277 69.0734 31.3471 68.8991 31.3858 68.7441C31.4246 68.5892 31.4827 68.4633 31.5601 68.3471C31.6376 68.2406 31.7345 68.1437 31.841 68.0759C31.9475 68.0081 32.0734 67.9597 32.2187 67.921L32.7416 67.8048L32.7803 67.9985L32.2283 68.134ZM31.5601 69.4704C31.5601 69.5673 31.5698 69.6544 31.5989 69.7319C31.6279 69.8094 31.6667 69.8868 31.7151 69.9449C31.7635 70.003 31.8216 70.0515 31.8991 70.0805C31.9669 70.1096 32.0443 70.1289 32.1315 70.1289C32.2187 70.1289 32.2961 70.1096 32.3639 70.0805C32.4317 70.0515 32.4898 70.003 32.5479 69.9449C32.5963 69.8868 32.6351 69.819 32.6641 69.7416C32.6932 69.6641 32.7029 69.5769 32.7029 69.4801C32.7029 69.2864 32.6544 69.1218 32.5479 69.0056C32.4414 68.8894 32.3058 68.8313 32.1218 68.8313C32.0443 68.8313 31.9669 68.8506 31.8991 68.87C31.8313 68.8991 31.7732 68.9378 31.7248 68.9959C31.6764 69.054 31.6376 69.1121 31.6086 69.1993C31.5698 69.2864 31.5601 69.3736 31.5601 69.4704Z" fill="#474747"/>
<path d="M34.0586 70.3226C33.9327 70.3226 33.8165 70.3032 33.71 70.2548C33.6034 70.2064 33.5163 70.1386 33.4388 70.0611C33.3613 69.9837 33.3032 69.8868 33.2645 69.7706C33.2258 69.6641 33.1967 69.5479 33.1967 69.4317C33.1967 69.3058 33.2161 69.1896 33.2645 69.0831C33.3032 68.9765 33.371 68.8797 33.4485 68.7925C33.526 68.7054 33.6131 68.6473 33.7197 68.5989C33.8262 68.5504 33.9424 68.5214 34.0586 68.5214C34.1845 68.5214 34.3007 68.5504 34.4072 68.5989C34.5137 68.6473 34.6009 68.7151 34.6784 68.7925C34.7558 68.87 34.8139 68.9669 34.8624 69.0831C34.9011 69.1896 34.9302 69.3058 34.9302 69.4317C34.9302 69.5479 34.9108 69.6641 34.8624 69.7706C34.8236 69.8771 34.7558 69.974 34.6881 70.0611C34.6106 70.1386 34.5234 70.2064 34.4169 70.2548C34.3007 70.2936 34.1845 70.3226 34.0586 70.3226ZM33.4291 69.422C33.4291 69.5188 33.4485 69.606 33.4776 69.6932C33.5066 69.7803 33.555 69.8481 33.6131 69.9159C33.6712 69.9837 33.739 70.0321 33.8165 70.0611C33.894 70.0999 33.9714 70.1096 34.0586 70.1096C34.1457 70.1096 34.2232 70.0902 34.3007 70.0515C34.3782 70.0127 34.446 69.9643 34.5041 69.8965C34.5622 69.8287 34.6106 69.7609 34.6396 69.6738C34.6687 69.5866 34.6881 69.4995 34.6881 69.4026C34.6881 69.3058 34.6687 69.2186 34.6396 69.1315C34.6106 69.0443 34.5622 68.9669 34.5041 68.9088C34.446 68.841 34.3782 68.7925 34.3007 68.7538C34.2232 68.7151 34.1457 68.6957 34.0586 68.6957C33.9714 68.6957 33.894 68.7151 33.8165 68.7538C33.739 68.7925 33.6712 68.841 33.6131 68.9088C33.555 68.9765 33.5066 69.0443 33.4776 69.1315C33.4485 69.238 33.4291 69.3252 33.4291 69.422Z" fill="#474747"/>
<path d="M36.1988 70.3226C36.0536 70.3226 35.918 70.2839 35.8115 70.2064C35.6952 70.1289 35.6081 70.0418 35.5403 69.9256V71.0005H35.3176V68.5504H35.5209V68.8894C35.5887 68.7829 35.6856 68.6957 35.8018 68.6279C35.918 68.5601 36.0342 68.5214 36.1698 68.5214C36.286 68.5214 36.4022 68.5504 36.499 68.5989C36.5959 68.6473 36.683 68.7151 36.7605 68.8022C36.838 68.8894 36.8864 68.9862 36.9348 69.0927C36.9832 69.1993 36.9929 69.3155 36.9929 69.4317C36.9929 69.5576 36.9735 69.6738 36.9348 69.7803C36.8961 69.8868 36.8476 69.9837 36.7702 70.0708C36.7024 70.1483 36.6152 70.2161 36.5184 70.2645C36.4215 70.2936 36.315 70.3226 36.1988 70.3226ZM36.131 70.1192C36.2279 70.1192 36.3053 70.0999 36.3828 70.0611C36.4603 70.0224 36.5281 69.9643 36.5765 69.9062C36.6249 69.8481 36.6733 69.7706 36.7024 69.6835C36.7314 69.5963 36.7411 69.5188 36.7411 69.422C36.7411 69.3252 36.7217 69.238 36.6927 69.1509C36.6636 69.0637 36.6152 68.9959 36.5571 68.9281C36.499 68.8603 36.4312 68.8119 36.3538 68.7732C36.2763 68.7344 36.1891 68.7151 36.102 68.7151C36.0439 68.7151 35.9858 68.7248 35.918 68.7538C35.8502 68.7732 35.7921 68.8119 35.7437 68.8507C35.6856 68.8894 35.6468 68.9378 35.6081 68.9862C35.5693 69.0346 35.5403 69.0927 35.5403 69.1509V69.6835C35.5694 69.7416 35.5984 69.7997 35.6468 69.8578C35.6856 69.9062 35.734 69.9546 35.7824 69.9934C35.8308 70.0321 35.8889 70.0611 35.947 70.0805C36.0051 70.0999 36.0632 70.1192 36.131 70.1192Z" fill="#474747"/>
<path d="M37.8063 70.3226C37.7288 70.3226 37.6513 70.3129 37.5739 70.2839C37.4964 70.2548 37.4383 70.2161 37.3899 70.1677C37.3415 70.1192 37.293 70.0611 37.264 69.9934C37.2349 69.9256 37.2253 69.8578 37.2253 69.7803C37.2253 69.7028 37.2446 69.6351 37.2737 69.5673C37.3124 69.4995 37.3608 69.4511 37.4286 69.4026C37.4964 69.3542 37.5739 69.3155 37.661 69.2961C37.7482 69.2671 37.845 69.2574 37.9515 69.2574C38.0387 69.2574 38.1355 69.2671 38.2227 69.2767C38.3099 69.2961 38.397 69.3155 38.4648 69.3445V69.1896C38.4648 69.0346 38.4261 68.9184 38.3389 68.8216C38.2518 68.7344 38.1355 68.686 37.9806 68.686C37.8934 68.686 37.7966 68.7054 37.7094 68.7441C37.6126 68.7829 37.5255 68.8313 37.4286 68.8991L37.3511 68.7441C37.5739 68.5892 37.7966 68.5214 38.0097 68.5214C38.2227 68.5214 38.397 68.5795 38.5229 68.7054C38.6488 68.8313 38.7069 68.9959 38.7069 69.209V69.9934C38.7069 70.0515 38.7359 70.0902 38.7941 70.0902V70.2936C38.7553 70.3032 38.7263 70.3032 38.7069 70.3032C38.6488 70.3032 38.6004 70.2839 38.5713 70.2645C38.5423 70.2355 38.5229 70.1967 38.5229 70.1483L38.5132 70.0127C38.4357 70.1192 38.3292 70.1967 38.213 70.2548C38.0774 70.2936 37.9515 70.3226 37.8063 70.3226ZM37.8644 70.1483C37.9806 70.1483 38.0871 70.1289 38.1936 70.0805C38.2905 70.0321 38.368 69.974 38.4164 69.9062C38.4357 69.8868 38.4551 69.8675 38.4648 69.8384C38.4745 69.8094 38.4842 69.79 38.4842 69.7706V69.4898C38.4067 69.4607 38.3292 69.4414 38.2518 69.422C38.1743 69.4026 38.0871 69.4026 38 69.4026C37.8353 69.4026 37.7094 69.4317 37.6126 69.4995C37.5158 69.5673 37.4577 69.6544 37.4577 69.7609C37.4577 69.8094 37.4674 69.8675 37.4867 69.9062C37.5061 69.9546 37.5351 69.9934 37.5739 70.0321C37.6126 70.0708 37.6513 70.0902 37.7094 70.1096C37.7482 70.1386 37.8063 70.1483 37.8644 70.1483Z" fill="#474747"/>
<path d="M39.84 70.2839H39.6172V68.7442H39.0071V68.5505H40.45V68.7442H39.84V70.2839Z" fill="#474747"/>
<path d="M41.5153 70.3226C41.3894 70.3226 41.2732 70.3032 41.1667 70.2548C41.0601 70.2064 40.973 70.1386 40.8955 70.0611C40.818 69.9837 40.7599 69.8868 40.7212 69.7706C40.6825 69.6641 40.6534 69.5479 40.6534 69.4317C40.6534 69.3058 40.6728 69.1896 40.7212 69.0831C40.7599 68.9765 40.8277 68.8797 40.9052 68.7925C40.9827 68.7054 41.0698 68.6473 41.1763 68.5989C41.2829 68.5504 41.3991 68.5214 41.5153 68.5214C41.6412 68.5214 41.7574 68.5504 41.8639 68.5989C41.9704 68.6473 42.0576 68.7151 42.135 68.7925C42.2125 68.87 42.2706 68.9669 42.319 69.0831C42.3578 69.1896 42.3868 69.3058 42.3868 69.4317C42.3868 69.5479 42.3674 69.6641 42.319 69.7706C42.2803 69.8771 42.2125 69.974 42.1447 70.0611C42.0672 70.1386 41.9801 70.2064 41.8736 70.2548C41.7574 70.2936 41.6412 70.3226 41.5153 70.3226ZM40.8858 69.422C40.8858 69.5188 40.9052 69.606 40.9342 69.6932C40.9633 69.7803 41.0117 69.8481 41.0698 69.9159C41.1279 69.9837 41.1957 70.0321 41.2732 70.0611C41.3506 70.0999 41.4281 70.1096 41.5153 70.1096C41.6024 70.1096 41.6799 70.0902 41.7574 70.0515C41.8348 70.0127 41.9026 69.9643 41.9607 69.8965C42.0188 69.8287 42.0672 69.7609 42.0963 69.6738C42.1253 69.5866 42.1447 69.4995 42.1447 69.4026C42.1447 69.3058 42.1253 69.2186 42.0963 69.1315C42.0672 69.0443 42.0188 68.9669 41.9607 68.9088C41.9026 68.841 41.8348 68.7925 41.7574 68.7538C41.6799 68.7151 41.6024 68.6957 41.5153 68.6957C41.4281 68.6957 41.3506 68.7151 41.2732 68.7538C41.1957 68.7925 41.1279 68.841 41.0698 68.9088C41.0117 68.9765 40.9633 69.0443 40.9342 69.1315C40.8955 69.238 40.8858 69.3252 40.8858 69.422Z" fill="#474747"/>
<path d="M43.6458 70.3226C43.5005 70.3226 43.3649 70.2839 43.2584 70.2064C43.1422 70.1289 43.055 70.0418 42.9872 69.9256V71.0005H42.7645V68.5504H42.9679V68.8894C43.0357 68.7829 43.1325 68.6957 43.2487 68.6279C43.3649 68.5601 43.4811 68.5214 43.6167 68.5214C43.7329 68.5214 43.8491 68.5504 43.946 68.5989C44.0428 68.6473 44.13 68.7151 44.2074 68.8022C44.2849 68.8894 44.3333 68.9862 44.3818 69.0927C44.4205 69.1993 44.4399 69.3155 44.4399 69.4317C44.4399 69.5576 44.4205 69.6738 44.3818 69.7803C44.343 69.8868 44.2946 69.9837 44.2171 70.0708C44.1493 70.1483 44.0622 70.2161 43.9653 70.2645C43.8685 70.2936 43.762 70.3226 43.6458 70.3226ZM43.5877 70.1192C43.6845 70.1192 43.762 70.0999 43.8394 70.0611C43.9169 70.0224 43.9847 69.9643 44.0331 69.9062C44.0815 69.8481 44.13 69.7706 44.159 69.6835C44.1881 69.5963 44.1978 69.5188 44.1978 69.422C44.1978 69.3252 44.1784 69.238 44.1493 69.1509C44.1203 69.0637 44.0719 68.9959 44.0138 68.9281C43.9557 68.8603 43.8879 68.8119 43.8104 68.7732C43.7329 68.7344 43.6458 68.7151 43.5586 68.7151C43.5005 68.7151 43.4424 68.7248 43.3746 68.7538C43.3068 68.7732 43.2487 68.8119 43.2003 68.8507C43.1422 68.8894 43.1034 68.9378 43.0647 68.9862C43.026 69.0346 42.9969 69.0927 42.9969 69.1509V69.6835C43.026 69.7416 43.055 69.7997 43.1034 69.8578C43.1422 69.9062 43.1906 69.9546 43.239 69.9934C43.2874 70.0321 43.3455 70.0611 43.4037 70.0805C43.4618 70.1096 43.5199 70.1192 43.5877 70.1192Z" fill="#474747"/>
<path d="M45.0499 69.9643L46.0861 68.5505H46.2701V70.2839H46.0474V68.8991L45.0306 70.2936H44.8272V68.5602H45.0499V69.9643Z" fill="#474747"/>
<path d="M47.0933 69.5964C46.9867 69.5673 46.8996 69.5092 46.8318 69.4221C46.764 69.3349 46.7253 69.2284 46.7253 69.0831C46.7253 69.0056 46.735 68.9282 46.764 68.8701C46.7931 68.8023 46.8318 68.7442 46.8802 68.6957C46.9286 68.6473 46.9867 68.6086 47.0642 68.5795C47.132 68.5505 47.2095 68.5408 47.2966 68.5408H47.9164V70.2742H47.6937V69.6157H47.316L46.8802 70.2742H46.6187L47.0933 69.5964ZM47.7034 69.4317V68.7442H47.316C47.2676 68.7442 47.2288 68.7538 47.1804 68.7635C47.1417 68.7829 47.1029 68.8023 47.0642 68.8313C47.0352 68.8604 47.0061 68.8991 46.9867 68.9378C46.9674 68.9766 46.9577 69.025 46.9577 69.0831C46.9577 69.1896 46.9867 69.2671 47.0448 69.3252C47.1029 69.3833 47.1901 69.4221 47.2869 69.4221H47.7034V69.4317Z" fill="#474747"/>
<path d="M1.36545 72.1238H0.232416V74.2834H0V71.9108H1.36545V72.1238V72.1238Z" fill="#474747"/>
<path d="M2.56624 74.3221C2.42098 74.3221 2.28541 74.2834 2.17888 74.2059C2.06267 74.1284 1.97552 74.0413 1.90773 73.9251V75H1.685V72.5499H1.88836V72.8889C1.95615 72.7823 2.05299 72.6952 2.1692 72.6274C2.28541 72.5596 2.40161 72.5209 2.53719 72.5209C2.6534 72.5209 2.76961 72.5499 2.86645 72.5983C2.96329 72.6468 3.05044 72.7146 3.12791 72.8017C3.20539 72.8889 3.25381 72.9857 3.30223 73.0922C3.34096 73.1988 3.36033 73.315 3.36033 73.4312C3.36033 73.5571 3.34096 73.6733 3.30223 73.7798C3.26349 73.8863 3.21507 73.9832 3.1376 74.0703C3.06981 74.1478 2.98265 74.2156 2.88581 74.264C2.78897 74.3027 2.68245 74.3221 2.56624 74.3221ZM2.50814 74.1187C2.60498 74.1187 2.68245 74.0994 2.75992 74.0606C2.83739 74.0219 2.90518 73.9638 2.9536 73.9057C3.01171 73.8379 3.05044 73.7701 3.07949 73.683C3.10855 73.5958 3.11823 73.5183 3.11823 73.4215C3.11823 73.3246 3.09886 73.2375 3.06981 73.1503C3.04076 73.0632 2.99234 72.9954 2.93423 72.9276C2.87613 72.8598 2.80834 72.8114 2.73087 72.7727C2.6534 72.7339 2.56624 72.7146 2.47909 72.7146C2.42098 72.7146 2.36288 72.7242 2.29509 72.7533C2.2273 72.7727 2.1692 72.8114 2.12078 72.8501C2.06267 72.8889 2.02394 72.9373 1.9852 72.9857C1.94647 73.0341 1.9271 73.0922 1.91741 73.1503V73.683C1.94647 73.7411 1.97552 73.7992 2.02394 73.8573C2.06267 73.9057 2.11109 73.9541 2.15951 73.9928C2.20793 74.0316 2.26604 74.0606 2.32414 74.08C2.38225 74.1091 2.44035 74.1187 2.50814 74.1187Z" fill="#474747"/>
<path d="M4.18349 74.3221C4.09633 74.3221 4.02854 74.3124 3.95107 74.2833C3.88328 74.2543 3.8155 74.2156 3.76708 74.1671C3.71866 74.1187 3.67024 74.0606 3.64118 73.9928C3.61213 73.925 3.60245 73.8573 3.60245 73.7798C3.60245 73.7023 3.62181 73.6345 3.66055 73.5667C3.69929 73.499 3.74771 73.4505 3.8155 73.4021C3.88328 73.3537 3.96076 73.315 4.04791 73.2956C4.13507 73.2665 4.23191 73.2569 4.33843 73.2569C4.42559 73.2569 4.51274 73.2665 4.60958 73.2762C4.69674 73.2956 4.7839 73.315 4.85168 73.344V73.1891C4.85168 73.0341 4.81295 72.9179 4.72579 72.8211C4.63864 72.7339 4.52243 72.6855 4.36748 72.6855C4.28033 72.6855 4.18349 72.7049 4.09633 72.7436C3.99949 72.7823 3.91234 72.8308 3.8155 72.8985L3.73802 72.7436C3.96076 72.5887 4.18349 72.5209 4.39654 72.5209C4.61927 72.5209 4.7839 72.579 4.90979 72.7049C5.03568 72.8308 5.09378 72.9954 5.09378 73.2084V73.9928C5.09378 74.0509 5.12284 74.0897 5.18094 74.0897V74.293C5.14221 74.3027 5.11315 74.3027 5.09378 74.3027C5.03568 74.3027 4.98726 74.2834 4.95821 74.264C4.92916 74.2349 4.90979 74.1962 4.90979 74.1478L4.9001 74.0122C4.82263 74.1187 4.71611 74.1962 4.5999 74.2543C4.45464 74.293 4.31906 74.3221 4.18349 74.3221ZM4.23191 74.1478C4.34812 74.1478 4.45464 74.1284 4.56116 74.08C4.658 74.0316 4.73548 73.9735 4.7839 73.9057C4.80326 73.8863 4.82263 73.8669 4.83232 73.8379C4.842 73.8185 4.85168 73.7895 4.85168 73.7701V73.4893C4.77421 73.4602 4.69674 73.4408 4.61927 73.4215C4.5418 73.4021 4.45464 73.4021 4.36748 73.4021C4.20286 73.4021 4.07696 73.4312 3.98012 73.4989C3.88328 73.5667 3.82518 73.6539 3.82518 73.7604C3.82518 73.8088 3.83486 73.8669 3.85423 73.9057C3.8736 73.9541 3.90265 73.9928 3.94139 74.0316C3.98012 74.0703 4.01886 74.0897 4.07696 74.109C4.12538 74.1381 4.1738 74.1478 4.23191 74.1478Z" fill="#474747"/>
<path d="M6.56575 72.5306C6.70132 72.5403 6.82722 72.5693 6.93374 72.6177C7.04026 72.6662 7.1371 72.7243 7.21458 72.8114C7.29205 72.8889 7.35015 72.9857 7.38889 73.0826C7.42762 73.1891 7.44699 73.3053 7.44699 73.4215C7.44699 73.5474 7.42762 73.6636 7.38889 73.7701C7.35015 73.8767 7.29205 73.9638 7.21458 74.0413C7.1371 74.1188 7.04026 74.1769 6.93374 74.2253C6.82722 74.2737 6.70132 74.3028 6.56575 74.3124V75H6.33333V74.3221C6.19776 74.3124 6.07186 74.2834 5.96534 74.235C5.85882 74.1865 5.76198 74.1284 5.6845 74.051C5.60703 73.9735 5.54893 73.8863 5.51019 73.7798C5.47146 73.6733 5.45209 73.5571 5.45209 73.4312C5.45209 73.3053 5.47146 73.1891 5.51019 73.0826C5.54893 72.976 5.60703 72.8889 5.6845 72.8017C5.76198 72.7243 5.85882 72.6565 5.96534 72.6081C6.07186 72.5596 6.19776 72.5306 6.33333 72.5209V71.843H6.55606V72.5306H6.56575ZM6.33333 72.7436C6.12028 72.763 5.96534 72.8308 5.84913 72.9373C5.73292 73.0535 5.67482 73.2085 5.67482 73.4118C5.67482 73.6152 5.73292 73.7798 5.84913 73.896C5.96534 74.0122 6.12997 74.08 6.33333 74.0994V72.7436ZM6.56575 74.1091C6.76911 74.0897 6.92406 74.0219 7.04026 73.9057C7.15647 73.7895 7.21458 73.6249 7.21458 73.4215C7.21458 73.2278 7.15647 73.0632 7.04026 72.947C6.92406 72.8308 6.76911 72.763 6.55606 72.7436V74.1091H6.56575Z" fill="#474747"/>
<path d="M8.05708 73.9735L9.09327 72.5596H9.27727V74.2931H9.05454V72.8986L8.03772 74.2931H7.83435V72.5596H8.05708V73.9735Z" fill="#474747"/>
<path d="M10.8848 74.2931H10.6621V73.5668C10.604 73.5861 10.5459 73.6055 10.4878 73.6152C10.4297 73.6249 10.3425 73.6345 10.2457 73.6345C10.1391 73.6345 10.052 73.6152 9.98419 73.5861C9.91641 73.5571 9.8583 73.5086 9.80988 73.4602C9.76146 73.4021 9.73241 73.344 9.71304 73.2665C9.69367 73.1891 9.68399 73.1116 9.68399 73.0244V72.5499H9.90672V72.976C9.90672 73.1406 9.93577 73.2569 10.0036 73.3247C10.0713 73.3924 10.1585 73.4312 10.2844 73.4312C10.3812 73.4312 10.4587 73.4215 10.5168 73.4021C10.5846 73.3828 10.633 73.3634 10.6621 73.3343V72.5499H10.8848V74.2931Z" fill="#474747"/>
<path d="M12.134 74.3221C12.0081 74.3221 11.8919 74.3028 11.7854 74.2543C11.6789 74.2059 11.5917 74.1381 11.5142 74.0607C11.4368 73.9735 11.3787 73.8767 11.3302 73.7702C11.2915 73.6636 11.2625 73.5474 11.2625 73.4215C11.2625 73.2956 11.2818 73.1794 11.3302 73.0729C11.369 72.9664 11.4368 72.8695 11.5142 72.7921C11.5917 72.7146 11.6789 72.6468 11.7854 72.5984C11.8919 72.55 12.0081 72.5306 12.134 72.5306C12.2599 72.5306 12.3761 72.55 12.4826 72.5984C12.5892 72.6468 12.6763 72.7146 12.7538 72.7921C12.8313 72.8695 12.8894 72.9664 12.9281 73.0729C12.9668 73.1794 12.9959 73.2956 12.9959 73.4118C12.9959 73.4312 12.9959 73.4506 12.9959 73.4603C12.9959 73.4796 12.9959 73.4893 12.9959 73.499H11.5046C11.5142 73.5958 11.5336 73.683 11.5723 73.7605C11.6111 73.8379 11.6595 73.9057 11.7176 73.9638C11.7757 74.0219 11.8435 74.0704 11.9113 74.0994C11.9888 74.1285 12.0662 74.1478 12.1534 74.1478C12.2115 74.1478 12.2599 74.1381 12.318 74.1285C12.3761 74.1091 12.4245 74.0897 12.473 74.0607C12.5214 74.0316 12.5601 74.0026 12.5988 73.9638C12.6376 73.9251 12.6666 73.8864 12.686 73.8379L12.8797 73.8864C12.8506 73.9541 12.8119 74.0122 12.7635 74.0607C12.7151 74.1091 12.6569 74.1575 12.5892 74.1962C12.5214 74.235 12.4536 74.264 12.3761 74.2834C12.2986 74.3124 12.2212 74.3221 12.134 74.3221ZM12.7732 73.3247C12.7635 73.2279 12.7441 73.1504 12.7054 73.0729C12.6666 72.9954 12.6182 72.9276 12.5698 72.8792C12.5117 72.8211 12.4439 72.7824 12.3761 72.7533C12.2986 72.7243 12.2212 72.7049 12.134 72.7049C12.0469 72.7049 11.9694 72.7243 11.8919 72.7533C11.8144 72.7824 11.7467 72.8308 11.6982 72.8792C11.6401 72.9373 11.5917 73.0051 11.5627 73.0826C11.5239 73.1601 11.5046 73.2472 11.5046 73.3344H12.7732V73.3247Z" fill="#474747"/>
<path d="M13.2186 73.4118C13.2186 73.2859 13.238 73.1697 13.2864 73.0632C13.3251 72.9566 13.3929 72.8598 13.4607 72.7823C13.5285 72.7049 13.6253 72.6371 13.7319 72.5887C13.8384 72.5402 13.9546 72.5209 14.0902 72.5209C14.2548 72.5209 14.4001 72.5596 14.5163 72.6371C14.6422 72.7145 14.7293 72.8114 14.7971 72.9373L14.5744 73.0051C14.5259 72.9179 14.4582 72.8501 14.371 72.792C14.2838 72.7436 14.187 72.7146 14.0805 72.7146C13.9933 72.7146 13.9062 72.7339 13.8287 72.763C13.7512 72.8017 13.6834 72.8501 13.6253 72.9082C13.5672 72.9663 13.5285 73.0438 13.4897 73.131C13.4607 73.2181 13.4413 73.3053 13.4413 73.4118C13.4413 73.5086 13.4607 73.6055 13.4897 73.6926C13.5188 73.7798 13.5672 73.8573 13.6253 73.9154C13.6834 73.9831 13.7512 74.0316 13.8287 74.0703C13.9062 74.109 13.9836 74.1284 14.0708 74.1284C14.1289 74.1284 14.1773 74.1187 14.2354 74.109C14.2935 74.0897 14.3419 74.0703 14.3904 74.0412C14.4388 74.0122 14.4775 73.9831 14.5066 73.9444C14.5356 73.9057 14.5647 73.8669 14.5744 73.8282L14.7971 73.896C14.768 73.9541 14.739 74.0122 14.6906 74.0703C14.6422 74.1187 14.5937 74.1671 14.5259 74.2059C14.4582 74.2446 14.3904 74.2737 14.3129 74.293C14.2354 74.3124 14.1579 74.3221 14.0708 74.3221C13.9449 74.3221 13.8287 74.3027 13.7222 74.2543C13.6156 74.2059 13.5188 74.1381 13.4413 74.0606C13.3639 73.9735 13.3058 73.8766 13.2573 73.7701C13.2476 73.6539 13.2186 73.5377 13.2186 73.4118Z" fill="#474747"/>
<path d="M16.2013 72.5499H16.4531L15.7946 73.3924L16.5112 74.2931H16.2594L15.6493 73.499H15.4072V74.2931H15.1845V72.5596H15.4072V73.3247H15.63L16.2013 72.5499Z" fill="#474747"/>
<path d="M17.528 74.3221C17.4021 74.3221 17.2859 74.3027 17.1794 74.2543C17.0729 74.2059 16.9857 74.1381 16.9082 74.0606C16.8308 73.9831 16.7727 73.8863 16.7339 73.7701C16.6952 73.6636 16.6661 73.5474 16.6661 73.4312C16.6661 73.3053 16.6855 73.1891 16.7339 73.0825C16.7727 72.976 16.8404 72.8792 16.9179 72.792C16.9954 72.7049 17.0825 72.6468 17.1891 72.5983C17.2956 72.5499 17.4118 72.5209 17.528 72.5209C17.6539 72.5209 17.7701 72.5499 17.8766 72.5983C17.9832 72.6468 18.0703 72.7146 18.1478 72.792C18.2253 72.8695 18.2834 72.9663 18.3318 73.0825C18.3705 73.1891 18.3996 73.3053 18.3996 73.4312C18.3996 73.5474 18.3802 73.6636 18.3318 73.7701C18.293 73.8766 18.2349 73.9735 18.1575 74.0606C18.08 74.1381 17.9928 74.2059 17.8863 74.2543C17.7701 74.3027 17.6539 74.3221 17.528 74.3221ZM16.8986 73.4312C16.8986 73.528 16.9179 73.6152 16.947 73.7023C16.976 73.7895 17.0244 73.8573 17.0825 73.925C17.1407 73.9928 17.2084 74.0413 17.2859 74.0703C17.3634 74.109 17.4409 74.1187 17.528 74.1187C17.6152 74.1187 17.6926 74.0994 17.7701 74.0606C17.8476 74.0219 17.9154 73.9735 17.9735 73.9057C18.0316 73.8379 18.08 73.7701 18.1091 73.6829C18.1381 73.5958 18.1575 73.5086 18.1575 73.4118C18.1575 73.315 18.1381 73.2278 18.1091 73.1406C18.08 73.0535 18.0316 72.976 17.9735 72.9179C17.9154 72.8501 17.8476 72.8017 17.7701 72.763C17.6926 72.7242 17.6152 72.7049 17.528 72.7049C17.4409 72.7049 17.3634 72.7242 17.2859 72.763C17.2084 72.8017 17.1407 72.8501 17.0825 72.9179C17.0244 72.9857 16.976 73.0535 16.947 73.1406C16.9179 73.2375 16.8986 73.3343 16.8986 73.4312Z" fill="#474747"/>
<path d="M19.8328 72.7243H19V74.2931H18.7773V72.5596H19.8425V72.7243H19.8328Z" fill="#474747"/>
<path d="M20.8981 74.3221C20.7722 74.3221 20.656 74.3027 20.5494 74.2543C20.4429 74.2059 20.3558 74.1381 20.2783 74.0606C20.2008 73.9831 20.1427 73.8863 20.104 73.7701C20.0652 73.6636 20.0362 73.5474 20.0362 73.4312C20.0362 73.3053 20.0556 73.1891 20.104 73.0825C20.1427 72.976 20.2105 72.8792 20.288 72.792C20.3655 72.7049 20.4526 72.6468 20.5591 72.5983C20.6657 72.5499 20.7819 72.5209 20.8981 72.5209C21.024 72.5209 21.1402 72.5499 21.2467 72.5983C21.3532 72.6468 21.4404 72.7146 21.5178 72.792C21.5953 72.8695 21.6534 72.9663 21.7018 73.0825C21.7406 73.1891 21.7696 73.3053 21.7696 73.4312C21.7696 73.5474 21.7503 73.6636 21.7018 73.7701C21.6631 73.8766 21.5953 73.9735 21.5275 74.0606C21.4501 74.1381 21.3629 74.2059 21.2564 74.2543C21.1402 74.3027 21.024 74.3221 20.8981 74.3221ZM20.2686 73.4312C20.2686 73.528 20.288 73.6152 20.317 73.7023C20.3461 73.7895 20.3945 73.8573 20.4526 73.925C20.5107 73.9928 20.5785 74.0413 20.656 74.0703C20.7334 74.109 20.8109 74.1187 20.8981 74.1187C20.9852 74.1187 21.0627 74.0994 21.1402 74.0606C21.2176 74.0219 21.2854 73.9735 21.3435 73.9057C21.4016 73.8379 21.4501 73.7701 21.4791 73.6829C21.5082 73.5958 21.5275 73.5086 21.5275 73.4118C21.5275 73.315 21.5082 73.2278 21.4791 73.1406C21.4501 73.0535 21.4016 72.976 21.3435 72.9179C21.2854 72.8501 21.2176 72.8017 21.1402 72.763C21.0627 72.7242 20.9852 72.7049 20.8981 72.7049C20.8109 72.7049 20.7334 72.7242 20.656 72.763C20.5785 72.8017 20.5107 72.8501 20.4526 72.9179C20.3945 72.9857 20.3461 73.0535 20.317 73.1406C20.288 73.2278 20.2686 73.3343 20.2686 73.4312Z" fill="#474747"/>
<path d="M22.8058 74.0897H22.9026C22.9511 74.08 22.9898 74.051 23.0285 74.0122C23.0673 73.9735 23.0963 73.9154 23.1254 73.8283C23.1544 73.7508 23.1835 73.6443 23.2028 73.5087C23.2222 73.3731 23.2513 73.2085 23.2706 73.0148L23.3287 72.5403H24.3456V74.08H24.5586V74.816H24.3552V74.2834H22.9898V74.816H22.7961V74.0897H22.8058ZM24.1228 74.0897V72.7243H23.5321L23.4837 73.1116C23.4449 73.3828 23.4062 73.6055 23.3578 73.7605C23.319 73.9154 23.2609 74.0219 23.2028 74.0897H24.1228Z" fill="#474747"/>
<path d="M25.1396 73.9735L26.1758 72.5596H26.3598V74.2931H26.1371V72.8986L25.1203 74.2931H24.9169V72.5596H25.1396V73.9735Z" fill="#474747"/>
<path d="M26.7763 72.7339C26.8344 72.6661 26.9118 72.608 26.999 72.5693C27.0861 72.5306 27.1733 72.5112 27.2701 72.5112C27.4251 72.5112 27.5413 72.5499 27.6381 72.6274C27.7253 72.7049 27.7737 72.8017 27.7737 72.9276C27.7737 73.0341 27.7447 73.1116 27.6962 73.1891C27.6381 73.2569 27.5703 73.2956 27.4735 73.315C27.5994 73.3343 27.6962 73.3828 27.764 73.4699C27.8318 73.5571 27.8706 73.6539 27.8706 73.7798C27.8706 73.8573 27.8512 73.9348 27.8318 74.0025C27.8028 74.0703 27.764 74.1284 27.7059 74.1672C27.6575 74.2156 27.5897 74.2543 27.5122 74.2737C27.4348 74.3027 27.3573 74.3124 27.2605 74.3124C27.1443 74.3124 27.0377 74.2931 26.9506 74.2446C26.8634 74.2059 26.7956 74.1381 26.7278 74.0606L26.8537 73.9057C26.9022 73.9735 26.9603 74.0316 27.028 74.0606C27.0958 74.0994 27.1733 74.1091 27.2701 74.1091C27.396 74.1091 27.4832 74.08 27.551 74.0219C27.6188 73.9638 27.6478 73.8766 27.6478 73.7701C27.6478 73.6539 27.6091 73.5668 27.5316 73.499C27.4541 73.4409 27.3379 73.4021 27.1927 73.4021H27.0571V73.2278H27.1733C27.2895 73.2278 27.3864 73.1988 27.4541 73.1503C27.5219 73.1019 27.551 73.0245 27.551 72.9373C27.551 72.8598 27.5219 72.8017 27.4735 72.7533C27.4251 72.7049 27.3476 72.6855 27.2508 72.6855C27.183 72.6855 27.1249 72.6952 27.0668 72.7242C27.0087 72.7533 26.9506 72.792 26.8925 72.8501L26.7763 72.7339Z" fill="#474747"/>
<path d="M28.6743 74.3221C28.5968 74.3221 28.5194 74.3124 28.4419 74.2833C28.3741 74.2543 28.3063 74.2156 28.2579 74.1671C28.2095 74.1187 28.161 74.0606 28.132 73.9928C28.1029 73.925 28.0933 73.8573 28.0933 73.7798C28.0933 73.7023 28.1126 73.6345 28.1417 73.5667C28.1804 73.499 28.2288 73.4505 28.2966 73.4021C28.3644 73.3537 28.4419 73.315 28.529 73.2956C28.6162 73.2665 28.713 73.2569 28.8196 73.2569C28.9067 73.2569 29.0036 73.2665 29.0907 73.2762C29.1779 73.2956 29.265 73.315 29.3328 73.344V73.1891C29.3328 73.0341 29.2941 72.9179 29.2069 72.8211C29.1198 72.7339 29.0036 72.6855 28.8486 72.6855C28.7615 72.6855 28.6646 72.7049 28.5775 72.7436C28.4806 72.7823 28.3935 72.8308 28.2966 72.8985L28.2192 72.7436C28.4419 72.5887 28.6646 72.5209 28.8777 72.5209C29.0907 72.5209 29.265 72.579 29.3909 72.7049C29.5168 72.8308 29.5749 72.9954 29.5749 73.2084V73.9928C29.5749 74.0509 29.604 74.0897 29.6621 74.0897V74.293C29.6233 74.3027 29.5943 74.3027 29.5749 74.3027C29.5168 74.3027 29.4684 74.2834 29.4393 74.264C29.4103 74.2349 29.3909 74.1962 29.3909 74.1478L29.3812 74.0122C29.3038 74.1187 29.1972 74.1962 29.081 74.2543C28.9454 74.293 28.8099 74.3221 28.6743 74.3221ZM28.7227 74.1478C28.8389 74.1478 28.9454 74.1284 29.052 74.08C29.1488 74.0316 29.2263 73.9735 29.2747 73.9057C29.2941 73.8863 29.3134 73.8669 29.3231 73.8379C29.3328 73.8088 29.3425 73.7895 29.3425 73.7701V73.4893C29.265 73.4602 29.1875 73.4408 29.1101 73.4215C29.0326 73.4021 28.9454 73.4021 28.8583 73.4021C28.6937 73.4021 28.5678 73.4312 28.4709 73.4989C28.3741 73.5667 28.316 73.6539 28.316 73.7604C28.316 73.8088 28.3257 73.8669 28.345 73.9057C28.3644 73.9541 28.3935 73.9928 28.4322 74.0316C28.4709 74.0703 28.5097 74.0897 28.5678 74.109C28.6162 74.1381 28.6646 74.1478 28.7227 74.1478Z" fill="#474747"/>
<path d="M30.2818 73.9735L31.318 72.5596H31.502V74.2931H31.2793V72.8985L30.2625 74.2931H30.0591V72.5596H30.2818V73.9735ZM31.2696 71.9011C31.2696 72.0076 31.2212 72.0851 31.1437 72.1432C31.0662 72.2013 30.95 72.2207 30.8048 72.2207C30.6595 72.2207 30.5433 72.1916 30.4658 72.1432C30.3884 72.0851 30.3399 72.0076 30.3399 71.9011H30.4852C30.4852 71.9786 30.5143 72.027 30.5724 72.056C30.6305 72.0851 30.7079 72.1045 30.8048 72.1045C30.9113 72.1045 30.9888 72.0948 31.0372 72.0657C31.0856 72.0367 31.1147 71.9882 31.1243 71.9011H31.2696Z" fill="#474747"/>
<path d="M32.238 73.3053H33.2161V72.5499H33.4388V74.2834H33.2161V73.4893H32.238V74.2834H32.0153V72.5499H32.238V73.3053Z" fill="#474747"/>
<path d="M34.3782 74.3221C34.3007 74.3221 34.2232 74.3124 34.1457 74.2833C34.078 74.2543 34.0102 74.2156 33.9617 74.1671C33.9133 74.1187 33.8649 74.0606 33.8359 73.9928C33.8068 73.925 33.7971 73.8573 33.7971 73.7798C33.7971 73.7023 33.8165 73.6345 33.8455 73.5667C33.8843 73.499 33.9327 73.4505 34.0005 73.4021C34.0683 73.3537 34.1457 73.315 34.2329 73.2956C34.3201 73.2665 34.4169 73.2569 34.5234 73.2569C34.6106 73.2569 34.7074 73.2665 34.7946 73.2762C34.8817 73.2956 34.9689 73.315 35.0367 73.344V73.1891C35.0367 73.0341 34.9979 72.9179 34.9108 72.8211C34.8236 72.7339 34.7074 72.6855 34.5525 72.6855C34.4653 72.6855 34.3685 72.7049 34.2813 72.7436C34.1845 72.7823 34.0973 72.8308 34.0005 72.8985L33.923 72.7436C34.1457 72.5887 34.3685 72.5209 34.5815 72.5209C34.7946 72.5209 34.9689 72.579 35.0948 72.7049C35.2207 72.8308 35.2788 72.9954 35.2788 73.2084V73.9928C35.2788 74.0509 35.3078 74.0897 35.3659 74.0897V74.293C35.3272 74.3027 35.2981 74.3027 35.2788 74.3027C35.2207 74.3027 35.1722 74.2834 35.1432 74.264C35.1141 74.2349 35.0948 74.1962 35.0948 74.1478L35.0851 74.0122C35.0076 74.1187 34.9011 74.1962 34.7849 74.2543C34.6493 74.293 34.5137 74.3221 34.3782 74.3221ZM34.4266 74.1478C34.5428 74.1478 34.6493 74.1284 34.7558 74.08C34.8527 74.0316 34.9301 73.9735 34.9786 73.9057C34.9979 73.8863 35.0173 73.8669 35.027 73.8379C35.0367 73.8088 35.0464 73.7895 35.0464 73.7701V73.4893C34.9689 73.4602 34.8914 73.4408 34.8139 73.4215C34.7365 73.4021 34.6493 73.4021 34.5622 73.4021C34.3975 73.4021 34.2716 73.4312 34.1748 73.4989C34.078 73.5667 34.0199 73.6539 34.0199 73.7604C34.0199 73.8088 34.0295 73.8669 34.0489 73.9057C34.0683 73.9541 34.0973 73.9928 34.1361 74.0316C34.1748 74.0703 34.2135 74.0897 34.2716 74.109C34.3104 74.1381 34.3685 74.1478 34.4266 74.1478Z" fill="#474747"/>
<path d="M38.2615 74.2931L37.9903 74.0026C37.8935 74.0994 37.787 74.1769 37.6708 74.235C37.5449 74.2931 37.419 74.3221 37.2737 74.3221C37.1672 74.3221 37.0703 74.3028 36.9735 74.2737C36.8767 74.2447 36.7992 74.1962 36.7314 74.1381C36.6636 74.08 36.6055 74.0122 36.5668 73.9348C36.528 73.8573 36.5087 73.7701 36.5087 73.6733C36.5087 73.5958 36.5184 73.5184 36.5474 73.4506C36.5765 73.3828 36.6152 73.3247 36.6539 73.2666C36.7023 73.2085 36.7508 73.1601 36.8186 73.1116C36.8767 73.0632 36.9444 73.0148 37.0122 72.9761C36.9541 72.9083 36.9057 72.8502 36.8573 72.8017C36.8186 72.7533 36.7798 72.7049 36.7605 72.6565C36.7314 72.6177 36.712 72.5693 36.7023 72.5306C36.6927 72.4919 36.683 72.4531 36.683 72.4047C36.683 72.3272 36.7023 72.2594 36.7314 72.2013C36.7605 72.1335 36.7992 72.0851 36.8573 72.0367C36.9154 71.9883 36.9735 71.9495 37.0413 71.9302C37.1091 71.9011 37.1962 71.8914 37.2737 71.8914C37.3512 71.8914 37.4287 71.9011 37.4868 71.9205C37.5545 71.9399 37.6126 71.9786 37.6611 72.0173C37.7095 72.0561 37.7482 72.1045 37.7773 72.1626C37.8063 72.2207 37.816 72.2885 37.816 72.3563C37.816 72.4241 37.8063 72.4919 37.7773 72.5403C37.7482 72.5984 37.7095 72.6468 37.6611 72.7049C37.6126 72.7533 37.5642 72.8017 37.4964 72.8502C37.4383 72.8986 37.3705 72.947 37.2931 72.9857L37.9613 73.683C38.0097 73.5958 38.0387 73.5087 38.0678 73.4118C38.0968 73.315 38.1065 73.2085 38.1065 73.1019H38.3002C38.3002 73.2375 38.2808 73.3731 38.2421 73.4893C38.2034 73.6152 38.155 73.7217 38.0968 73.8283L38.5423 74.2931H38.2615ZM37.2931 74.1381C37.4093 74.1381 37.5158 74.1188 37.603 74.0704C37.6998 74.0219 37.787 73.9541 37.8547 73.867L37.1381 73.1116C37.0219 73.1891 36.9251 73.2763 36.8476 73.3731C36.7701 73.4603 36.7314 73.5668 36.7314 73.6927C36.7314 73.7701 36.7508 73.8282 36.7798 73.8864C36.8089 73.9445 36.8573 73.9929 36.9057 74.0316C36.9541 74.0703 37.0219 74.0994 37.0897 74.1188C37.1575 74.1285 37.2253 74.1381 37.2931 74.1381ZM36.9057 72.4047C36.9057 72.4338 36.9057 72.4628 36.9154 72.4822C36.9251 72.5112 36.9348 72.5403 36.9638 72.5693C36.9832 72.6081 37.0122 72.6468 37.051 72.6855C37.0897 72.734 37.1381 72.7824 37.1962 72.8502C37.3221 72.763 37.4286 72.6855 37.5158 72.6081C37.603 72.5306 37.6417 72.4531 37.6417 72.3563C37.6417 72.2691 37.6126 72.2013 37.5449 72.1432C37.4771 72.0851 37.3996 72.0561 37.3028 72.0561C37.2447 72.0561 37.1962 72.0658 37.1478 72.0851C37.0994 72.1045 37.0607 72.1239 37.0219 72.1626C36.9832 72.1917 36.9638 72.2304 36.9444 72.2691C36.9154 72.3175 36.9057 72.3563 36.9057 72.4047Z" fill="#474747"/>
<path d="M41.4766 71.9398H41.6993L42.0285 72.7823L42.3675 71.9398H42.5902L42.1738 72.947L42.6289 74.0219L43.4908 71.9205H43.7426L42.7355 74.2931H42.5321L42.0382 73.1213L41.5347 74.2931H41.3313L40.3242 71.9205H40.5759L41.4378 74.0219L41.893 72.947L41.4766 71.9398Z" fill="#474747"/>
<path d="M45.66 74.08V74.2834H44.0718V71.9108H45.631V72.1142H44.3043V72.9664H45.4663V73.16H44.3043V74.0606H45.66V74.08Z" fill="#474747"/>
<path d="M47.8873 73.683C47.8873 73.7701 47.868 73.8573 47.8389 73.9251C47.8002 74.0025 47.7518 74.0606 47.6937 74.1187C47.6356 74.1768 47.5678 74.2156 47.4806 74.2446C47.3935 74.2737 47.316 74.2931 47.2192 74.2931H46.1055V71.9205H47.2482C47.3257 71.9205 47.4032 71.9398 47.4709 71.9786C47.5387 72.0173 47.5968 72.056 47.6452 72.1142C47.6937 72.1723 47.7324 72.24 47.7518 72.3078C47.7808 72.3756 47.7905 72.4531 47.7905 72.5306C47.7905 72.6468 47.7615 72.763 47.7034 72.8598C47.6453 72.9567 47.5581 73.0341 47.4516 73.0826C47.5871 73.1213 47.6937 73.1988 47.7711 73.3053C47.8486 73.4118 47.8873 73.5377 47.8873 73.683ZM46.3379 72.1238V72.9954H47.1514C47.2095 72.9954 47.2676 72.9857 47.316 72.9567C47.3644 72.9276 47.4128 72.8986 47.4419 72.8598C47.4806 72.8211 47.5097 72.7727 47.529 72.7242C47.5484 72.6758 47.5581 72.6177 47.5581 72.5596C47.5581 72.5015 47.5484 72.4434 47.529 72.3853C47.5097 72.3272 47.4806 72.2885 47.4516 72.2497C47.4128 72.211 47.3741 72.1819 47.3257 72.1529C47.2773 72.1238 47.2288 72.1142 47.1707 72.1142H46.3379V72.1238ZM47.6549 73.6442C47.6549 73.5861 47.6453 73.528 47.6259 73.4796C47.6065 73.4215 47.5775 73.3731 47.5387 73.3343C47.5 73.2956 47.4613 73.2569 47.4128 73.2375C47.3644 73.2084 47.3063 73.1988 47.2482 73.1988H46.3379V74.0994H47.2192C47.2773 74.0994 47.3354 74.0897 47.3838 74.0606C47.4322 74.0316 47.4806 74.0025 47.5194 73.9638C47.5581 73.9251 47.5871 73.8766 47.6065 73.8185C47.6356 73.7507 47.6549 73.6926 47.6549 73.6442Z" fill="#474747"/>
<path d="M48.2457 73.4893V73.2762H49.2238V73.4893H48.2457Z" fill="#474747"/>
<path d="M51.054 74.2931H50.8313V72.7533H49.9113V74.2931H49.6886V72.5596H51.054V74.2931V74.2931Z" fill="#474747"/>
<path d="M52.4582 74.3221C52.313 74.3221 52.1774 74.2834 52.0709 74.2059C51.9547 74.1284 51.8675 74.0413 51.7997 73.9251V75H51.577V72.5499H51.7804V72.8889C51.8481 72.7823 51.945 72.6952 52.0612 72.6274C52.1774 72.5596 52.2936 72.5209 52.4292 72.5209C52.5454 72.5209 52.6616 72.5499 52.7584 72.5983C52.8553 72.6468 52.9424 72.7146 53.0199 72.8017C53.0974 72.8889 53.1458 72.9857 53.1942 73.0922C53.233 73.1988 53.2523 73.315 53.2523 73.4312C53.2523 73.5571 53.233 73.6733 53.1942 73.7798C53.1555 73.8863 53.1071 73.9832 53.0296 74.0703C52.9618 74.1478 52.8746 74.2156 52.7778 74.264C52.681 74.3124 52.5648 74.3221 52.4582 74.3221ZM52.3904 74.1187C52.4873 74.1187 52.5648 74.0994 52.6422 74.0606C52.7197 74.0219 52.7875 73.9638 52.8359 73.9057C52.894 73.8379 52.9328 73.7701 52.9618 73.683C52.9909 73.5958 53.0005 73.5183 53.0005 73.4215C53.0005 73.3246 52.9812 73.2375 52.9521 73.1503C52.9231 73.0632 52.8746 72.9954 52.8165 72.9276C52.7584 72.8598 52.6907 72.8114 52.6132 72.7727C52.5357 72.7339 52.4486 72.7146 52.3614 72.7146C52.3033 72.7146 52.2452 72.7242 52.1774 72.7533C52.1096 72.7823 52.0515 72.8114 52.0031 72.8501C51.945 72.8889 51.9063 72.9373 51.8675 72.9857C51.8288 73.0341 51.7997 73.0922 51.7997 73.1503V73.683C51.8288 73.7411 51.8578 73.7992 51.9062 73.8573C51.945 73.9057 51.9934 73.9541 52.0418 73.9928C52.0902 74.0316 52.1484 74.0606 52.2065 74.08C52.2646 74.1091 52.3227 74.1187 52.3904 74.1187Z" fill="#474747"/>
<path d="M54.3659 74.3221C54.24 74.3221 54.1238 74.3027 54.0173 74.2543C53.9108 74.2059 53.8236 74.1381 53.7462 74.0606C53.6687 73.9831 53.6106 73.8863 53.5718 73.7701C53.5331 73.6636 53.5041 73.5474 53.5041 73.4312C53.5041 73.3053 53.5234 73.1891 53.5718 73.0825C53.6106 72.976 53.6784 72.8792 53.7558 72.792C53.8333 72.7049 53.9205 72.6468 54.027 72.5983C54.1335 72.5499 54.2497 72.5209 54.3659 72.5209C54.4918 72.5209 54.608 72.5499 54.7146 72.5983C54.8211 72.6468 54.9082 72.7146 54.9857 72.792C55.0632 72.8695 55.1213 72.9663 55.1697 73.0825C55.2084 73.1891 55.2375 73.3053 55.2375 73.4312C55.2375 73.5474 55.2181 73.6636 55.1697 73.7701C55.131 73.8766 55.0632 73.9735 54.9954 74.0606C54.9179 74.1381 54.8308 74.2059 54.7242 74.2543C54.608 74.3027 54.4918 74.3221 54.3659 74.3221ZM53.7365 73.4312C53.7365 73.528 53.7558 73.6152 53.7849 73.7023C53.8139 73.7895 53.8624 73.8573 53.9205 73.925C53.9786 73.9928 54.0464 74.0413 54.1238 74.0703C54.2013 74.109 54.2788 74.1187 54.3659 74.1187C54.4531 74.1187 54.5306 74.0994 54.608 74.0606C54.6855 74.0219 54.7533 73.9735 54.8114 73.9057C54.8695 73.8379 54.9179 73.7701 54.947 73.6829C54.976 73.5958 54.9954 73.5086 54.9954 73.4118C54.9954 73.315 54.976 73.2278 54.947 73.1406C54.9179 73.0535 54.8695 72.976 54.8114 72.9179C54.7533 72.8501 54.6855 72.8017 54.608 72.763C54.5306 72.7242 54.4531 72.7049 54.3659 72.7049C54.2788 72.7049 54.2013 72.7242 54.1238 72.763C54.0464 72.8017 53.9786 72.8501 53.9205 72.9179C53.8624 72.9857 53.8139 73.0535 53.7849 73.1406C53.7558 73.2375 53.7365 73.3343 53.7365 73.4312Z" fill="#474747"/>
<path d="M56.3609 74.3221C56.235 74.3221 56.1188 74.3028 56.0123 74.2543C55.9057 74.2059 55.8186 74.1381 55.7411 74.0607C55.6636 73.9735 55.6055 73.8767 55.5571 73.7702C55.5087 73.6636 55.4893 73.5474 55.4893 73.4215C55.4893 73.2956 55.5087 73.1794 55.5571 73.0729C55.5958 72.9664 55.6636 72.8695 55.7411 72.7921C55.8186 72.7146 55.9057 72.6468 56.0123 72.5984C56.1188 72.55 56.235 72.5306 56.3609 72.5306C56.4868 72.5306 56.603 72.55 56.7095 72.5984C56.816 72.6468 56.9032 72.7146 56.9807 72.7921C57.0581 72.8695 57.1162 72.9664 57.155 73.0729C57.1937 73.1794 57.2228 73.2956 57.2228 73.4118C57.2228 73.4312 57.2228 73.4506 57.2228 73.4603C57.2228 73.4796 57.2228 73.4893 57.2228 73.499H55.7314C55.7411 73.5958 55.7605 73.683 55.7992 73.7605C55.8379 73.8379 55.8864 73.9057 55.9445 73.9638C56.0026 74.0219 56.0704 74.0704 56.1381 74.0994C56.2156 74.1285 56.2931 74.1478 56.3802 74.1478C56.4383 74.1478 56.4868 74.1381 56.5449 74.1285C56.603 74.1091 56.6514 74.0897 56.6998 74.0607C56.7482 74.0316 56.787 74.0026 56.8257 73.9638C56.8644 73.9251 56.8935 73.8864 56.9129 73.8379L57.1065 73.8864C57.0775 73.9541 57.0388 74.0122 56.9903 74.0607C56.9419 74.1091 56.8838 74.1575 56.816 74.1962C56.7482 74.235 56.6804 74.264 56.603 74.2834C56.5255 74.3124 56.448 74.3221 56.3609 74.3221ZM57 73.3247C56.9903 73.2279 56.971 73.1504 56.9322 73.0729C56.8935 72.9954 56.8451 72.9276 56.7967 72.8792C56.7386 72.8211 56.6708 72.7824 56.603 72.7533C56.5255 72.7243 56.448 72.7049 56.3609 72.7049C56.2737 72.7049 56.1962 72.7243 56.1188 72.7533C56.0413 72.7824 55.9735 72.8308 55.9251 72.8792C55.867 72.9373 55.8186 73.0051 55.7895 73.0826C55.7508 73.1601 55.7314 73.2472 55.7314 73.3344H57V73.3247Z" fill="#474747"/>
<path d="M58.5979 72.5499H58.8497L58.1911 73.3924L58.9078 74.2931H58.656L58.0459 73.499H57.8038V74.2931H57.5811V72.5596H57.8038V73.3247H58.0265L58.5979 72.5499Z" fill="#474747"/>
<path d="M59.8374 74.2931H59.6147V72.7533H59.0046V72.5596H60.4475V72.7533H59.8374V74.2931V74.2931Z" fill="#474747"/>
<path d="M60.9898 73.9735L62.026 72.5596H62.21V74.2931H61.9873V72.8986L60.9705 74.2931H60.7671V72.5596H60.9898V73.9735Z" fill="#474747"/>
<path d="M63.6142 74.3221C63.4689 74.3221 63.3333 74.2834 63.2268 74.2059C63.1106 74.1284 63.0235 74.0413 62.9557 73.9251V75H62.7329V72.5499H62.9363V72.8889C63.0041 72.7823 63.1009 72.6952 63.2171 72.6274C63.3333 72.5596 63.4496 72.5209 63.5851 72.5209C63.7013 72.5209 63.8175 72.5499 63.9144 72.5983C64.0112 72.6468 64.0984 72.7146 64.1759 72.8017C64.2533 72.8889 64.3017 72.9857 64.3502 73.0922C64.3889 73.1988 64.4083 73.315 64.4083 73.4312C64.4083 73.5571 64.3889 73.6733 64.3502 73.7798C64.3114 73.8863 64.263 73.9832 64.1855 74.0703C64.1178 74.1478 64.0306 74.2156 63.9338 74.264C63.8369 74.3027 63.7304 74.3221 63.6142 74.3221ZM63.5464 74.1187C63.6432 74.1187 63.7207 74.0994 63.7982 74.0606C63.8757 74.0219 63.9434 73.9638 63.9919 73.9057C64.05 73.8379 64.0887 73.7701 64.1178 73.683C64.1468 73.5958 64.1565 73.5183 64.1565 73.4215C64.1565 73.3246 64.1371 73.2375 64.1081 73.1503C64.079 73.0632 64.0306 72.9954 63.9725 72.9276C63.9144 72.8598 63.8466 72.8114 63.7691 72.7727C63.6917 72.7339 63.6045 72.7146 63.5173 72.7146C63.4592 72.7146 63.4011 72.7242 63.3333 72.7533C63.2656 72.7727 63.2075 72.8114 63.159 72.8501C63.1009 72.8889 63.0622 72.9373 63.0235 72.9857C62.9847 73.0341 62.9557 73.0922 62.9557 73.1503V73.683C62.9847 73.7411 63.0138 73.7992 63.0622 73.8573C63.1009 73.9057 63.1494 73.9541 63.1978 73.9928C63.2462 74.0316 63.3043 74.0606 63.3624 74.08C63.4205 74.1091 63.4883 74.1187 63.5464 74.1187Z" fill="#474747"/>
<path d="M65.5316 74.3221C65.4057 74.3221 65.2895 74.3027 65.183 74.2543C65.0765 74.2059 64.9893 74.1381 64.9118 74.0606C64.8344 73.9831 64.7763 73.8863 64.7375 73.7701C64.6988 73.6636 64.6697 73.5474 64.6697 73.4312C64.6697 73.3053 64.6891 73.1891 64.7375 73.0825C64.7763 72.976 64.844 72.8792 64.9215 72.792C64.999 72.7049 65.0861 72.6468 65.1927 72.5983C65.2992 72.5499 65.4154 72.5209 65.5316 72.5209C65.6575 72.5209 65.7737 72.5499 65.8802 72.5983C65.9868 72.6468 66.0739 72.7146 66.1514 72.792C66.2289 72.8695 66.287 72.9663 66.3354 73.0825C66.3741 73.1891 66.4032 73.3053 66.4032 73.4312C66.4032 73.5474 66.3838 73.6636 66.3354 73.7701C66.2966 73.8766 66.2289 73.9735 66.1611 74.0606C66.0836 74.1381 65.9964 74.2059 65.8899 74.2543C65.7737 74.3027 65.6575 74.3221 65.5316 74.3221ZM64.8925 73.4312C64.8925 73.528 64.9118 73.6152 64.9409 73.7023C64.9699 73.7895 65.0184 73.8573 65.0765 73.925C65.1346 73.9928 65.2024 74.0413 65.2798 74.0703C65.3573 74.109 65.4348 74.1187 65.5219 74.1187C65.6091 74.1187 65.6866 74.0994 65.764 74.0606C65.8415 74.0219 65.9093 73.9735 65.9674 73.9057C66.0255 73.8379 66.0739 73.7701 66.103 73.6829C66.132 73.5958 66.1514 73.5086 66.1514 73.4118C66.1514 73.315 66.132 73.2278 66.103 73.1406C66.0739 73.0535 66.0255 72.976 65.9674 72.9179C65.9093 72.8501 65.8415 72.8017 65.764 72.763C65.6866 72.7242 65.6091 72.7049 65.5219 72.7049C65.4348 72.7049 65.3573 72.7242 65.2798 72.763C65.2024 72.8017 65.1346 72.8501 65.0765 72.9179C65.0184 72.9857 64.9699 73.0535 64.9409 73.1406C64.9118 73.2375 64.8925 73.3343 64.8925 73.4312Z" fill="#474747"/>
<path d="M67.633 72.55C67.6911 72.55 67.7492 72.5597 67.8073 72.579C67.8557 72.5984 67.9042 72.6274 67.9429 72.6662C67.9816 72.7049 68.0107 72.7533 68.03 72.8018C68.0494 72.8502 68.0591 72.9083 68.0591 72.9664C68.0591 73.0051 68.0494 73.0439 68.0397 73.0826C68.0301 73.1213 68.0107 73.1601 67.9913 73.1988C67.9719 73.2375 67.9429 73.2666 67.9138 73.2956C67.8848 73.3247 67.8461 73.3537 67.8073 73.3634C67.9042 73.3925 67.9816 73.4409 68.0397 73.5184C68.0978 73.5958 68.1269 73.683 68.1269 73.7895C68.1269 73.8573 68.1172 73.9251 68.0882 73.9832C68.0591 74.0413 68.03 74.0897 67.9816 74.1381C67.9332 74.1769 67.8848 74.2156 67.817 74.235C67.7589 74.2543 67.6911 74.2737 67.6136 74.2737H66.7808V72.5403H67.633V72.55ZM67.5459 73.315C67.633 73.315 67.7105 73.286 67.7589 73.2278C67.8073 73.1697 67.8364 73.0923 67.8364 73.0051C67.8364 72.9276 67.817 72.8599 67.7686 72.8018C67.7202 72.7436 67.6524 72.7146 67.5652 72.7146H67.0036V73.315H67.5459V73.315ZM67.5943 74.1188C67.6427 74.1188 67.6814 74.1091 67.7202 74.0897C67.7589 74.0704 67.788 74.051 67.817 74.0219C67.8461 73.9929 67.8654 73.9541 67.8848 73.9154C67.9042 73.8767 67.9042 73.8379 67.9042 73.7992C67.9042 73.7217 67.8751 73.6443 67.8267 73.5862C67.7686 73.5281 67.7008 73.4893 67.604 73.4893H67.0036V74.1188H67.5943V74.1188Z" fill="#474747"/>
<path d="M68.9501 74.3221C68.8726 74.3221 68.7951 74.3124 68.7177 74.2833C68.6499 74.2543 68.5821 74.2156 68.5337 74.1671C68.4853 74.1187 68.4368 74.0606 68.4078 73.9928C68.3787 73.925 68.369 73.8573 68.369 73.7798C68.369 73.7023 68.3884 73.6345 68.4175 73.5667C68.4562 73.499 68.5046 73.4505 68.5724 73.4021C68.6402 73.3537 68.7177 73.315 68.8048 73.2956C68.892 73.2665 68.9888 73.2569 69.0953 73.2569C69.1825 73.2569 69.2793 73.2665 69.3665 73.2762C69.4537 73.2956 69.5408 73.315 69.6086 73.344V73.1891C69.6086 73.0341 69.5699 72.9179 69.4827 72.8211C69.3956 72.7339 69.2793 72.6855 69.1244 72.6855C69.0372 72.6855 68.9404 72.7049 68.8532 72.7436C68.7564 72.7823 68.6693 72.8308 68.5724 72.8985L68.4949 72.7436C68.7177 72.5887 68.9404 72.5209 69.1535 72.5209C69.3665 72.5209 69.5408 72.579 69.6667 72.7049C69.7926 72.8308 69.8507 72.9954 69.8507 73.2084V73.9928C69.8507 74.0509 69.8798 74.0897 69.9379 74.0897V74.293C69.8991 74.3027 69.8701 74.3027 69.8507 74.3027C69.7926 74.3027 69.7442 74.2834 69.7151 74.264C69.6861 74.2349 69.6667 74.1962 69.6667 74.1478L69.657 74.0122C69.5796 74.1187 69.473 74.1962 69.3568 74.2543C69.2212 74.293 69.0953 74.3221 68.9501 74.3221ZM69.0082 74.1478C69.1244 74.1478 69.2309 74.1284 69.3374 74.08C69.4343 74.0316 69.5118 73.9735 69.5602 73.9057C69.5796 73.8863 69.5989 73.8669 69.6086 73.8379C69.6183 73.8088 69.628 73.7895 69.628 73.7701V73.4893C69.5505 73.4602 69.473 73.4408 69.3956 73.4215C69.3181 73.4021 69.2309 73.4021 69.1438 73.4021C68.9791 73.4021 68.8532 73.4312 68.7564 73.4989C68.6596 73.5667 68.6015 73.6539 68.6015 73.7604C68.6015 73.8088 68.6112 73.8669 68.6305 73.9057C68.6499 73.9541 68.6789 73.9928 68.7177 74.0316C68.7564 74.0703 68.7951 74.0897 68.8532 74.109C68.892 74.1381 68.9501 74.1478 69.0082 74.1478Z" fill="#474747"/>
<path d="M70.5673 73.3053H71.5454V72.5499H71.7681V74.2834H71.5454V73.4893H70.5673V74.2834H70.3446V72.5499H70.5673V73.3053Z" fill="#474747"/>
<path d="M72.4944 73.9735L73.5306 72.5596H73.7146V74.2931H73.4918V72.8986L72.475 74.2931H72.2717V72.5596H72.4944V73.9735V73.9735Z" fill="#474747"/>
<path d="M74.5377 73.5958C74.4312 73.5668 74.3441 73.5087 74.2763 73.4215C74.2085 73.3344 74.1698 73.2278 74.1698 73.0826C74.1698 73.0051 74.1794 72.9276 74.2085 72.8695C74.2375 72.8018 74.2763 72.7437 74.3247 72.6952C74.3731 72.6468 74.4312 72.6081 74.5087 72.579C74.5862 72.55 74.654 72.5403 74.7411 72.5403H75.3609V74.2737H75.1382V73.6152H74.7605L74.3247 74.2737H74.0632L74.5377 73.5958ZM75.1478 73.4312V72.7437H74.7605C74.7121 72.7437 74.6733 72.7533 74.6249 72.763C74.5862 72.7824 74.5474 72.8018 74.5087 72.8308C74.4796 72.8599 74.4506 72.8986 74.4312 72.9373C74.4119 72.9761 74.4022 73.0245 74.4022 73.0826C74.4022 73.1891 74.4312 73.2666 74.4893 73.3247C74.5474 73.3828 74.6346 73.4215 74.7314 73.4215H75.1478V73.4312Z" fill="#474747"/>
<defs>
<linearGradient id="paint0_linear" x1="2.21623" y1="51.8084" x2="78.1632" y2="51.8084" gradientUnits="userSpaceOnUse">
<stop offset="4.47534e-07" stop-color="#43BBED"/>
<stop offset="1" stop-color="#D0709A"/>
</linearGradient>
<linearGradient id="paint1_linear" x1="2.21636" y1="45.6215" x2="78.1633" y2="45.6215" gradientUnits="userSpaceOnUse">
<stop offset="4.47534e-07" stop-color="#43BBED"/>
<stop offset="1" stop-color="#D0709A"/>
</linearGradient>
<linearGradient id="paint2_linear" x1="2.21486" y1="43.2718" x2="78.1645" y2="43.2718" gradientUnits="userSpaceOnUse">
<stop offset="4.47534e-07" stop-color="#43BBED"/>
<stop offset="1" stop-color="#D0709A"/>
</linearGradient>
<linearGradient id="paint3_linear" x1="2.21636" y1="49.2402" x2="78.1632" y2="49.2402" gradientUnits="userSpaceOnUse">
<stop offset="4.47534e-07" stop-color="#43BBED"/>
<stop offset="1" stop-color="#D0709A"/>
</linearGradient>
<linearGradient id="paint4_linear" x1="2.21676" y1="50.0336" x2="78.163" y2="50.0336" gradientUnits="userSpaceOnUse">
<stop offset="4.47534e-07" stop-color="#43BBED"/>
<stop offset="1" stop-color="#D0709A"/>
</linearGradient>
<linearGradient id="paint5_linear" x1="2.22105" y1="55.3495" x2="78.1601" y2="55.3495" gradientUnits="userSpaceOnUse">
<stop offset="4.47534e-07" stop-color="#43BBED"/>
<stop offset="1" stop-color="#D0709A"/>
</linearGradient>
<linearGradient id="paint6_linear" x1="2.21607" y1="52.4077" x2="78.1633" y2="52.4077" gradientUnits="userSpaceOnUse">
<stop offset="4.47534e-07" stop-color="#43BBED"/>
<stop offset="1" stop-color="#D0709A"/>
</linearGradient>
<linearGradient id="paint7_linear" x1="2.21652" y1="51.1793" x2="78.1631" y2="51.1793" gradientUnits="userSpaceOnUse">
<stop offset="4.47534e-07" stop-color="#43BBED"/>
<stop offset="1" stop-color="#D0709A"/>
</linearGradient>
<linearGradient id="paint8_linear" x1="2.21647" y1="46.6799" x2="78.1632" y2="46.6799" gradientUnits="userSpaceOnUse">
<stop offset="4.47534e-07" stop-color="#43BBED"/>
<stop offset="1" stop-color="#D0709A"/>
</linearGradient>
<linearGradient id="paint9_linear" x1="2.21652" y1="19.4228" x2="78.1631" y2="19.4228" gradientUnits="userSpaceOnUse">
<stop offset="4.47534e-07" stop-color="#43BBED"/>
<stop offset="1" stop-color="#D0709A"/>
</linearGradient>
<linearGradient id="paint10_linear" x1="2.20636" y1="35.644" x2="78.2185" y2="35.644" gradientUnits="userSpaceOnUse">
<stop offset="4.47534e-07" stop-color="#43BBED"/>
<stop offset="1" stop-color="#D0709A"/>
</linearGradient>
<linearGradient id="paint11_linear" x1="2.2165" y1="15.5713" x2="78.163" y2="15.5713" gradientUnits="userSpaceOnUse">
<stop offset="4.47534e-07" stop-color="#43BBED"/>
<stop offset="1" stop-color="#D0709A"/>
</linearGradient>
<linearGradient id="paint12_linear" x1="2.21653" y1="33.923" x2="78.1631" y2="33.923" gradientUnits="userSpaceOnUse">
<stop offset="4.47534e-07" stop-color="#43BBED"/>
<stop offset="1" stop-color="#D0709A"/>
</linearGradient>
<linearGradient id="paint13_linear" x1="2.21893" y1="16.8238" x2="78.1628" y2="16.8238" gradientUnits="userSpaceOnUse">
<stop offset="4.47534e-07" stop-color="#43BBED"/>
<stop offset="1" stop-color="#D0709A"/>
</linearGradient>
<linearGradient id="paint14_linear" x1="2.21652" y1="2.94689" x2="78.1628" y2="2.94689" gradientUnits="userSpaceOnUse">
<stop offset="4.47534e-07" stop-color="#43BBED"/>
<stop offset="1" stop-color="#D0709A"/>
</linearGradient>
<linearGradient id="paint15_linear" x1="2.2165" y1="3.79791" x2="78.1643" y2="3.79791" gradientUnits="userSpaceOnUse">
<stop offset="4.47534e-07" stop-color="#43BBED"/>
<stop offset="1" stop-color="#D0709A"/>
</linearGradient>
<linearGradient id="paint16_linear" x1="2.21654" y1="2.41057" x2="78.1632" y2="2.41057" gradientUnits="userSpaceOnUse">
<stop offset="4.47534e-07" stop-color="#43BBED"/>
<stop offset="1" stop-color="#D0709A"/>
</linearGradient>
<linearGradient id="paint17_linear" x1="2.21653" y1="4.54538" x2="78.163" y2="4.54538" gradientUnits="userSpaceOnUse">
<stop offset="4.47534e-07" stop-color="#43BBED"/>
<stop offset="1" stop-color="#D0709A"/>
</linearGradient>
<linearGradient id="paint18_linear" x1="2.21657" y1="17.5002" x2="78.1631" y2="17.5002" gradientUnits="userSpaceOnUse">
<stop offset="4.47534e-07" stop-color="#43BBED"/>
<stop offset="1" stop-color="#D0709A"/>
</linearGradient>
<linearGradient id="paint19_linear" x1="2.20362" y1="11.2927" x2="78.1643" y2="11.2927" gradientUnits="userSpaceOnUse">
<stop offset="4.47534e-07" stop-color="#43BBED"/>
<stop offset="1" stop-color="#D0709A"/>
</linearGradient>
<linearGradient id="paint20_linear" x1="2.21607" y1="42.5959" x2="78.1635" y2="42.5959" gradientUnits="userSpaceOnUse">
<stop offset="4.47534e-07" stop-color="#43BBED"/>
<stop offset="1" stop-color="#D0709A"/>
</linearGradient>
<linearGradient id="paint21_linear" x1="2.21568" y1="36.9483" x2="78.164" y2="36.9483" gradientUnits="userSpaceOnUse">
<stop offset="4.47534e-07" stop-color="#43BBED"/>
<stop offset="1" stop-color="#D0709A"/>
</linearGradient>
<linearGradient id="paint22_linear" x1="2.21689" y1="36.0944" x2="78.1627" y2="36.0944" gradientUnits="userSpaceOnUse">
<stop offset="4.47534e-07" stop-color="#43BBED"/>
<stop offset="1" stop-color="#D0709A"/>
</linearGradient>
<linearGradient id="paint23_linear" x1="2.21659" y1="39.7658" x2="78.1631" y2="39.7658" gradientUnits="userSpaceOnUse">
<stop offset="4.47534e-07" stop-color="#43BBED"/>
<stop offset="1" stop-color="#D0709A"/>
</linearGradient>
<linearGradient id="paint24_linear" x1="2.21401" y1="36.9094" x2="78.1639" y2="36.9094" gradientUnits="userSpaceOnUse">
<stop offset="4.47534e-07" stop-color="#43BBED"/>
<stop offset="1" stop-color="#D0709A"/>
</linearGradient>
<linearGradient id="paint25_linear" x1="2.2174" y1="49.9061" x2="78.1628" y2="49.9061" gradientUnits="userSpaceOnUse">
<stop offset="4.47534e-07" stop-color="#43BBED"/>
<stop offset="1" stop-color="#D0709A"/>
</linearGradient>
<linearGradient id="paint26_linear" x1="2.21609" y1="51.6935" x2="78.1634" y2="51.6935" gradientUnits="userSpaceOnUse">
<stop offset="4.47534e-07" stop-color="#43BBED"/>
<stop offset="1" stop-color="#D0709A"/>
</linearGradient>
<linearGradient id="paint27_linear" x1="2.21651" y1="36.8161" x2="78.1631" y2="36.8161" gradientUnits="userSpaceOnUse">
<stop offset="4.47534e-07" stop-color="#43BBED"/>
<stop offset="1" stop-color="#D0709A"/>
</linearGradient>
<linearGradient id="paint28_linear" x1="2.21691" y1="43.2233" x2="78.1628" y2="43.2233" gradientUnits="userSpaceOnUse">
<stop offset="4.47534e-07" stop-color="#43BBED"/>
<stop offset="1" stop-color="#D0709A"/>
</linearGradient>
<linearGradient id="paint29_linear" x1="2.21666" y1="49.5988" x2="78.1631" y2="49.5988" gradientUnits="userSpaceOnUse">
<stop offset="4.47534e-07" stop-color="#43BBED"/>
<stop offset="1" stop-color="#D0709A"/>
</linearGradient>
<linearGradient id="paint30_linear" x1="2.21627" y1="44.5953" x2="78.1632" y2="44.5953" gradientUnits="userSpaceOnUse">
<stop offset="4.47534e-07" stop-color="#43BBED"/>
<stop offset="1" stop-color="#D0709A"/>
</linearGradient>
<linearGradient id="paint31_linear" x1="2.21649" y1="57.6099" x2="78.1631" y2="57.6099" gradientUnits="userSpaceOnUse">
<stop offset="4.47534e-07" stop-color="#43BBED"/>
<stop offset="1" stop-color="#D0709A"/>
</linearGradient>
<linearGradient id="paint32_linear" x1="2.21626" y1="53.1656" x2="78.1633" y2="53.1656" gradientUnits="userSpaceOnUse">
<stop offset="4.47534e-07" stop-color="#43BBED"/>
<stop offset="1" stop-color="#D0709A"/>
</linearGradient>
</defs>
</svg>
