<svg width="123" height="30" viewBox="0 0 123 30" fill="none" xmlns="http://www.w3.org/2000/svg">
<path d="M1.80977 13.7591L21.5123 4.06398C22.5071 3.57422 23.6911 4.26434 23.6911 5.33432C23.6911 5.87417 23.3722 6.3695 22.8668 6.6116L4.5697 15.3745V15.4678L22.8668 24.2307C23.3722 24.4728 23.6911 24.9667 23.6911 25.508C23.6911 26.5765 22.5071 27.2667 21.5123 26.7783L1.80977 17.0804C1.31168 16.8355 1 16.3457 1 15.81V15.0295C1 14.4938 1.31168 14.004 1.80977 13.7591Z" fill="url(#paint0_linear)" stroke="url(#paint1_linear)" stroke-width="2" stroke-miterlimit="10"/>
<path d="M122 15.0286V15.8091C122 16.3434 121.687 16.8346 121.19 17.0795L101.488 26.7746C100.493 27.2644 99.3088 26.5743 99.3088 25.5043C99.3088 24.9644 99.6278 24.4691 100.133 24.227L118.43 15.4641V15.3709L100.133 6.60932C99.6278 6.36722 99.3088 5.87328 99.3088 5.33203C99.3088 4.26345 100.493 3.57332 101.488 4.0617L121.19 13.7568C121.688 14.0031 122 14.4929 122 15.0286Z" fill="url(#paint2_linear)" stroke="url(#paint3_linear)" stroke-width="2" stroke-miterlimit="10"/>
<path d="M45.0599 24.1393H34.9246V3.58863C34.9246 2.25429 33.793 1.17319 32.3963 1.17319C30.9995 1.17319 29.8679 2.25429 29.8679 3.58863V26.5548C29.8679 27.8891 30.9995 28.9702 32.3963 28.9702H45.0613C46.4581 28.9702 47.5897 27.8891 47.5897 26.5548C47.5882 25.2204 46.4566 24.1393 45.0599 24.1393Z" fill="black"/>
<path d="M86.5593 12.3947C88.7993 11.5417 90.3839 9.45189 90.3839 7.00723C90.3839 3.80426 87.6662 1.20795 84.3135 1.20795H77.4304C76.36 1.20795 75.4934 2.03721 75.4934 3.05848V27.1183C75.4934 28.1409 76.3614 28.9688 77.4304 28.9688H84.3135C89.1838 28.9688 93.1336 25.1968 93.1336 20.5426C93.1336 16.6328 90.3431 13.3436 86.5593 12.3947Z" fill="black"/>
<path d="M85.1014 25.7784C87.5925 25.7784 89.6119 23.8491 89.6119 21.4693C89.6119 19.0894 87.5925 17.1602 85.1014 17.1602C82.6103 17.1602 80.5908 19.0894 80.5908 21.4693C80.5908 23.8491 82.6103 25.7784 85.1014 25.7784Z" fill="white"/>
<path d="M81.6118 10.0613C83.2431 10.0613 84.5655 8.79799 84.5655 7.2396C84.5655 5.68121 83.2431 4.41788 81.6118 4.41788C79.9806 4.41788 78.6582 5.68121 78.6582 7.2396C78.6582 8.79799 79.9806 10.0613 81.6118 10.0613Z" fill="white"/>
<path d="M53.5931 26.0204L51.2628 13.1877L52.3248 13.6946C56.7805 15.8211 62.1109 14.6565 65.2736 10.8655V10.8655L67.6039 23.6982L53.5931 26.0204Z" fill="url(#paint4_linear)"/>
<path d="M70.9179 26.7593L52.9674 29.965C51.8168 30.171 50.7085 29.4461 50.4929 28.3455C50.2774 27.2463 51.0362 26.1874 52.1882 25.9815L70.1387 22.7758C71.2893 22.5698 72.3976 23.2948 72.6131 24.3953C72.8287 25.4945 72.0699 26.5534 70.9179 26.7593Z" fill="black"/>
<path d="M62.802 9.64109L53.9557 11.2217C52.8911 11.4123 51.8672 10.7417 51.6691 9.72457L51.6109 9.42264C51.4113 8.40554 52.1133 7.4274 53.178 7.23817L62.0243 5.65756C63.089 5.46694 64.1128 6.13758 64.3109 7.15468L64.3692 7.45662C64.5687 8.47232 63.8667 9.45047 62.802 9.64109Z" fill="black"/>
<path d="M60.514 3.86271L53.6295 5.09269C52.6056 5.27496 51.6211 4.63075 51.4288 3.65261L51.372 3.3632C51.1812 2.38506 51.8555 1.44449 52.8794 1.26082L59.7639 0.0308436C60.7878 -0.151427 61.7724 0.492783 61.9646 1.47093L62.0214 1.76033C62.2122 2.73986 61.5379 3.68044 60.514 3.86271Z" fill="black"/>
<path d="M50.4108 27.8487L51.5788 8.99969C51.6429 7.96728 52.5706 7.17976 53.6513 7.24098L53.9717 7.25907C55.0524 7.32029 55.8767 8.2066 55.8126 9.239L54.6635 27.782C54.5892 28.9827 53.5086 29.8996 52.2517 29.8287C51.171 29.7675 50.3467 28.8811 50.4108 27.8487Z" fill="black"/>
<path d="M64.1944 6.74564L72.4786 23.9125C72.9315 24.8517 72.5019 25.9634 71.5188 26.3975C70.3755 26.9012 69.0195 26.424 68.4923 25.3303L60.3421 8.44174C59.8892 7.50256 60.3188 6.39084 61.3019 5.95673L61.5932 5.82872C62.5763 5.396 63.7415 5.80646 64.1944 6.74564Z" fill="black"/>
<defs>
<linearGradient id="paint0_linear" x1="23.6917" y1="15.4196" x2="0.999462" y2="15.4196" gradientUnits="userSpaceOnUse">
<stop stop-color="#7DD0FC"/>
<stop offset="1" stop-color="#4D68D9"/>
</linearGradient>
<linearGradient id="paint1_linear" x1="24.4199" y1="15.4196" x2="0.271248" y2="15.4196" gradientUnits="userSpaceOnUse">
<stop stop-color="#7DD0FC"/>
<stop offset="1" stop-color="#4D68D9"/>
</linearGradient>
<linearGradient id="paint2_linear" x1="99.3083" y1="15.4187" x2="122.001" y2="15.4187" gradientUnits="userSpaceOnUse">
<stop stop-color="#7DD0FC"/>
<stop offset="1" stop-color="#4D68D9"/>
</linearGradient>
<linearGradient id="paint3_linear" x1="98.5801" y1="15.4187" x2="122.729" y2="15.4187" gradientUnits="userSpaceOnUse">
<stop stop-color="#7DD0FC"/>
<stop offset="1" stop-color="#4D68D9"/>
</linearGradient>
<linearGradient id="paint4_linear" x1="52.5042" y1="13.4026" x2="66.2653" y2="24.3699" gradientUnits="userSpaceOnUse">
<stop stop-color="#7DD0FC"/>
<stop offset="0.5375" stop-color="#4D68D9"/>
<stop offset="1" stop-color="#8547E2"/>
</linearGradient>
</defs>
</svg>
