<svg width="509" height="411" viewBox="0 0 509 411" fill="none" xmlns="http://www.w3.org/2000/svg">
<path d="M503.423 204.865C496.356 242.963 452.566 337.188 414.179 331.616C346.534 321.775 284.944 156.348 217.601 144.807C153.08 133.76 133.917 274.524 69.4076 263.682C22.7836 255.867 -17.6656 124.691 7.96188 85.0614C42.2605 31.9974 189.622 21.3243 252.84 21.8911C321.835 22.5182 464.493 80.575 503.423 137.534C512.926 151.391 506.498 188.307 503.423 204.865Z" fill="#407BFF"/>
<path opacity="0.9" d="M503.423 204.865C496.356 242.963 452.566 337.188 414.179 331.616C346.534 321.775 284.944 156.348 217.601 144.807C153.08 133.76 133.917 274.524 69.4076 263.682C22.7836 255.867 -17.6656 124.691 7.96188 85.0614C42.2605 31.9974 189.622 21.3243 252.84 21.8911C321.835 22.5182 464.493 80.575 503.423 137.534C512.926 151.391 506.498 188.307 503.423 204.865Z" fill="url(#paint0_linear)"/>
<path d="M250.525 410.332C379.666 410.332 484.356 404.22 484.356 396.68C484.356 389.14 379.666 383.028 250.525 383.028C121.383 383.028 16.6932 389.14 16.6932 396.68C16.6932 404.22 121.383 410.332 250.525 410.332Z" fill="#D9E5FF"/>
<path d="M312.911 106.673L303.082 96.8439C302.426 96.1832 302.058 95.2904 302.057 94.3596V90.7416C302.056 90.0609 301.859 89.395 301.489 88.8237C301.119 88.2525 300.592 87.8003 299.971 87.5216L297.233 86.3156C296.836 86.1442 296.476 85.8986 296.172 85.592L293.724 83.0473C293.126 82.448 292.331 82.085 291.487 82.0251C290.643 81.9653 289.805 82.2127 289.129 82.7217L287.766 83.7468C287.107 84.24 286.642 84.9483 286.451 85.7488L285.016 91.8752C284.865 92.5466 284.915 93.2476 285.16 93.8909C285.404 94.5342 285.832 95.0914 286.391 95.4932L292.421 99.8469L295.906 102.126C296.194 102.319 296.453 102.55 296.678 102.814L306.893 115.079L312.911 106.673Z" fill="#407BFF"/>
<path opacity="0.3" d="M312.911 106.673L303.082 96.8439C302.426 96.1832 302.058 95.2904 302.057 94.3596V90.7416C302.056 90.0609 301.859 89.395 301.489 88.8237C301.119 88.2525 300.592 87.8003 299.971 87.5216L297.233 86.3156C296.836 86.1442 296.476 85.8986 296.172 85.592L293.724 83.0473C293.126 82.448 292.331 82.085 291.487 82.0251C290.643 81.9653 289.805 82.2127 289.129 82.7217L287.766 83.7468C287.107 84.24 286.642 84.9483 286.451 85.7488L285.016 91.8752C284.865 92.5466 284.915 93.2476 285.16 93.8909C285.404 94.5342 285.832 95.0914 286.391 95.4932L292.421 99.8469L295.906 102.126C296.194 102.319 296.453 102.55 296.678 102.814L306.893 115.079L312.911 106.673Z" fill="white"/>
<path d="M361.597 63.8357C361.597 63.8357 348.042 65.0417 338.84 87.3768C329.638 109.712 324.669 110.894 321.51 109.085C319.336 107.767 317.235 106.334 315.214 104.791C314.592 104.326 313.812 104.122 313.042 104.224C312.271 104.325 311.571 104.723 311.09 105.334L305.313 112.57C304.89 113.102 304.66 113.76 304.66 114.439C304.66 115.118 304.89 115.777 305.313 116.309C308.738 120.602 317.843 130.383 327.853 127.693C341.409 124.075 351.322 104.779 351.973 98.8579C352.625 92.9365 361.597 63.8357 361.597 63.8357Z" fill="#407BFF"/>
<path opacity="0.5" d="M361.597 63.8357C361.597 63.8357 348.042 65.0417 338.84 87.3768C329.638 109.712 324.669 110.894 321.51 109.085C319.336 107.767 317.235 106.334 315.214 104.791C314.592 104.326 313.812 104.122 313.042 104.224C312.271 104.325 311.571 104.723 311.09 105.334L305.313 112.57C304.89 113.102 304.66 113.76 304.66 114.439C304.66 115.118 304.89 115.777 305.313 116.309C308.738 120.602 317.843 130.383 327.853 127.693C341.409 124.075 351.322 104.779 351.973 98.8579C352.625 92.9365 361.597 63.8357 361.597 63.8357Z" fill="white"/>
<path d="M361.911 20.8177C361.911 20.8177 354.53 16.3314 354.397 19.8409C354.265 23.3503 362.128 27.0769 365.456 26.6668L361.911 20.8177Z" fill="#263238"/>
<path opacity="0.4" d="M361.911 20.8177C361.911 20.8177 354.53 16.3314 354.397 19.8409C354.265 23.3503 362.128 27.0769 365.456 26.6668L361.911 20.8177Z" fill="black"/>
<path d="M394.666 64.5594C394.666 64.5594 394.232 64.4026 393.363 64.1856V70.7221H362.007L363.732 63.4861C363.31 63.4861 362.056 63.7996 361.621 63.8599L356.797 67.4779C356.797 67.4779 348.476 85.5679 346.474 130.491V188.982H410.392L394.666 64.5594Z" fill="#407BFF"/>
<path d="M384.523 60.9413C382.666 55.1645 383.052 46.8914 383.679 41.6453L371.173 54.0188C371.967 56.2177 372.235 58.5718 371.957 60.893C371.877 61.4323 371.622 61.9305 371.233 62.3116C370.843 62.6927 370.339 62.9357 369.798 63.0035L364.636 63.5945L363.84 68.7803L365.456 72.3983L371.957 73.0495L381.074 71.349L392.953 64.4748C391.269 63.929 389.523 63.6007 387.755 63.498C387.054 63.3547 386.396 63.0486 385.835 62.6045C385.273 62.1605 384.824 61.5907 384.523 60.9413V60.9413Z" fill="#FFB273"/>
<path opacity="0.2" d="M378.59 47.7356L371.354 54.8028C371.746 56.1088 371.981 57.457 372.053 58.8187C374.984 58.1434 378.59 55.3696 379.518 52.041C380.146 49.9908 379.35 47.9165 378.59 47.7356Z" fill="black"/>
<path d="M385.572 32.3834C385.03 41.8866 385.187 47.4704 380.411 52.3668C373.235 59.7354 361.477 55.3938 359.185 45.9509C357.099 37.3762 358.353 23.3142 367.627 19.5033C369.669 18.6494 371.896 18.3325 374.096 18.583C376.295 18.8335 378.394 19.643 380.191 20.9343C381.989 22.2256 383.427 23.9557 384.366 25.9598C385.306 27.964 385.717 30.1754 385.56 32.3834H385.572Z" fill="#FFB273"/>
<path d="M370.715 35.1811C370.715 35.965 370.317 36.5921 369.81 36.5921C369.304 36.5921 368.894 35.977 368.894 35.1932C368.894 34.4093 369.292 33.7942 369.798 33.7942C370.305 33.7942 370.715 34.4092 370.715 35.1811Z" fill="#263238"/>
<path d="M367.736 46.1799C367.736 46.9517 367.326 47.5909 366.819 47.5909C366.313 47.5909 365.903 46.9638 365.903 46.1919C365.903 45.4201 366.313 44.793 366.819 44.793C367.326 44.793 367.736 45.4442 367.736 46.1799Z" fill="#263238"/>
<path d="M361.983 35.2294C361.983 35.9892 361.573 36.6284 361.067 36.6163C360.56 36.6042 360.15 36.0012 360.15 35.2294C360.15 34.4575 360.548 33.8184 361.067 33.8184C361.585 33.8184 361.971 34.4093 361.983 35.2294Z" fill="#263238"/>
<path d="M374.007 30.7913C374.078 30.7698 374.144 30.7327 374.2 30.6827C374.269 30.584 374.297 30.4628 374.279 30.3439C374.261 30.2251 374.198 30.1176 374.103 30.0435C373.523 29.6166 372.851 29.3319 372.141 29.2125C371.431 29.0931 370.703 29.1423 370.015 29.3561C369.95 29.3698 369.889 29.3975 369.836 29.4371C369.783 29.4768 369.739 29.5275 369.707 29.5859C369.675 29.6442 369.657 29.7087 369.652 29.7749C369.648 29.8412 369.658 29.9075 369.682 29.9694C369.706 30.0314 369.743 30.0874 369.791 30.1336C369.838 30.1798 369.895 30.2151 369.958 30.237C370.021 30.259 370.087 30.2671 370.153 30.2607C370.219 30.2544 370.283 30.2338 370.341 30.2003V30.2003C370.888 30.0368 371.466 30.005 372.028 30.1077C372.589 30.2104 373.119 30.4447 373.573 30.7913C373.639 30.8271 373.714 30.8459 373.79 30.8459C373.866 30.8459 373.94 30.8271 374.007 30.7913V30.7913Z" fill="#263238"/>
<path d="M357.955 30.8516C358.021 30.8897 358.096 30.9097 358.172 30.9097C358.248 30.9097 358.323 30.8897 358.389 30.8516C358.841 30.5108 359.367 30.2809 359.924 30.1804C360.481 30.0798 361.054 30.1114 361.597 30.2727C361.709 30.3165 361.834 30.3144 361.945 30.2671C362.055 30.2197 362.143 30.1307 362.188 30.0194C362.231 29.9059 362.228 29.7799 362.178 29.6691C362.128 29.5582 362.036 29.4717 361.923 29.4285C361.234 29.2078 360.502 29.155 359.789 29.2746C359.076 29.3942 358.401 29.6826 357.822 30.1159C357.73 30.1857 357.667 30.288 357.647 30.4021C357.627 30.5162 357.651 30.6337 357.714 30.731V30.731C357.776 30.8007 357.862 30.844 357.955 30.8516V30.8516Z" fill="#263238"/>
<path d="M383.341 40.0775H378.397L380.809 31.72C378.044 29.8262 376.054 27.0009 375.201 23.7604C375.201 23.7604 356.194 27.5713 356.399 14.1124C356.604 0.653419 361.971 14.1124 361.971 14.1124C361.971 14.1124 367.929 8.68537 370.702 9.28837C373.476 9.89137 370.702 13.7023 370.702 13.7023C370.702 13.7023 377.758 12.0984 379.844 13.5094C381.93 14.9204 378.385 15.9214 378.385 15.9214C378.385 15.9214 393.93 20.1182 386.586 39.2333L383.341 40.0775Z" fill="#263238"/>
<path d="M385.44 36.5439C384.754 35.8581 383.94 35.3145 383.044 34.9441C382.148 34.5736 381.188 34.3837 380.218 34.3851H375.84C375.787 33.2003 375.286 32.0798 374.439 31.2502C373.591 30.4206 372.46 29.9438 371.274 29.9162C370.089 29.8886 368.937 30.3123 368.051 31.1016C367.166 31.8909 366.614 32.987 366.506 34.168C366.173 34.0352 365.801 34.0352 365.469 34.168C365.38 32.9697 364.83 31.8525 363.934 31.0513C363.038 30.2501 361.867 29.8273 360.666 29.8718C359.465 29.9163 358.329 30.4247 357.495 31.29C356.661 32.1552 356.195 33.3101 356.195 34.5118C356.195 35.7134 356.661 36.8683 357.495 37.7335C358.329 38.5988 359.465 39.1072 360.666 39.1517C361.867 39.1962 363.038 38.7734 363.934 37.9722C364.83 37.171 365.38 36.0538 365.469 34.8555C365.604 34.7437 365.775 34.6827 365.951 34.6827C366.127 34.6827 366.297 34.7437 366.433 34.8555C366.475 36.0594 366.978 37.2013 367.839 38.0444C368.699 38.8875 369.851 39.3673 371.055 39.3843C372.26 39.4014 373.425 38.9544 374.309 38.136C375.193 37.3176 375.728 36.1904 375.804 34.9881H380.182C381.078 34.9792 381.967 35.1508 382.796 35.4926C383.625 35.8345 384.376 36.3397 385.006 36.978L386.417 38.389L386.851 37.9549L385.44 36.5439ZM360.813 38.7991C360 38.7991 359.205 38.5579 358.529 38.106C357.852 37.6541 357.325 37.0118 357.014 36.2604C356.703 35.5089 356.621 34.6821 356.78 33.8843C356.939 33.0866 357.33 32.3538 357.905 31.7787C358.481 31.2035 359.213 30.8119 360.011 30.6532C360.809 30.4945 361.636 30.576 362.387 30.8872C363.139 31.1985 363.781 31.7256 364.233 32.4019C364.685 33.0782 364.926 33.8733 364.926 34.6866C364.926 35.7773 364.493 36.8233 363.721 37.5946C362.95 38.3658 361.904 38.7991 360.813 38.7991ZM371.161 38.7991C370.347 38.7991 369.552 38.5579 368.876 38.106C368.2 37.6541 367.673 37.0118 367.361 36.2604C367.05 35.5089 366.969 34.6821 367.127 33.8843C367.286 33.0866 367.678 32.3538 368.253 31.7787C368.828 31.2035 369.561 30.8119 370.359 30.6532C371.156 30.4945 371.983 30.576 372.735 30.8872C373.486 31.1985 374.128 31.7256 374.58 32.4019C375.032 33.0782 375.273 33.8733 375.273 34.6866C375.273 35.7773 374.84 36.8233 374.069 37.5946C373.298 38.3658 372.252 38.7991 371.161 38.7991V38.7991Z" fill="#407BFF"/>
<path d="M390.204 41.2232C388.928 43.2454 386.91 44.6871 384.584 45.2392C381.484 45.9146 380.097 43.1167 381.098 40.2826C381.991 37.7379 384.716 34.2526 387.731 34.8676C390.746 35.4827 391.783 38.7148 390.204 41.2232Z" fill="#FFB273"/>
<path d="M365.661 35.1934C364.762 37.5545 363.545 39.782 362.043 41.8143C362.575 42.1889 363.18 42.4442 363.82 42.5629C364.459 42.6815 365.116 42.6606 365.746 42.5017L365.661 35.1934Z" fill="#ED847E"/>
<path d="M351.877 357.919L352.07 375.744C352.079 376.117 351.983 376.485 351.793 376.807C351.603 377.129 351.328 377.391 350.997 377.565C349.224 378.469 345.787 381.424 344.303 381.918C341.621 382.636 338.904 383.216 336.163 383.655C335.717 383.733 335.31 383.958 335.009 384.295C334.707 384.632 334.527 385.061 334.498 385.512V385.512C334.465 386.048 334.646 386.575 335.001 386.977C335.356 387.38 335.856 387.625 336.392 387.659L362.695 388.141C363.221 388.178 363.742 388.007 364.143 387.664C364.544 387.321 364.795 386.834 364.841 386.308L367.362 359.402C367.413 358.875 367.254 358.349 366.92 357.939C366.586 357.528 366.103 357.265 365.577 357.207L354.132 355.881C353.846 355.848 353.557 355.877 353.283 355.965C353.01 356.053 352.758 356.198 352.544 356.391C352.331 356.583 352.161 356.819 352.046 357.083C351.931 357.346 351.873 357.631 351.877 357.919V357.919Z" fill="#263238"/>
<path d="M346.462 174.305V271.786L349.453 357.075C349.478 357.987 349.857 358.853 350.51 359.49C351.163 360.127 352.038 360.485 352.95 360.488H365.372C366.239 360.486 367.075 360.164 367.719 359.583C368.362 359.002 368.768 358.203 368.857 357.34C370.341 342.579 376.31 300.791 373.681 273.222C373.681 273.222 382.57 219.241 383.1 197.159L376.938 177.176L346.462 174.305Z" fill="#407BFF"/>
<path opacity="0.2" d="M374.284 182.217C374.284 182.217 371.197 222.98 375.647 260.667C377.902 251.248 379.446 207.181 381.581 192.01L374.284 182.217Z" fill="black"/>
<path d="M393.17 359.101L395.245 376.805C395.29 377.176 395.23 377.552 395.072 377.891C394.915 378.23 394.665 378.518 394.352 378.722C392.314 380.113 390.204 381.397 388.033 382.57C385.441 383.559 382.8 384.417 380.121 385.138C379.688 385.266 379.309 385.535 379.045 385.902C378.781 386.268 378.646 386.713 378.662 387.164V387.164C378.684 387.7 378.917 388.205 379.311 388.568C379.704 388.932 380.225 389.126 380.761 389.106L407.112 388.021C407.635 387.996 408.129 387.77 408.491 387.391C408.853 387.011 409.054 386.507 409.053 385.982L408.728 358.944C408.721 358.416 408.508 357.912 408.134 357.54C407.759 357.167 407.254 356.957 406.726 356.954L395.196 356.846C394.91 356.844 394.626 356.903 394.364 357.018C394.102 357.134 393.868 357.304 393.676 357.518C393.485 357.731 393.341 357.982 393.253 358.255C393.166 358.528 393.138 358.816 393.17 359.101V359.101Z" fill="#263238"/>
<path d="M373.139 176.838L381.279 270.568L390.807 358.184C390.898 359.061 391.327 359.868 392.002 360.435C392.677 361.002 393.545 361.284 394.425 361.223L406.87 360.427C407.723 360.379 408.526 360.01 409.118 359.395C409.711 358.781 410.05 357.965 410.066 357.111C410.416 342.639 413.081 297.655 408.052 271.171C408.052 271.171 415.156 211.703 410.356 173.582L373.139 176.838Z" fill="#407BFF"/>
<path opacity="0.2" d="M349.043 171.194L349.585 175.089L395.679 177.525V171.194H349.043Z" fill="black"/>
<path d="M368.17 63.281C368.17 63.281 364.926 69.7693 369.183 70.0346C375.659 70.4567 388.744 63.3534 388.744 63.3534L391.53 63.9925C391.53 63.9925 391.458 74.7139 377.179 78.8263C377.179 78.8263 373.066 73.5079 368.942 73.3993C364.817 73.2908 359.39 77.7289 359.39 77.7289C359.39 77.7289 356.761 70.71 363.708 63.4619L368.17 63.281Z" fill="#407BFF"/>
<path d="M366.433 63.3533C366.433 63.3533 357.388 67.1763 354.072 91.5978C350.755 116.019 349.549 161.847 350.454 183.254C351.358 204.66 352.564 218.529 345.931 217.625C345.931 217.625 345.328 183.254 345.931 144.963C346.534 106.673 342.615 64.0528 366.433 63.3533Z" fill="#407BFF"/>
<path opacity="0.7" d="M366.433 63.3533C366.433 63.3533 357.388 67.1763 354.072 91.5978C350.755 116.019 349.549 161.847 350.454 183.254C351.358 204.66 352.564 218.529 345.931 217.625C345.931 217.625 345.328 183.254 345.931 144.963C346.474 110.074 343.266 71.5902 360.717 64.499C360.97 64.4025 361.344 63.9201 361.597 63.8356C363.177 63.4389 364.806 63.2764 366.433 63.3533Z" fill="white"/>
<path d="M392.362 63.3533C392.362 63.3533 381.508 69.3833 380.302 107.577C379.096 145.771 379.494 218.119 392.362 219.325C405.23 220.531 419.292 213.295 419.292 213.295C419.292 213.295 418.376 199.45 415.976 181.939C413.974 167.286 410.561 150.053 409.246 136.111C407.715 120.047 416.482 75.8112 410.85 71.3973C405.218 66.9833 392.362 63.3533 392.362 63.3533Z" fill="#407BFF"/>
<path opacity="0.7" d="M392.362 63.3533C392.362 63.3533 381.508 69.3833 380.302 107.577C379.096 145.771 379.494 218.119 392.362 219.325C405.23 220.531 419.292 213.295 419.292 213.295C419.292 213.295 418.376 199.45 415.976 181.939C413.974 167.286 410.561 150.053 409.246 136.111C407.715 120.047 416.482 75.8112 410.85 71.3973C405.218 66.9833 392.362 63.3533 392.362 63.3533Z" fill="white"/>
<path d="M386.387 166.407L404.293 163.833L404.617 166.089C404.766 167.125 404.498 168.177 403.871 169.014C403.244 169.851 402.31 170.405 401.275 170.554L391.188 172.004C390.153 172.153 389.101 171.884 388.264 171.258C387.426 170.631 386.872 169.697 386.723 168.662L386.399 166.406L386.387 166.407Z" fill="#407BFF"/>
<path opacity="0.6" d="M386.387 166.407L404.293 163.833L404.617 166.089C404.766 167.125 404.498 168.177 403.871 169.014C403.244 169.851 402.31 170.405 401.275 170.554L391.188 172.004C390.153 172.153 389.101 171.884 388.264 171.258C387.426 170.631 386.872 169.697 386.723 168.662L386.399 166.406L386.387 166.407Z" fill="white"/>
<path d="M378.144 153.55H352.552C352.07 153.539 351.607 153.356 351.248 153.033C350.89 152.709 350.659 152.268 350.599 151.789L346.474 112.51C346.442 112.286 346.46 112.058 346.525 111.842C346.591 111.625 346.703 111.426 346.853 111.257C347.003 111.089 347.189 110.955 347.396 110.865C347.604 110.775 347.828 110.731 348.054 110.737H373.657C374.142 110.748 374.606 110.933 374.965 111.259C375.324 111.585 375.553 112.029 375.611 112.51L379.748 151.789C379.778 152.014 379.758 152.243 379.69 152.46C379.623 152.676 379.509 152.875 379.356 153.043C379.203 153.211 379.015 153.343 378.806 153.431C378.596 153.518 378.37 153.559 378.144 153.55Z" fill="#263238"/>
<path opacity="0.5" d="M378.144 153.55H352.552C352.07 153.539 351.607 153.356 351.248 153.033C350.89 152.709 350.659 152.268 350.599 151.789L346.474 112.51C346.442 112.286 346.46 112.058 346.525 111.842C346.591 111.625 346.703 111.426 346.853 111.257C347.003 111.089 347.189 110.955 347.396 110.865C347.604 110.775 347.828 110.731 348.054 110.737H373.657C374.142 110.748 374.606 110.933 374.965 111.259C375.324 111.585 375.553 112.029 375.611 112.51L379.748 151.789C379.778 152.014 379.758 152.243 379.69 152.46C379.623 152.676 379.509 152.875 379.356 153.043C379.203 153.211 379.015 153.343 378.806 153.431C378.596 153.518 378.37 153.559 378.144 153.55Z" fill="white"/>
<path d="M364.251 113.861H358.124C357.523 113.839 356.95 113.604 356.508 113.197C356.066 112.79 355.783 112.238 355.712 111.642L355.338 108.024H365.891L366.265 111.642C366.304 111.925 366.28 112.213 366.196 112.486C366.111 112.759 365.968 113.01 365.776 113.222C365.584 113.433 365.348 113.6 365.084 113.711C364.821 113.821 364.536 113.872 364.251 113.861V113.861Z" fill="#263238"/>
<path opacity="0.7" d="M364.251 113.861H358.124C357.523 113.839 356.95 113.604 356.508 113.197C356.066 112.79 355.783 112.238 355.712 111.642L355.338 108.024H365.891L366.265 111.642C366.304 111.925 366.28 112.213 366.196 112.486C366.111 112.759 365.968 113.01 365.776 113.222C365.584 113.433 365.348 113.6 365.084 113.711C364.821 113.821 364.536 113.872 364.251 113.861V113.861Z" fill="white"/>
<path d="M374.863 110.737H373.657C374.142 110.748 374.606 110.933 374.965 111.259C375.324 111.585 375.553 112.029 375.611 112.51L379.748 151.789C379.777 152.012 379.758 152.239 379.692 152.454C379.626 152.669 379.513 152.866 379.363 153.034C379.213 153.201 379.029 153.334 378.822 153.423C378.616 153.512 378.392 153.556 378.168 153.55H379.374C379.598 153.556 379.822 153.512 380.028 153.423C380.235 153.334 380.419 153.201 380.569 153.034C380.719 152.866 380.832 152.669 380.898 152.454C380.964 152.239 380.983 152.012 380.954 151.789L376.817 112.51C376.759 112.029 376.53 111.585 376.171 111.259C375.812 110.933 375.348 110.748 374.863 110.737V110.737Z" fill="#263238"/>
<path opacity="0.7" d="M374.863 110.737H373.657C374.142 110.748 374.606 110.933 374.965 111.259C375.324 111.585 375.553 112.029 375.611 112.51L379.748 151.789C379.777 152.012 379.758 152.239 379.692 152.454C379.626 152.669 379.513 152.866 379.363 153.034C379.213 153.201 379.029 153.334 378.822 153.423C378.616 153.512 378.392 153.556 378.168 153.55H379.374C379.598 153.556 379.822 153.512 380.028 153.423C380.235 153.334 380.419 153.201 380.569 153.034C380.719 152.866 380.832 152.669 380.898 152.454C380.964 152.239 380.983 152.012 380.954 151.789L376.817 112.51C376.759 112.029 376.53 111.585 376.171 111.259C375.812 110.933 375.348 110.748 374.863 110.737V110.737Z" fill="white"/>
<path d="M401.697 127.006L387.418 130.214L381.098 126.463C380.375 126.026 379.522 125.855 378.686 125.981L373.549 126.741C372.985 126.819 372.448 127.029 371.98 127.354C371.513 127.678 371.129 128.109 370.859 128.61L369.653 130.721C369.268 131.44 369.132 132.267 369.267 133.072L369.665 135.484C369.784 136.191 370.106 136.848 370.593 137.375C371.079 137.902 371.708 138.276 372.403 138.451L381.086 140.598C381.764 140.763 382.475 140.734 383.136 140.513L389.166 138.475L406.46 136.461L401.697 127.006Z" fill="#407BFF"/>
<path opacity="0.3" d="M401.697 127.006L387.418 130.214L381.098 126.463C380.375 126.026 379.522 125.855 378.686 125.981L373.549 126.741C372.985 126.819 372.448 127.029 371.98 127.354C371.513 127.678 371.129 128.109 370.859 128.61L369.653 130.721C369.268 131.44 369.132 132.267 369.267 133.072L369.665 135.484C369.784 136.191 370.106 136.848 370.593 137.375C371.079 137.902 371.708 138.276 372.403 138.451L381.086 140.598C381.764 140.763 382.475 140.734 383.136 140.513L389.166 138.475L406.46 136.461L401.697 127.006Z" fill="white"/>
<path d="M401.66 136.256C401.898 137.046 402.404 137.728 403.091 138.184C403.778 138.64 404.603 138.841 405.423 138.753C409.958 138.282 418.472 136.546 424.623 130.19C433.366 121.145 421.222 86.6533 416.482 78.0304C411.164 68.3824 402.939 66.9834 402.939 66.9834C392.362 63.3654 393.87 73.2064 396.909 85.2664C399.948 97.3264 411.381 114.813 411.682 118.13C411.875 120.252 405.351 122.761 400.647 124.281C400.139 124.438 399.673 124.709 399.284 125.072C398.894 125.435 398.592 125.881 398.4 126.378C398.207 126.874 398.129 127.407 398.172 127.938C398.214 128.469 398.376 128.983 398.645 129.442C399.932 131.578 400.945 133.867 401.66 136.256V136.256Z" fill="#407BFF"/>
<path opacity="0.8" d="M401.66 136.256C401.898 137.046 402.404 137.728 403.091 138.184C403.778 138.64 404.603 138.841 405.423 138.753C409.958 138.282 418.472 136.546 424.623 130.19C433.366 121.145 421.222 86.6533 416.482 78.0304C411.164 68.3824 402.939 66.9834 402.939 66.9834C392.362 63.3654 393.87 73.2064 396.909 85.2664C399.948 97.3264 411.381 114.813 411.682 118.13C411.875 120.252 405.351 122.761 400.647 124.281C400.139 124.438 399.673 124.709 399.284 125.072C398.894 125.435 398.592 125.881 398.4 126.378C398.207 126.874 398.129 127.407 398.172 127.938C398.214 128.469 398.376 128.983 398.645 129.442C399.932 131.578 400.945 133.867 401.66 136.256V136.256Z" fill="white"/>
<path d="M296.895 64.1854H292.071C291.723 64.1838 291.379 64.251 291.057 64.383C290.735 64.515 290.442 64.7093 290.196 64.9547C289.949 65.2001 289.754 65.4918 289.62 65.813C289.487 66.1343 289.418 66.4787 289.418 66.8266C289.421 67.3088 289.556 67.7811 289.809 68.1916C290.062 68.6021 290.424 68.9351 290.853 69.1541V111.798C290.853 112.604 291.173 113.377 291.743 113.947C292.313 114.517 293.086 114.837 293.892 114.837H295.098C295.904 114.837 296.677 114.517 297.247 113.947C297.817 113.377 298.137 112.604 298.137 111.798V69.2024C298.566 68.9828 298.925 68.6493 299.176 68.2387C299.427 67.828 299.56 67.3561 299.561 66.8748V66.8748C299.567 66.5219 299.503 66.1712 299.371 65.8436C299.24 65.516 299.044 65.218 298.796 64.9673C298.547 64.7166 298.251 64.5182 297.925 64.3839C297.598 64.2496 297.248 64.1821 296.895 64.1854Z" fill="#407BFF"/>
<path opacity="0.6" d="M296.895 64.1854H292.071C291.723 64.1838 291.379 64.251 291.057 64.383C290.735 64.515 290.442 64.7093 290.196 64.9547C289.949 65.2001 289.754 65.4918 289.62 65.813C289.487 66.1343 289.418 66.4787 289.418 66.8266C289.421 67.3088 289.556 67.7811 289.809 68.1916C290.062 68.6021 290.424 68.9351 290.853 69.1541V111.798C290.853 112.604 291.173 113.377 291.743 113.947C292.313 114.517 293.086 114.837 293.892 114.837H295.098C295.904 114.837 296.677 114.517 297.247 113.947C297.817 113.377 298.137 112.604 298.137 111.798V69.2024C298.566 68.9828 298.925 68.6493 299.176 68.2387C299.427 67.828 299.56 67.3561 299.561 66.8748V66.8748C299.567 66.5219 299.503 66.1712 299.371 65.8436C299.24 65.516 299.044 65.218 298.796 64.9673C298.547 64.7166 298.251 64.5182 297.925 64.3839C297.598 64.2496 297.248 64.1821 296.895 64.1854Z" fill="white"/>
<path d="M290.419 64.7644C293.046 65.6649 295.897 65.6649 298.523 64.7644C298.063 64.3901 297.488 64.1857 296.895 64.1856H292.071C291.471 64.1831 290.887 64.3875 290.419 64.7644Z" fill="#407BFF"/>
<path d="M294.471 89.222C293.265 89.222 292.216 88.9085 292.192 88.5105V111.847C292.192 112.294 292.37 112.724 292.686 113.04C293.003 113.357 293.432 113.535 293.88 113.535H295.086C295.534 113.535 295.964 113.357 296.28 113.04C296.597 112.724 296.775 112.294 296.775 111.847V88.5105C296.738 88.9085 295.725 89.222 294.471 89.222Z" fill="#407BFF"/>
<path d="M296.775 88.4864C296.775 88.8964 295.738 89.222 294.471 89.222C293.205 89.222 292.18 88.8964 292.18 88.4864C292.18 88.0764 293.205 87.7507 294.471 87.7507C295.738 87.7507 296.775 88.0884 296.775 88.4864Z" fill="#407BFF"/>
<path opacity="0.3" d="M296.775 88.4864C296.775 88.8964 295.738 89.222 294.471 89.222C293.205 89.222 292.18 88.8964 292.18 88.4864C292.18 88.0764 293.205 87.7507 294.471 87.7507C295.738 87.7507 296.775 88.0884 296.775 88.4864Z" fill="black"/>
<g opacity="0.8">
<path opacity="0.8" d="M292.156 69.5159V111.847C292.156 112.026 292.227 112.197 292.354 112.324C292.48 112.451 292.652 112.522 292.831 112.522C293.01 112.522 293.182 112.451 293.309 112.324C293.435 112.197 293.506 112.026 293.506 111.847V69.5159C293.506 69.3368 293.435 69.165 293.309 69.0384C293.182 68.9117 293.01 68.8406 292.831 68.8406C292.652 68.8406 292.48 68.9117 292.354 69.0384C292.227 69.165 292.156 69.3368 292.156 69.5159Z" fill="white"/>
</g>
<path d="M286.114 38.2565C285.221 36.8093 284.28 35.3862 283.28 34.0234L282.797 34.3852C283.786 35.736 284.715 37.1349 285.595 38.558C285.724 38.3965 285.909 38.289 286.114 38.2565V38.2565Z" fill="#407BFF"/>
<path d="M286.982 39.6794C286.854 39.8445 286.669 39.9563 286.463 39.993C289.438 45.0936 291.683 50.5861 293.133 56.3102L293.723 56.1172C292.253 50.3506 289.984 44.8177 286.982 39.6794V39.6794Z" fill="#407BFF"/>
<path d="M294.315 40.4393C294.431 40.4363 294.547 40.4611 294.652 40.5117L294.242 30.6948H293.639L294.049 40.4634C294.136 40.4418 294.225 40.4337 294.315 40.4393V40.4393Z" fill="#407BFF"/>
<path d="M294.315 42.2242C294.25 42.2311 294.186 42.2311 294.122 42.2242L294.29 46.2402H294.893L294.725 42.188C294.592 42.2314 294.452 42.2438 294.315 42.2242V42.2242Z" fill="#407BFF"/>
<path d="M297.607 52.3184C297.811 52.3154 298.009 52.3885 298.162 52.5234C299.826 45.5606 302.203 38.7875 305.253 32.3109L304.71 32.0576C301.655 38.5528 299.267 45.3412 297.583 52.3184H297.607Z" fill="#407BFF"/>
<path d="M297.607 54.1155C297.468 54.1181 297.331 54.0848 297.209 54.019C296.835 55.6713 296.485 57.3355 296.196 59.0119L296.787 59.1084C297.088 57.42 297.438 55.7436 297.812 54.0673C297.745 54.0893 297.676 54.1055 297.607 54.1155Z" fill="#407BFF"/>
<path d="M306.672 25.0888L306.11 25.3064L308.338 31.0652L308.9 30.8476L306.672 25.0888Z" fill="#407BFF"/>
<path d="M309.2 26.5661L304.864 28.9421L305.154 29.471L309.49 27.0949L309.2 26.5661Z" fill="#407BFF"/>
<path d="M307.496 25.588L306.194 30.3081L306.776 30.4684L308.077 25.7483L307.496 25.588Z" fill="#407BFF"/>
<path d="M305.369 26.6603L305.127 27.2129L309.658 29.1925L309.9 28.6399L305.369 26.6603Z" fill="#407BFF"/>
<path d="M273.2 54.1206L272.638 54.3381L274.866 60.0969L275.428 59.8793L273.2 54.1206Z" fill="#407BFF"/>
<path d="M275.732 55.6626L271.395 58.0378L271.684 58.5667L276.021 56.1914L275.732 55.6626Z" fill="#407BFF"/>
<path d="M273.294 59.5303L272.715 59.3735L274.018 54.646L274.596 54.8028L273.294 59.5303Z" fill="#407BFF"/>
<path d="M271.867 55.6847L271.625 56.2373L276.156 58.2169L276.398 57.6643L271.867 55.6847Z" fill="#407BFF"/>
<path d="M291.782 26.1964L291.698 25.6055C292.252 25.5211 292.904 25.4487 293.47 25.3764L295.231 25.1472L295.315 25.7382L293.543 25.9673L291.782 26.1964Z" fill="#407BFF"/>
<path d="M292.807 28.1864L292.24 27.9694L293.314 25.1956L293.639 25.5694L294.459 26.5342L295.255 27.4628L294.809 27.8608L294.001 26.9201C293.844 26.7272 293.675 26.5463 293.519 26.3413L292.807 28.1864Z" fill="#407BFF"/>
<path d="M293.157 25.9674C293.157 25.7503 293.157 25.4126 293.084 25.075C293.012 24.7373 293.084 24.4117 293.012 24.2066L293.615 24.1343C293.615 24.3514 293.615 24.689 293.687 25.0267C293.76 25.3644 293.687 25.69 293.76 25.9071L293.157 25.9674Z" fill="#407BFF"/>
<path d="M312.163 48.7607C311.874 48.2904 311.548 47.7597 311.235 47.2291L310.318 45.7096L310.825 45.396L311.753 46.9156C312.067 47.4462 312.38 47.9768 312.67 48.4472L312.163 48.7607Z" fill="#407BFF"/>
<path d="M310.608 49.3998L310.065 49.1466C310.246 48.7486 310.427 48.3868 310.608 48.025C310.788 47.6632 310.825 47.5788 310.921 47.3617L308.967 47.4461V46.8431L311.934 46.7104L311.729 47.1567C311.536 47.5547 311.355 47.9165 311.186 48.2903C311.018 48.6642 310.74 49.0139 310.608 49.3998Z" fill="#407BFF"/>
<path d="M311.416 47.386L311.114 46.8674C311.307 46.7468 311.596 46.59 311.898 46.4332L312.67 46.0232L312.971 46.5418L312.187 46.9639L311.416 47.386Z" fill="#407BFF"/>
<path d="M281.097 32.6365L280.12 31.1652L279.119 29.6697L279.613 29.332C279.939 29.7903 280.277 30.3089 280.614 30.8275L281.603 32.2988L281.097 32.6365Z" fill="#407BFF"/>
<path d="M282.978 31.0928L280.011 31.3702L280.204 30.9119C280.373 30.5019 280.542 30.128 280.699 29.7059L281.193 28.5723L281.748 28.8014L281.254 30.0074C281.157 30.2365 281.061 30.4536 280.964 30.6948L282.918 30.5139L282.978 31.0928Z" fill="#407BFF"/>
<path d="M279.252 32.0937L278.926 31.5872L279.698 31.1289L280.445 30.6707L280.771 31.1772L280.011 31.6475L279.252 32.0937Z" fill="#407BFF"/>
<path d="M303.878 51.5467C305.173 50.3645 306.621 49.3625 308.183 48.5678L307.906 48.0251C306.413 48.7924 305.02 49.7402 303.757 50.8472C303.887 51.0556 303.931 51.3067 303.878 51.5467V51.5467Z" fill="#407BFF"/>
<path d="M303.046 52.2462C302.848 52.2455 302.657 52.1774 302.503 52.0532C300.806 53.8026 299.442 55.8458 298.475 58.0832L299.018 58.3244C300.021 56.072 301.436 54.0269 303.191 52.2944L303.046 52.2462Z" fill="#407BFF"/>
<path d="M281.664 53.5004V53.3557C281.665 53.2082 281.702 53.0633 281.772 52.9336C280.152 53.2312 278.662 54.0183 277.503 55.1888L277.937 55.5989C278.958 54.5725 280.258 53.8681 281.676 53.5728C281.676 53.5728 281.664 53.5366 281.664 53.5004Z" fill="#407BFF"/>
<path d="M284.679 52.9334C284.209 52.8509 283.732 52.8106 283.255 52.8128C283.383 52.9654 283.455 53.1567 283.46 53.3555V53.4158C283.833 53.4221 284.204 53.4584 284.57 53.5244C285.756 53.772 286.865 54.3043 287.799 55.0753C288.734 55.8463 289.468 56.833 289.937 57.9504L290.492 57.7213C289.982 56.5124 289.187 55.4451 288.175 54.6112C287.162 53.7772 285.963 53.2015 284.679 52.9334V52.9334Z" fill="#407BFF"/>
<path d="M377.42 389.299H373.681L368.857 228.491H373.802L377.42 389.299Z" fill="#407BFF"/>
<path opacity="0.3" d="M377.42 389.299H373.681L368.857 228.491H373.802L377.42 389.299Z" fill="white"/>
<path d="M316.999 228.491V389.299H320.967L325.622 235.848H373.488L376.986 389.299H380.917V228.491H316.999Z" fill="#407BFF"/>
<path opacity="0.5" d="M316.999 228.491V389.299H320.967L325.622 235.848H373.488L376.986 389.299H380.917V228.491H316.999Z" fill="white"/>
<path d="M316.999 389.299H313.249L312.043 228.491H316.999V389.299Z" fill="#407BFF"/>
<path opacity="0.3" d="M316.999 389.299H313.249L312.043 228.491H316.999V389.299Z" fill="white"/>
<path d="M137.836 389.299H134.085L129.261 228.491H134.218L137.836 389.299Z" fill="#407BFF"/>
<path opacity="0.5" d="M137.836 389.299H134.085L129.261 228.491H134.218L137.836 389.299Z" fill="white"/>
<path d="M77.4033 228.491V389.299H81.3711L86.0383 235.848H133.892L137.402 389.299H141.321V228.491H77.4033Z" fill="#407BFF"/>
<path opacity="0.3" d="M77.4033 228.491V389.299H81.3711L86.0383 235.848H133.892L137.402 389.299H141.321V228.491H77.4033Z" fill="white"/>
<path d="M77.4033 389.299H73.6527L72.4467 228.491H77.4033V389.299Z" fill="#407BFF"/>
<path opacity="0.5" d="M77.4033 389.299H73.6527L72.4467 228.491H77.4033V389.299Z" fill="white"/>
<path d="M313.912 219.253H65.8981V228.503H313.912V219.253Z" fill="#407BFF"/>
<path opacity="0.6" d="M313.912 219.253H65.8981V228.503H313.912V219.253Z" fill="white"/>
<path d="M387.478 219.253H308.147V228.503H387.478V219.253Z" fill="#407BFF"/>
<path opacity="0.8" d="M387.478 219.253H308.147V228.503H387.478V219.253Z" fill="white"/>
<path d="M205.686 195.41C205.202 192.249 203.793 189.302 201.636 186.941C199.478 184.58 196.67 182.911 193.565 182.144V164.054C194.289 163.881 194.934 163.469 195.396 162.885C195.857 162.301 196.109 161.579 196.11 160.834V160.834C196.11 159.954 195.761 159.109 195.139 158.485C194.518 157.861 193.674 157.509 192.793 157.506H186.763C185.883 157.509 185.039 157.861 184.418 158.485C183.796 159.109 183.447 159.954 183.447 160.834C183.448 161.579 183.7 162.301 184.161 162.885C184.623 163.469 185.268 163.881 185.992 164.054V182.144C182.991 182.872 180.262 184.447 178.132 186.683C176.002 188.918 174.561 191.72 173.98 194.752C173.399 197.785 173.703 200.921 174.855 203.786C176.008 206.65 177.961 209.123 180.48 210.908C181.539 211.655 182.803 212.055 184.098 212.053H195.435C196.729 212.057 197.992 211.661 199.053 210.92C201.488 209.205 203.399 206.846 204.57 204.107C205.742 201.367 206.128 198.356 205.686 195.41V195.41Z" fill="#407BFF"/>
<path d="M205.686 195.41C205.202 192.249 203.793 189.302 201.636 186.941C199.478 184.58 196.67 182.911 193.565 182.144V164.054C194.289 163.881 194.934 163.469 195.396 162.885C195.857 162.301 196.109 161.579 196.11 160.834V160.834C196.11 159.954 195.761 159.109 195.139 158.485C194.518 157.861 193.674 157.509 192.793 157.506H186.763C185.883 157.509 185.039 157.861 184.418 158.485C183.796 159.109 183.447 159.954 183.447 160.834C183.448 161.579 183.7 162.301 184.161 162.885C184.623 163.469 185.268 163.881 185.992 164.054V182.144C182.991 182.872 180.262 184.447 178.132 186.683C176.002 188.918 174.561 191.72 173.98 194.752C173.399 197.785 173.703 200.921 174.855 203.786C176.008 206.65 177.961 209.123 180.48 210.908C181.539 211.655 182.803 212.055 184.098 212.053H195.435C196.729 212.057 197.992 211.661 199.053 210.92C201.488 209.205 203.399 206.846 204.57 204.107C205.742 201.367 206.128 198.356 205.686 195.41V195.41Z" fill="#407BFF"/>
<path opacity="0.7" d="M205.686 195.41C205.202 192.249 203.793 189.302 201.636 186.941C199.478 184.58 196.67 182.911 193.565 182.144V164.054C194.289 163.881 194.934 163.469 195.396 162.885C195.857 162.301 196.109 161.579 196.11 160.834V160.834C196.11 159.954 195.761 159.109 195.139 158.485C194.518 157.861 193.674 157.509 192.793 157.506H186.763C185.883 157.509 185.039 157.861 184.418 158.485C183.796 159.109 183.447 159.954 183.447 160.834C183.448 161.579 183.7 162.301 184.161 162.885C184.623 163.469 185.268 163.881 185.992 164.054V182.144C182.991 182.872 180.262 184.447 178.132 186.683C176.002 188.918 174.561 191.72 173.98 194.752C173.399 197.785 173.703 200.921 174.855 203.786C176.008 206.65 177.961 209.123 180.48 210.908C181.539 211.655 182.803 212.055 184.098 212.053H195.435C196.729 212.057 197.992 211.661 199.053 210.92C201.488 209.205 203.399 206.846 204.57 204.107C205.742 201.367 206.128 198.356 205.686 195.41V195.41Z" fill="white"/>
<path d="M184.665 158.217C187.964 159.343 191.544 159.343 194.844 158.217C194.265 157.744 193.541 157.484 192.793 157.482H186.763C185.999 157.473 185.256 157.733 184.665 158.217Z" fill="#407BFF"/>
<path d="M204.009 195.664C203.719 193.818 203.059 192.05 202.068 190.466C201.899 191.382 196.436 192.118 189.718 192.118C183.001 192.118 177.453 191.37 177.357 190.442C175.49 193.546 174.866 197.242 175.611 200.788C176.356 204.333 178.414 207.466 181.373 209.557C182.16 210.098 183.094 210.389 184.05 210.389H195.398C196.342 210.393 197.264 210.107 198.04 209.569C200.221 208.028 201.933 205.913 202.987 203.459C204.04 201.004 204.394 198.307 204.009 195.664Z" fill="#407BFF"/>
<path d="M202.067 190.418C202.067 191.358 196.532 192.118 189.706 192.118C182.88 192.118 177.344 191.358 177.344 190.418C177.344 189.477 182.88 188.729 189.706 188.729C196.532 188.729 202.067 189.489 202.067 190.418Z" fill="#407BFF"/>
<path opacity="0.2" d="M202.067 190.418C202.067 191.358 196.532 192.118 189.706 192.118C182.88 192.118 177.344 191.358 177.344 190.418C177.344 189.477 182.88 188.729 189.706 188.729C196.532 188.729 202.067 189.489 202.067 190.418Z" fill="black"/>
<path opacity="0.5" d="M176.91 198.184C176.91 198.184 179.769 209.038 184.315 208.327C188.862 207.615 181.071 204.046 176.91 198.184Z" fill="white"/>
<path d="M209.629 218.3L204.275 205.36H206.18C206.471 205.36 206.75 205.244 206.956 205.038C207.162 204.833 207.277 204.553 207.277 204.262V203.852C207.277 203.561 207.162 203.282 206.956 203.076C206.75 202.871 206.471 202.755 206.18 202.755H173.401C173.11 202.755 172.831 202.871 172.625 203.076C172.419 203.282 172.303 203.561 172.303 203.852V204.262C172.303 204.553 172.419 204.833 172.625 205.038C172.831 205.244 173.11 205.36 173.401 205.36H175.331L169.952 218.324C169.735 218.867 170.157 219.084 170.687 219.313C171.218 219.542 171.688 219.675 171.893 219.132L177.598 205.36H188.802V218.927C188.802 219.506 189.272 219.554 189.851 219.554C190.43 219.554 190.912 219.554 190.912 218.927V205.36H202.043L207.736 219.108C207.965 219.651 208.411 219.506 208.942 219.289C209.472 219.072 209.858 218.843 209.629 218.3Z" fill="#263238"/>
<path opacity="0.4" d="M209.545 218.3L204.19 205.36H206.108C206.399 205.36 206.678 205.244 206.884 205.038C207.089 204.833 207.205 204.554 207.205 204.262V203.852C207.205 203.561 207.089 203.282 206.884 203.076C206.678 202.871 206.399 202.755 206.108 202.755H173.329C173.184 202.753 173.041 202.781 172.907 202.835C172.773 202.89 172.651 202.971 172.549 203.073C172.447 203.175 172.366 203.297 172.311 203.431C172.257 203.564 172.229 203.708 172.231 203.852V204.262C172.229 204.407 172.257 204.55 172.311 204.684C172.366 204.818 172.447 204.94 172.549 205.042C172.651 205.144 172.773 205.225 172.907 205.28C173.041 205.334 173.184 205.362 173.329 205.36H175.246L169.879 218.324C169.65 218.867 170.072 219.084 170.615 219.313C171.158 219.542 171.604 219.675 171.821 219.132L177.525 205.36H188.645V218.927C188.645 219.506 189.115 219.555 189.706 219.555C190.297 219.555 190.755 219.555 190.755 218.927V205.36H201.887L207.591 219.108C207.808 219.651 208.266 219.506 208.797 219.289C209.328 219.072 209.774 218.843 209.545 218.3Z" fill="white"/>
<path d="M227.394 173.099H223.498C223.218 173.099 222.941 173.155 222.683 173.262C222.425 173.369 222.19 173.527 221.993 173.725C221.796 173.924 221.64 174.159 221.534 174.418C221.428 174.677 221.374 174.954 221.376 175.234V175.234C221.377 175.622 221.485 176.002 221.687 176.334C221.889 176.665 222.177 176.936 222.521 177.115V211.366C222.521 212.005 222.775 212.619 223.228 213.071C223.68 213.524 224.294 213.778 224.933 213.778H225.886C226.526 213.778 227.139 213.524 227.592 213.071C228.044 212.619 228.298 212.005 228.298 211.366V177.115C228.642 176.936 228.93 176.665 229.132 176.334C229.334 176.002 229.442 175.622 229.444 175.234V175.234C229.447 174.681 229.235 174.149 228.852 173.75C228.469 173.352 227.946 173.118 227.394 173.099V173.099Z" fill="#407BFF"/>
<path opacity="0.6" d="M227.394 173.099H223.498C223.218 173.099 222.941 173.155 222.683 173.262C222.425 173.369 222.19 173.527 221.993 173.725C221.796 173.924 221.64 174.159 221.534 174.418C221.428 174.677 221.374 174.954 221.376 175.234V175.234C221.377 175.622 221.485 176.002 221.687 176.334C221.889 176.665 222.177 176.936 222.521 177.115V211.366C222.521 212.005 222.775 212.619 223.228 213.071C223.68 213.524 224.294 213.778 224.933 213.778H225.886C226.526 213.778 227.139 213.524 227.592 213.071C228.044 212.619 228.298 212.005 228.298 211.366V177.115C228.642 176.936 228.93 176.665 229.132 176.334C229.334 176.002 229.442 175.622 229.444 175.234V175.234C229.447 174.681 229.235 174.149 228.852 173.75C228.469 173.352 227.946 173.118 227.394 173.099V173.099Z" fill="white"/>
<path d="M222.22 173.546C224.326 174.269 226.614 174.269 228.72 173.546C228.343 173.248 227.874 173.09 227.394 173.1H223.498C223.034 173.101 222.584 173.258 222.22 173.546V173.546Z" fill="#407BFF"/>
<path d="M225.464 200.946C224.463 200.946 223.655 200.681 223.631 200.367V211.366C223.634 211.725 223.779 212.069 224.034 212.322C224.289 212.575 224.634 212.717 224.994 212.717H225.946C226.306 212.717 226.651 212.575 226.906 212.322C227.161 212.069 227.306 211.725 227.309 211.366V200.367C227.285 200.681 226.477 200.946 225.464 200.946Z" fill="#407BFF"/>
<path d="M227.309 200.355C227.309 200.681 226.489 200.946 225.464 200.946C224.439 200.946 223.631 200.681 223.631 200.355C223.631 200.029 224.451 199.764 225.464 199.764C226.477 199.764 227.309 200.029 227.309 200.355Z" fill="#407BFF"/>
<path opacity="0.3" d="M227.309 200.355C227.309 200.681 226.489 200.946 225.464 200.946C224.439 200.946 223.631 200.681 223.631 200.355C223.631 200.029 224.451 199.764 225.464 199.764C226.477 199.764 227.309 200.029 227.309 200.355Z" fill="black"/>
<g opacity="0.8">
<path opacity="0.8" d="M223.607 177.357V211.366C223.607 211.51 223.664 211.648 223.766 211.75C223.867 211.851 224.005 211.909 224.149 211.909C224.293 211.909 224.431 211.851 224.533 211.75C224.635 211.648 224.692 211.51 224.692 211.366V177.357C224.692 177.213 224.635 177.075 224.533 176.973C224.431 176.871 224.293 176.814 224.149 176.814C224.005 176.814 223.867 176.871 223.766 176.973C223.664 177.075 223.607 177.213 223.607 177.357V177.357Z" fill="white"/>
</g>
<path d="M242.444 173.099H238.549C238.269 173.099 237.992 173.155 237.734 173.262C237.476 173.369 237.241 173.527 237.044 173.725C236.847 173.924 236.691 174.159 236.585 174.418C236.479 174.677 236.425 174.954 236.427 175.234V175.234C236.428 175.622 236.536 176.002 236.738 176.334C236.94 176.665 237.228 176.936 237.572 177.115V211.366C237.572 212.005 237.826 212.619 238.279 213.071C238.731 213.524 239.345 213.778 239.984 213.778H240.937C241.577 213.778 242.19 213.524 242.643 213.071C243.095 212.619 243.349 212.005 243.349 211.366V177.115C243.704 176.944 244.005 176.677 244.218 176.345C244.431 176.013 244.547 175.628 244.555 175.234V175.234C244.557 174.955 244.503 174.679 244.398 174.421C244.293 174.163 244.138 173.928 243.942 173.73C243.746 173.531 243.513 173.374 243.256 173.266C242.999 173.157 242.723 173.101 242.444 173.099V173.099Z" fill="#407BFF"/>
<path opacity="0.6" d="M242.444 173.099H238.549C238.269 173.099 237.992 173.155 237.734 173.262C237.476 173.369 237.241 173.527 237.044 173.725C236.847 173.924 236.691 174.159 236.585 174.418C236.479 174.677 236.425 174.954 236.427 175.234V175.234C236.428 175.622 236.536 176.002 236.738 176.334C236.94 176.665 237.228 176.936 237.572 177.115V211.366C237.572 212.005 237.826 212.619 238.279 213.071C238.731 213.524 239.345 213.778 239.984 213.778H240.937C241.577 213.778 242.19 213.524 242.643 213.071C243.095 212.619 243.349 212.005 243.349 211.366V177.115C243.704 176.944 244.005 176.677 244.218 176.345C244.431 176.013 244.547 175.628 244.555 175.234V175.234C244.557 174.955 244.503 174.679 244.398 174.421C244.293 174.163 244.138 173.928 243.942 173.73C243.746 173.531 243.513 173.374 243.256 173.266C242.999 173.157 242.723 173.101 242.444 173.099V173.099Z" fill="white"/>
<path d="M237.247 173.546C238.272 173.989 239.389 174.175 240.503 174.088C241.616 174.172 242.733 173.986 243.759 173.546C243.387 173.244 242.923 173.078 242.444 173.075H238.549C238.074 173.078 237.614 173.244 237.247 173.546V173.546Z" fill="#407BFF"/>
<path d="M240.503 193.191C239.49 193.191 238.682 192.938 238.658 192.613V211.366C238.661 211.725 238.806 212.069 239.061 212.322C239.316 212.575 239.661 212.717 240.02 212.717H240.973C241.332 212.717 241.677 212.575 241.932 212.322C242.188 212.069 242.333 211.725 242.336 211.366V192.613C242.312 192.938 241.504 193.191 240.503 193.191Z" fill="#407BFF"/>
<path d="M242.348 192.6C242.348 192.926 241.516 193.191 240.503 193.191C239.49 193.191 238.658 192.926 238.658 192.6C238.658 192.275 239.478 192.01 240.503 192.01C241.528 192.01 242.348 192.275 242.348 192.6Z" fill="#407BFF"/>
<path opacity="0.3" d="M242.348 192.6C242.348 192.926 241.516 193.191 240.503 193.191C239.49 193.191 238.658 192.926 238.658 192.6C238.658 192.275 239.478 192.01 240.503 192.01C241.528 192.01 242.348 192.275 242.348 192.6Z" fill="black"/>
<g opacity="0.8">
<path opacity="0.8" d="M238.633 177.357V211.366C238.633 211.51 238.691 211.648 238.792 211.75C238.894 211.851 239.032 211.909 239.176 211.909C239.32 211.909 239.458 211.851 239.56 211.75C239.662 211.648 239.719 211.51 239.719 211.366V177.357C239.719 177.213 239.662 177.075 239.56 176.973C239.458 176.871 239.32 176.814 239.176 176.814C239.032 176.814 238.894 176.871 238.792 176.973C238.691 177.075 238.633 177.213 238.633 177.357V177.357Z" fill="white"/>
</g>
<path d="M257.471 173.099H253.576C253.296 173.099 253.019 173.155 252.761 173.262C252.502 173.369 252.268 173.527 252.071 173.725C251.873 173.924 251.717 174.159 251.611 174.418C251.505 174.677 251.452 174.954 251.453 175.234C251.461 175.628 251.578 176.013 251.79 176.345C252.003 176.677 252.304 176.944 252.659 177.115V211.366C252.659 212.005 252.913 212.619 253.366 213.071C253.818 213.524 254.432 213.778 255.071 213.778H256.036C256.676 213.778 257.289 213.524 257.742 213.071C258.194 212.619 258.448 212.005 258.448 211.366V177.115C258.792 176.936 259.08 176.665 259.282 176.334C259.484 176.002 259.592 175.622 259.594 175.234V175.234C259.595 174.954 259.542 174.677 259.436 174.418C259.33 174.159 259.174 173.924 258.976 173.725C258.779 173.527 258.545 173.369 258.286 173.262C258.028 173.155 257.751 173.099 257.471 173.099Z" fill="#407BFF"/>
<path opacity="0.6" d="M257.471 173.099H253.576C253.296 173.099 253.019 173.155 252.761 173.262C252.502 173.369 252.268 173.527 252.071 173.725C251.873 173.924 251.717 174.159 251.611 174.418C251.505 174.677 251.452 174.954 251.453 175.234C251.461 175.628 251.578 176.013 251.79 176.345C252.003 176.677 252.304 176.944 252.659 177.115V211.366C252.659 212.005 252.913 212.619 253.366 213.071C253.818 213.524 254.432 213.778 255.071 213.778H256.036C256.676 213.778 257.289 213.524 257.742 213.071C258.194 212.619 258.448 212.005 258.448 211.366V177.115C258.792 176.936 259.08 176.665 259.282 176.334C259.484 176.002 259.592 175.622 259.594 175.234V175.234C259.595 174.954 259.542 174.677 259.436 174.418C259.33 174.159 259.174 173.924 258.976 173.725C258.779 173.527 258.545 173.369 258.286 173.262C258.028 173.155 257.751 173.099 257.471 173.099Z" fill="white"/>
<path d="M252.273 173.546C253.298 173.989 254.416 174.175 255.53 174.088C256.643 174.172 257.76 173.986 258.786 173.546C258.414 173.244 257.95 173.078 257.471 173.075H253.576C253.101 173.078 252.641 173.244 252.273 173.546V173.546Z" fill="#407BFF"/>
<path d="M255.529 186.546C254.516 186.546 253.708 186.293 253.684 185.968V211.366C253.688 211.725 253.832 212.069 254.088 212.322C254.343 212.575 254.688 212.717 255.047 212.717H256.012C256.37 212.717 256.714 212.574 256.967 212.321C257.22 212.068 257.363 211.724 257.363 211.366V185.968C257.338 186.293 256.53 186.546 255.529 186.546Z" fill="#407BFF"/>
<path d="M257.375 185.955C257.375 186.281 256.543 186.546 255.529 186.546C254.516 186.546 253.684 186.281 253.684 185.955C253.684 185.63 254.504 185.365 255.529 185.365C256.555 185.365 257.375 185.63 257.375 185.955Z" fill="#407BFF"/>
<path opacity="0.3" d="M257.375 185.955C257.375 186.281 256.543 186.546 255.529 186.546C254.516 186.546 253.684 186.281 253.684 185.955C253.684 185.63 254.504 185.365 255.529 185.365C256.555 185.365 257.375 185.63 257.375 185.955Z" fill="black"/>
<g opacity="0.8">
<path opacity="0.8" d="M253.66 177.357V211.366C253.66 211.51 253.717 211.648 253.819 211.75C253.921 211.851 254.059 211.909 254.203 211.909C254.347 211.909 254.485 211.851 254.587 211.75C254.689 211.648 254.746 211.51 254.746 211.366V177.357C254.746 177.213 254.689 177.075 254.587 176.973C254.485 176.871 254.347 176.814 254.203 176.814C254.059 176.814 253.921 176.871 253.819 176.973C253.717 177.075 253.66 177.213 253.66 177.357V177.357Z" fill="white"/>
</g>
<path d="M272.498 173.099H268.615C268.048 173.099 267.505 173.324 267.105 173.725C266.705 174.125 266.48 174.668 266.48 175.234V175.234C266.486 175.629 266.602 176.014 266.815 176.346C267.028 176.679 267.33 176.945 267.686 177.115V211.366C267.686 212.006 267.94 212.619 268.392 213.071C268.845 213.524 269.458 213.778 270.098 213.778H271.063C271.702 213.778 272.316 213.524 272.768 213.071C273.221 212.619 273.475 212.006 273.475 211.366V177.115C273.832 176.946 274.134 176.68 274.347 176.348C274.56 176.015 274.676 175.629 274.681 175.234V175.234C274.683 174.949 274.627 174.667 274.517 174.404C274.407 174.141 274.246 173.903 274.042 173.704C273.839 173.504 273.597 173.348 273.332 173.244C273.066 173.141 272.783 173.091 272.498 173.099Z" fill="#407BFF"/>
<path opacity="0.6" d="M272.498 173.099H268.615C268.048 173.099 267.505 173.324 267.105 173.725C266.705 174.125 266.48 174.668 266.48 175.234V175.234C266.486 175.629 266.602 176.014 266.815 176.346C267.028 176.679 267.33 176.945 267.686 177.115V211.366C267.686 212.006 267.94 212.619 268.392 213.071C268.845 213.524 269.458 213.778 270.098 213.778H271.063C271.702 213.778 272.316 213.524 272.768 213.071C273.221 212.619 273.475 212.006 273.475 211.366V177.115C273.832 176.946 274.134 176.68 274.347 176.348C274.56 176.015 274.676 175.629 274.681 175.234V175.234C274.683 174.949 274.627 174.667 274.517 174.404C274.407 174.141 274.246 173.903 274.042 173.704C273.839 173.504 273.597 173.348 273.332 173.244C273.066 173.141 272.783 173.091 272.498 173.099Z" fill="white"/>
<path d="M267.3 173.546C268.325 173.989 269.443 174.175 270.556 174.088C271.67 174.172 272.787 173.986 273.812 173.546C273.44 173.244 272.977 173.078 272.498 173.075H268.615C268.135 173.076 267.671 173.242 267.3 173.546Z" fill="#407BFF"/>
<path d="M270.556 193.191C269.543 193.191 268.735 192.938 268.723 192.613V211.366C268.723 211.724 268.865 212.068 269.119 212.321C269.372 212.574 269.716 212.717 270.074 212.717H271.039C271.216 212.717 271.392 212.682 271.556 212.614C271.719 212.546 271.868 212.446 271.994 212.321C272.119 212.196 272.219 212.047 272.287 211.883C272.354 211.719 272.389 211.543 272.389 211.366V192.613C272.377 192.938 271.557 193.191 270.556 193.191Z" fill="#407BFF"/>
<path d="M272.401 192.6C272.401 192.926 271.569 193.191 270.556 193.191C269.543 193.191 268.711 192.926 268.711 192.6C268.711 192.275 269.531 192.01 270.556 192.01C271.581 192.01 272.401 192.275 272.401 192.6Z" fill="#407BFF"/>
<path opacity="0.3" d="M272.401 192.6C272.401 192.926 271.569 193.191 270.556 193.191C269.543 193.191 268.711 192.926 268.711 192.6C268.711 192.275 269.531 192.01 270.556 192.01C271.581 192.01 272.401 192.275 272.401 192.6Z" fill="black"/>
<g opacity="0.8">
<path opacity="0.8" d="M268.687 177.357V211.366C268.687 211.51 268.744 211.648 268.846 211.75C268.948 211.851 269.086 211.909 269.23 211.909C269.374 211.909 269.512 211.851 269.614 211.75C269.715 211.648 269.772 211.51 269.772 211.366V177.357C269.772 177.213 269.715 177.075 269.614 176.973C269.512 176.871 269.374 176.814 269.23 176.814C269.086 176.814 268.948 176.871 268.846 176.973C268.744 177.075 268.687 177.213 268.687 177.357V177.357Z" fill="white"/>
</g>
<path d="M282.182 182.217C282.502 182.217 282.809 182.09 283.035 181.864C283.261 181.637 283.388 181.331 283.388 181.011V179.805C283.388 179.485 283.261 179.178 283.035 178.952C282.809 178.726 282.502 178.599 282.182 178.599H214.646C214.326 178.599 214.02 178.726 213.793 178.952C213.567 179.178 213.44 179.485 213.44 179.805V181.011C213.44 181.331 213.567 181.637 213.793 181.864C214.02 182.09 214.326 182.217 214.646 182.217H216.54V215.985H214.634C214.314 215.985 214.007 216.112 213.781 216.338C213.555 216.564 213.428 216.871 213.428 217.191V218.397C213.428 218.717 213.555 219.024 213.781 219.25C214.007 219.476 214.314 219.603 214.634 219.603H282.17C282.49 219.603 282.797 219.476 283.023 219.25C283.249 219.024 283.376 218.717 283.376 218.397V217.191C283.376 216.871 283.249 216.564 283.023 216.338C282.797 216.112 282.49 215.985 282.17 215.985H280.265V182.217H282.182ZM277.213 215.985H219.567V182.217H277.213V215.985Z" fill="#263238"/>
<path opacity="0.4" d="M282.182 182.217C282.502 182.217 282.809 182.09 283.035 181.864C283.261 181.637 283.388 181.331 283.388 181.011V179.805C283.388 179.485 283.261 179.178 283.035 178.952C282.809 178.726 282.502 178.599 282.182 178.599H214.646C214.326 178.599 214.02 178.726 213.793 178.952C213.567 179.178 213.44 179.485 213.44 179.805V181.011C213.44 181.331 213.567 181.637 213.793 181.864C214.02 182.09 214.326 182.217 214.646 182.217H216.54V215.985H214.634C214.314 215.985 214.007 216.112 213.781 216.338C213.555 216.564 213.428 216.871 213.428 217.191V218.397C213.428 218.717 213.555 219.024 213.781 219.25C214.007 219.476 214.314 219.603 214.634 219.603H282.17C282.49 219.603 282.797 219.476 283.023 219.25C283.249 219.024 283.376 218.717 283.376 218.397V217.191C283.376 216.871 283.249 216.564 283.023 216.338C282.797 216.112 282.49 215.985 282.17 215.985H280.265V182.217H282.182ZM277.213 215.985H219.567V182.217H277.213V215.985Z" fill="white"/>
<path d="M326.921 134.461L328.772 135.397C329.306 135.667 329.711 136.138 329.897 136.706C330.084 137.274 330.037 137.893 329.767 138.427L320.033 157.681L314.156 154.71L323.891 135.456C324.161 134.922 324.631 134.517 325.2 134.331C325.768 134.144 326.387 134.191 326.921 134.461V134.461Z" fill="#263238"/>
<path opacity="0.3" d="M326.921 134.461L328.772 135.397C329.306 135.667 329.711 136.138 329.897 136.706C330.084 137.274 330.037 137.893 329.767 138.427L320.033 157.681L314.156 154.71L323.891 135.456C324.161 134.922 324.631 134.517 325.2 134.331C325.768 134.144 326.387 134.191 326.921 134.461V134.461Z" fill="white"/>
<path d="M325.61 159.845H319.484V219.506H325.61V159.845Z" fill="#407BFF"/>
<path d="M309.172 159.845H303.046V166.575H309.172V159.845Z" fill="#407BFF"/>
<path opacity="0.2" d="M325.61 159.845H319.484V219.506H325.61V159.845Z" fill="black"/>
<path opacity="0.2" d="M309.172 159.845H303.046V166.575H309.172V159.845Z" fill="black"/>
<path d="M311.319 149.992H306.423V159.845H311.319V149.992Z" fill="#407BFF"/>
<path opacity="0.1" d="M311.319 149.992H306.423V159.845H311.319V149.992Z" fill="black"/>
<path d="M333.256 159.834H311.319V149.98L330.784 154.153C331.473 154.317 332.086 154.708 332.524 155.264C332.962 155.821 333.199 156.509 333.196 157.216L333.256 159.834Z" fill="#407BFF"/>
<path opacity="0.2" d="M333.256 159.834H311.319V149.98L330.784 154.153C331.473 154.317 332.086 154.708 332.524 155.264C332.962 155.821 333.199 156.509 333.196 157.216L333.256 159.834Z" fill="white"/>
<path d="M310.149 170.494L303.167 167.226C303.092 167.197 303.03 167.141 302.992 167.07C302.954 166.999 302.943 166.917 302.961 166.839C302.978 166.76 303.023 166.69 303.087 166.642C303.152 166.594 303.231 166.57 303.311 166.575H319.315C319.395 166.57 319.475 166.594 319.539 166.642C319.603 166.69 319.648 166.76 319.666 166.839C319.683 166.917 319.672 166.999 319.634 167.07C319.596 167.141 319.534 167.197 319.46 167.226L312.489 170.494C312.123 170.667 311.724 170.757 311.319 170.757C310.915 170.757 310.515 170.667 310.149 170.494Z" fill="#263238"/>
<path d="M308.183 171.821V175.909C308.183 177.335 309.339 178.49 310.764 178.49H311.862C313.287 178.49 314.443 177.335 314.443 175.909V171.821C314.443 170.396 313.287 169.24 311.862 169.24H310.764C309.339 169.24 308.183 170.396 308.183 171.821Z" fill="#263238"/>
<path opacity="0.6" d="M308.183 171.821V175.909C308.183 177.335 309.339 178.49 310.764 178.49H311.862C313.287 178.49 314.443 177.335 314.443 175.909V171.821C314.443 170.396 313.287 169.24 311.862 169.24H310.764C309.339 169.24 308.183 170.396 308.183 171.821Z" fill="white"/>
<path d="M302.627 169.443L301.063 173.221C300.517 174.537 301.143 176.047 302.459 176.593L303.473 177.013C304.79 177.558 306.3 176.933 306.845 175.616L308.41 171.839C308.955 170.522 308.33 169.012 307.013 168.467L305.999 168.047C304.682 167.501 303.173 168.127 302.627 169.443Z" fill="#263238"/>
<path d="M314.207 171.845L315.772 175.622C316.317 176.939 317.827 177.564 319.144 177.019L320.157 176.599C321.474 176.053 322.1 174.544 321.554 173.227L319.99 169.45C319.444 168.133 317.935 167.507 316.618 168.053L315.604 168.473C314.287 169.018 313.662 170.528 314.207 171.845Z" fill="#263238"/>
<g opacity="0.3">
<path opacity="0.3" d="M302.627 169.443L301.063 173.221C300.517 174.537 301.143 176.047 302.459 176.593L303.473 177.013C304.79 177.558 306.3 176.933 306.845 175.616L308.41 171.839C308.955 170.522 308.33 169.012 307.013 168.467L305.999 168.047C304.682 167.501 303.173 168.127 302.627 169.443Z" fill="white"/>
<path opacity="0.3" d="M314.207 171.845L315.772 175.622C316.317 176.939 317.827 177.564 319.144 177.019L320.157 176.599C321.474 176.053 322.1 174.544 321.554 173.227L319.99 169.45C319.444 168.133 317.935 167.507 316.618 168.053L315.604 168.473C314.287 169.018 313.662 170.528 314.207 171.845Z" fill="white"/>
</g>
<path d="M325.61 219.506H346.329C346.752 219.505 347.169 219.41 347.55 219.226C347.931 219.043 348.266 218.777 348.531 218.447C348.796 218.118 348.984 217.733 349.08 217.322C349.177 216.91 349.181 216.482 349.091 216.069L337.031 162.137C336.888 161.486 336.526 160.904 336.006 160.487C335.486 160.07 334.839 159.844 334.173 159.845H309.172V166.575H325.61V219.506Z" fill="#407BFF"/>
<path opacity="0.3" d="M325.61 219.506H346.329C346.752 219.505 347.169 219.41 347.55 219.226C347.931 219.043 348.266 218.777 348.531 218.447C348.796 218.118 348.984 217.733 349.08 217.322C349.177 216.91 349.181 216.482 349.091 216.069L337.031 162.137C336.888 161.486 336.526 160.904 336.006 160.487C335.486 160.07 334.839 159.844 334.173 159.845H309.172V166.575H325.61V219.506Z" fill="white"/>
<path d="M314.648 190.623H289.804V195.459H314.648V190.623Z" fill="#263238"/>
<path d="M339.479 190.623H314.636V195.459H339.479V190.623Z" fill="#263238"/>
<path opacity="0.7" d="M314.648 190.623H289.804V195.459H314.648V190.623Z" fill="white"/>
<path opacity="0.3" d="M339.479 190.623H314.636V195.459H339.479V190.623Z" fill="white"/>
<path d="M253.359 89.1376C253.555 88.4224 253.657 87.6844 253.66 86.9427C253.66 80.5388 246.195 75.341 236.969 75.341C232.548 75.2502 228.216 76.5912 224.62 79.164C222.966 78.8818 221.292 78.7406 219.615 78.7419C206.735 78.7419 196.303 86.7739 196.303 96.6992C196.303 103.465 201.127 109.35 208.363 112.377C209.086 120.072 218.24 126.162 229.444 126.162C237.572 126.162 244.615 122.954 248.161 118.263C248.438 118.263 248.704 118.263 248.981 118.263C260.667 118.263 270.134 111.654 270.134 103.501C270.11 96.4701 262.922 90.5487 253.359 89.1376Z" fill="#407BFF"/>
<path opacity="0.8" d="M253.359 89.1376C253.555 88.4224 253.657 87.6844 253.66 86.9427C253.66 80.5388 246.195 75.341 236.969 75.341C232.548 75.2502 228.216 76.5912 224.62 79.164C222.966 78.8818 221.292 78.7406 219.615 78.7419C206.735 78.7419 196.303 86.7739 196.303 96.6992C196.303 103.465 201.127 109.35 208.363 112.377C209.086 120.072 218.24 126.162 229.444 126.162C237.572 126.162 244.615 122.954 248.161 118.263C248.438 118.263 248.704 118.263 248.981 118.263C260.667 118.263 270.134 111.654 270.134 103.501C270.11 96.4701 262.922 90.5487 253.359 89.1376Z" fill="white"/>
<path d="M211.064 89.7406C211.354 87.3286 211.824 87.3286 212.113 89.7406C212.135 90.2611 212.288 90.7677 212.558 91.2132C212.828 91.6587 213.206 92.0287 213.657 92.2887C214.109 92.5487 214.618 92.6903 215.139 92.7003C215.66 92.7102 216.175 92.5882 216.636 92.3456C218.843 91.417 219.048 91.8149 217.167 93.2501C216.726 93.5298 216.363 93.9164 216.111 94.3739C215.86 94.8314 215.728 95.345 215.728 95.8671C215.728 96.3892 215.86 96.9028 216.111 97.3603C216.363 97.8179 216.726 98.2044 217.167 98.4841C219.072 99.9193 218.843 100.317 216.636 99.3886C216.175 99.1461 215.66 99.024 215.139 99.034C214.618 99.0439 214.109 99.1855 213.657 99.4455C213.206 99.7055 212.828 100.075 212.558 100.521C212.288 100.967 212.135 101.473 212.113 101.994C211.824 104.406 211.354 104.406 211.064 101.994C211.043 101.473 210.89 100.967 210.62 100.521C210.35 100.075 209.972 99.7055 209.521 99.4455C209.069 99.1855 208.559 99.0439 208.038 99.034C207.518 99.024 207.003 99.1461 206.542 99.3886C204.347 100.317 204.13 99.9193 206.023 98.4841C206.464 98.2044 206.827 97.8179 207.079 97.3603C207.33 96.9028 207.462 96.3892 207.462 95.8671C207.462 95.345 207.33 94.8314 207.079 94.3739C206.827 93.9164 206.464 93.5298 206.023 93.2501C204.106 91.8149 204.347 91.417 206.542 92.3456C207.003 92.5882 207.518 92.7102 208.038 92.7003C208.559 92.6903 209.069 92.5487 209.521 92.2887C209.972 92.0287 210.35 91.6587 210.62 91.2132C210.89 90.7677 211.043 90.2611 211.064 89.7406Z" fill="white"/>
<path d="M247.353 80.949L248.945 94.1667L261.198 88.9448L250.549 96.9405L261.198 104.924L248.945 99.7023L247.353 112.92L245.749 99.7023L233.508 104.924L244.157 96.9405L233.508 88.9448L245.749 94.1667L247.353 80.949Z" fill="white"/>
<path d="M222.352 51.5345C222.481 51.0297 222.549 50.5117 222.557 49.9909C222.557 44.0694 214.634 39.2695 204.853 39.2695C195.29 39.2695 187.511 43.8523 187.173 49.5929C180.13 51.0763 175.029 55.5143 175.029 60.7484C175.029 67.2005 182.784 72.4345 192.359 72.4345C195.756 72.4657 199.119 71.7536 202.212 70.3481C205.294 71.7481 208.644 72.46 212.029 72.4345C221.52 72.4345 229.214 67.2246 229.214 60.8087C229.214 57.0218 226.513 53.7053 222.352 51.5345Z" fill="#407BFF"/>
<path opacity="0.6" d="M222.352 51.5345C222.481 51.0297 222.549 50.5117 222.557 49.9909C222.557 44.0694 214.634 39.2695 204.853 39.2695C195.29 39.2695 187.511 43.8523 187.173 49.5929C180.13 51.0763 175.029 55.5143 175.029 60.7484C175.029 67.2005 182.784 72.4345 192.359 72.4345C195.756 72.4657 199.119 71.7536 202.212 70.3481C205.294 71.7481 208.644 72.46 212.029 72.4345C221.52 72.4345 229.214 67.2246 229.214 60.8087C229.214 57.0218 226.513 53.7053 222.352 51.5345Z" fill="white"/>
<path d="M207.314 44.3469L208.375 53.1387L216.515 49.6654L209.436 54.9718L216.515 60.2782L208.375 56.8049L207.314 65.5966L206.252 56.8049L198.112 60.2782L205.191 54.9718L198.112 49.6654L206.252 53.1387L207.314 44.3469Z" fill="white"/>
<path d="M234.63 12.0018C234.159 6.45424 226.188 2.04028 216.407 2.04028C206.313 2.04028 198.136 6.73161 198.136 12.5084C198.136 17.3324 203.78 21.3604 211.402 22.5905C211.402 22.7232 211.402 22.8558 211.402 22.9885C211.402 29.5974 218.843 34.9641 228.021 34.9641C237.198 34.9641 244.627 29.5974 244.627 22.9885C244.663 18.068 240.527 13.835 234.63 12.0018Z" fill="#407BFF"/>
<path opacity="0.7" d="M234.63 12.0018C234.159 6.45424 226.188 2.04028 216.407 2.04028C206.313 2.04028 198.136 6.73161 198.136 12.5084C198.136 17.3324 203.78 21.3604 211.402 22.5905C211.402 22.7232 211.402 22.8558 211.402 22.9885C211.402 29.5974 218.843 34.9641 228.021 34.9641C237.198 34.9641 244.627 29.5974 244.627 22.9885C244.663 18.068 240.527 13.835 234.63 12.0018Z" fill="white"/>
<path d="M231.144 13.835C231.422 11.5075 231.88 11.5075 232.169 13.835C232.189 14.3455 232.337 14.8427 232.6 15.2805C232.863 15.7182 233.233 16.0822 233.675 16.3386C234.116 16.595 234.616 16.7354 235.127 16.7468C235.637 16.7582 236.142 16.6402 236.595 16.4038C238.754 15.4752 239.007 15.8732 237.114 17.2842C236.68 17.5567 236.323 17.9348 236.075 18.383C235.828 18.8312 235.698 19.3349 235.698 19.8469C235.698 20.359 235.828 20.8627 236.075 21.3109C236.323 21.7591 236.68 22.1372 237.114 22.4097C238.983 23.8207 238.754 24.2187 236.595 23.2901C236.142 23.0536 235.637 22.9356 235.127 22.947C234.616 22.9584 234.116 23.0989 233.675 23.3553C233.233 23.6117 232.863 23.9757 232.6 24.4134C232.337 24.8512 232.189 25.3484 232.169 25.8589C231.88 28.1864 231.422 28.1864 231.144 25.8589C231.123 25.3481 230.973 24.8509 230.708 24.4135C230.443 23.9761 230.073 23.6125 229.63 23.3564C229.188 23.1003 228.688 22.9599 228.177 22.9483C227.665 22.9367 227.16 23.0543 226.706 23.2901C224.547 24.2187 224.294 23.8207 226.2 22.4097C226.63 22.1351 226.985 21.7563 227.231 21.3084C227.476 20.8605 227.605 20.3578 227.605 19.8469C227.605 19.3361 227.476 18.8334 227.231 18.3855C226.985 17.9376 226.63 17.5588 226.2 17.2842C224.318 15.8732 224.547 15.4752 226.706 16.4038C227.16 16.6396 227.665 16.7571 228.177 16.7456C228.688 16.734 229.188 16.5936 229.63 16.3375C230.073 16.0814 230.443 15.7178 230.708 15.2804C230.973 14.843 231.123 14.3458 231.144 13.835V13.835Z" fill="white"/>
<path d="M261.632 53.4039C262.126 51.5467 258.014 49.6171 254.215 48.3508C254.999 44.4433 255.421 39.9088 253.54 39.4023C251.658 38.8957 249.765 43.0203 248.486 46.8071C244.579 46.0232 240.044 45.6011 239.55 47.4945C239.056 49.3879 243.168 51.2693 246.955 52.5477C246.171 56.443 245.749 60.9897 247.63 61.4841C249.512 61.9786 251.417 57.8661 252.683 54.0793C256.591 54.9114 261.162 55.2491 261.632 53.4039ZM253.19 40.5721C253.672 40.8133 253.901 43.5509 253.033 47.9769C252.442 47.784 251.827 47.6272 251.345 47.4825L249.632 47.0604C251.128 42.8514 252.72 40.548 253.226 40.5721H253.19ZM252.346 50.9196C252.177 51.5346 252.008 52.1256 251.839 52.6683C251.276 52.5477 250.685 52.4029 250.066 52.2341C249.463 52.0773 248.86 51.9085 248.318 51.7276C248.45 51.1608 248.595 50.5216 248.752 49.9668C248.909 49.4121 249.089 48.7608 249.258 48.2181C249.837 48.3387 250.464 48.4834 251.031 48.6523C251.598 48.8211 252.237 48.99 252.78 49.1588C252.72 49.7256 252.551 50.3166 252.382 50.9196H252.346ZM240.66 47.8081C240.913 47.3257 243.65 47.0965 248.064 47.9649C247.883 48.5558 247.715 49.1709 247.582 49.6533C247.449 50.1357 247.293 50.7507 247.16 51.3537C242.939 49.9065 240.66 48.3387 240.66 47.8081ZM247.896 60.3143C247.413 60.0731 247.184 57.3355 248.052 52.9215C248.643 53.1024 249.258 53.2592 249.741 53.4039C250.223 53.5486 250.838 53.6934 251.441 53.826C250.042 58.0832 248.474 60.3505 247.956 60.3143H247.896ZM252.997 52.9215C253.178 52.3306 253.347 51.7155 253.491 51.2331C253.636 50.7507 253.769 50.1357 253.913 49.5327C258.171 50.9919 260.426 52.5597 260.402 53.0783C260.221 53.5607 257.544 53.7898 253.057 52.9215H252.997Z" fill="#407BFF"/>
<path opacity="0.5" d="M261.632 53.4039C262.126 51.5467 258.014 49.6171 254.215 48.3508C254.999 44.4433 255.421 39.9088 253.54 39.4023C251.658 38.8957 249.765 43.0203 248.486 46.8071C244.579 46.0232 240.044 45.6011 239.55 47.4945C239.056 49.3879 243.168 51.2693 246.955 52.5477C246.171 56.443 245.749 60.9897 247.63 61.4841C249.512 61.9786 251.417 57.8661 252.683 54.0793C256.591 54.9114 261.162 55.2491 261.632 53.4039ZM253.19 40.5721C253.672 40.8133 253.901 43.5509 253.033 47.9769C252.442 47.784 251.827 47.6272 251.345 47.4825L249.632 47.0604C251.128 42.8514 252.72 40.548 253.226 40.5721H253.19ZM252.346 50.9196C252.177 51.5346 252.008 52.1256 251.839 52.6683C251.276 52.5477 250.685 52.4029 250.066 52.2341C249.463 52.0773 248.86 51.9085 248.318 51.7276C248.45 51.1608 248.595 50.5216 248.752 49.9668C248.909 49.4121 249.089 48.7608 249.258 48.2181C249.837 48.3387 250.464 48.4834 251.031 48.6523C251.598 48.8211 252.237 48.99 252.78 49.1588C252.72 49.7256 252.551 50.3166 252.382 50.9196H252.346ZM240.66 47.8081C240.913 47.3257 243.65 47.0965 248.064 47.9649C247.883 48.5558 247.715 49.1709 247.582 49.6533C247.449 50.1357 247.293 50.7507 247.16 51.3537C242.939 49.9065 240.66 48.3387 240.66 47.8081ZM247.896 60.3143C247.413 60.0731 247.184 57.3355 248.052 52.9215C248.643 53.1024 249.258 53.2592 249.741 53.4039C250.223 53.5486 250.838 53.6934 251.441 53.826C250.042 58.0832 248.474 60.3505 247.956 60.3143H247.896ZM252.997 52.9215C253.178 52.3306 253.347 51.7155 253.491 51.2331C253.636 50.7507 253.769 50.1357 253.913 49.5327C258.171 50.9919 260.426 52.5597 260.402 53.0783C260.221 53.5607 257.544 53.7898 253.057 52.9215H252.997Z" fill="white"/>
<path d="M253.069 51.1126C253.958 50.5349 254.8 49.8898 255.59 49.183C256.796 48.1217 257.145 47.3499 256.796 46.771C256.205 45.758 253.419 46.771 251.2 47.9046C249.837 45.8424 247.944 43.551 246.931 44.1299C246.412 44.4314 246.376 45.3359 246.846 46.7951C247.168 47.8029 247.572 48.783 248.052 49.7257C245.99 51.0885 243.687 52.9819 244.277 53.9949C244.332 54.0871 244.405 54.1669 244.493 54.2292C244.58 54.2915 244.679 54.3349 244.784 54.3567C245.833 54.6341 248.04 53.7658 249.861 52.8613C250.995 54.5618 252.466 56.4069 253.479 56.6964C253.58 56.7292 253.687 56.7409 253.793 56.7305C253.899 56.7201 254.001 56.688 254.094 56.6361C255.216 56.1175 254.167 53.3196 253.069 51.1126ZM256.169 47.0363C256.226 47.0521 256.277 47.086 256.313 47.1328C256.374 47.2293 256.313 47.7237 255.18 48.7368C254.425 49.4096 253.618 50.0225 252.768 50.5699C252.563 50.184 252.37 49.8222 252.189 49.5086C252.008 49.1951 251.791 48.8453 251.562 48.4715C253.998 47.2775 255.662 46.9037 256.169 47.0363V47.0363ZM252.285 50.8955L251.224 51.5468C250.85 51.7638 250.488 51.9568 250.139 52.1377C249.922 51.8 249.704 51.4623 249.487 51.0764C249.27 50.6905 249.077 50.3528 248.884 49.991C249.222 49.7739 249.572 49.5689 249.958 49.3398C250.344 49.1106 250.693 48.9297 251.043 48.7488C251.26 49.0745 251.465 49.4242 251.694 49.8101C251.924 50.196 252.104 50.5458 252.285 50.8955ZM247.461 46.6745C247.027 45.2394 247.184 44.769 247.28 44.7087C247.335 44.6903 247.394 44.6903 247.449 44.7087C247.956 44.8414 249.222 45.9992 250.718 48.2423L249.656 48.8212L248.619 49.4483C248.163 48.5546 247.776 47.6273 247.461 46.6745V46.6745ZM244.856 53.7055C244.675 53.3919 245.809 51.993 248.378 50.2684C248.571 50.6302 248.764 50.9799 248.969 51.3297C249.174 51.6794 249.367 52.005 249.596 52.3668C246.822 53.7899 245.037 54.0673 244.856 53.7055ZM253.901 56.1175C253.588 56.2984 252.177 55.1648 250.464 52.5839C250.85 52.391 251.212 52.1859 251.526 52.005C251.839 51.8241 252.225 51.595 252.563 51.3779C253.925 54.212 254.215 55.9969 253.925 56.1778L253.901 56.1175Z" fill="#407BFF"/>
<path d="M175.716 8.14272C175.849 7.09101 175.898 6.03036 175.861 4.97093C175.789 3.41519 175.475 2.55893 174.884 2.55893C173.678 2.35391 172.726 5.1639 172.147 7.56384C169.735 7.2744 166.708 7.23822 166.503 8.39598C166.394 8.98692 167.045 9.60198 168.48 10.1809C169.463 10.5762 170.475 10.8947 171.507 11.1336C171.218 13.5456 171.182 16.5727 172.34 16.7777C172.446 16.7928 172.553 16.7867 172.657 16.7597C172.76 16.7328 172.858 16.6856 172.943 16.6209C173.835 15.9938 174.595 13.7506 175.077 11.7969C177.091 12.026 179.467 12.0863 180.36 11.4713C180.542 11.3566 180.672 11.1746 180.721 10.9648C180.926 9.72258 178.116 8.7216 175.716 8.14272ZM174.607 3.14988C174.633 3.13789 174.662 3.13169 174.691 3.13169C174.72 3.13169 174.749 3.13789 174.776 3.14988C174.884 3.14988 175.198 3.55992 175.27 5.05536C175.294 6.05852 175.246 7.06212 175.125 8.0583L173.919 7.8171L172.713 7.6362C173.389 4.95888 174.173 3.43932 174.607 3.14988V3.14988ZM175.053 8.601C175.053 8.99898 174.933 9.40902 174.86 9.807C174.788 10.205 174.703 10.6271 174.619 11.013L173.413 10.82L172.207 10.5788C172.207 10.1809 172.316 9.78288 172.4 9.37284C172.484 8.9628 172.557 8.5407 172.641 8.16684L173.847 8.3598L175.053 8.601ZM168.71 9.5658C167.335 8.97486 167.081 8.5407 167.094 8.44422C167.113 8.38562 167.151 8.3349 167.202 8.2995C167.636 7.998 169.325 7.78092 172.026 8.09448C171.93 8.51658 171.857 8.91456 171.785 9.30048C171.713 9.6864 171.664 10.0603 171.604 10.5065C170.618 10.2639 169.65 9.94953 168.71 9.5658V9.5658ZM172.448 16.1144C172.086 16.1144 171.749 14.2933 172.098 11.206C172.484 11.3024 172.87 11.3748 173.304 11.4472C173.739 11.5195 174.076 11.5798 174.51 11.6281C173.739 14.6431 172.798 16.1867 172.448 16.1144V16.1144ZM180.13 10.7718C180.058 11.1215 178.285 11.4713 175.21 11.1215C175.306 10.6994 175.391 10.2894 175.451 9.91554C175.511 9.54168 175.584 9.10752 175.644 8.70954C178.647 9.48138 180.191 10.41 180.13 10.7718V10.7718Z" fill="#407BFF"/>
<path d="M182.989 3.0534C181.891 1.4856 177.755 3.39108 174.354 5.4654C171.869 2.34186 168.649 -0.878157 167.118 0.219303C165.586 1.31676 167.455 5.45334 169.53 8.85426C166.406 11.3386 163.186 14.5586 164.284 16.0903C165.381 17.6219 169.518 15.7526 172.918 13.6783C175.403 16.7897 178.623 20.0098 180.154 18.9244C181.686 17.839 179.817 13.6903 177.742 10.2773C180.854 7.8774 184.074 4.64532 182.989 3.0534ZM167.757 1.19616C168.251 0.991141 170.494 2.58306 173.316 6.09252C172.798 6.4302 172.303 6.75583 171.857 7.06939C171.411 7.38295 170.929 7.72063 170.434 8.09449C168.119 4.2594 167.407 1.60621 167.757 1.22029V1.19616ZM175.138 8.51658C175.499 9.03516 175.825 9.54169 176.138 10.0361C175.68 10.3859 175.198 10.7477 174.667 11.1095C174.137 11.4713 173.642 11.7969 173.16 12.1105C172.81 11.6522 172.448 11.1698 172.086 10.6391C171.725 10.1085 171.387 9.61405 171.073 9.13165C171.544 8.78191 172.026 8.42011 172.545 8.05831C173.063 7.69651 173.57 7.35882 174.064 7.04526C174.414 7.53972 174.776 8.02213 175.138 8.54071V8.51658ZM165.224 15.427C165.019 14.9325 166.611 12.6894 170.121 9.86731C170.458 10.3979 170.784 10.8924 171.097 11.3386C171.411 11.7849 171.761 12.2552 172.123 12.7497C168.299 15.1134 165.61 15.8129 165.224 15.4511V15.427ZM179.455 17.9596C178.961 18.1767 176.717 16.5847 173.895 13.1356C174.426 12.7979 174.92 12.4602 175.367 12.1587C175.813 11.8572 176.283 11.4954 176.778 11.1216C179.153 14.9446 179.817 17.5978 179.455 17.9837V17.9596ZM177.103 9.28842C176.766 8.76984 176.44 8.27538 176.126 7.82916C175.813 7.38294 175.463 6.90054 175.089 6.40608C178.948 4.09056 181.602 3.37902 181.988 3.72876C182.374 4.0785 180.613 6.49051 177.103 9.31255V9.28842Z" fill="#407BFF"/>
<path opacity="0.5" d="M182.989 3.0534C181.891 1.4856 177.755 3.39108 174.354 5.4654C171.869 2.34186 168.649 -0.878157 167.118 0.219303C165.586 1.31676 167.455 5.45334 169.53 8.85426C166.406 11.3386 163.186 14.5586 164.284 16.0903C165.381 17.6219 169.518 15.7526 172.918 13.6783C175.403 16.7897 178.623 20.0098 180.154 18.9244C181.686 17.839 179.817 13.6903 177.742 10.2773C180.854 7.8774 184.074 4.64532 182.989 3.0534ZM167.757 1.19616C168.251 0.991141 170.494 2.58306 173.316 6.09252C172.798 6.4302 172.303 6.75583 171.857 7.06939C171.411 7.38295 170.929 7.72063 170.434 8.09449C168.119 4.2594 167.407 1.60621 167.757 1.22029V1.19616ZM175.138 8.51658C175.499 9.03516 175.825 9.54169 176.138 10.0361C175.68 10.3859 175.198 10.7477 174.667 11.1095C174.137 11.4713 173.642 11.7969 173.16 12.1105C172.81 11.6522 172.448 11.1698 172.086 10.6391C171.725 10.1085 171.387 9.61405 171.073 9.13165C171.544 8.78191 172.026 8.42011 172.545 8.05831C173.063 7.69651 173.57 7.35882 174.064 7.04526C174.414 7.53972 174.776 8.02213 175.138 8.54071V8.51658ZM165.224 15.427C165.019 14.9325 166.611 12.6894 170.121 9.86731C170.458 10.3979 170.784 10.8924 171.097 11.3386C171.411 11.7849 171.761 12.2552 172.123 12.7497C168.299 15.1134 165.61 15.8129 165.224 15.4511V15.427ZM179.455 17.9596C178.961 18.1767 176.717 16.5847 173.895 13.1356C174.426 12.7979 174.92 12.4602 175.367 12.1587C175.813 11.8572 176.283 11.4954 176.778 11.1216C179.153 14.9446 179.817 17.5978 179.455 17.9837V17.9596ZM177.103 9.28842C176.766 8.76984 176.44 8.27538 176.126 7.82916C175.813 7.38294 175.463 6.90054 175.089 6.40608C178.948 4.09056 181.602 3.37902 181.988 3.72876C182.374 4.0785 180.613 6.49051 177.103 9.31255V9.28842Z" fill="white"/>
<path d="M231.012 150.463L221.508 137.86V122.291C222.102 122.148 222.63 121.81 223.008 121.331C223.386 120.852 223.593 120.26 223.595 119.65V119.65C223.595 118.927 223.307 118.234 222.796 117.722C222.285 117.211 221.592 116.924 220.869 116.924H215.876C215.153 116.924 214.46 117.211 213.949 117.722C213.438 118.234 213.151 118.927 213.151 119.65V119.65C213.153 120.26 213.359 120.852 213.737 121.331C214.116 121.81 214.644 122.148 215.237 122.291V137.86L205.686 150.463C205.255 151.002 204.988 151.653 204.916 152.339C204.843 153.025 204.968 153.718 205.276 154.335C205.584 154.952 206.062 155.469 206.654 155.823C207.246 156.178 207.927 156.356 208.616 156.336H228.033C228.726 156.365 229.414 156.194 230.013 155.844C230.612 155.493 231.098 154.977 231.412 154.358C231.726 153.739 231.855 153.042 231.784 152.352C231.713 151.661 231.445 151.005 231.012 150.463V150.463Z" fill="#407BFF"/>
<path opacity="0.6" d="M231.012 150.463L221.508 137.86V122.291C222.102 122.148 222.63 121.81 223.008 121.331C223.386 120.852 223.593 120.26 223.595 119.65V119.65C223.595 118.927 223.307 118.234 222.796 117.722C222.285 117.211 221.592 116.924 220.869 116.924H215.876C215.153 116.924 214.46 117.211 213.949 117.722C213.438 118.234 213.151 118.927 213.151 119.65V119.65C213.153 120.26 213.359 120.852 213.737 121.331C214.116 121.81 214.644 122.148 215.237 122.291V137.86L205.686 150.463C205.255 151.002 204.988 151.653 204.916 152.339C204.843 153.025 204.968 153.718 205.276 154.335C205.584 154.952 206.062 155.469 206.654 155.823C207.246 156.178 207.927 156.356 208.616 156.336H228.033C228.726 156.365 229.414 156.194 230.013 155.844C230.612 155.493 231.098 154.977 231.412 154.358C231.726 153.739 231.855 153.042 231.784 152.352C231.713 151.661 231.445 151.005 231.012 150.463V150.463Z" fill="white"/>
<path d="M214.128 117.479C215.441 118.046 216.873 118.286 218.3 118.178C219.731 118.284 221.167 118.044 222.485 117.479C222.007 117.091 221.412 116.879 220.797 116.876H215.804C215.192 116.877 214.6 117.09 214.128 117.479Z" fill="#407BFF"/>
<path d="M229.866 151.307L225.452 145.446C225.452 145.904 222.256 146.266 218.337 146.266C214.417 146.266 211.245 145.904 211.221 145.446L206.807 151.307C206.54 151.644 206.377 152.052 206.338 152.481C206.3 152.909 206.387 153.34 206.59 153.719C206.782 154.091 207.076 154.401 207.436 154.615C207.796 154.828 208.21 154.935 208.628 154.925H228.045C228.463 154.921 228.872 154.801 229.227 154.58C229.582 154.359 229.869 154.044 230.057 153.671C230.245 153.297 230.327 152.879 230.293 152.462C230.259 152.045 230.112 151.645 229.866 151.307V151.307Z" fill="#407BFF"/>
<path d="M218.336 146.266C222.266 146.266 225.452 145.899 225.452 145.446C225.452 144.993 222.266 144.626 218.336 144.626C214.407 144.626 211.221 144.993 211.221 145.446C211.221 145.899 214.407 146.266 218.336 146.266Z" fill="#407BFF"/>
<path opacity="0.3" d="M218.336 146.266C222.266 146.266 225.452 145.899 225.452 145.446C225.452 144.993 222.266 144.626 218.336 144.626C214.407 144.626 211.221 144.993 211.221 145.446C211.221 145.899 214.407 146.266 218.336 146.266Z" fill="black"/>
<path opacity="0.6" d="M217.746 138.584C217.746 138.584 208.845 152.055 211.716 152.899C214.586 153.743 217.746 138.584 217.746 138.584Z" fill="white"/>
<path d="M161.281 60.4348L166.298 62.473L166.008 64.0046L164.103 63.9563L162.004 65.8377L161.281 60.4348Z" fill="#407BFF"/>
<path opacity="0.3" d="M161.281 60.4348L166.298 62.473L166.008 64.0046L164.103 63.9563L162.004 65.8377L161.281 60.4348Z" fill="white"/>
<path d="M154.587 49.183C154.587 49.183 161.449 46.6143 162.921 50.9559C164.392 55.2974 155.407 55.2975 155.407 55.2975L154.587 49.183Z" fill="#263238"/>
<path opacity="0.5" d="M154.587 49.183C154.587 49.183 161.449 46.6143 162.921 50.9559C164.392 55.2974 155.407 55.2975 155.407 55.2975L154.587 49.183Z" fill="black"/>
<path d="M131.746 91.4895C131.746 91.4895 137.981 90.7056 137.643 79.2004C137.643 79.2004 143.36 76.4507 147.183 79.7672C151.006 83.0837 144.035 91.188 148.762 94.4201C153.49 97.6522 131.746 91.4895 131.746 91.4895Z" fill="#FFC3BD"/>
<path opacity="0.1" d="M143.83 84.4947C144.819 85.9811 145.994 87.3347 147.327 88.5227C147.617 87.0273 148.075 85.4715 148.268 84.0364L143.83 84.4947Z" fill="black"/>
<path d="M162.909 62.7503C163.005 63.5704 162.655 64.282 162.113 64.3423C161.57 64.4026 161.027 63.7634 160.907 62.9674C160.786 62.1715 161.16 61.4237 161.703 61.3755C162.245 61.3273 162.812 61.9303 162.909 62.7503Z" fill="#263238"/>
<path d="M160.895 63.6792L165.586 69.6127C164.89 70.1622 164.074 70.5402 163.204 70.7162C162.335 70.8922 161.436 70.8612 160.581 70.6257L160.895 63.6792Z" fill="#BA4D3C"/>
<path d="M130.781 60.4831C131.541 71.4095 131.625 76.0647 137.185 81.6243C145.627 87.2805 158.893 86.7016 161.365 75.7511C163.632 65.9101 162.028 49.7377 151.283 45.3961C148.917 44.4447 146.347 44.1136 143.818 44.4341C141.288 44.7547 138.882 45.7162 136.828 47.2275C134.775 48.7389 133.141 50.7499 132.083 53.0697C131.024 55.3896 130.576 57.9414 130.781 60.4831V60.4831Z" fill="#FFC3BD"/>
<path d="M158.507 59.0117C158.57 59.0445 158.64 59.0616 158.712 59.0616C158.783 59.0616 158.853 59.0445 158.917 59.0117C159.397 58.768 159.928 58.6411 160.467 58.6411C161.005 58.6411 161.536 58.768 162.016 59.0117C162.065 59.0402 162.118 59.0589 162.174 59.0668C162.229 59.0746 162.286 59.0715 162.34 59.0575C162.394 59.0435 162.445 59.0189 162.49 58.9852C162.535 58.9515 162.573 58.9093 162.601 58.861C162.63 58.8127 162.648 58.7592 162.656 58.7037C162.664 58.6481 162.661 58.5916 162.647 58.5373C162.633 58.483 162.608 58.4319 162.575 58.3871C162.541 58.3423 162.499 58.3046 162.45 58.276C161.848 57.9581 161.178 57.792 160.497 57.792C159.816 57.792 159.145 57.9581 158.543 58.276C158.442 58.3256 158.364 58.4124 158.326 58.5181C158.288 58.6238 158.292 58.7402 158.338 58.8429C158.378 58.9134 158.436 58.9718 158.507 59.0117V59.0117Z" fill="#263238"/>
<path d="M126.27 94.9869C126.27 94.9869 125.064 87.4736 138.825 89.3067C152.585 91.1398 151.259 95.5176 151.259 95.5176L126.27 94.9869Z" fill="#407BFF"/>
<path opacity="0.6" d="M126.27 94.9869C126.27 94.9869 125.064 87.4736 138.825 89.3067C152.585 91.1398 151.259 95.5176 151.259 95.5176L126.27 94.9869Z" fill="white"/>
<path d="M102.464 257.809L105.033 268.108C105.033 268.108 91.7667 305.856 97.7364 379.651H107.047L126.089 266.384L102.464 257.809Z" fill="#FFC3BD"/>
<path d="M157.446 265.961L156.24 381.376H145.832C145.832 381.376 131.601 301.14 136.57 269.386L157.446 265.961Z" fill="#FFC3BD"/>
<path d="M101.391 220.266C101.391 220.266 97.5194 242.794 97.7726 262.476C97.7726 262.476 120.084 274.705 161.92 269.99C161.92 269.99 164.923 233.303 164.706 212.5L101.391 220.266Z" fill="#407BFF"/>
<path d="M101.391 220.266C101.391 220.266 97.5194 242.794 97.7726 262.476C97.7726 262.476 120.084 274.705 161.92 269.99C161.92 269.99 164.923 233.303 164.706 212.5L101.391 220.266Z" fill="#407BFF"/>
<path d="M123.907 94.3475C123.907 94.3475 110.182 94.9867 109.64 122.447C109.097 149.908 118.335 153.019 121.7 154.406C125.065 155.793 120.94 141.43 120.94 141.43C120.94 141.43 116.333 116.333 121.374 107.216C126.415 98.0982 125.933 93.8651 123.907 94.3475Z" fill="#407BFF"/>
<path opacity="0.5" d="M123.907 94.3475C123.907 94.3475 110.182 94.9867 109.64 122.447C109.097 149.908 118.335 153.019 121.7 154.406C125.065 155.793 120.94 141.43 120.94 141.43C120.94 141.43 116.333 116.333 121.374 107.216C126.415 98.0982 125.933 93.8651 123.907 94.3475Z" fill="white"/>
<path d="M128.2 93.2744C123.834 93.407 111.895 92.6231 114.042 124.377C116.188 156.131 99.4611 221.774 99.4611 221.774C99.4611 221.774 125.197 231.205 149.221 231.639C173.244 232.073 167.672 181.433 168.107 168.565C168.541 155.697 179.045 118.637 169.855 101.825C167.311 97.1215 162.812 92.2975 128.2 93.2744Z" fill="#407BFF"/>
<path opacity="0.7" d="M128.2 93.2744C123.834 93.407 111.895 92.6231 114.042 124.377C116.188 156.131 99.4611 221.774 99.4611 221.774C99.4611 221.774 125.197 231.205 149.221 231.639C173.244 232.073 167.672 181.433 168.107 168.565C168.541 155.697 179.045 118.637 169.855 101.825C167.311 97.1215 162.812 92.2975 128.2 93.2744Z" fill="white"/>
<path d="M200.596 136.341L208.218 134.302L208.797 139.922L201.778 142.72L200.596 136.341Z" fill="#FFC3BD"/>
<path d="M158.133 97.8811C162.016 95.2762 168.854 94.9867 172.822 107.107C176.79 119.227 180.649 137.896 185.907 137.993C191.165 138.089 201.139 135.713 201.139 135.713C201.139 135.713 204.033 137.643 203.551 142.793C203.551 142.793 189.404 149.112 178.997 148.039C168.589 146.965 156.01 111.461 155.612 105.998C155.504 103.911 154.684 100.197 158.133 97.8811Z" fill="#407BFF"/>
<path opacity="0.8" d="M158.133 97.8811C162.016 95.2762 168.854 94.9867 172.822 107.107C176.79 119.227 180.649 137.896 185.907 137.993C191.165 138.089 201.139 135.713 201.139 135.713C201.139 135.713 204.033 137.643 203.551 142.793C203.551 142.793 189.404 149.112 178.997 148.039C168.589 146.965 156.01 111.461 155.612 105.998C155.504 103.911 154.684 100.197 158.133 97.8811Z" fill="white"/>
<path d="M205.541 141.961L212.777 138.62L222.738 135.991C223.27 135.85 223.75 135.557 224.118 135.148C224.487 134.739 224.728 134.231 224.813 133.687L225.826 127.187C225.913 126.627 225.832 126.053 225.591 125.539C225.35 125.026 224.962 124.596 224.475 124.305H224.379C223.847 123.989 223.227 123.857 222.613 123.926C221.999 123.996 221.425 124.264 220.978 124.691C220.121 125.583 219.132 126.34 218.047 126.934C217.346 127.083 216.626 127.123 215.912 127.054C215.443 127.048 214.979 127.154 214.559 127.363C214.14 127.573 213.777 127.881 213.5 128.26L210.244 132.59L204.335 134.64C205.391 136.927 205.807 139.456 205.541 141.961V141.961Z" fill="#407BFF"/>
<path opacity="0.3" d="M205.541 141.961L212.777 138.62L222.738 135.991C223.27 135.85 223.75 135.557 224.118 135.148C224.487 134.739 224.728 134.231 224.813 133.687L225.826 127.187C225.913 126.627 225.832 126.053 225.591 125.539C225.35 125.026 224.962 124.596 224.475 124.305H224.379C223.847 123.989 223.227 123.857 222.613 123.926C221.999 123.996 221.425 124.264 220.978 124.691C220.121 125.583 219.132 126.34 218.047 126.934C217.346 127.083 216.626 127.123 215.912 127.054C215.443 127.048 214.979 127.154 214.559 127.363C214.14 127.573 213.777 127.881 213.5 128.26L210.244 132.59L204.335 134.64C205.391 136.927 205.807 139.456 205.541 141.961V141.961Z" fill="white"/>
<path d="M137.474 83.144C137.474 83.144 139.018 81.745 142.105 84.0364C142.105 84.0364 153.14 77.2226 154.262 61.436C154.262 61.436 158.314 56.7206 157.241 52.7287C157.241 52.7287 163.789 46.8314 158.302 42.3812C157.664 41.7614 156.899 41.287 156.061 40.9906C155.222 40.6942 154.329 40.5829 153.444 40.6643C152.558 40.7456 151.7 41.0177 150.93 41.4619C150.159 41.9061 149.494 42.5118 148.979 43.2375C148.979 43.2375 131.577 35.7844 129.683 53.187C127.939 56.2849 127.022 59.7802 127.022 63.3355C127.022 66.8908 127.939 70.386 129.683 73.4839C135.738 84.2656 137.474 83.144 137.474 83.144Z" fill="#263238"/>
<path d="M138.306 82.7822C138.306 82.7822 132.867 82.4927 133.591 85.6283C134.314 88.7639 135.062 83.554 138.306 82.7822Z" fill="#263238"/>
<path d="M131.685 60.423C134.21 60.423 136.256 58.3766 136.256 55.8522C136.256 53.3279 134.21 51.2815 131.685 51.2815C129.161 51.2815 127.115 53.3279 127.115 55.8522C127.115 58.3766 129.161 60.423 131.685 60.423Z" fill="#407BFF"/>
<path opacity="0.4" d="M130.986 48.0251C130.335 49.678 129.929 51.4168 129.78 53.1868C127.875 56.59 126.96 60.4584 127.139 64.3544C129.238 63.8991 131.125 62.7562 132.502 61.1069C133.878 59.4575 134.664 57.396 134.736 55.2491C134.715 53.8365 134.364 52.4485 133.713 51.1947C133.062 49.9409 132.129 48.8558 130.986 48.0251V48.0251Z" fill="black"/>
<path d="M132.075 59.6085C135.574 56.1092 135.574 50.4357 132.075 46.9364C128.576 43.437 122.902 43.437 119.403 46.9364C115.903 50.4357 115.903 56.1092 119.403 59.6085C122.902 63.1079 128.576 63.1079 132.075 59.6085Z" fill="#263238"/>
<path opacity="0.1" d="M135.738 277.045C142.947 277.382 150.171 277.233 157.361 276.598L157.433 270.472C150.409 271.105 143.35 271.266 136.304 270.954C136.063 272.848 135.87 274.886 135.738 277.045Z" fill="black"/>
<path opacity="0.1" d="M104.068 271.292C110.68 273.553 117.505 275.137 124.437 276.02L125.45 269.99C118.259 269.117 111.178 267.501 104.321 265.166L105.033 268.012C105.033 268.012 104.659 269.182 104.068 271.292Z" fill="black"/>
<path d="M156.469 378.964L145.024 379.301C144.814 379.308 144.613 379.386 144.453 379.522C144.293 379.657 144.184 379.843 144.143 380.049L142.358 389.42C142.318 389.617 142.318 389.82 142.357 390.018C142.396 390.215 142.473 390.403 142.586 390.57C142.698 390.738 142.842 390.881 143.01 390.992C143.178 391.103 143.367 391.179 143.564 391.217H143.89C148.003 391.012 151.669 390.686 156.806 390.529C162.836 390.348 161.353 391.12 168.48 391.012C172.774 390.939 173.413 386.043 171.58 385.85C163.222 385.054 162.282 382.57 158.977 379.675C158.258 379.134 157.364 378.881 156.469 378.964V378.964Z" fill="#263238"/>
<path d="M107.602 378.12L96.1807 377.48C95.9722 377.469 95.7659 377.528 95.5952 377.649C95.4246 377.769 95.2994 377.943 95.2401 378.144L92.6472 387.321C92.5384 387.713 92.5873 388.132 92.7834 388.488C92.9795 388.844 93.3072 389.109 93.6964 389.227L94.0099 389.287C98.1345 389.444 101.813 389.42 106.95 389.721C112.98 390.059 111.425 390.698 118.528 391.205C122.821 391.494 123.87 386.67 122.074 386.32C113.812 384.813 113.089 382.244 110.014 379.084C109.352 378.482 108.496 378.139 107.602 378.12V378.12Z" fill="#263238"/>
<path d="M148.425 62.9435L166.298 62.4731C166.298 62.4731 165.333 69.6488 164.079 69.4318C162.824 69.2147 163.258 64.1736 163.258 64.1736H150.065L148.425 62.9435Z" fill="#407BFF"/>
<path opacity="0.7" d="M148.425 62.9435L166.298 62.4731C166.298 62.4731 165.333 69.6488 164.079 69.4318C162.824 69.2147 163.258 64.1736 163.258 64.1736H150.065L148.425 62.9435Z" fill="white"/>
<path d="M153.55 63.0519C154.245 63.9148 154.762 64.9071 155.07 65.9712C155.379 67.0353 155.473 68.15 155.347 69.2508C154.997 72.1934 152.079 72.5673 149.872 70.8186C147.882 69.2387 145.699 65.8137 147.158 63.2931C147.482 62.7443 147.938 62.2856 148.485 61.9592C149.032 61.6328 149.652 61.4491 150.288 61.4251C150.925 61.401 151.557 61.5374 152.127 61.8217C152.697 62.106 153.186 62.529 153.55 63.0519V63.0519Z" fill="#FFC3BD"/>
<path d="M152.293 174.749L167.038 176.669L166.938 177.435C166.83 178.266 166.396 179.02 165.732 179.531C165.068 180.042 164.228 180.268 163.397 180.16L154.906 179.054C154.495 179.001 154.098 178.867 153.738 178.66C153.379 178.453 153.063 178.177 152.81 177.848C152.557 177.519 152.371 177.144 152.263 176.743C152.155 176.342 152.127 175.924 152.181 175.513L152.281 174.748L152.293 174.749Z" fill="#407BFF"/>
<path opacity="0.6" d="M152.293 174.749L167.038 176.669L166.938 177.435C166.83 178.266 166.396 179.02 165.732 179.531C165.068 180.042 164.228 180.268 163.397 180.16L154.906 179.054C154.495 179.001 154.098 178.867 153.738 178.66C153.379 178.453 153.063 178.177 152.81 177.848C152.557 177.519 152.371 177.144 152.263 176.743C152.155 176.342 152.127 175.924 152.181 175.513L152.281 174.748L152.293 174.749Z" fill="white"/>
<defs>
<linearGradient id="paint0_linear" x1="254.208" y1="21.8701" x2="254.208" y2="331.853" gradientUnits="userSpaceOnUse">
<stop stop-color="#FFACC6"/>
<stop offset="1" stop-color="#B6E0F5" stop-opacity="0"/>
</linearGradient>
</defs>
</svg>
