<svg width="23" height="30" viewBox="0 0 23 30" fill="none" xmlns="http://www.w3.org/2000/svg">
<path d="M3.1856 26.0203L2.00256 14.9085L2.41534 15.1798C6.49648 17.8617 11.9771 16.7466 14.686 12.6833V12.6833L17.1964 23.6981L3.1856 26.0203Z" fill="url(#paint0_linear)"/>
<path d="M20.5106 26.7592L2.56013 29.965C1.40956 30.1709 0.301215 29.446 0.0856644 28.3454C-0.129887 27.2462 0.628913 26.1874 1.78095 25.9814L19.7314 22.7757C20.882 22.5698 21.9903 23.2947 22.2059 24.3952C22.4214 25.4944 21.6626 26.5533 20.5106 26.7592Z" fill="#494949"/>
<path d="M12.3947 9.64114L3.54841 11.2218C2.48377 11.4124 1.4599 10.7417 1.26182 9.72462L1.20357 9.4227C1.00404 8.4056 1.70603 7.42745 2.77068 7.23823L11.617 5.65762C12.6817 5.467 13.7055 6.13764 13.9036 7.15474L13.9619 7.45667C14.1614 8.47238 13.4594 9.45053 12.3947 9.64114Z" fill="#494949"/>
<path d="M10.1066 3.8627L3.22212 5.09269C2.19825 5.27496 1.21371 4.63075 1.02146 3.65261L0.964659 3.3632C0.773867 2.38506 1.44819 1.44449 2.47206 1.26082L9.35658 0.0308436C10.3805 -0.151427 11.365 0.492783 11.5572 1.47092L11.614 1.76033C11.8048 2.73986 11.1305 3.68043 10.1066 3.8627Z" fill="#494949"/>
<path d="M0.003497 27.8489L1.17155 8.99984C1.23564 7.96743 2.16338 7.17991 3.24405 7.24113L3.56446 7.25922C4.64513 7.32044 5.46947 8.20675 5.40539 9.23915L4.25626 27.7821C4.18199 28.9828 3.10132 29.8998 1.84442 29.8288C0.763754 29.7676 -0.0605857 28.8813 0.003497 27.8489Z" fill="#494949"/>
<path d="M13.7872 6.74546L22.0714 23.9123C22.5243 24.8515 22.0947 25.9632 21.1116 26.3973C19.9683 26.901 18.6124 26.4238 18.0851 25.3301L9.93498 8.44155C9.48203 7.50237 9.91168 6.39066 10.8948 5.95655L11.1861 5.82854C12.1691 5.39582 13.3343 5.80628 13.7872 6.74546Z" fill="#494949"/>
<defs>
<linearGradient id="paint0_linear" x1="2.09673" y1="13.4025" x2="15.8578" y2="24.3698" gradientUnits="userSpaceOnUse">
<stop stop-color="#FFACC6"/>
<stop offset="1" stop-color="#B6E0F5"/>
</linearGradient>
</defs>
</svg>
