<svg width="466" height="389" viewBox="0 0 466 389" fill="none" xmlns="http://www.w3.org/2000/svg">
<path d="M441.468 193.384C453.576 248.584 419.76 284.248 372.936 282.592C350.484 281.8 323.676 257.116 301.632 251.62C272.832 244.42 247.92 253.744 220.404 255.112C151.944 258.496 152.844 230.56 106.716 194.536C74.3159 169.216 22.0319 171.988 4.71594 127.648C-16.5001 73.444 44.3159 47.248 90.5159 55.288C143.604 64.504 158.304 -1.59199 239.388 5.72801C319.068 12.928 424.416 110.2 441.468 193.384Z" fill="#407BFF"/>
<path opacity="0.9" d="M441.468 193.384C453.576 248.584 419.76 284.248 372.936 282.592C350.484 281.8 323.676 257.116 301.632 251.62C272.832 244.42 247.92 253.744 220.404 255.112C151.944 258.496 152.844 230.56 106.716 194.536C74.3159 169.216 22.0319 171.988 4.71594 127.648C-16.5001 73.444 44.3159 47.248 90.5159 55.288C143.604 64.504 158.304 -1.59199 239.388 5.72801C319.068 12.928 424.416 110.2 441.468 193.384Z" fill="url(#paint0_linear)"/>
<path d="M232.668 388.072C361.167 388.072 465.336 381.991 465.336 374.488C465.336 366.986 361.167 360.904 232.668 360.904C104.169 360.904 0 366.986 0 374.488C0 381.991 104.169 388.072 232.668 388.072Z" fill="#D9E5FF"/>
<path d="M245.16 313.6H92.076C89.6143 313.565 87.2568 312.601 85.4763 310.9C83.6959 309.2 82.6241 306.889 82.476 304.432L68.748 38.5719C68.6719 37.3893 68.8409 36.2038 69.2444 35.0896C69.6479 33.9754 70.2772 32.9566 71.0929 32.097C71.9085 31.2373 72.893 30.5555 73.9845 30.0941C75.076 29.6328 76.2511 29.4019 77.436 29.4159H230.52C232.981 29.4478 235.338 30.4095 237.119 32.1079C238.899 33.8063 239.972 36.1156 240.12 38.5719L253.824 304.432C253.9 305.613 253.732 306.797 253.33 307.91C252.928 309.023 252.301 310.042 251.488 310.902C250.675 311.762 249.694 312.446 248.605 312.91C247.516 313.374 246.343 313.609 245.16 313.6V313.6Z" fill="#407BFF"/>
<path opacity="0.8" d="M245.16 313.6H92.076C89.6143 313.565 87.2568 312.601 85.4763 310.9C83.6959 309.2 82.6241 306.889 82.476 304.432L68.748 38.5719C68.6719 37.3893 68.8409 36.2038 69.2444 35.0896C69.6479 33.9754 70.2772 32.9566 71.0929 32.097C71.9085 31.2373 72.893 30.5555 73.9845 30.0941C75.076 29.6328 76.2511 29.4019 77.436 29.4159H230.52C232.981 29.4478 235.338 30.4095 237.119 32.1079C238.899 33.8063 239.972 36.1156 240.12 38.5719L253.824 304.432C253.9 305.613 253.732 306.797 253.33 307.91C252.928 309.023 252.301 310.042 251.488 310.902C250.675 311.762 249.694 312.446 248.605 312.91C247.516 313.374 246.343 313.609 245.16 313.6V313.6Z" fill="white"/>
<path d="M215.412 20.752H198.48V21.952H215.412V20.752Z" fill="#407BFF"/>
<path d="M192.612 20.752H186.408V21.952H192.612V20.752Z" fill="#407BFF"/>
<path d="M251.748 296.728H105.348C102.99 296.705 100.729 295.79 99.0191 294.167C97.3091 292.544 96.2775 290.333 96.132 287.98L83.028 33.7001C82.9552 32.5683 83.117 31.4338 83.5032 30.3675C83.8895 29.3012 84.492 28.3263 85.2728 27.5038C86.0535 26.6813 86.9959 26.0291 88.0406 25.5879C89.0853 25.1467 90.21 24.9262 91.344 24.9401H237.744C240.101 24.9661 242.361 25.8842 244.069 27.5096C245.777 29.1349 246.806 31.3468 246.948 33.7001L260.052 287.98C260.125 289.11 259.963 290.243 259.578 291.308C259.192 292.373 258.59 293.346 257.811 294.168C257.031 294.989 256.09 295.641 255.047 296.081C254.003 296.522 252.88 296.742 251.748 296.728Z" fill="#407BFF"/>
<path d="M251.748 290.884H105.348C104.489 290.854 103.672 290.511 103.05 289.918C102.428 289.325 102.046 288.524 101.976 287.668L88.86 33.4C88.8303 33.0617 88.8727 32.721 88.9844 32.4004C89.0961 32.0798 89.2746 31.7865 89.508 31.5399C89.7421 31.294 90.0258 31.1004 90.3402 30.9722C90.6546 30.8439 90.9927 30.7839 91.332 30.796H237.732C238.589 30.8283 239.403 31.1735 240.023 31.7661C240.642 32.3587 241.022 33.1577 241.092 34.0119L254.268 288.28C254.297 288.617 254.254 288.956 254.143 289.276C254.031 289.595 253.854 289.887 253.621 290.133C253.389 290.379 253.108 290.573 252.795 290.702C252.483 290.832 252.146 290.894 251.808 290.884H251.748ZM91.332 31.096C91.0337 31.0863 90.7366 31.1389 90.4598 31.2505C90.1829 31.3621 89.9323 31.5301 89.724 31.7439C89.5237 31.9656 89.3704 32.2255 89.2735 32.5081C89.1765 32.7907 89.1379 33.09 89.16 33.388L102.264 287.656C102.331 288.435 102.68 289.162 103.246 289.702C103.812 290.241 104.555 290.555 105.336 290.584H251.736C252.033 290.596 252.329 290.544 252.604 290.432C252.879 290.32 253.127 290.151 253.332 289.936C253.537 289.718 253.694 289.458 253.791 289.175C253.888 288.891 253.924 288.59 253.896 288.292L240.804 34.024C240.74 33.2462 240.393 32.5189 239.83 31.9794C239.266 31.4399 238.524 31.1256 237.744 31.096H91.332Z" fill="white"/>
<path opacity="0.3" d="M200.54 123.467C217.192 106.38 216.107 78.3167 198.118 60.7866C180.129 43.2564 152.048 42.8972 135.396 59.9844C118.745 77.0715 119.829 105.134 137.818 122.665C155.807 140.195 183.889 140.554 200.54 123.467Z" fill="white"/>
<path d="M203.868 91.732C204.204 97.6291 203.018 103.513 200.424 108.82C197.616 114.512 193.257 119.295 187.85 122.617C182.443 125.94 176.206 127.667 169.86 127.6C163.283 127.541 156.834 125.78 151.139 122.489C145.445 119.198 140.699 114.489 137.364 108.82C134.256 103.636 132.468 97.7684 132.156 91.732C131.86 87.1027 132.523 82.4622 134.103 78.1008C135.683 73.7395 138.146 69.7511 141.338 66.3855C144.531 63.0198 148.383 60.3492 152.655 58.5409C156.927 56.7325 161.526 55.8253 166.164 55.876C175.818 55.9767 185.075 59.7317 192.072 66.3849C199.068 73.0381 203.283 82.0952 203.868 91.732V91.732Z" fill="white"/>
<path d="M200.388 108.82C197.58 114.512 193.221 119.295 187.814 122.617C182.406 125.94 176.17 127.667 169.824 127.6C163.247 127.541 156.798 125.78 151.103 122.489C145.409 119.198 140.663 114.489 137.328 108.82C146.447 102.522 157.278 99.1717 168.36 99.22C179.739 99.2628 190.862 102.597 200.388 108.82V108.82Z" fill="#407BFF"/>
<path d="M179.085 90.8981C185.084 84.742 184.691 74.6295 178.208 68.3113C171.724 61.993 161.605 61.8616 155.606 68.0177C149.606 74.1738 149.999 84.2863 156.483 90.6045C162.966 96.9228 173.086 97.0543 179.085 90.8981Z" fill="#407BFF"/>
<path d="M230.76 197.8H116.124C115.126 197.79 114.168 197.401 113.444 196.713C112.721 196.025 112.285 195.089 112.224 194.092L111.36 177.292C111.33 176.814 111.399 176.335 111.563 175.885C111.727 175.435 111.982 175.024 112.312 174.677C112.642 174.33 113.04 174.055 113.481 173.869C113.922 173.683 114.397 173.59 114.876 173.596H229.512C230.509 173.606 231.464 173.993 232.188 174.678C232.911 175.364 233.348 176.297 233.412 177.292L234.276 194.092C234.307 194.571 234.24 195.051 234.077 195.502C233.914 195.954 233.659 196.366 233.329 196.715C232.999 197.063 232.6 197.339 232.158 197.526C231.716 197.713 231.24 197.806 230.76 197.8V197.8Z" fill="white"/>
<path opacity="0.3" d="M195.66 164.32H147.78C146.778 164.313 145.815 163.924 145.089 163.233C144.362 162.542 143.926 161.601 143.868 160.6L143.688 157C143.657 156.521 143.724 156.041 143.887 155.59C144.05 155.138 144.305 154.725 144.635 154.377C144.965 154.029 145.364 153.753 145.806 153.566C146.248 153.379 146.724 153.286 147.204 153.292H195.072C196.071 153.302 197.028 153.691 197.752 154.379C198.475 155.067 198.911 156.003 198.972 157L199.164 160.6C199.194 161.078 199.125 161.557 198.962 162.007C198.799 162.458 198.546 162.87 198.217 163.219C197.889 163.567 197.493 163.845 197.053 164.034C196.613 164.224 196.139 164.321 195.66 164.32V164.32Z" fill="black"/>
<path opacity="0.3" d="M213.468 278.572H141.744C140.046 278.551 138.418 277.889 137.187 276.718C135.957 275.548 135.214 273.955 135.108 272.26L134.688 263.98C134.646 263.166 134.77 262.352 135.052 261.588C135.335 260.824 135.77 260.125 136.331 259.534C136.893 258.944 137.568 258.473 138.318 258.153C139.067 257.832 139.873 257.667 140.688 257.668H212.388C214.086 257.689 215.714 258.351 216.945 259.522C218.175 260.692 218.918 262.285 219.024 263.98L219.444 272.26C219.486 273.072 219.363 273.884 219.082 274.646C218.801 275.409 218.368 276.107 217.809 276.697C217.25 277.287 216.577 277.758 215.831 278.08C215.085 278.403 214.281 278.57 213.468 278.572V278.572Z" fill="black"/>
<path d="M232.86 238.432H118.212C117.214 238.419 116.258 238.03 115.535 237.342C114.812 236.655 114.375 235.72 114.312 234.724L113.448 217.924C113.418 217.446 113.487 216.966 113.651 216.516C113.815 216.065 114.07 215.653 114.399 215.305C114.729 214.957 115.127 214.681 115.568 214.494C116.01 214.306 116.485 214.212 116.964 214.216H231.6C232.598 214.226 233.556 214.615 234.28 215.303C235.003 215.991 235.439 216.927 235.5 217.924L236.376 234.724C236.404 235.202 236.333 235.681 236.169 236.13C236.005 236.58 235.75 236.992 235.421 237.339C235.091 237.686 234.694 237.963 234.253 238.151C233.813 238.339 233.339 238.434 232.86 238.432V238.432Z" fill="white"/>
<path d="M130.668 185.692C130.701 186.222 130.624 186.754 130.443 187.253C130.261 187.752 129.978 188.209 129.612 188.594C129.246 188.979 128.805 189.285 128.315 189.491C127.826 189.698 127.299 189.802 126.768 189.796C125.664 189.783 124.606 189.352 123.807 188.591C123.008 187.829 122.527 186.794 122.46 185.692C122.425 185.162 122.5 184.631 122.68 184.132C122.861 183.632 123.142 183.176 123.507 182.79C123.872 182.405 124.313 182.099 124.802 181.892C125.291 181.685 125.817 181.582 126.348 181.588C127.453 181.601 128.512 182.031 129.313 182.792C130.114 183.553 130.598 184.589 130.668 185.692V185.692Z" fill="#263238"/>
<path d="M143.304 185.692C143.339 186.222 143.264 186.753 143.083 187.252C142.903 187.751 142.622 188.208 142.257 188.593C141.892 188.979 141.451 189.284 140.962 189.491C140.473 189.698 139.947 189.802 139.416 189.796C138.311 189.786 137.252 189.356 136.452 188.594C135.652 187.832 135.172 186.795 135.108 185.692C135.073 185.162 135.148 184.631 135.329 184.132C135.509 183.632 135.79 183.176 136.155 182.79C136.52 182.405 136.961 182.099 137.45 181.892C137.939 181.685 138.465 181.582 138.996 181.588C140.101 181.598 141.16 182.028 141.96 182.79C142.76 183.552 143.24 184.589 143.304 185.692V185.692Z" fill="#263238"/>
<path d="M155.868 185.692C155.903 186.222 155.828 186.753 155.647 187.252C155.467 187.751 155.186 188.208 154.821 188.593C154.456 188.979 154.015 189.284 153.526 189.491C153.037 189.698 152.511 189.802 151.98 189.796C150.875 189.783 149.816 189.353 149.015 188.592C148.213 187.831 147.73 186.795 147.66 185.692C147.627 185.162 147.704 184.63 147.885 184.131C148.067 183.632 148.35 183.175 148.716 182.79C149.082 182.405 149.523 182.099 150.013 181.892C150.502 181.686 151.029 181.582 151.56 181.588C152.664 181.601 153.722 182.032 154.521 182.793C155.32 183.554 155.801 184.59 155.868 185.692Z" fill="#263238"/>
<path d="M168.528 185.692C168.561 186.221 168.485 186.752 168.304 187.25C168.123 187.749 167.841 188.205 167.477 188.59C167.112 188.975 166.672 189.28 166.184 189.488C165.696 189.695 165.17 189.8 164.64 189.796C163.535 189.783 162.476 189.353 161.675 188.592C160.873 187.831 160.39 186.795 160.32 185.692C160.287 185.163 160.363 184.632 160.544 184.134C160.725 183.635 161.007 183.179 161.371 182.794C161.736 182.409 162.176 182.104 162.664 181.896C163.152 181.689 163.678 181.584 164.208 181.588C165.313 181.601 166.372 182.031 167.173 182.792C167.975 183.553 168.458 184.589 168.528 185.692V185.692Z" fill="#263238"/>
<path d="M132.792 226.3C132.827 226.83 132.752 227.361 132.571 227.86C132.391 228.359 132.11 228.816 131.745 229.201C131.38 229.587 130.939 229.892 130.45 230.099C129.961 230.306 129.435 230.41 128.904 230.404C127.799 230.391 126.74 229.961 125.939 229.2C125.137 228.439 124.654 227.403 124.584 226.3C124.551 225.77 124.628 225.238 124.809 224.739C124.991 224.239 125.274 223.783 125.64 223.398C126.006 223.013 126.447 222.707 126.937 222.5C127.426 222.293 127.953 222.19 128.484 222.196C129.588 222.209 130.646 222.64 131.445 223.401C132.244 224.162 132.725 225.198 132.792 226.3Z" fill="#263238"/>
<path d="M145.404 226.3C145.437 226.829 145.361 227.36 145.18 227.858C144.999 228.357 144.717 228.812 144.353 229.197C143.988 229.582 143.548 229.888 143.06 230.096C142.572 230.303 142.046 230.408 141.516 230.404C140.411 230.391 139.352 229.961 138.551 229.2C137.749 228.439 137.266 227.403 137.196 226.3C137.161 225.77 137.236 225.239 137.417 224.74C137.597 224.24 137.878 223.784 138.243 223.398C138.608 223.013 139.049 222.707 139.538 222.5C140.027 222.293 140.553 222.19 141.084 222.196C142.189 222.209 143.248 222.639 144.049 223.4C144.851 224.161 145.334 225.197 145.404 226.3Z" fill="#263238"/>
<path d="M158.016 226.3C158.049 226.83 157.972 227.362 157.791 227.861C157.609 228.36 157.326 228.817 156.96 229.202C156.594 229.587 156.153 229.893 155.663 230.099C155.174 230.306 154.647 230.41 154.116 230.404C153.011 230.394 151.952 229.964 151.152 229.202C150.352 228.44 149.872 227.403 149.808 226.3C149.773 225.77 149.848 225.239 150.029 224.74C150.209 224.24 150.49 223.784 150.855 223.398C151.22 223.013 151.661 222.707 152.15 222.5C152.639 222.293 153.165 222.19 153.696 222.196C154.801 222.209 155.86 222.639 156.661 223.4C157.463 224.161 157.946 225.197 158.016 226.3Z" fill="#263238"/>
<path d="M170.616 226.3C170.651 226.83 170.576 227.361 170.395 227.86C170.215 228.359 169.934 228.816 169.569 229.201C169.204 229.587 168.763 229.892 168.274 230.099C167.785 230.306 167.259 230.41 166.728 230.404C165.623 230.391 164.564 229.961 163.763 229.2C162.961 228.439 162.478 227.403 162.408 226.3C162.375 225.77 162.452 225.238 162.633 224.739C162.815 224.239 163.098 223.783 163.464 223.398C163.83 223.013 164.271 222.707 164.76 222.5C165.25 222.293 165.777 222.19 166.308 222.196C167.413 222.206 168.472 222.636 169.272 223.398C170.072 224.16 170.552 225.197 170.616 226.3Z" fill="#263238"/>
<path d="M183.228 226.3C183.263 226.83 183.188 227.361 183.007 227.86C182.827 228.359 182.546 228.816 182.181 229.201C181.816 229.587 181.375 229.892 180.886 230.099C180.397 230.306 179.871 230.41 179.34 230.404C178.235 230.391 177.176 229.961 176.375 229.2C175.573 228.439 175.09 227.403 175.02 226.3C174.987 225.771 175.063 225.24 175.244 224.742C175.425 224.243 175.707 223.787 176.071 223.402C176.436 223.017 176.876 222.712 177.364 222.504C177.852 222.297 178.378 222.192 178.908 222.196C180.013 222.209 181.072 222.639 181.873 223.4C182.675 224.161 183.158 225.197 183.228 226.3Z" fill="#263238"/>
<path d="M195.84 226.3C195.873 226.83 195.796 227.362 195.615 227.861C195.433 228.36 195.151 228.817 194.785 229.202C194.419 229.587 193.977 229.893 193.488 230.099C192.998 230.306 192.471 230.41 191.94 230.404C190.836 230.391 189.778 229.96 188.979 229.199C188.18 228.437 187.699 227.402 187.632 226.3C187.597 225.77 187.672 225.239 187.853 224.74C188.033 224.24 188.314 223.784 188.679 223.398C189.044 223.013 189.485 222.707 189.974 222.5C190.463 222.293 190.989 222.19 191.52 222.196C192.625 222.209 193.684 222.639 194.485 223.4C195.287 224.161 195.771 225.197 195.84 226.3V226.3Z" fill="#263238"/>
<path d="M332.268 86.9441C332.568 87.4001 332.724 87.6401 332.916 87.9641L333.456 88.8521C333.804 89.4521 334.116 90.0521 334.416 90.6401C335.016 91.8401 335.616 93.0401 336.096 94.2401C337.102 96.6234 337.967 99.0636 338.688 101.548C340.141 106.456 341.098 111.497 341.544 116.596L341.628 117.544C341.638 117.736 341.638 117.928 341.628 118.12V118.756C341.648 119.591 341.6 120.425 341.484 121.252C341.254 122.785 340.851 124.286 340.284 125.728C339.23 128.304 337.833 130.726 336.132 132.928C332.959 136.992 329.192 140.556 324.96 143.5L321.648 139.624C324.662 136.22 327.331 132.526 329.616 128.596C330.644 126.813 331.45 124.911 332.016 122.932C332.245 122.094 332.378 121.232 332.412 120.364C332.449 119.993 332.449 119.619 332.412 119.248V118.996C332.424 118.884 332.424 118.772 332.412 118.66L332.268 117.82C331.496 113.348 330.405 108.937 329.004 104.62C328.308 102.472 327.456 100.396 326.604 98.3681C326.184 97.3481 325.704 96.3521 325.224 95.3921L324.48 93.9761L324.108 93.3161L323.796 92.7881L332.268 86.9441Z" fill="#803E3C"/>
<path d="M321.108 143.524L325.452 152.704L328.896 144.94C328.896 144.94 325.836 138.22 321.696 138.844L321.108 143.524Z" fill="#7F3E3B"/>
<path d="M328.56 153.16L332.016 147.496L328.896 144.94L325.452 152.704L328.56 153.16Z" fill="#7F3E3B"/>
<path d="M309.024 364.864C309.923 364.842 310.816 364.721 311.688 364.504C311.732 364.491 311.772 364.466 311.804 364.432C311.835 364.398 311.857 364.357 311.868 364.312C311.875 364.266 311.869 364.219 311.85 364.176C311.831 364.133 311.799 364.097 311.76 364.072C311.412 363.844 308.364 361.876 307.188 362.404C307.058 362.465 306.946 362.559 306.864 362.677C306.781 362.795 306.732 362.933 306.72 363.076C306.684 363.293 306.701 363.516 306.77 363.725C306.839 363.934 306.958 364.123 307.116 364.276C307.66 364.696 308.338 364.905 309.024 364.864V364.864ZM311.004 364.156C309.264 364.516 307.944 364.456 307.404 363.988C307.294 363.879 307.213 363.743 307.169 363.594C307.125 363.445 307.119 363.288 307.152 363.136C307.152 362.932 307.272 362.872 307.356 362.836C308.004 362.548 309.768 363.4 311.004 364.156V364.156Z" fill="#407BFF"/>
<path d="M311.628 364.504H311.748C311.784 364.481 311.814 364.449 311.835 364.411C311.856 364.373 311.867 364.331 311.868 364.288C311.868 364.168 311.868 361.276 310.764 360.304C310.629 360.182 310.468 360.091 310.294 360.038C310.12 359.984 309.937 359.968 309.756 359.992C309.567 359.994 309.384 360.06 309.237 360.18C309.091 360.3 308.99 360.467 308.952 360.652C308.724 361.792 310.548 363.952 311.508 364.504H311.628ZM309.912 360.436C310.009 360.433 310.106 360.45 310.197 360.485C310.287 360.52 310.37 360.573 310.44 360.64C311.073 361.573 311.4 362.681 311.376 363.808C310.416 363.04 309.276 361.408 309.42 360.724C309.42 360.616 309.504 360.472 309.804 360.436H309.912Z" fill="#407BFF"/>
<path d="M297.696 359.968C297.724 359.933 297.742 359.891 297.749 359.846C297.755 359.802 297.75 359.756 297.732 359.714C297.715 359.673 297.687 359.637 297.651 359.609C297.615 359.582 297.573 359.565 297.528 359.56C297.036 359.56 292.728 359.356 291.744 360.412V360.484C291.663 360.588 291.61 360.711 291.591 360.842C291.572 360.972 291.588 361.105 291.636 361.228C291.7 361.434 291.813 361.621 291.966 361.774C292.119 361.927 292.306 362.04 292.512 362.104C293.904 362.536 296.364 360.964 297.708 359.992L297.696 359.968ZM292.104 360.724C292.644 360.148 295.02 359.992 296.796 360.016C294.936 361.288 293.388 361.888 292.608 361.648C292.472 361.607 292.348 361.533 292.248 361.432C292.147 361.332 292.073 361.208 292.032 361.072C292.008 361.026 291.995 360.974 291.995 360.922C291.995 360.87 292.008 360.818 292.032 360.772L292.104 360.724Z" fill="#407BFF"/>
<path d="M297.696 359.968C297.714 359.931 297.724 359.89 297.724 359.848C297.724 359.806 297.714 359.765 297.696 359.728C297.636 359.632 296.292 357.328 294.708 356.848C294.481 356.781 294.242 356.762 294.007 356.791C293.771 356.82 293.545 356.896 293.34 357.016C292.764 357.352 292.728 357.748 292.8 358C293.112 359.116 296.172 360.1 297.492 360.088C297.534 360.087 297.574 360.076 297.61 360.055C297.646 360.034 297.675 360.004 297.696 359.968ZM293.388 357.568C293.456 357.502 293.532 357.445 293.616 357.4C293.764 357.306 293.931 357.245 294.105 357.222C294.28 357.199 294.457 357.215 294.624 357.268C295.668 357.544 296.64 358.888 297.084 359.548C295.656 359.392 293.484 358.516 293.304 357.844C293.289 357.793 293.289 357.739 293.303 357.688C293.318 357.637 293.348 357.591 293.388 357.556V357.568Z" fill="#407BFF"/>
<path d="M310.908 51.7961C309.708 57.7961 307.116 70.7681 311.28 74.7521C311.28 74.7521 309.648 80.7521 298.572 80.7521C286.38 80.7521 292.752 74.7521 292.752 74.7521C299.4 73.1681 299.232 68.2241 298.068 63.5921L310.908 51.7961Z" fill="#7F3E3B"/>
<path d="M290.604 37.7321C290.672 37.7431 290.74 37.7431 290.808 37.7321C290.865 37.704 290.916 37.665 290.958 37.6171C290.999 37.5692 291.031 37.5135 291.051 37.4532C291.071 37.393 291.079 37.3293 291.075 37.2659C291.07 37.2026 291.053 37.1408 291.024 37.0841C290.701 36.3996 290.219 35.8025 289.618 35.3431C289.016 34.8838 288.313 34.5754 287.568 34.4441C287.443 34.4336 287.319 34.4713 287.221 34.5493C287.123 34.6274 287.058 34.74 287.04 34.8641C287.026 34.9897 287.063 35.1155 287.142 35.2143C287.22 35.3132 287.335 35.3771 287.46 35.3921V35.3921C288.048 35.5051 288.601 35.7567 289.073 36.1261C289.545 36.4954 289.921 36.972 290.172 37.5161C290.219 37.5871 290.283 37.6445 290.359 37.6824C290.435 37.7203 290.519 37.7375 290.604 37.7321Z" fill="#263238"/>
<path d="M286.968 43C286.023 44.7517 284.845 46.3666 283.464 47.8C283.838 48.142 284.281 48.3985 284.764 48.5519C285.247 48.7052 285.757 48.7517 286.26 48.688L286.968 43Z" fill="#630F0F"/>
<path d="M287.868 41.644C287.772 42.448 287.256 43.048 286.74 42.988C286.224 42.928 285.864 42.22 285.96 41.416C286.056 40.612 286.572 40.012 287.16 40.072C287.748 40.132 287.952 40.84 287.868 41.644Z" fill="#263238"/>
<path d="M287.316 40.1441L285.468 39.4001C285.468 39.4001 286.248 40.9841 287.316 40.1441Z" fill="#263238"/>
<path d="M308.292 357.688L298.5 359.968L292.548 337.456L302.34 335.176L308.292 357.688Z" fill="#7F3E3B"/>
<path d="M323.316 364.264H313.272L314.052 340.996H324.108L323.316 364.264Z" fill="#7F3E3B"/>
<path d="M312.468 363.1H323.76C323.956 363.098 324.146 363.168 324.294 363.296C324.442 363.424 324.538 363.602 324.564 363.796L325.848 372.724C325.874 372.95 325.851 373.179 325.781 373.395C325.712 373.611 325.598 373.81 325.446 373.979C325.294 374.148 325.108 374.283 324.9 374.375C324.692 374.467 324.467 374.514 324.24 374.512C320.304 374.452 318.408 374.212 313.44 374.212C310.38 374.212 305.916 374.536 301.704 374.536C297.492 374.536 297.252 370.36 299.016 369.988C306.888 368.284 308.136 365.956 310.788 363.724C311.257 363.324 311.852 363.103 312.468 363.1Z" fill="#263238"/>
<path d="M297.636 358.468L307.896 353.752C308.07 353.669 308.269 353.652 308.455 353.706C308.64 353.759 308.8 353.878 308.904 354.04L313.812 361.624C313.927 361.819 313.999 362.036 314.025 362.261C314.05 362.486 314.028 362.714 313.961 362.93C313.893 363.146 313.78 363.345 313.631 363.515C313.481 363.685 313.298 363.822 313.092 363.916C309.492 365.5 307.668 366.088 303.156 368.164C300.384 369.436 294.756 372.364 290.94 374.164C287.124 375.964 285.156 372.232 286.596 371.152C293.04 366.352 294.888 362.908 296.364 359.776C296.614 359.199 297.066 358.734 297.636 358.468V358.468Z" fill="#263238"/>
<path opacity="0.2" d="M292.548 337.456L295.74 349.528L305.412 346.78L302.352 335.176L292.548 337.456Z" fill="black"/>
<path opacity="0.2" d="M324.108 340.996H314.052L313.656 352.996H323.712L324.108 340.996Z" fill="black"/>
<path d="M328.668 77.0321C332.844 77.9561 337.308 92.9681 337.308 92.9681L325.5 105.532C325.5 105.532 315.696 91.4201 317.7 86.2361C319.728 80.8241 323.688 75.9521 328.668 77.0321Z" fill="#263238"/>
<path opacity="0.4" d="M321.996 86.5961C319.884 84.6641 318.456 85.2401 317.484 86.7761C316.524 91.2401 322.212 100.588 324.504 104.128C325.56 99.9041 326.772 91.0001 321.996 86.5961Z" fill="black"/>
<path d="M275.76 77.3321C275.76 77.3321 270.96 79.0121 280.56 137.992H321.36C320.676 121.384 320.652 111.136 328.56 77.0321C322.843 75.8525 317.048 75.0905 311.22 74.7521C305.052 74.3076 298.86 74.3076 292.692 74.7521C284.784 75.4841 275.76 77.3321 275.76 77.3321Z" fill="#263238"/>
<path opacity="0.4" d="M275.388 99.964C275.652 102.832 276 106.06 276.456 109.708C279.804 106.696 282.54 98.128 281.532 93.136C279.14 95.0773 277.067 97.3812 275.388 99.964Z" fill="black"/>
<path d="M279.756 91C277.554 96.5412 275.075 101.968 272.328 107.26C269.612 112.743 266.399 117.965 262.728 122.86L261.96 123.808L261.576 124.276C261.444 124.432 261.336 124.576 261.132 124.792C260.41 125.58 259.605 126.288 258.732 126.904C257.189 127.972 255.499 128.813 253.716 129.4C250.606 130.393 247.378 130.966 244.116 131.104C238.008 131.347 231.893 130.802 225.924 129.484L226.584 124.444C229.344 124.444 232.236 124.444 234.984 124.216C237.744 124.08 240.493 123.776 243.216 123.304C245.745 122.909 248.218 122.217 250.584 121.24C251.54 120.832 252.432 120.291 253.236 119.632C253.543 119.375 253.82 119.085 254.064 118.768C254.064 118.768 254.208 118.576 254.304 118.444L254.58 118.048L255.144 117.256C258.155 112.605 260.838 107.749 263.172 102.724C265.572 97.624 267.972 92.332 270.168 87.124L279.756 91Z" fill="#803E3C"/>
<path d="M275.76 77.3321C270.756 78.5321 264.612 92.2601 264.612 92.2601L274.98 107.5C274.98 107.5 288.792 90.1121 287.148 84.8081C285.468 79.2761 281.868 75.8441 275.76 77.3321Z" fill="#263238"/>
<path d="M229.464 125.212L220.812 121.216L219.948 129.82C219.948 129.82 227.148 131.944 230.748 129.82L229.464 125.212Z" fill="#7F3E3B"/>
<path d="M215.64 120.352L214.812 126.904L219.948 129.82L220.812 121.216L215.64 120.352Z" fill="#7F3E3B"/>
<path d="M315.252 42.2321C313.416 52.0361 312.852 56.2361 307.236 60.6881C298.836 67.3841 287.136 62.9921 286.008 52.8401C284.976 43.6961 288.144 29.2001 298.308 26.4401C300.547 25.8224 302.907 25.7886 305.163 26.3418C307.418 26.895 309.495 28.0169 311.194 29.6005C312.893 31.184 314.158 33.1764 314.868 35.3876C315.579 37.5989 315.711 39.9553 315.252 42.2321V42.2321Z" fill="#7F3E3B"/>
<path d="M293.712 44.2961C293.148 49.3001 292.932 62.2961 303.924 62.7041C317.376 63.1961 321.408 51.7001 320.208 47.1041C327.216 41.4041 328.224 31.6001 320.352 24.1001C312.48 16.6001 295.152 20.7881 290.352 28.0961C284.268 37.1561 293.712 44.2961 293.712 44.2961Z" fill="#263238"/>
<path d="M307.188 27.0161C306.54 21.7361 307.044 18.1001 311.988 18.1001C316.932 18.1001 323.676 19.8881 326.148 24.9401C328.62 29.9921 328.824 37.9001 321.924 37.0961C315.024 36.2921 307.968 33.3281 307.188 27.0161Z" fill="#407BFF"/>
<path d="M314.844 25.7441C313.644 19.4561 319.272 1.74408 332.94 0.544081C339.276 0.00408154 342.204 6.82008 338.94 7.94808C344.94 7.87608 348.78 15.8081 343.188 16.9961C347.604 19.8281 346.512 25.6361 340.212 28.4921C335.52 30.6521 316.464 34.4561 314.844 25.7441Z" fill="#263238"/>
<path d="M329.448 32.5001C325.044 32.5001 320.448 31.8521 317.592 29.9441C316.793 29.4627 316.121 28.798 315.631 28.005C315.14 27.212 314.846 26.3135 314.772 25.3841C314.768 25.3052 314.795 25.2278 314.846 25.1677C314.897 25.1076 314.97 25.0691 315.048 25.0601C315.088 25.055 315.128 25.0584 315.166 25.0698C315.205 25.0812 315.24 25.1006 315.271 25.1265C315.301 25.1525 315.326 25.1846 315.344 25.2206C315.361 25.2567 315.371 25.296 315.372 25.3361C315.444 26.1748 315.713 26.9847 316.158 27.6999C316.602 28.415 317.208 29.0154 317.928 29.4521C323.364 33.0521 335.928 31.8521 339.84 30.6521C343.224 29.5481 345.516 27.4001 345.972 24.9281C346.114 24.0209 346.002 23.0922 345.648 22.2448C345.295 21.3975 344.713 20.6648 343.968 20.1281C343.939 20.1011 343.916 20.0686 343.901 20.0325C343.885 19.9964 343.877 19.9574 343.877 19.9181C343.877 19.8787 343.885 19.8398 343.901 19.8037C343.916 19.7675 343.939 19.735 343.968 19.7081C344.024 19.6531 344.099 19.6223 344.178 19.6223C344.257 19.6223 344.332 19.6531 344.388 19.7081C345.226 20.3192 345.877 21.1513 346.269 22.1112C346.661 23.0712 346.778 24.1212 346.608 25.1441C346.116 27.8441 343.68 30.1481 340.08 31.3241C336.606 32.1997 333.029 32.5954 329.448 32.5001V32.5001Z" fill="#263238"/>
<path d="M290.652 43C289.535 44.5675 289.074 46.5096 289.368 48.412C289.764 50.932 292.212 51.1 293.988 49.492C295.764 47.884 297.312 44.98 296.004 42.892C295.713 42.441 295.312 42.0718 294.838 41.8197C294.365 41.5677 293.834 41.441 293.298 41.4518C292.761 41.4626 292.237 41.6106 291.773 41.8816C291.31 42.1526 290.924 42.5376 290.652 43Z" fill="#7F3E3B"/>
<path d="M291.336 137.992C291.336 137.992 297.168 206.98 303.228 245.86C308.112 277.264 311.976 350.668 311.976 350.668H325.68C325.68 350.668 330.552 279.46 328.08 248.404C321.804 169.804 335.808 163.396 321.396 138.004L291.336 137.992Z" fill="#407BFF"/>
<path opacity="0.4" d="M308.592 164.068C303.161 169.768 298.778 176.382 295.644 183.604C297.24 199.108 299.136 216.316 301.152 231.388C309.424 209.972 311.988 186.774 308.592 164.068V164.068Z" fill="black"/>
<path d="M281.748 137.56C281.748 137.56 269.088 212.908 267.096 246.868C272.064 278.272 292.392 344.656 292.392 344.656L304.86 340.132C304.86 340.132 297.96 267.748 290.46 247.936C307.344 191.092 319.752 176.716 316.14 137.992C307.488 137.992 281.748 137.56 281.748 137.56Z" fill="#407BFF"/>
<path d="M290.724 347.968L307.572 343.396L306.612 336.676L288.576 341.56L290.724 347.968Z" fill="#263238"/>
<path d="M310.092 350.944H327.552L328.464 344.824L309.996 344.2L310.092 350.944Z" fill="#263238"/>
<path d="M321.996 135.592L323.832 139.252C323.976 139.54 323.64 139.828 323.172 139.828H280.356C279.996 139.828 279.684 139.648 279.66 139.408L279.288 135.808C279.288 135.556 279.588 135.34 279.984 135.34H321.324C321.448 135.323 321.575 135.337 321.692 135.381C321.809 135.425 321.914 135.498 321.996 135.592V135.592Z" fill="#407BFF"/>
<path opacity="0.5" d="M321.996 135.592L323.832 139.252C323.976 139.54 323.64 139.828 323.172 139.828H280.356C279.996 139.828 279.684 139.648 279.66 139.408L279.288 135.808C279.288 135.556 279.588 135.34 279.984 135.34H321.324C321.448 135.323 321.575 135.337 321.692 135.381C321.809 135.425 321.914 135.498 321.996 135.592V135.592Z" fill="black"/>
<path d="M316.44 140.2H317.544C317.772 140.2 317.94 140.08 317.928 139.948L317.4 135.148C317.4 135.004 317.196 134.896 316.98 134.896H315.864C315.648 134.896 315.48 135.004 315.492 135.148L316.008 139.948C316.032 140.104 316.224 140.2 316.44 140.2Z" fill="#407BFF"/>
<path d="M301.584 105.256C301.452 105.254 301.323 105.21 301.217 105.13C301.112 105.05 301.034 104.939 300.996 104.812C297.084 90.3402 288.996 78.4122 285.072 76.6122C284.767 76.4249 284.401 76.3646 284.052 76.4442C283.98 76.4823 283.9 76.5053 283.818 76.5116C283.737 76.5179 283.655 76.5074 283.577 76.4807C283.5 76.4541 283.428 76.4119 283.368 76.3567C283.307 76.3015 283.259 76.2345 283.225 76.1598C283.192 76.0851 283.174 76.0044 283.172 75.9225C283.171 75.8406 283.187 75.7593 283.218 75.6836C283.249 75.6079 283.296 75.5395 283.355 75.4825C283.414 75.4255 283.483 75.3811 283.56 75.3522C283.888 75.2317 284.238 75.1844 284.587 75.2134C284.935 75.2424 285.272 75.3471 285.576 75.5202C289.728 77.4882 297.936 89.2482 302.04 104.044C304.98 104.044 309.516 103.648 310.62 103.552C311.988 101.92 322.044 89.3442 318.288 75.5802C318.266 75.5045 318.26 75.4253 318.269 75.3471C318.279 75.269 318.304 75.1936 318.343 75.1253C318.382 75.0571 318.435 74.9973 318.497 74.9497C318.56 74.9021 318.632 74.8676 318.708 74.8481C318.861 74.8077 319.023 74.8291 319.16 74.9077C319.297 74.9863 319.398 75.1159 319.44 75.2682C323.628 90.5802 311.484 104.392 311.352 104.524C311.305 104.582 311.247 104.631 311.181 104.666C311.115 104.701 311.042 104.722 310.968 104.728C310.908 104.728 304.92 105.256 301.584 105.256Z" fill="#407BFF"/>
<path d="M321.468 113.728C314.928 101.476 312.252 100.612 311.088 96.6761C311.97 94.4751 313.229 92.4447 314.808 90.6761C314.016 90.4481 312.312 90.1121 311.208 89.9081C311.328 89.3681 311.46 88.8401 311.58 88.3241C310.379 88.1897 309.164 88.2464 307.98 88.4921V87.2921C306.456 86.9605 304.89 86.8594 303.336 86.9921C303.472 87.5601 303.604 88.1361 303.732 88.7201C302.532 88.9481 300.708 89.3201 299.832 89.5721C301.534 91.5 302.785 93.7835 303.492 96.2561C299.964 102.316 286.26 141.268 308.556 144.256C330.852 147.244 327.996 125.992 321.468 113.728Z" fill="#407BFF"/>
<path opacity="0.4" d="M321.468 113.728C314.928 101.476 312.252 100.612 311.088 96.6761C311.97 94.4751 313.229 92.4447 314.808 90.6761C314.016 90.4481 312.312 90.1121 311.208 89.9081C311.328 89.3681 311.46 88.8401 311.58 88.3241C310.379 88.1897 309.164 88.2464 307.98 88.4921V87.2921C306.456 86.9605 304.89 86.8594 303.336 86.9921C303.472 87.5601 303.604 88.1361 303.732 88.7201C302.532 88.9481 300.708 89.3201 299.832 89.5721C301.534 91.5 302.785 93.7835 303.492 96.2561C299.964 102.316 286.26 141.268 308.556 144.256C330.852 147.244 327.996 125.992 321.468 113.728Z" fill="white"/>
<path d="M302.58 95.0921C302.441 95.7101 302.381 96.3431 302.4 96.9761C302.4 97.4201 303.6 97.7201 304.932 97.8521C306.264 97.9841 311.856 98.2001 311.676 97.5761C311.496 96.9521 311.952 96.1001 311.976 95.5721C312 95.0441 309.756 95.0201 307.872 95.0921C305.988 95.1641 302.952 94.4201 302.58 95.0921Z" fill="#407BFF"/>
<path d="M289.608 140.2H290.712C290.928 140.2 291.096 140.08 291.084 139.948L290.568 135.148C290.568 135.004 290.364 134.896 290.136 134.896H289.068C288.852 134.896 288.684 135.004 288.696 135.148L289.212 139.948C289.188 140.104 289.38 140.2 289.608 140.2Z" fill="#407BFF"/>
<defs>
<linearGradient id="paint0_linear" x1="222.153" y1="5.16064" x2="222.153" y2="282.647" gradientUnits="userSpaceOnUse">
<stop stop-color="#FFACC6"/>
<stop offset="1" stop-color="#B6E0F5" stop-opacity="0"/>
</linearGradient>
</defs>
</svg>
