<svg width="168" height="41" viewBox="0 0 168 41" fill="none" xmlns="http://www.w3.org/2000/svg">
<path d="M63.1765 34.1895H49.5791V5.33195C49.5791 3.45814 48.0609 1.93994 46.1871 1.93994C44.3133 1.93994 42.7951 3.45814 42.7951 5.33195V37.5834C42.7951 39.4573 44.3133 40.9755 46.1871 40.9755H63.1784C65.0523 40.9755 66.5705 39.4573 66.5705 37.5834C66.5685 35.7096 65.0503 34.1895 63.1765 34.1895Z" fill="#2E2F33"/>
<path d="M118.854 17.6978C121.859 16.5001 123.985 13.5653 123.985 10.1322C123.985 5.6343 120.339 1.98828 115.841 1.98828H106.606C105.17 1.98828 104.008 3.15282 104.008 4.587V38.3743C104.008 39.8104 105.172 40.973 106.606 40.973H115.841C122.375 40.973 127.674 35.6759 127.674 29.14C127.674 23.6495 123.928 19.0304 118.854 17.6978Z" fill="#2E2F33"/>
<path d="M116.896 36.4928C120.238 36.4928 122.947 33.7835 122.947 30.4414C122.947 27.0994 120.238 24.3901 116.896 24.3901C113.554 24.3901 110.844 27.0994 110.844 30.4414C110.844 33.7835 113.554 36.4928 116.896 36.4928Z" fill="white"/>
<path d="M112.214 14.4193C114.403 14.4193 116.177 12.6452 116.177 10.4567C116.177 8.26824 114.403 6.49414 112.214 6.49414C110.026 6.49414 108.252 8.26824 108.252 10.4567C108.252 12.6452 110.026 14.4193 112.214 14.4193Z" fill="white"/>
<path d="M167 21.944C167 23.044 166.384 24.0515 165.406 24.5535L140.153 37.5065C138.85 38.1745 137.302 37.2288 137.302 35.765V35.765C137.302 35.0223 137.723 34.3435 138.388 34.0127L162.462 22.0372C162.497 22.0196 162.52 21.9835 162.52 21.944V21.944C162.52 21.9045 162.497 21.8684 162.462 21.8508L138.388 9.87527C137.723 9.54446 137.302 8.8657 137.302 8.12294V8.12294C137.302 6.6592 138.85 5.71345 140.153 6.38149L165.406 19.3345C166.384 19.8365 167 20.844 167 21.944V21.944Z" fill="#0058C1" stroke="#0058C1" stroke-width="2" stroke-miterlimit="10"/>
<path d="M1.00001 22.5328C1.00001 23.6328 1.61553 24.6403 2.59427 25.1423L27.8473 38.0953C29.1497 38.7634 30.6977 37.8176 30.6977 36.3539V36.3539C30.6977 35.6111 30.2773 34.9324 29.6122 34.6016L5.53809 22.626C5.50272 22.6085 5.48036 22.5724 5.48036 22.5328V22.5328C5.48036 22.4933 5.50272 22.4572 5.53809 22.4397L29.6122 10.4641C30.2773 10.1333 30.6977 9.45457 30.6977 8.7118V8.7118C30.6977 7.24807 29.1497 6.30232 27.8473 6.97036L2.59427 19.9234C1.61553 20.4254 1.00001 21.4329 1.00001 22.5328V22.5328Z" fill="#0058C1" stroke="#0058C1" stroke-width="2" stroke-miterlimit="10"/>
<path d="M75.4762 35.4367L72.4414 17.9444L73.429 18.9166C78.9424 24.3441 88.236 22.1159 90.6889 14.7783V14.7783L93.7215 32.2727L75.4762 35.4367Z" fill="url(#paint0_linear)"/>
<path d="M97.8316 36.2021L74.6453 40.5378C73.1453 40.8189 71.7029 39.8299 71.4238 38.3299C71.1427 36.83 72.1317 35.3875 73.6316 35.1085L96.8179 30.7728C98.3179 30.4917 99.7603 31.4807 100.039 32.9807C100.318 34.4785 99.3294 35.921 97.8316 36.2021Z" fill="#2E2F33"/>
<path d="M87.2643 13.1465L76.1533 15.223C74.6534 15.5041 73.2109 14.5151 72.9319 13.0151C72.6508 11.5152 73.6398 10.0727 75.1397 9.79369L86.2507 7.71718C87.7506 7.43607 89.1931 8.42508 89.4721 9.925C89.7512 11.4229 88.7642 12.8654 87.2643 13.1465Z" fill="#2E2F33"/>
<path d="M84.2911 5.26958L75.7204 6.87211C74.2779 7.14091 72.8909 6.19088 72.62 4.74841C72.3512 3.30593 73.3012 1.91886 74.7437 1.64801L83.3144 0.0454854C84.7569 -0.223311 86.144 0.726712 86.4148 2.16919C86.6836 3.61166 85.7336 5.00078 84.2911 5.26958Z" fill="#2E2F33"/>
<path d="M71.3745 37.6441L72.8703 12.369C72.9606 10.8465 74.2677 9.68515 75.7902 9.77543C77.3127 9.86572 78.474 11.1728 78.3838 12.6953L76.8879 37.9704C76.7976 39.4929 75.4906 40.6542 73.9681 40.564C72.4456 40.4737 71.2842 39.1666 71.3745 37.6441Z" fill="#2E2F33"/>
<path d="M89.2689 9.28498L99.8833 32.3051C100.521 33.6901 99.9161 35.3295 98.5311 35.9697C97.1461 36.6079 95.5067 36.0026 94.8665 34.6176L84.2521 11.5975C83.6139 10.2124 84.2192 8.57298 85.6043 7.93279C86.9893 7.29465 88.6308 7.89996 89.2689 9.28498Z" fill="#2E2F33"/>
<defs>
<linearGradient id="paint0_linear" x1="74.058" y1="18.2366" x2="92.6076" y2="32.36" gradientUnits="userSpaceOnUse">
<stop stop-color="#33D2FF"/>
<stop offset="0.5375" stop-color="#3D68DE"/>
<stop offset="1" stop-color="#9845E8"/>
</linearGradient>
</defs>
</svg>
