<svg width="27" height="27" viewBox="0 0 27 27" fill="none" xmlns="http://www.w3.org/2000/svg">
<path fill-rule="evenodd" clip-rule="evenodd" d="M11.7278 13.5C11.7278 14.8824 10.6075 16.0027 9.22511 16.0027C7.84268 16.0027 6.72241 14.8824 6.72241 13.5C6.72241 12.1176 7.84268 10.9973 9.22511 10.9973H9.22917C10.6102 10.9987 11.7278 12.1189 11.7278 13.5Z" stroke="#648FFF" stroke-width="2" stroke-linecap="round" stroke-linejoin="round"/>
<path d="M11.7327 13.5H20.2705V16.0027" stroke="#648FFF" stroke-width="2" stroke-linecap="round" stroke-linejoin="round"/>
<path d="M16.4491 16.0027V13.5" stroke="#648FFF" stroke-width="2" stroke-linecap="round" stroke-linejoin="round"/>
<path fill-rule="evenodd" clip-rule="evenodd" d="M1 13.5C1 4.12568 4.12568 1 13.5 1C22.8743 1 26 4.12568 26 13.5C26 22.8743 22.8743 26 13.5 26C4.12568 26 1 22.8743 1 13.5Z" stroke="#648FFF" stroke-width="2" stroke-linecap="round" stroke-linejoin="round"/>
</svg>
