<svg width="21" height="21" viewBox="0 0 21 21" fill="none" xmlns="http://www.w3.org/2000/svg">
<path d="M10.9243 21C10.3345 21.0017 9.76846 20.7673 9.35258 20.3491L0.650948 11.6463C0.191751 11.1884 -0.0437049 10.5523 0.00671191 9.90573L0.562088 2.6125C0.641283 1.5155 1.51533 0.643817 2.61254 0.567597L9.90573 0.0122183C9.96238 0 10.0201 0 10.0768 0C10.6653 0.0015109 11.2294 0.235457 11.6463 0.650904L20.349 9.35258C20.7658 9.76922 21 10.3344 21 10.9237C21 11.5131 20.7658 12.0783 20.349 12.4949L12.4949 20.3491C12.0793 20.7671 11.5137 21.0015 10.9243 21ZM10.0757 2.22151L2.77693 2.77689L2.22155 10.0757L10.9243 18.7785L18.7773 10.9254L10.0757 2.22151ZM6.21137 8.43288C5.15154 8.4331 4.23913 7.68462 4.03216 6.64518C3.82519 5.60575 4.3813 4.56486 5.36039 4.1591C6.33948 3.75334 7.46884 4.09571 8.0578 4.97684C8.64676 5.85797 8.53128 7.03243 7.78197 7.78197C7.36636 8.19996 6.80082 8.43434 6.21137 8.43288Z" fill="#648FFF"/>
</svg>
