<svg width="124" height="30" viewBox="0 0 124 30" fill="none" xmlns="http://www.w3.org/2000/svg">
<path d="M46.5223 25.0317H36.5671V3.90371C36.5671 2.5318 35.4555 1.42026 34.0836 1.42026C32.7117 1.42026 31.6002 2.5318 31.6002 3.90371V27.5165C31.6002 28.8884 32.7117 30 34.0836 30H46.5238C47.8957 30 49.0072 28.8884 49.0072 27.5165C49.0058 26.1446 47.8942 25.0317 46.5223 25.0317Z" fill="#2E2F33"/>
<path d="M87.2861 12.9577C89.4863 12.0808 91.0428 9.93209 91.0428 7.4186C91.0428 4.12545 88.3733 1.45602 85.0802 1.45602H78.3194C77.2679 1.45602 76.4167 2.30864 76.4167 3.35867V28.0959C76.4167 29.1474 77.2693 29.9986 78.3194 29.9986H85.0802C89.864 29.9986 93.7437 26.1203 93.7437 21.3351C93.7437 17.3152 91.0013 13.9334 87.2861 12.9577Z" fill="#2E2F33"/>
<path d="M85.8526 26.7183C88.2995 26.7183 90.2831 24.7347 90.2831 22.2878C90.2831 19.8409 88.2995 17.8574 85.8526 17.8574C83.4058 17.8574 81.4222 19.8409 81.4222 22.2878C81.4222 24.7347 83.4058 26.7183 85.8526 26.7183Z" fill="white"/>
<path d="M82.425 10.5572C84.0273 10.5572 85.3262 9.25833 85.3262 7.65606C85.3262 6.05378 84.0273 4.75488 82.425 4.75488C80.8228 4.75488 79.5239 6.05378 79.5239 7.65606C79.5239 9.25833 80.8228 10.5572 82.425 10.5572Z" fill="white"/>
<path d="M122.536 16.0663C122.536 16.8717 122.086 17.6093 121.369 17.9769L102.88 27.4604C101.927 27.9495 100.793 27.257 100.793 26.1854V26.1854C100.793 25.6416 101.101 25.1446 101.588 24.9024L119.214 16.1346C119.24 16.1217 119.256 16.0953 119.256 16.0663V16.0663C119.256 16.0374 119.24 16.011 119.214 15.9981L101.588 7.23027C101.101 6.98806 100.793 6.49112 100.793 5.9473V5.9473C100.793 4.87563 101.927 4.1832 102.88 4.67231L121.369 14.1558C122.086 14.5234 122.536 15.261 122.536 16.0663V16.0663Z" fill="#0058C1" stroke="#0058C1" stroke-width="2" stroke-miterlimit="10"/>
<path d="M0.999992 16.4974C0.999992 17.3027 1.45064 18.0404 2.16722 18.4079L20.6562 27.8914C21.6097 28.3805 22.7431 27.6881 22.7431 26.6164V26.6164C22.7431 26.0726 22.4352 25.5757 21.9483 25.3335L4.32253 16.5656C4.29664 16.5527 4.28026 16.5263 4.28026 16.4974V16.4974C4.28026 16.4685 4.29664 16.442 4.32253 16.4292L21.9483 7.66133C22.4352 7.41913 22.7431 6.92218 22.7431 6.37836V6.37836C22.7431 5.30669 21.6097 4.61427 20.6562 5.10337L2.16722 14.5869C1.45064 14.9544 0.999992 15.6921 0.999992 16.4974V16.4974Z" fill="#0058C1" stroke="#0058C1" stroke-width="2" stroke-miterlimit="10"/>
<path d="M55.5275 25.9446L53.3056 13.1377L54.0286 13.8495C58.0653 17.8232 64.8695 16.1918 66.6654 10.8197V10.8197L68.8858 23.6281L55.5275 25.9446Z" fill="url(#paint0_linear)"/>
<path d="M71.8949 26.505L54.9192 29.6793C53.821 29.8851 52.7649 29.161 52.5606 28.0629C52.3548 26.9647 53.0789 25.9086 54.177 25.7043L71.1528 22.53C72.251 22.3242 73.3071 23.0483 73.5114 24.1464C73.7157 25.2431 72.9916 26.2992 71.8949 26.505Z" fill="#2E2F33"/>
<path d="M64.1581 9.62538L56.0233 11.1457C54.9251 11.3515 53.869 10.6274 53.6647 9.52923C53.4589 8.43106 54.183 7.37496 55.2811 7.17065L63.416 5.65034C64.5142 5.44453 65.5703 6.16863 65.7746 7.2668C65.9789 8.36346 65.2563 9.41957 64.1581 9.62538Z" fill="#2E2F33"/>
<path d="M61.9814 3.85811L55.7063 5.03139C54.6502 5.22819 53.6347 4.53263 53.4364 3.47653C53.2396 2.42043 53.9351 1.40488 54.9912 1.20658L61.2663 0.033302C62.3224 -0.163497 63.3379 0.53206 63.5362 1.58816C63.733 2.64427 63.0375 3.66131 61.9814 3.85811Z" fill="#2E2F33"/>
<path d="M52.5245 27.5611L53.6196 9.05596C53.6857 7.94127 54.6427 7.09098 55.7574 7.15708C56.8721 7.22318 57.7224 8.18013 57.6563 9.29482L56.5611 27.7999C56.495 28.9146 55.5381 29.7649 54.4234 29.6988C53.3087 29.6327 52.4584 28.6758 52.5245 27.5611Z" fill="#2E2F33"/>
<path d="M65.6258 6.79809L73.3971 23.6522C73.8643 24.6662 73.4212 25.8665 72.4071 26.3353C71.3931 26.8025 70.1928 26.3593 69.724 25.3453L61.9527 8.49117C61.4855 7.47713 61.9287 6.2768 62.9427 5.80809C63.9568 5.34088 65.1586 5.78406 65.6258 6.79809Z" fill="#2E2F33"/>
<defs>
<linearGradient id="paint0_linear" x1="54.4892" y1="13.3516" x2="68.0702" y2="23.692" gradientUnits="userSpaceOnUse">
<stop stop-color="#33D2FF"/>
<stop offset="0.5375" stop-color="#3D68DE"/>
<stop offset="1" stop-color="#9845E8"/>
</linearGradient>
</defs>
</svg>
