<svg width="548" height="548" viewBox="0 0 548 548" fill="none" xmlns="http://www.w3.org/2000/svg">
<path d="M548 419.11H0V419.384H548V419.11Z" fill="#EBEBEB"/>
<path d="M493.09 436.745H432.558V437.019H493.09V436.745Z" fill="#EBEBEB"/>
<path d="M362.228 431.002H352.704V431.276H362.228V431.002Z" fill="#EBEBEB"/>
<path d="M429.259 426.574H408.227V426.848H429.259V426.574Z" fill="#EBEBEB"/>
<path d="M104.832 428.415H57.4962V428.689H104.832V428.415Z" fill="#EBEBEB"/>
<path d="M286.111 435.496H236.002V435.77H286.111V435.496Z" fill="#EBEBEB"/>
<path d="M256.617 430.859H153.944V431.134H256.617V430.859Z" fill="#EBEBEB"/>
<path d="M48.1254 370.229H259.752C261.412 370.229 263.004 369.57 264.177 368.396C265.351 367.222 266.01 365.63 266.01 363.971V66.4834C265.996 64.8331 265.33 63.2554 264.158 62.0936C262.986 60.9318 261.402 60.28 259.752 60.28H48.1254C46.4675 60.2829 44.8785 60.9436 43.7073 62.1169C42.536 63.2902 41.8782 64.8803 41.8782 66.5382V363.971C41.8782 365.629 42.536 367.219 43.7073 368.392C44.8785 369.565 46.4675 370.226 48.1254 370.229ZM42.1522 66.4834C42.1522 64.8982 42.7811 63.3778 43.901 62.2558C45.0209 61.1339 46.5402 60.5021 48.1254 60.4992H259.752C261.338 60.5021 262.859 61.1335 263.98 62.2551C265.102 63.3768 265.733 64.8972 265.736 66.4834V363.971C265.733 365.557 265.102 367.077 263.98 368.199C262.859 369.321 261.338 369.952 259.752 369.955H48.1254C46.5402 369.952 45.0209 369.32 43.901 368.198C42.7811 367.076 42.1522 365.556 42.1522 363.971V66.4834Z" fill="#EBEBEB"/>
<path d="M285.19 370.229H496.828C498.488 370.229 500.079 369.57 501.253 368.396C502.427 367.222 503.086 365.63 503.086 363.971V66.4834C503.071 64.8331 502.406 63.2554 501.234 62.0936C500.062 60.9318 498.478 60.28 496.828 60.28H285.19C283.531 60.2829 281.941 60.9432 280.768 62.1162C279.595 63.2892 278.935 64.8793 278.932 66.5382V363.971C278.935 365.63 279.595 367.22 280.768 368.393C281.941 369.566 283.531 370.226 285.19 370.229ZM279.206 66.4834C279.209 64.8972 279.84 63.3768 280.962 62.2551C282.084 61.1335 283.604 60.5021 285.19 60.4992H496.828C498.414 60.5021 499.934 61.1335 501.056 62.2551C502.178 63.3768 502.809 64.8972 502.812 66.4834V363.971C502.809 365.557 502.178 367.077 501.056 368.199C499.934 369.321 498.414 369.952 496.828 369.955H285.19C283.604 369.952 282.084 369.321 280.962 368.199C279.84 367.077 279.209 365.557 279.206 363.971V66.4834Z" fill="#EBEBEB"/>
<path d="M466.019 75.0322H215.824V218.871H466.019V75.0322Z" fill="#F5F5F5"/>
<path d="M458.643 85.7401H344.582V210.092H458.643V85.7401Z" fill="#FAFAFA"/>
<path d="M443.19 94.4423H423.483L413.63 111.507L423.483 128.572H443.19L453.043 111.507L443.19 94.4423Z" fill="#F0F0F0"/>
<path d="M413.63 145.626H393.935L384.082 162.69L393.935 179.755H413.63L423.483 162.69L413.63 145.626Z" fill="white"/>
<path d="M413.63 111.507H393.935L384.082 128.572L393.935 145.626H413.63L423.483 128.572L413.63 111.507Z" fill="#EBEBEB"/>
<path d="M324.274 186.287H231.114V207.703H324.274V186.287Z" fill="#FAFAFA"/>
<path d="M270.285 102.761C270.009 104.297 269.284 105.717 268.201 106.841C267.119 107.965 265.728 108.742 264.203 109.076C262.679 109.409 261.09 109.283 259.637 108.713C258.184 108.143 256.933 107.156 256.041 105.875C255.15 104.595 254.658 103.078 254.628 101.518C254.598 99.9579 255.031 98.4239 255.873 97.1099C256.715 95.7959 257.927 94.761 259.357 94.136C260.787 93.511 262.37 93.3239 263.906 93.5984C265.966 93.9695 267.794 95.1427 268.99 96.8605C270.186 98.5783 270.652 100.7 270.285 102.761Z" fill="#EBEBEB"/>
<path d="M256.311 148.672C256.035 150.208 255.31 151.628 254.227 152.752C253.145 153.876 251.754 154.654 250.229 154.987C248.705 155.32 247.116 155.194 245.663 154.625C244.21 154.055 242.959 153.067 242.067 151.787C241.176 150.506 240.684 148.99 240.654 147.429C240.624 145.869 241.057 144.335 241.899 143.021C242.741 141.707 243.953 140.672 245.383 140.047C246.813 139.422 248.396 139.235 249.932 139.51C250.952 139.692 251.927 140.074 252.8 140.633C253.673 141.193 254.428 141.918 255.02 142.769C255.612 143.62 256.031 144.58 256.253 145.592C256.474 146.605 256.494 147.652 256.311 148.672Z" fill="#EBEBEB"/>
<path d="M297.552 175.412C301.909 175.308 305.357 171.692 305.253 167.335C305.148 162.978 301.532 159.53 297.175 159.634C292.818 159.739 289.37 163.355 289.475 167.712C289.579 172.069 293.195 175.516 297.552 175.412Z" fill="#EBEBEB"/>
<path d="M315.451 123.757C317.769 120.065 316.655 115.195 312.964 112.877C309.273 110.56 304.402 111.674 302.085 115.365C299.768 119.056 300.881 123.927 304.572 126.244C308.264 128.561 313.134 127.448 315.451 123.757Z" fill="#EBEBEB"/>
<path d="M327.331 117.272C327.211 117.908 326.905 118.493 326.453 118.956C326.001 119.419 325.423 119.738 324.79 119.873C324.158 120.009 323.499 119.955 322.897 119.718C322.295 119.481 321.777 119.072 321.406 118.542C321.036 118.012 320.83 117.384 320.814 116.737C320.799 116.091 320.974 115.454 321.319 114.906C321.664 114.359 322.162 113.925 322.752 113.66C323.342 113.395 323.997 113.309 324.635 113.414C325.502 113.572 326.272 114.066 326.777 114.788C327.282 115.511 327.481 116.403 327.331 117.272Z" fill="#EBEBEB"/>
<path d="M308.765 120.856C308.44 120.857 308.126 120.736 307.885 120.517C307.644 120.298 307.494 119.997 307.464 119.673C307.433 119.349 307.525 119.025 307.722 118.765C307.918 118.506 308.204 118.329 308.524 118.269L323.813 115.42C323.982 115.388 324.155 115.39 324.322 115.425C324.49 115.46 324.649 115.528 324.791 115.625C324.932 115.722 325.053 115.845 325.147 115.989C325.24 116.132 325.305 116.293 325.337 116.461C325.368 116.629 325.367 116.802 325.331 116.97C325.296 117.138 325.228 117.297 325.132 117.438C325.035 117.58 324.911 117.701 324.768 117.795C324.624 117.888 324.464 117.953 324.295 117.984L309.006 120.834C308.927 120.852 308.846 120.86 308.765 120.856Z" fill="#EBEBEB"/>
<path d="M241.547 125.481C242.192 125.536 242.806 125.78 243.312 126.182C243.819 126.584 244.195 127.127 244.395 127.742C244.595 128.357 244.608 129.018 244.435 129.641C244.261 130.263 243.907 130.821 243.418 131.244C242.929 131.667 242.326 131.937 241.684 132.019C241.043 132.101 240.391 131.992 239.811 131.705C239.232 131.419 238.749 130.968 238.424 130.408C238.099 129.849 237.947 129.206 237.985 128.561C238.012 128.123 238.125 127.694 238.32 127.301C238.514 126.907 238.785 126.557 239.117 126.27C239.449 125.983 239.835 125.765 240.252 125.63C240.67 125.494 241.11 125.444 241.547 125.481Z" fill="#EBEBEB"/>
<path d="M248.54 148.585C248.278 148.582 248.022 148.501 247.805 148.353C247.589 148.205 247.421 147.995 247.323 147.752L240.09 129.328C240.027 129.168 239.997 128.998 240 128.826C240.003 128.655 240.04 128.485 240.109 128.328C240.178 128.171 240.277 128.029 240.4 127.91C240.524 127.791 240.67 127.697 240.83 127.635C240.989 127.572 241.16 127.542 241.331 127.545C241.503 127.548 241.672 127.585 241.829 127.654C241.987 127.723 242.129 127.822 242.248 127.945C242.367 128.069 242.46 128.215 242.523 128.375L249.757 146.853C249.882 147.177 249.874 147.538 249.734 147.856C249.595 148.175 249.335 148.425 249.011 148.552C248.857 148.589 248.698 148.6 248.54 148.585Z" fill="#EBEBEB"/>
<path d="M295.624 136.748C295.324 138.421 294.535 139.967 293.356 141.192C292.177 142.416 290.661 143.263 289.001 143.626C287.341 143.989 285.61 143.851 284.028 143.23C282.445 142.61 281.083 141.533 280.112 140.138C279.142 138.743 278.607 137.091 278.575 135.392C278.543 133.693 279.016 132.022 279.934 130.591C280.852 129.161 282.173 128.035 283.731 127.355C285.289 126.676 287.014 126.474 288.686 126.774C290.929 127.177 292.919 128.454 294.22 130.325C295.521 132.195 296.026 134.505 295.624 136.748Z" fill="#EBEBEB"/>
<path d="M248.54 148.585C248.262 148.585 247.991 148.495 247.768 148.329C247.545 148.164 247.382 147.93 247.301 147.664C247.198 147.334 247.231 146.977 247.391 146.671C247.551 146.365 247.827 146.134 248.156 146.031L285.048 134.534L261.462 102.136C261.349 101.999 261.266 101.84 261.217 101.67C261.168 101.499 261.154 101.32 261.177 101.144C261.199 100.968 261.258 100.799 261.348 100.646C261.438 100.493 261.559 100.36 261.702 100.256C261.846 100.151 262.009 100.077 262.182 100.038C262.355 99.9985 262.534 99.995 262.709 100.027C262.883 100.06 263.049 100.127 263.197 100.226C263.344 100.325 263.47 100.453 263.566 100.602L288.226 134.468C288.347 134.635 288.427 134.829 288.459 135.032C288.491 135.236 288.475 135.445 288.412 135.641C288.347 135.838 288.236 136.017 288.087 136.162C287.938 136.307 287.756 136.414 287.558 136.474L248.924 148.53C248.8 148.571 248.67 148.589 248.54 148.585Z" fill="#EBEBEB"/>
<path d="M297.356 168.784C297.079 168.785 296.81 168.697 296.587 168.533C296.364 168.369 296.199 168.138 296.117 167.874L285.924 135.575C285.845 135.314 285.848 135.034 285.934 134.775C286.021 134.516 286.186 134.29 286.407 134.129L307.998 118.456C308.278 118.275 308.616 118.208 308.944 118.269C309.271 118.33 309.563 118.514 309.76 118.783C309.956 119.052 310.042 119.386 309.999 119.717C309.957 120.047 309.79 120.349 309.532 120.56L288.708 135.696L298.572 167.096C298.672 167.426 298.639 167.782 298.479 168.088C298.319 168.393 298.046 168.623 297.717 168.729C297.6 168.765 297.478 168.784 297.356 168.784Z" fill="#EBEBEB"/>
<path d="M466.03 218.86H469.318V75.0213H466.03V218.86Z" fill="#E6E6E6"/>
<path d="M148.618 337.206H69.4426C66.932 337.206 64.5113 338.141 62.653 339.829C60.7947 341.517 59.6321 343.837 59.3922 346.336L52.4984 419.11H165.562L158.668 346.336C158.428 343.837 157.265 341.517 155.407 339.829C153.549 338.141 151.128 337.206 148.618 337.206Z" fill="#EBEBEB"/>
<path d="M148.749 111.507H69.3001V337.206H148.749V111.507Z" fill="#F5F5F5"/>
<path d="M149.659 101.369H68.3904C66.6411 101.369 65.223 102.787 65.223 104.537V108.34C65.223 110.089 66.6411 111.507 68.3904 111.507H149.659C151.408 111.507 152.826 110.089 152.826 108.34V104.537C152.826 102.787 151.408 101.369 149.659 101.369Z" fill="#EBEBEB"/>
<path d="M109.03 68.3356C99.4784 68.3356 90.318 72.13 83.5639 78.8841C76.8099 85.6381 73.0155 94.7985 73.0155 104.35H145.034C145.034 94.8004 141.241 85.6416 134.489 78.8879C127.737 72.1342 118.58 68.3385 109.03 68.3356Z" fill="#EBEBEB"/>
<path d="M99.3743 298.112C106.033 298.112 111.43 292.714 111.43 286.056C111.43 279.398 106.033 274 99.3743 274C92.716 274 87.3183 279.398 87.3183 286.056C87.3183 292.714 92.716 298.112 99.3743 298.112Z" fill="#FAFAFA"/>
<path d="M117.075 257.746C120.803 257.746 123.826 254.724 123.826 250.995C123.826 247.266 120.803 244.244 117.075 244.244C113.346 244.244 110.323 247.266 110.323 250.995C110.323 254.724 113.346 257.746 117.075 257.746Z" fill="#FAFAFA"/>
<path d="M119.343 155.599C126.002 155.599 131.399 150.202 131.399 143.543C131.399 136.885 126.002 131.487 119.343 131.487C112.685 131.487 107.287 136.885 107.287 143.543C107.287 150.202 112.685 155.599 119.343 155.599Z" fill="#FAFAFA"/>
<path d="M91.0447 215.43C92.38 215.43 93.6853 215.826 94.7956 216.568C95.9058 217.309 96.7712 218.364 97.2822 219.598C97.7932 220.831 97.9269 222.189 97.6664 223.498C97.4059 224.808 96.7628 226.011 95.8187 226.955C94.8745 227.899 93.6715 228.542 92.3618 228.803C91.0522 229.063 89.6947 228.93 88.4611 228.419C87.2274 227.908 86.173 227.042 85.4312 225.932C84.6893 224.822 84.2934 223.516 84.2934 222.181C84.2934 220.391 85.0047 218.673 86.2708 217.407C87.5369 216.141 89.2541 215.43 91.0447 215.43Z" fill="#FAFAFA"/>
<path d="M111.43 192.951C113.852 192.951 115.814 190.988 115.814 188.567C115.814 186.146 113.852 184.183 111.43 184.183C109.009 184.183 107.046 186.146 107.046 188.567C107.046 190.988 109.009 192.951 111.43 192.951Z" fill="#FAFAFA"/>
<path d="M287.514 419.11V262.437H203.527V419.11H287.514Z" fill="#F0F0F0"/>
<path d="M274.712 312.93V267.008H216.35V312.93H274.712Z" fill="#F5F5F5"/>
<path d="M274.712 362.973V317.051H216.35V362.973H274.712Z" fill="#F5F5F5"/>
<path d="M274.712 413.028V367.105H216.35V413.028H274.712Z" fill="#F5F5F5"/>
<path d="M254.513 266.405H236.539C236.539 267.03 236.662 267.65 236.902 268.228C237.142 268.805 237.493 269.33 237.936 269.772C238.379 270.214 238.904 270.564 239.483 270.802C240.061 271.041 240.681 271.163 241.306 271.161H249.756C251.018 271.161 252.228 270.66 253.12 269.768C254.012 268.876 254.513 267.666 254.513 266.405Z" fill="#E6E6E6"/>
<path d="M254.513 316.448H236.539C236.539 317.074 236.662 317.694 236.902 318.273C237.141 318.851 237.492 319.377 237.935 319.819C238.378 320.262 238.903 320.613 239.482 320.853C240.06 321.092 240.68 321.216 241.306 321.216H249.756C250.382 321.216 251.001 321.092 251.579 320.853C252.157 320.613 252.682 320.261 253.124 319.819C253.566 319.376 253.916 318.85 254.154 318.272C254.393 317.693 254.515 317.074 254.513 316.448Z" fill="#E6E6E6"/>
<path d="M254.513 366.491H236.539C236.539 367.756 237.041 368.969 237.935 369.863C238.829 370.757 240.042 371.259 241.306 371.259H249.756C250.382 371.259 251.001 371.136 251.579 370.896C252.157 370.656 252.682 370.305 253.124 369.862C253.566 369.419 253.916 368.893 254.154 368.315C254.393 367.737 254.515 367.117 254.513 366.491Z" fill="#E6E6E6"/>
<path d="M311.023 419.099V262.426H287.525V419.099H311.023Z" fill="#E6E6E6"/>
<path d="M452.319 419.099V262.426H292.928V419.099H452.319Z" fill="#F0F0F0"/>
<path d="M425.895 247.258V239.257C425.987 239.231 426.068 239.177 426.127 239.102C426.186 239.027 426.22 238.936 426.223 238.84C426.223 238.724 426.177 238.613 426.095 238.53C426.013 238.448 425.901 238.402 425.785 238.402H421.565C421.463 238.406 421.364 238.445 421.288 238.514C421.211 238.583 421.161 238.677 421.147 238.779C421.132 238.881 421.154 238.985 421.209 239.072C421.263 239.159 421.347 239.225 421.445 239.257V247.258C419.663 247.792 418.133 248.949 417.133 250.518C416.134 252.088 415.733 253.964 416.003 255.804C416.273 257.645 417.196 259.327 418.604 260.543C420.011 261.76 421.809 262.429 423.67 262.429C425.53 262.429 427.328 261.76 428.736 260.543C430.143 259.327 431.067 257.645 431.336 255.804C431.606 253.964 431.205 252.088 430.206 250.518C429.207 248.949 427.677 247.792 425.895 247.258Z" fill="#F0F0F0"/>
<path d="M414.376 249.789V246.6C414.462 246.578 414.538 246.526 414.588 246.452C414.638 246.378 414.658 246.288 414.646 246.2C414.634 246.111 414.59 246.03 414.521 245.973C414.453 245.915 414.366 245.885 414.277 245.888H410.759C410.663 245.888 410.571 245.926 410.503 245.994C410.435 246.061 410.397 246.153 410.397 246.249C410.395 246.329 410.419 246.407 410.467 246.471C410.515 246.535 410.583 246.58 410.66 246.6V249.8C409.173 250.246 407.896 251.212 407.063 252.522C406.229 253.831 405.895 255.397 406.12 256.933C406.345 258.469 407.116 259.872 408.29 260.887C409.465 261.902 410.966 262.461 412.518 262.461C414.07 262.461 415.571 261.902 416.745 260.887C417.92 259.872 418.691 258.469 418.916 256.933C419.141 255.397 418.807 253.831 417.973 252.522C417.139 251.212 415.863 250.246 414.376 249.8V249.789Z" fill="#F0F0F0"/>
<path d="M444.614 248.792V233.58C444.726 233.555 444.827 233.492 444.898 233.402C444.97 233.313 445.009 233.201 445.009 233.086C445.006 232.948 444.95 232.816 444.852 232.717C444.754 232.619 444.621 232.563 444.483 232.56H439.496C439.356 232.56 439.223 232.616 439.124 232.714C439.025 232.813 438.97 232.947 438.97 233.086C438.969 233.2 439.006 233.31 439.076 233.4C439.146 233.489 439.243 233.552 439.354 233.58V248.792C439.331 250.045 439.03 251.277 438.473 252.399C437.916 253.521 437.116 254.505 436.131 255.28C434.963 256.243 434.048 257.477 433.468 258.875C433.311 259.27 433.254 259.697 433.302 260.119C433.35 260.541 433.5 260.944 433.741 261.294C433.981 261.644 434.304 261.929 434.681 262.125C435.058 262.32 435.477 262.42 435.901 262.415H448.122C448.546 262.419 448.965 262.319 449.342 262.123C449.718 261.928 450.042 261.643 450.283 261.294C450.524 260.944 450.676 260.541 450.725 260.12C450.774 259.698 450.72 259.271 450.566 258.875C449.981 257.477 449.063 256.242 447.891 255.28C446.898 254.509 446.089 253.527 445.523 252.405C444.956 251.283 444.646 250.049 444.614 248.792Z" fill="#F0F0F0"/>
<path d="M439.507 312.93V267.008H305.74V312.93H439.507Z" fill="#F5F5F5"/>
<path d="M439.518 362.984V317.062H305.751V362.984H439.518Z" fill="#F5F5F5"/>
<path d="M439.518 413.028V367.105H305.751V413.028H439.518Z" fill="#F5F5F5"/>
<path d="M381.616 266.405H363.642C363.642 267.03 363.765 267.65 364.005 268.228C364.245 268.805 364.596 269.33 365.039 269.772C365.482 270.214 366.007 270.564 366.586 270.802C367.164 271.041 367.784 271.163 368.409 271.161H376.86C378.121 271.161 379.331 270.66 380.223 269.768C381.115 268.876 381.616 267.666 381.616 266.405Z" fill="#E6E6E6"/>
<path d="M381.616 316.448H363.642C363.642 317.074 363.765 317.694 364.005 318.273C364.244 318.851 364.596 319.377 365.038 319.819C365.481 320.262 366.007 320.613 366.585 320.853C367.163 321.092 367.783 321.216 368.409 321.216H376.86C377.485 321.216 378.105 321.092 378.682 320.853C379.26 320.613 379.785 320.261 380.227 319.819C380.669 319.376 381.019 318.85 381.257 318.272C381.496 317.693 381.618 317.074 381.616 316.448Z" fill="#E6E6E6"/>
<path d="M381.616 366.491H363.642C363.642 367.756 364.144 368.969 365.038 369.863C365.932 370.757 367.145 371.259 368.409 371.259H376.86C377.485 371.259 378.105 371.136 378.682 370.896C379.26 370.656 379.785 370.305 380.227 369.862C380.669 369.419 381.019 368.893 381.257 368.315C381.496 367.737 381.618 367.117 381.616 366.491Z" fill="#E6E6E6"/>
<path d="M475.817 419.11V262.437H452.319V419.11H475.817Z" fill="#E6E6E6"/>
<path d="M274 468.606C391.362 468.606 486.503 463.051 486.503 456.199C486.503 449.347 391.362 443.792 274 443.792C156.638 443.792 61.4966 449.347 61.4966 456.199C61.4966 463.051 156.638 468.606 274 468.606Z" fill="#F5F5F5"/>
<path d="M335.924 122.511C329.973 119.65 315.604 124.21 318.772 135.422C321.457 144.946 313.774 150.218 320.295 155.632C326.816 161.046 314.464 173.354 341.656 172.258C364.124 171.338 372.53 162.296 370.974 154.58C369.023 144.869 360.65 147.73 361.285 141.209C361.921 134.687 335.924 122.511 335.924 122.511Z" fill="#263238"/>
<path d="M335.672 190.704C335.354 191.581 335.113 192.216 334.817 192.962C334.521 193.707 334.236 194.365 333.929 195.055C333.337 196.447 332.669 197.806 332 199.154C330.63 201.89 329.1 204.543 327.419 207.1C325.68 209.785 323.722 212.321 321.566 214.684C320.417 215.953 319.183 217.143 317.873 218.246C317.204 218.816 316.47 219.342 315.736 219.901L314.563 220.691L313.796 221.162C313.511 221.337 313.226 221.48 312.941 221.633C310.913 222.626 308.715 223.225 306.464 223.398C304.638 223.55 302.803 223.521 300.984 223.31C297.792 222.906 294.652 222.172 291.613 221.118C285.96 219.15 280.566 216.507 275.545 213.249L278.932 206.048C284.049 207.476 289.241 208.617 294.484 209.468C296.865 209.847 299.275 210.016 301.685 209.972C302.659 209.96 303.629 209.842 304.578 209.621C305.133 209.513 305.657 209.285 306.113 208.952C306.113 208.952 306.113 208.952 306.113 208.887L306.222 208.788L306.749 208.328C307.099 207.988 307.461 207.659 307.845 207.232C308.557 206.475 309.269 205.632 309.971 204.733C311.417 202.798 312.746 200.778 313.949 198.683C315.188 196.491 316.393 194.244 317.511 191.921C318.081 190.825 318.607 189.586 319.155 188.413L319.944 186.66L320.657 185.016L335.672 190.704Z" fill="#407BFF"/>
<path opacity="0.8" d="M335.672 190.704C335.354 191.581 335.113 192.216 334.817 192.962C334.521 193.707 334.236 194.365 333.929 195.055C333.337 196.447 332.669 197.806 332 199.154C330.63 201.89 329.1 204.543 327.419 207.1C325.68 209.785 323.722 212.321 321.566 214.684C320.417 215.953 319.183 217.143 317.873 218.246C317.204 218.816 316.47 219.342 315.736 219.901L314.563 220.691L313.796 221.162C313.511 221.337 313.226 221.48 312.941 221.633C310.913 222.626 308.715 223.225 306.464 223.398C304.638 223.55 302.803 223.521 300.984 223.31C297.792 222.906 294.652 222.172 291.613 221.118C285.96 219.15 280.566 216.507 275.545 213.249L278.932 206.048C284.049 207.476 289.241 208.617 294.484 209.468C296.865 209.847 299.275 210.016 301.685 209.972C302.659 209.96 303.629 209.842 304.578 209.621C305.133 209.513 305.657 209.285 306.113 208.952C306.113 208.952 306.113 208.952 306.113 208.887L306.222 208.788L306.749 208.328C307.099 207.988 307.461 207.659 307.845 207.232C308.557 206.475 309.269 205.632 309.971 204.733C311.417 202.798 312.746 200.778 313.949 198.683C315.188 196.491 316.393 194.244 317.511 191.921C318.081 190.825 318.607 189.586 319.155 188.413L319.944 186.66L320.657 185.016L335.672 190.704Z" fill="white"/>
<path d="M278.625 212.197L272.235 213.008V204.404C272.235 204.404 278.57 205.138 281.234 208.317L278.625 212.197Z" fill="#FFB573"/>
<path d="M264.399 212.492L265.276 206.607L272.257 204.404L272.235 213.008L264.399 212.492Z" fill="#FFB573"/>
<path opacity="0.2" d="M273.693 214.29V203.33C273.849 203.308 273.989 203.225 274.084 203.1C274.178 202.975 274.219 202.817 274.197 202.661C274.175 202.506 274.093 202.365 273.967 202.271C273.842 202.176 273.684 202.135 273.529 202.157H267.742C267.59 202.144 267.438 202.189 267.319 202.285C267.199 202.38 267.122 202.518 267.102 202.67C267.082 202.821 267.122 202.975 267.212 203.098C267.303 203.221 267.438 203.304 267.588 203.33V214.29C265.147 215.023 263.05 216.609 261.681 218.76C260.312 220.911 259.763 223.482 260.133 226.005C260.503 228.527 261.769 230.832 263.698 232.499C265.627 234.165 268.091 235.082 270.641 235.082C273.19 235.082 275.654 234.165 277.584 232.499C279.513 230.832 280.778 228.527 281.148 226.005C281.519 223.482 280.969 220.911 279.6 218.76C278.232 216.609 276.135 215.023 273.693 214.29Z" fill="#407BFF"/>
<path opacity="0.5" d="M280.105 226.116C279.827 228.429 278.713 230.562 276.972 232.111C275.232 233.66 272.984 234.519 270.654 234.526C268.324 234.532 266.072 233.686 264.322 232.147C262.572 230.608 261.446 228.483 261.155 226.171C267.479 228.384 273.803 223.902 280.105 226.116Z" fill="#407BFF"/>
<path opacity="0.7" d="M261.155 226.116C261.432 228.429 262.546 230.562 264.287 232.111C266.028 233.66 268.275 234.519 270.606 234.526C272.936 234.532 275.188 233.686 276.938 232.147C278.688 230.608 279.814 228.483 280.105 226.171C273.792 228.384 267.424 223.902 261.155 226.116Z" fill="#407BFF"/>
<path d="M361.877 442.981L351.706 443.946L350.95 420.645L361.132 419.691L361.877 442.981Z" fill="#FFB573"/>
<path d="M419.132 430.596L409.805 434.685L401.476 412.852L410.803 408.753L419.132 430.596Z" fill="#FFB573"/>
<path d="M408.468 432.92L417.653 426.092C417.808 425.957 418.011 425.889 418.217 425.904C418.422 425.918 418.613 426.013 418.749 426.169L424.952 432.745C425.104 432.919 425.217 433.124 425.286 433.345C425.354 433.566 425.375 433.8 425.349 434.029C425.322 434.259 425.247 434.481 425.13 434.681C425.013 434.88 424.855 435.053 424.667 435.189C421.434 437.512 419.757 438.477 415.713 441.469C413.225 443.321 407.986 447.771 404.556 450.324C401.125 452.878 398.539 449.59 399.744 448.22C405.224 442.072 406.627 437.907 407.504 434.476C407.632 433.86 407.974 433.309 408.468 432.92Z" fill="#263238"/>
<path d="M350.862 440.921H362.918C363.132 440.921 363.339 440.993 363.508 441.123C363.676 441.254 363.797 441.437 363.85 441.644L366.195 451.157C366.251 451.386 366.253 451.625 366.202 451.855C366.15 452.085 366.047 452.3 365.9 452.484C365.753 452.668 365.566 452.816 365.354 452.916C365.141 453.017 364.908 453.068 364.672 453.064C360.441 453.064 358.425 452.758 353.142 452.758C349.854 452.758 341.481 453.075 336.987 453.075C332.493 453.075 331.803 448.637 333.633 448.231C341.831 446.434 346.599 443.946 349.175 441.578C349.638 441.16 350.238 440.926 350.862 440.921Z" fill="#263238"/>
<path opacity="0.2" d="M350.95 420.656L351.334 432.657H361.548L361.132 419.691L350.95 420.656Z" fill="black"/>
<path opacity="0.2" d="M410.803 408.764L401.476 412.852L405.772 424.108L415.099 420.02L410.803 408.764Z" fill="black"/>
<path d="M378.493 228.746L338.576 238.862C328.811 214.564 324.087 200.382 321.862 192.118C321.031 189.018 321.349 185.722 322.76 182.838C324.17 179.955 326.577 177.68 329.534 176.434C330.828 175.886 332.187 175.338 333.557 174.801C334.565 174.406 335.595 174.023 336.604 173.705C342.53 171.746 348.588 170.207 354.731 169.102C355.63 168.916 356.54 168.751 357.439 168.598H357.669C359.492 168.297 361.358 168.381 363.147 168.842C364.936 169.304 366.609 170.134 368.059 171.278C369.51 172.423 370.705 173.858 371.569 175.492C372.434 177.125 372.948 178.92 373.078 180.763C374.087 194.803 375.95 216.307 378.558 228.823" fill="#407BFF"/>
<path d="M349.098 157.287C349.942 162.274 351.597 167.272 354.698 169.069C354.698 169.069 355.499 173.234 345.448 182.046C344.645 182.76 343.608 183.155 342.533 183.155C341.458 183.155 340.42 182.76 339.617 182.046C333.82 176.708 336.571 173.683 336.571 173.683C342.73 170.472 341.886 166.11 338.511 159.315L343.234 156.027C343.61 155.516 344.125 155.125 344.717 154.901C345.31 154.676 345.954 154.627 346.574 154.761C347.193 154.894 347.761 155.203 348.209 155.651C348.657 156.099 348.965 156.667 349.098 157.287Z" fill="#FFB573"/>
<path opacity="0.2" d="M343.245 155.983C343.6 155.503 344.078 155.129 344.629 154.9C345.181 154.671 345.783 154.597 346.374 154.685C346.964 154.773 347.519 155.019 347.98 155.399C348.44 155.778 348.789 156.275 348.988 156.838C347.46 160.916 344.712 164.425 341.119 166.888C340.728 164.216 339.844 161.641 338.511 159.293L343.245 155.983Z" fill="black"/>
<path d="M350.062 136.704C352.134 146.634 353.23 150.788 349.777 157.243C344.582 166.943 332.241 167.535 327.266 158.471C322.816 150.316 320.164 135.455 328.438 128.758C336.713 122.062 347.98 126.763 350.062 136.704Z" fill="#FFB573"/>
<path d="M326.323 153.835C325.815 153.794 325.32 153.653 324.866 153.419C324.413 153.186 324.01 152.865 323.682 152.476C322.562 151.188 321.735 149.672 321.258 148.033C320.781 146.395 320.666 144.672 320.92 142.984C320.904 142.346 321.099 141.72 321.476 141.204C321.852 140.689 322.389 140.312 323.002 140.133C323.615 139.954 324.27 139.983 324.864 140.216C325.459 140.448 325.96 140.87 326.29 141.417C327.441 142.687 328.275 144.212 328.723 145.867C329.231 147.501 329.344 149.233 329.052 150.919C328.997 151.537 328.772 152.128 328.403 152.627C328.034 153.126 327.534 153.514 326.959 153.747C326.752 153.804 326.538 153.834 326.323 153.835ZM323.649 140.595C323.482 140.594 323.316 140.617 323.156 140.661C322.678 140.874 322.267 141.213 321.966 141.642C321.665 142.07 321.485 142.572 321.446 143.094C321.21 144.695 321.322 146.329 321.774 147.884C322.226 149.438 323.008 150.877 324.065 152.103C324.325 152.578 324.739 152.951 325.239 153.159C325.739 153.367 326.295 153.398 326.815 153.247C327.335 153.096 327.788 152.773 328.099 152.329C328.41 151.886 328.561 151.35 328.526 150.81C328.8 149.207 328.691 147.562 328.208 146.009C327.781 144.442 326.993 142.997 325.907 141.79C325.34 141.11 324.529 140.681 323.649 140.595Z" fill="white"/>
<path d="M346.533 137.789C344.769 139.258 347.246 148.475 351.915 146.996C356.584 145.516 352.32 132.978 346.533 137.789Z" fill="#263238"/>
<path d="M350.804 141.132L338.967 142.575L339.033 143.119L350.87 141.676L350.804 141.132Z" fill="white"/>
<path d="M335.376 151.248C334.234 151.204 333.142 150.767 332.285 150.009C330.907 148.794 329.916 147.201 329.436 145.428C328.34 141.515 329.567 137.69 332.263 136.901C334.96 136.112 338.094 138.666 339.234 142.579C340.33 146.502 339.102 150.327 336.395 151.105C336.064 151.203 335.721 151.251 335.376 151.248ZM333.283 137.307C332.99 137.309 332.699 137.35 332.417 137.427C330.017 138.129 328.91 141.647 329.962 145.275C330.41 146.943 331.34 148.441 332.636 149.582C333.107 150.035 333.683 150.363 334.313 150.537C334.942 150.711 335.605 150.726 336.242 150.579C338.653 149.878 339.76 146.36 338.708 142.732C337.754 139.488 335.453 137.263 333.261 137.263L333.283 137.307Z" fill="white"/>
<path d="M354.699 145.132C354.76 147.098 354.057 149.012 352.737 150.47C350.972 152.377 348.802 151.116 348.21 148.716C347.673 146.524 347.947 142.984 350.238 141.965C352.528 140.946 354.611 142.721 354.699 145.132Z" fill="#FFB573"/>
<path d="M335.924 121.294C323.035 126.84 326.148 135.542 339.102 138.469C346.292 140.069 353.866 143.949 354.183 148.124C354.501 152.3 366.897 138.184 359.499 134.326C352.101 130.468 352.09 114.335 335.924 121.294Z" fill="#263238"/>
<path d="M329.984 127.322C330.433 132.167 322.586 144.979 313.368 137.504C318.443 137.712 319.144 134.337 321.26 129.054C323.21 124.21 329.458 121.656 329.984 127.322Z" fill="#263238"/>
<path d="M338.576 238.862C338.576 238.862 338.817 290.451 338.73 330.082C338.664 361.592 347.947 427.955 347.947 427.955L362.688 426.486C362.688 426.486 362.688 355.027 359.861 332.537C369.056 288.215 383.666 246.03 370.634 230.511L338.576 238.862Z" fill="#263238"/>
<path d="M365.089 422.892L345.656 423.483L346.72 430.125L364.902 429.851L365.089 422.892Z" fill="#407BFF"/>
<path opacity="0.3" d="M359.214 268.147L375.38 257.856C373.889 273.573 368.738 293.476 363.817 314.706C358.392 298.309 355.411 281.058 359.214 268.147Z" fill="black"/>
<path d="M347.322 236.736C347.322 236.736 363.423 285.355 371.007 323.528C372.962 333.415 375.506 343.175 378.624 352.759C388.488 383.107 401.377 419.439 401.377 419.439L414.047 413.488C414.047 413.488 403.646 351.301 394.889 330.192C394.549 285.848 395.294 243.4 378.449 228.724L347.322 236.736Z" fill="#263238"/>
<path d="M355.586 168.718C355.586 168.718 353.646 216.065 367.292 276.806C384.828 274.91 395.404 269.517 395.404 269.517C395.404 269.517 385.54 229.546 382.252 213.479C379.819 201.686 376.564 182.857 375.007 173.661C374.728 172.049 373.922 170.575 372.717 169.469C371.512 168.362 369.974 167.686 368.344 167.546C364.968 167.261 360.31 167.907 355.586 168.718Z" fill="#407BFF"/>
<path opacity="0.8" d="M355.586 168.718C355.586 168.718 353.646 216.065 367.292 276.806C384.828 274.91 395.404 269.517 395.404 269.517C395.404 269.517 385.54 229.546 382.252 213.479C379.819 201.686 376.564 182.857 375.007 173.661C374.728 172.049 373.922 170.575 372.717 169.469C371.512 168.362 369.974 167.686 368.344 167.546C364.968 167.261 360.31 167.907 355.586 168.718Z" fill="white"/>
<path d="M336.395 173.058C336.395 173.058 335.168 195.515 353.581 278.625C348.046 281.913 335.836 281.475 335.836 281.475C335.836 281.475 331.211 244.77 327.507 226.806C324.657 213.04 321.643 194.935 320.383 187.219C320.185 185.987 320.301 184.726 320.721 183.552C321.141 182.377 321.85 181.328 322.783 180.5C325.819 177.782 330.86 174.034 336.395 173.058Z" fill="#407BFF"/>
<path opacity="0.8" d="M336.395 173.058C336.395 173.058 335.168 195.515 353.581 278.625C348.046 281.913 335.836 281.475 335.836 281.475C335.836 281.475 331.211 244.77 327.507 226.806C324.657 213.04 321.643 194.935 320.383 187.219C320.185 185.987 320.301 184.726 320.721 183.552C321.141 182.377 321.85 181.328 322.783 180.5C325.819 177.782 330.86 174.034 336.395 173.058Z" fill="white"/>
<path d="M358.271 204.952C347.41 209.511 337.064 213.72 329.775 215.748C329.495 215.833 329.236 215.976 329.016 216.169C328.795 216.362 328.618 216.599 328.495 216.865C328.373 217.131 328.309 217.42 328.307 217.713C328.304 218.006 328.364 218.296 328.482 218.564L346.336 255.719C346.642 256.257 347.133 256.665 347.718 256.867C348.303 257.069 348.942 257.05 349.514 256.815C359.707 252.431 374.624 247.499 377.616 243.86C369.44 228.954 361.812 214.674 358.271 204.952Z" fill="white"/>
<path d="M360.42 205.851C349.251 209.599 338.631 213.019 331.178 214.531C330.893 214.595 330.625 214.718 330.391 214.894C330.157 215.069 329.963 215.292 329.822 215.548C329.681 215.804 329.596 216.087 329.573 216.379C329.55 216.67 329.589 216.963 329.688 217.238L344.845 255.598C345.107 256.162 345.566 256.61 346.135 256.858C346.705 257.107 347.345 257.138 347.936 256.946C358.425 253.297 373.659 249.482 376.903 246.074C369.801 230.62 363.247 215.813 360.42 205.851Z" fill="white"/>
<path d="M375.029 249.417L347.432 258.327C346.841 258.534 346.195 258.521 345.613 258.289C345.031 258.058 344.552 257.624 344.265 257.067L327.879 219.101C327.775 218.827 327.73 218.533 327.747 218.239C327.765 217.946 327.845 217.659 327.981 217.399C328.118 217.139 328.309 216.911 328.541 216.73C328.773 216.549 329.04 216.42 329.326 216.35L356.88 207.44C357.471 207.233 358.117 207.246 358.699 207.478C359.281 207.709 359.76 208.144 360.047 208.7L376.432 246.666C376.539 246.937 376.587 247.229 376.573 247.52C376.559 247.812 376.483 248.097 376.351 248.357C376.218 248.618 376.032 248.847 375.804 249.029C375.576 249.212 375.312 249.344 375.029 249.417Z" fill="#407BFF"/>
<path opacity="0.3" d="M375.029 249.417L347.432 258.327C346.841 258.534 346.195 258.521 345.613 258.289C345.031 258.058 344.552 257.624 344.265 257.067L327.879 219.101C327.775 218.827 327.73 218.533 327.747 218.239C327.765 217.946 327.845 217.659 327.981 217.399C328.118 217.139 328.309 216.911 328.541 216.73C328.773 216.549 329.04 216.42 329.326 216.35L356.88 207.44C357.471 207.233 358.117 207.246 358.699 207.478C359.281 207.709 359.76 208.144 360.047 208.7L376.432 246.666C376.539 246.937 376.587 247.229 376.573 247.52C376.559 247.812 376.483 248.097 376.351 248.357C376.218 248.618 376.032 248.847 375.804 249.029C375.576 249.212 375.312 249.344 375.029 249.417Z" fill="black"/>
<path d="M400.884 422.859L417.094 415.976L415.45 409.148L397.475 417.412L400.884 422.859Z" fill="#407BFF"/>
<path d="M334.85 144.464C335.069 145.253 334.85 146.02 334.324 146.174C333.798 146.327 333.228 145.801 333.009 145.012C332.789 144.223 333.009 143.444 333.535 143.302C334.061 143.16 334.631 143.664 334.85 144.464Z" fill="#263238"/>
<path d="M326.06 147.083C326.279 147.872 326.06 148.64 325.534 148.793C325.008 148.946 324.438 148.431 324.219 147.631C324 146.831 324.219 146.075 324.745 145.921C325.271 145.768 325.841 146.283 326.06 147.083Z" fill="#263238"/>
<path d="M324.986 145.9H322.969C322.969 145.9 324.339 147.105 324.986 145.9Z" fill="#263238"/>
<path d="M329.315 147.357C329.248 149.607 328.88 151.837 328.219 153.988C328.761 154.138 329.329 154.165 329.882 154.069C330.436 153.972 330.961 153.753 331.419 153.429L329.315 147.357Z" fill="#ED893E"/>
<path d="M335.266 154.974C335.219 154.969 335.175 154.949 335.14 154.918C335.105 154.886 335.08 154.845 335.069 154.799C335.052 154.737 335.059 154.67 335.09 154.613C335.12 154.556 335.172 154.512 335.233 154.492C336.222 154.22 337.133 153.721 337.895 153.034C338.656 152.347 339.246 151.491 339.618 150.536C339.635 150.475 339.676 150.424 339.732 150.393C339.787 150.362 339.852 150.354 339.913 150.371C339.973 150.394 340.022 150.438 340.05 150.495C340.079 150.551 340.085 150.617 340.067 150.678C339.681 151.71 339.057 152.635 338.246 153.38C337.434 154.125 336.459 154.667 335.398 154.963L335.266 154.974Z" fill="#263238"/>
<path d="M336.801 140.365C336.716 140.362 336.635 140.331 336.571 140.277C336.116 139.91 335.581 139.656 335.01 139.536C334.438 139.416 333.846 139.433 333.283 139.587C333.224 139.609 333.161 139.62 333.098 139.618C333.035 139.615 332.973 139.601 332.915 139.574C332.858 139.547 332.807 139.51 332.765 139.463C332.722 139.416 332.69 139.361 332.669 139.302C332.626 139.179 332.634 139.046 332.689 138.929C332.744 138.812 332.843 138.721 332.965 138.677C333.685 138.453 334.449 138.412 335.189 138.555C335.929 138.698 336.622 139.023 337.206 139.499C337.306 139.579 337.371 139.694 337.387 139.821C337.404 139.948 337.37 140.076 337.294 140.178C337.24 140.255 337.164 140.314 337.076 140.347C336.988 140.38 336.892 140.386 336.801 140.365Z" fill="#263238"/>
<path d="M321.457 143.872L321.391 143.806C321.301 143.716 321.251 143.594 321.251 143.466C321.251 143.339 321.301 143.217 321.391 143.127C321.917 142.58 322.568 142.171 323.288 141.934C324.008 141.697 324.776 141.64 325.523 141.768C325.646 141.804 325.75 141.885 325.815 141.994C325.88 142.104 325.901 142.235 325.874 142.359C325.842 142.481 325.766 142.586 325.66 142.653C325.554 142.72 325.427 142.745 325.304 142.721C324.708 142.622 324.097 142.67 323.524 142.861C322.951 143.052 322.433 143.38 322.016 143.817C321.941 143.885 321.846 143.927 321.745 143.937C321.645 143.947 321.544 143.924 321.457 143.872Z" fill="#263238"/>
<path d="M404.983 437.129H404.819C404.581 437.106 404.353 437.02 404.16 436.879C403.968 436.739 403.816 436.548 403.723 436.329C403.653 436.201 403.617 436.058 403.617 435.912C403.617 435.767 403.653 435.624 403.723 435.496C404.369 434.4 407.997 434.126 408.402 434.104C408.448 434.1 408.494 434.111 408.533 434.134C408.573 434.158 408.603 434.193 408.622 434.235C408.649 434.274 408.663 434.32 408.663 434.367C408.663 434.414 408.649 434.46 408.622 434.498C407.789 435.485 406.221 437.107 404.983 437.129ZM407.887 434.619C406.441 434.761 404.523 435.123 404.183 435.715C404.15 435.769 404.133 435.832 404.133 435.896C404.133 435.959 404.15 436.022 404.183 436.077C404.237 436.222 404.33 436.35 404.452 436.446C404.574 436.543 404.719 436.605 404.873 436.625C405.52 436.712 406.671 435.967 407.887 434.619Z" fill="#407BFF"/>
<path d="M408.216 434.597C407 434.597 404.61 433.961 404.183 432.975C404.104 432.799 404.087 432.601 404.135 432.414C404.182 432.227 404.292 432.061 404.446 431.945C404.577 431.814 404.735 431.715 404.91 431.654C405.085 431.593 405.271 431.573 405.454 431.594C406.901 431.725 408.578 434.093 408.655 434.191C408.68 434.226 408.696 434.267 408.7 434.31C408.705 434.352 408.698 434.396 408.68 434.435C408.662 434.474 408.634 434.508 408.599 434.532C408.563 434.557 408.522 434.572 408.479 434.575L408.216 434.597ZM405.301 432.076C405.1 432.076 404.907 432.155 404.764 432.295C404.545 432.514 404.566 432.657 404.61 432.767C404.895 433.413 406.802 434.06 407.986 434.104C407.383 433.347 406.265 432.153 405.399 432.076H405.301Z" fill="#407BFF"/>
<path d="M345.481 442.905C344.663 442.963 343.846 442.764 343.147 442.335C342.975 442.206 342.834 442.041 342.734 441.851C342.633 441.662 342.576 441.453 342.566 441.239C342.557 441.11 342.583 440.981 342.64 440.865C342.698 440.749 342.786 440.651 342.895 440.581C343.991 439.847 348.046 441.677 348.835 442.083C348.883 442.102 348.923 442.138 348.947 442.184C348.971 442.231 348.978 442.284 348.966 442.335C348.958 442.383 348.936 442.429 348.903 442.466C348.87 442.502 348.828 442.529 348.78 442.543C347.695 442.772 346.59 442.893 345.481 442.905ZM343.618 440.822C343.453 440.811 343.289 440.849 343.147 440.932C343.111 440.955 343.082 440.988 343.065 441.027C343.047 441.066 343.041 441.109 343.048 441.151C343.047 441.306 343.082 441.459 343.151 441.598C343.219 441.736 343.319 441.857 343.443 441.951C344.133 442.488 345.799 442.565 347.958 442.159C346.589 441.493 345.125 441.042 343.618 440.822Z" fill="#407BFF"/>
<path d="M348.725 442.488C348.697 442.499 348.666 442.499 348.638 442.488C347.29 441.94 344.615 439.748 344.802 438.608C344.802 438.367 345.021 438.049 345.646 437.973C348.046 437.699 348.934 442.028 348.934 442.214C348.944 442.258 348.942 442.305 348.926 442.348C348.911 442.391 348.883 442.428 348.846 442.455C348.809 442.476 348.768 442.487 348.725 442.488ZM345.854 438.4H345.689C345.437 438.4 345.295 438.499 345.284 438.619C345.174 439.277 347.016 441.009 348.375 441.765C348.09 440.756 347.29 438.4 345.854 438.4Z" fill="#407BFF"/>
<path d="M333.765 143.269H331.748C331.748 143.269 333.118 144.486 333.765 143.269Z" fill="#263238"/>
<path d="M372.476 169.354C375.336 171.732 377.956 174.111 380.531 176.609C383.107 179.108 385.671 181.673 388.126 184.38C390.671 187.128 393.06 190.015 395.283 193.028C396.509 194.665 397.629 196.378 398.637 198.157C399.215 199.181 399.731 200.239 400.182 201.324C400.789 202.75 401.205 204.25 401.421 205.785L401.574 206.947L401.421 207.824C401.036 209.948 400.255 211.982 399.119 213.819C398.166 215.368 397.041 216.806 395.766 218.104C393.556 220.292 391.073 222.185 388.379 223.737C385.92 225.179 383.355 226.432 380.707 227.486C378.099 228.535 375.417 229.393 372.684 230.05L369.725 222.685C371.686 221.348 373.824 219.912 375.775 218.455C377.711 217.051 379.573 215.548 381.353 213.95C382.955 212.548 384.403 210.979 385.671 209.27C386.498 208.298 386.997 207.09 387.096 205.818V207.856C387.096 208.032 387.009 207.747 386.778 207.341C386.548 206.936 386.241 206.432 385.869 205.895C385.123 204.799 384.225 203.626 383.227 202.453C381.222 200.097 378.964 197.707 376.651 195.351C374.339 192.995 371.895 190.671 369.429 188.359C366.963 186.046 364.431 183.722 362.031 181.52L372.476 169.354Z" fill="#407BFF"/>
<path opacity="0.8" d="M372.476 169.354C375.336 171.732 377.956 174.111 380.531 176.609C383.107 179.108 385.671 181.673 388.126 184.38C390.671 187.128 393.06 190.015 395.283 193.028C396.509 194.665 397.629 196.378 398.637 198.157C399.215 199.181 399.731 200.239 400.182 201.324C400.789 202.75 401.205 204.25 401.421 205.785L401.574 206.947L401.421 207.824C401.036 209.948 400.255 211.982 399.119 213.819C398.166 215.368 397.041 216.806 395.766 218.104C393.556 220.292 391.073 222.185 388.379 223.737C385.92 225.179 383.355 226.432 380.707 227.486C378.099 228.535 375.417 229.393 372.684 230.05L369.725 222.685C371.686 221.348 373.824 219.912 375.775 218.455C377.711 217.051 379.573 215.548 381.353 213.95C382.955 212.548 384.403 210.979 385.671 209.27C386.498 208.298 386.997 207.09 387.096 205.818V207.856C387.096 208.032 387.009 207.747 386.778 207.341C386.548 206.936 386.241 206.432 385.869 205.895C385.123 204.799 384.225 203.626 383.227 202.453C381.222 200.097 378.964 197.707 376.651 195.351C374.339 192.995 371.895 190.671 369.429 188.359C366.963 186.046 364.431 183.722 362.031 181.52L372.476 169.354Z" fill="white"/>
<path d="M373.407 228.275L369.155 231.848L366.601 223.661C368.893 222.778 371.426 222.751 373.736 223.584L373.407 228.275Z" fill="#FFB573"/>
<path opacity="0.7" d="M355.378 168.598C355.378 168.598 353.449 191.482 356.474 202.037C357.46 191.975 360.518 182.243 360.277 179.097C359.229 178.606 358.218 178.038 357.252 177.399C358.331 176.413 359.523 175.56 360.803 174.856C360.803 173.42 360.803 168.17 360.562 167.743C357.767 168.126 355.378 168.598 355.378 168.598Z" fill="#407BFF"/>
<path opacity="0.7" d="M336.571 172.883C336.571 172.883 337.469 190.978 339.672 206.234C336.132 197.466 331.693 189.148 331.902 185.783C333.458 184.347 334.817 182.78 334.817 182.78C333.752 182.187 332.591 181.786 331.387 181.596C331.316 179.099 331.385 176.6 331.595 174.111C334.28 173.365 336.571 172.883 336.571 172.883Z" fill="#407BFF"/>
<path d="M365.779 233.832L362.392 228.143L366.601 223.661L369.155 231.848L365.779 233.832Z" fill="#FFB573"/>
<g opacity="0.2">
<path opacity="0.2" d="M172.96 231.015V254.425C173.006 255.203 173.348 255.934 173.916 256.468C174.483 257.003 175.233 257.3 176.012 257.3C176.791 257.3 177.541 257.003 178.109 256.468C178.676 255.934 179.018 255.203 179.064 254.425V231.015H172.96Z" fill="#407BFF"/>
<path opacity="0.2" d="M178.911 231.618H173.168C173.008 231.618 172.855 231.554 172.742 231.441C172.629 231.328 172.565 231.175 172.565 231.015C172.565 230.855 172.629 230.702 172.742 230.589C172.855 230.476 173.008 230.412 173.168 230.412H178.955C179.115 230.412 179.268 230.476 179.381 230.589C179.494 230.702 179.558 230.855 179.558 231.015C179.558 231.098 179.541 231.18 179.508 231.256C179.475 231.332 179.427 231.401 179.366 231.457C179.305 231.514 179.233 231.557 179.155 231.585C179.077 231.613 178.994 231.624 178.911 231.618Z" fill="#407BFF"/>
</g>
<g opacity="0.2">
<path opacity="0.2" d="M185.136 231.015V254.425C185.183 255.203 185.525 255.934 186.092 256.468C186.659 257.003 187.409 257.3 188.189 257.3C188.968 257.3 189.718 257.003 190.285 256.468C190.853 255.934 191.194 255.203 191.241 254.425V231.015H185.136Z" fill="#407BFF"/>
<path opacity="0.2" d="M191.077 231.618H185.29C185.13 231.618 184.977 231.554 184.864 231.441C184.75 231.328 184.687 231.175 184.687 231.015C184.687 230.855 184.75 230.702 184.864 230.589C184.977 230.476 185.13 230.412 185.29 230.412H191.077C191.237 230.412 191.39 230.476 191.503 230.589C191.616 230.702 191.679 230.855 191.679 231.015C191.679 231.175 191.616 231.328 191.503 231.441C191.39 231.554 191.237 231.618 191.077 231.618Z" fill="#407BFF"/>
</g>
<g opacity="0.2">
<path opacity="0.2" d="M197.28 231.015V254.425C197.327 255.203 197.669 255.934 198.236 256.468C198.803 257.003 199.553 257.3 200.332 257.3C201.112 257.3 201.862 257.003 202.429 256.468C202.996 255.934 203.338 255.203 203.385 254.425V231.015H197.28Z" fill="#407BFF"/>
<path opacity="0.2" d="M203.253 231.618H197.455C197.376 231.618 197.298 231.602 197.225 231.572C197.152 231.542 197.085 231.497 197.029 231.441C196.973 231.385 196.929 231.319 196.898 231.246C196.868 231.172 196.853 231.094 196.853 231.015C196.853 230.936 196.868 230.857 196.898 230.784C196.929 230.711 196.973 230.645 197.029 230.589C197.085 230.533 197.152 230.488 197.225 230.458C197.298 230.428 197.376 230.412 197.455 230.412H203.253C203.413 230.412 203.566 230.476 203.679 230.589C203.792 230.702 203.856 230.855 203.856 231.015C203.856 231.175 203.792 231.328 203.679 231.441C203.566 231.554 203.413 231.618 203.253 231.618Z" fill="#407BFF"/>
</g>
<path d="M210.169 235.717H166.197C166.029 235.717 165.867 235.65 165.748 235.531C165.629 235.411 165.562 235.25 165.562 235.081C165.562 234.998 165.578 234.915 165.61 234.838C165.642 234.761 165.689 234.691 165.748 234.632C165.807 234.573 165.877 234.526 165.954 234.494C166.031 234.462 166.114 234.445 166.197 234.445H210.169C210.252 234.445 210.335 234.462 210.412 234.494C210.489 234.526 210.559 234.573 210.618 234.632C210.677 234.691 210.724 234.761 210.756 234.838C210.788 234.915 210.805 234.998 210.805 235.081C210.805 235.25 210.738 235.411 210.618 235.531C210.499 235.65 210.338 235.717 210.169 235.717Z" fill="#407BFF"/>
<path d="M170.538 265.484V233.459H169.266V265.484H170.538Z" fill="#407BFF"/>
<path d="M207.122 265.484V233.459H205.851V265.484H207.122Z" fill="#407BFF"/>
<path d="M253.636 216.065H228.023C227.854 216.065 227.693 215.998 227.573 215.879C227.454 215.76 227.387 215.598 227.387 215.43C227.387 215.261 227.454 215.099 227.573 214.98C227.693 214.861 227.854 214.794 228.023 214.794H253.636C253.805 214.794 253.967 214.861 254.086 214.98C254.205 215.099 254.272 215.261 254.272 215.43C254.272 215.598 254.205 215.76 254.086 215.879C253.967 215.998 253.805 216.065 253.636 216.065Z" fill="#407BFF"/>
<path d="M252.584 214.224H244.835C244.557 214.224 244.331 214.45 244.331 214.728V216.142C244.331 216.421 244.557 216.646 244.835 216.646H252.584C252.863 216.646 253.088 216.421 253.088 216.142V214.728C253.088 214.45 252.863 214.224 252.584 214.224Z" fill="#407BFF"/>
<path d="M232.352 265.495V213.819H231.081V265.495H232.352Z" fill="#407BFF"/>
<path opacity="0.1" d="M300.435 246.841V240.265C300.605 240.222 300.752 240.119 300.85 239.974C300.948 239.829 300.99 239.654 300.967 239.481C300.944 239.308 300.858 239.149 300.726 239.035C300.593 238.921 300.424 238.859 300.249 238.862H293.333C293.142 238.865 292.96 238.942 292.825 239.077C292.69 239.212 292.613 239.395 292.61 239.586C292.612 239.742 292.666 239.894 292.763 240.016C292.861 240.139 292.995 240.227 293.147 240.265V246.841C293.119 248.555 292.711 250.24 291.953 251.777C291.195 253.314 290.105 254.664 288.763 255.73C287.158 257.045 285.9 258.735 285.102 260.651C284.891 261.189 284.813 261.77 284.876 262.345C284.94 262.92 285.142 263.47 285.466 263.949C285.789 264.428 286.225 264.821 286.734 265.095C287.244 265.368 287.812 265.513 288.39 265.517H305.148C305.726 265.513 306.295 265.368 306.804 265.095C307.314 264.821 307.749 264.428 308.073 263.949C308.397 263.47 308.599 262.92 308.662 262.345C308.726 261.77 308.648 261.189 308.436 260.651C307.638 258.735 306.381 257.045 304.776 255.73C303.442 254.66 302.361 253.308 301.61 251.771C300.86 250.235 300.459 248.551 300.435 246.841Z" fill="#407BFF"/>
<path opacity="0.6" d="M252.694 256.727H244.737C242.812 256.727 241.252 258.287 241.252 260.212V261.999C241.252 263.924 242.812 265.484 244.737 265.484H252.694C254.619 265.484 256.179 263.924 256.179 261.999V260.212C256.179 258.287 254.619 256.727 252.694 256.727Z" fill="#407BFF"/>
<path opacity="0.8" d="M252.442 253.527H244.978C244.252 253.527 243.663 254.116 243.663 254.842V255.412C243.663 256.138 244.252 256.727 244.978 256.727H252.442C253.168 256.727 253.757 256.138 253.757 255.412V254.842C253.757 254.116 253.168 253.527 252.442 253.527Z" fill="#407BFF"/>
<path d="M248.902 254.36H248.54C248.389 254.36 248.266 254.482 248.266 254.634V255.631C248.266 255.782 248.389 255.905 248.54 255.905H248.902C249.053 255.905 249.176 255.782 249.176 255.631V254.634C249.176 254.482 249.053 254.36 248.902 254.36Z" fill="#407BFF"/>
<path d="M250.524 254.36H250.162C250.011 254.36 249.888 254.482 249.888 254.634V255.631C249.888 255.782 250.011 255.905 250.162 255.905H250.524C250.675 255.905 250.798 255.782 250.798 255.631V254.634C250.798 254.482 250.675 254.36 250.524 254.36Z" fill="#407BFF"/>
<path d="M252.146 254.36H251.784C251.633 254.36 251.51 254.482 251.51 254.634V255.631C251.51 255.782 251.633 255.905 251.784 255.905H252.146C252.297 255.905 252.42 255.782 252.42 255.631V254.634C252.42 254.482 252.297 254.36 252.146 254.36Z" fill="#407BFF"/>
<path d="M253.768 254.36H253.406C253.255 254.36 253.132 254.482 253.132 254.634V255.631C253.132 255.782 253.255 255.905 253.406 255.905H253.768C253.919 255.905 254.042 255.782 254.042 255.631V254.634C254.042 254.482 253.919 254.36 253.768 254.36Z" fill="#407BFF"/>
<path d="M247.279 254.36H246.918C246.766 254.36 246.644 254.482 246.644 254.634V255.631C246.644 255.782 246.766 255.905 246.918 255.905H247.279C247.431 255.905 247.553 255.782 247.553 255.631V254.634C247.553 254.482 247.431 254.36 247.279 254.36Z" fill="#407BFF"/>
<path d="M245.646 254.36H245.285C245.133 254.36 245.011 254.482 245.011 254.634V255.631C245.011 255.782 245.133 255.905 245.285 255.905H245.646C245.798 255.905 245.92 255.782 245.92 255.631V254.634C245.92 254.482 245.798 254.36 245.646 254.36Z" fill="#407BFF"/>
<path d="M244.024 254.36H243.663C243.511 254.36 243.389 254.482 243.389 254.634V255.631C243.389 255.782 243.511 255.905 243.663 255.905H244.024C244.176 255.905 244.298 255.782 244.298 255.631V254.634C244.298 254.482 244.176 254.36 244.024 254.36Z" fill="#407BFF"/>
<path opacity="0.6" d="M248.715 252.924C247.181 253.231 246.589 249.746 248.715 246.666C249.274 247.806 251.937 252.288 248.715 252.924Z" fill="#407BFF"/>
<path opacity="0.6" d="M248.792 252.792C247.904 252.968 247.565 250.962 248.792 249.187C249.077 249.888 250.611 252.431 248.792 252.792Z" fill="#407BFF"/>
<path d="M354.764 273.627H136.54V456.188H354.764V273.627Z" fill="#407BFF"/>
<path opacity="0.7" d="M354.764 273.627H136.54V456.188H354.764V273.627Z" fill="white"/>
<path opacity="0.2" d="M354.764 273.627H307.823V456.188H354.764V273.627Z" fill="#407BFF"/>
<path opacity="0.3" d="M296.183 443.749H148.223V286.056H296.183V443.749ZM149.319 442.653H295.087V287.218H149.33L149.319 442.653Z" fill="#407BFF"/>
<g opacity="0.3">
<path opacity="0.3" d="M189.915 422.289L189.038 421.412C197.466 412.995 198.727 398.977 199.998 385.43C201.193 372.213 202.311 359.729 209.687 352.353C218.455 343.585 232.703 342.336 246.436 341.097C259.423 339.924 271.644 338.828 278.735 331.77L279.612 332.647C272.246 340.023 259.763 341.141 246.545 342.336C232.999 343.552 218.981 344.813 210.564 353.23C203.505 360.288 202.398 372.552 201.237 385.54C199.943 399.306 198.661 413.554 189.915 422.289Z" fill="#407BFF"/>
<path opacity="0.3" d="M165.682 398.056L164.806 397.179C173.574 388.411 187.822 387.162 201.554 385.924C214.542 384.751 226.762 383.644 233.864 376.597C242.282 368.168 243.542 354.161 244.824 340.604C246.008 327.386 247.137 314.914 254.502 307.538L255.379 308.414C248.332 315.462 247.225 327.737 246.052 340.714C244.814 354.49 243.531 368.727 234.796 377.473C227.42 384.838 214.937 385.967 201.73 387.151C188.117 388.368 174.111 389.639 165.682 398.056Z" fill="#407BFF"/>
<path opacity="0.3" d="M215.205 357.043L214.329 357.919L229.186 372.775L230.061 371.9L215.205 357.043Z" fill="#407BFF"/>
<path opacity="0.3" d="M207.088 370.544L206.212 371.419L215.682 380.89L216.558 380.014L207.088 370.544Z" fill="#407BFF"/>
<path opacity="0.3" d="M260.013 312.223L259.137 313.099L273.993 327.955L274.869 327.08L260.013 312.223Z" fill="#407BFF"/>
<path opacity="0.3" d="M251.903 325.716L251.027 326.591L260.498 336.062L261.373 335.186L251.903 325.716Z" fill="#407BFF"/>
<path opacity="0.3" d="M228.69 348.948L227.814 349.824L237.284 359.294L238.16 358.418L228.69 348.948Z" fill="#407BFF"/>
<path opacity="0.3" d="M170.371 401.863L169.495 402.739L184.352 417.596L185.227 416.72L170.371 401.863Z" fill="#407BFF"/>
<path opacity="0.3" d="M183.874 393.76L182.999 394.636L192.469 404.106L193.345 403.231L183.874 393.76Z" fill="#407BFF"/>
</g>
<path d="M358.107 273.627H133.197C132.119 273.624 131.087 273.195 130.325 272.433C129.563 271.671 129.134 270.639 129.131 269.561C129.134 268.483 129.563 267.449 130.324 266.685C131.086 265.922 132.118 265.49 133.197 265.484H358.107C359.187 265.49 360.22 265.921 360.984 266.685C361.747 267.448 362.178 268.482 362.184 269.561C362.178 270.64 361.747 271.672 360.983 272.434C360.219 273.196 359.186 273.624 358.107 273.627Z" fill="#407BFF"/>
<path opacity="0.3" d="M358.107 273.627H304.458C303.379 273.624 302.346 273.196 301.582 272.434C300.818 271.672 300.386 270.64 300.381 269.561C300.386 268.482 300.818 267.448 301.581 266.685C302.345 265.921 303.378 265.49 304.458 265.484H358.107C359.187 265.49 360.22 265.921 360.984 266.685C361.747 267.448 362.178 268.482 362.184 269.561C362.178 270.64 361.747 271.672 360.983 272.434C360.219 273.196 359.186 273.624 358.107 273.627Z" fill="black"/>
</svg>
