<svg width="548" height="548" viewBox="0 0 548 548" fill="none" xmlns="http://www.w3.org/2000/svg">
<g clip-path="url(#clip0)">
<path d="M549.886 419.11H33.012V419.384H549.886V419.11Z" fill="#EBEBEB"/>
<path d="M121.48 429.544H87.2425V429.818H121.48V429.544Z" fill="#EBEBEB"/>
<path d="M218.911 426.574H191.63V426.848H218.911V426.574Z" fill="#EBEBEB"/>
<path d="M173.488 436.011H126.018V436.285H173.488V436.011Z" fill="#EBEBEB"/>
<path d="M498.096 437.885H475.767V438.159H498.096V437.885Z" fill="#EBEBEB"/>
<path d="M470.743 437.885H437.694V438.159H470.743V437.885Z" fill="#EBEBEB"/>
<path d="M376.558 433.26H319.577V433.534H376.558V433.26Z" fill="#EBEBEB"/>
<path d="M278.01 370.229H78.4039C76.8402 370.226 75.3415 369.565 74.2367 368.392C73.132 367.219 72.5115 365.629 72.5115 363.971V66.4834C72.5251 64.835 73.1516 63.2589 74.2549 62.0974C75.3582 60.9359 76.8491 60.2829 78.4039 60.28H278.01C279.576 60.28 281.077 60.9394 282.184 62.113C283.291 63.2866 283.913 64.8784 283.913 66.5382V363.971C283.913 365.63 283.291 367.222 282.184 368.396C281.077 369.57 279.576 370.229 278.01 370.229V370.229ZM78.4039 60.4992C76.9087 60.5021 75.4758 61.1339 74.4195 62.2558C73.3632 63.3778 72.77 64.8982 72.77 66.4834V363.971C72.77 365.556 73.3632 367.076 74.4195 368.198C75.4758 369.32 76.9087 369.952 78.4039 369.955H278.01C279.507 369.952 280.941 369.321 281.999 368.199C283.056 367.077 283.652 365.557 283.655 363.971V66.4834C283.652 64.8972 283.056 63.3768 281.999 62.2551C280.941 61.1335 279.507 60.5021 278.01 60.4992H78.4039Z" fill="#EBEBEB"/>
<path d="M501.621 370.229H302.004C300.439 370.226 298.939 369.566 297.833 368.393C296.727 367.22 296.104 365.63 296.101 363.971V66.4834C296.117 64.834 296.746 63.2579 297.851 62.0968C298.956 60.9356 300.448 60.2828 302.004 60.28H501.621C503.174 60.2857 504.662 60.9401 505.763 62.1013C506.864 63.2625 507.489 64.8369 507.503 66.4834V363.971C507.503 365.627 506.884 367.215 505.781 368.388C504.679 369.561 503.183 370.223 501.621 370.229V370.229ZM302.004 60.4992C300.508 60.5021 299.074 61.1335 298.016 62.2551C296.958 63.3768 296.362 64.8972 296.36 66.4834V363.971C296.362 365.557 296.958 367.077 298.016 368.199C299.074 369.321 300.508 369.952 302.004 369.955H501.621C503.117 369.952 504.551 369.321 505.609 368.199C506.667 367.077 507.262 365.557 507.265 363.971V66.4834C507.262 64.8972 506.667 63.3768 505.609 62.2551C504.551 61.1335 503.117 60.5021 501.621 60.4992H302.004Z" fill="#EBEBEB"/>
<path d="M122.163 244.397L459.826 244.397V89.1048L122.163 89.1048V244.397Z" fill="#E6E6E6"/>
<path d="M117.511 244.397L457.8 244.397V89.1048L117.511 89.1048V244.397Z" fill="#F5F5F5"/>
<path d="M449.447 235.443V98.0591L125.853 98.0591V235.443L449.447 235.443Z" fill="#FAFAFA"/>
<path d="M263.445 235.443L226.54 98.0701H200.789L237.694 235.443H263.445Z" fill="white"/>
<path d="M230.386 235.443L193.491 98.0701H175.752L212.657 235.443H230.386Z" fill="white"/>
<path d="M418.373 235.443L381.478 98.0701H355.717L392.622 235.443H418.373Z" fill="white"/>
<path d="M385.324 235.443L348.419 98.0701H330.69L367.585 235.443H385.324Z" fill="white"/>
<path d="M197.388 235.443V98.0592H187.423V235.443H197.388Z" fill="#E6E6E6"/>
<path d="M394.555 235.454V98.0701H384.59V235.454H394.555Z" fill="#E6E6E6"/>
<path d="M195.59 241.131V91.4065H182.999V241.131H195.59Z" fill="#F5F5F5"/>
<path d="M392.767 241.131V91.4064H380.176V241.131H392.767Z" fill="#F5F5F5"/>
<path d="M126.742 235.454L126.742 98.0701H125.853L125.853 235.454H126.742Z" fill="#E6E6E6"/>
<path d="M113.996 77.5968H468.903C469.177 77.5968 469.44 77.7123 469.633 77.9178C469.827 78.1234 469.936 78.4021 469.936 78.6928C469.936 78.9835 469.827 79.2622 469.633 79.4678C469.44 79.6733 469.177 79.7888 468.903 79.7888H113.996C113.722 79.7888 113.459 79.6733 113.265 79.4678C113.071 79.2622 112.962 78.9835 112.962 78.6928C112.962 78.4021 113.071 78.1234 113.265 77.9178C113.459 77.7123 113.722 77.5968 113.996 77.5968Z" fill="#E6E6E6"/>
<path d="M459.816 85.1263C460.201 85.1263 460.57 84.965 460.843 84.6776C461.116 84.3901 461.271 83.9999 461.273 83.5919V80.3039C461.273 79.894 461.12 79.501 460.847 79.2112C460.573 78.9214 460.202 78.7585 459.816 78.7585V78.7585C459.431 78.7614 459.063 78.9255 458.792 79.215C458.521 79.5045 458.369 79.8959 458.369 80.3039V83.5919C458.369 83.9989 458.521 84.3891 458.792 84.6769C459.064 84.9646 459.432 85.1263 459.816 85.1263V85.1263Z" fill="#E6E6E6"/>
<path d="M130.236 85.1263C130.621 85.1263 130.99 84.965 131.263 84.6776C131.536 84.3901 131.691 83.9999 131.694 83.5919V80.3039C131.694 79.894 131.54 79.501 131.267 79.2112C130.993 78.9214 130.623 78.7585 130.236 78.7585V78.7585C129.851 78.7614 129.483 78.9255 129.212 79.215C128.941 79.5045 128.789 79.8959 128.789 80.3039V83.5919C128.789 83.9989 128.941 84.3891 129.213 84.6769C129.484 84.9646 129.852 85.1263 130.236 85.1263V85.1263Z" fill="#E6E6E6"/>
<path opacity="0.6" d="M114.337 117.579L454.482 117.579V78.7366L114.337 78.7366V117.579Z" fill="#E0E0E0"/>
<path d="M234.345 363.543C238.015 362.228 240.671 358.48 238.346 354.633C234.49 348.276 244.135 346.961 241.447 336.297C237.632 321.281 225.775 334.291 222.839 319.857C220.699 309.368 204.087 302.496 203.436 316.306C202.723 331.419 195.579 321.545 193.987 338.357C192.892 349.975 208.46 351.663 203.839 355.301C200.438 357.954 198.422 362.579 203.167 365.746C209.638 370.053 203.529 373.418 207.933 376.421C212.336 379.424 213.039 374.635 219.862 376.969C225.961 379.052 231.13 372.662 229.92 368.662C228.752 364.968 230.665 364.869 234.345 363.543Z" fill="#E6E6E6"/>
<path d="M199.084 370.448C199.084 370.448 199.58 419.11 218.818 419.11C238.056 419.11 238.552 370.448 238.552 370.448H199.084Z" fill="#F0F0F0"/>
<path d="M180.776 363.543C184.436 362.228 187.103 358.48 184.766 354.633C180.91 348.276 190.566 346.961 187.868 336.297C184.043 321.281 172.186 334.291 169.26 319.857C167.12 309.368 150.508 302.496 149.857 316.306C149.143 331.419 142 321.545 140.408 338.357C139.312 349.975 154.881 351.663 150.26 355.301C146.859 357.954 144.843 362.579 149.598 365.746C156.059 370.053 149.96 373.418 154.353 376.421C158.747 379.424 159.46 374.635 166.283 376.969C172.392 379.052 177.561 372.662 176.341 368.662C175.173 364.968 177.086 364.869 180.776 363.543Z" fill="#E6E6E6"/>
<path d="M145.505 370.448C145.505 370.448 146.011 419.11 165.239 419.11C184.467 419.11 184.973 370.448 184.973 370.448H145.505Z" fill="#F0F0F0"/>
<path d="M348.977 316.613C351.748 284.094 353.681 231.311 352.182 213.654C352.158 213.356 352.077 213.066 351.944 212.802C351.811 212.538 351.628 212.306 351.407 212.12V212.12C351.109 211.872 350.75 211.722 350.372 211.69C349.995 211.657 349.617 211.744 349.286 211.938C348.955 212.132 348.685 212.426 348.511 212.782C348.336 213.138 348.265 213.54 348.305 213.939C348.574 222.707 348.874 244.55 347.272 282.275C346.455 301.049 345.276 313.905 346.083 316.613H348.977Z" fill="#F0F0F0"/>
<path d="M357.516 249.274C364.153 240.506 377.695 234.193 391.495 234.226C396.912 234.226 375.007 244.474 365.9 255.774C358.829 264.542 350.848 279.316 348.14 287.503C349.887 270.263 350.89 258.086 357.516 249.274Z" fill="#F0F0F0"/>
<path d="M343.654 249.187C337.1 239.498 321.945 232.045 305.56 231.201C299.12 230.872 323.609 243.027 332.737 255.489C339.839 265.166 347.117 281.212 349.112 290.002C349.598 271.808 350.218 258.875 343.654 249.187Z" fill="#F0F0F0"/>
<path d="M357.516 263.424C364.153 254.656 377.695 248.343 391.495 248.375C396.912 248.375 375.007 258.623 365.9 269.923C358.829 278.691 350.848 293.465 348.14 301.707C349.887 284.412 350.89 272.235 357.516 263.424Z" fill="#F0F0F0"/>
<path d="M343.654 264.136C337.1 254.447 321.945 246.995 305.56 246.151C299.12 245.822 323.609 257.977 332.737 270.438C339.839 280.127 347.117 296.161 349.112 304.951C349.598 286.692 350.218 273.814 343.654 264.136Z" fill="#F0F0F0"/>
<path d="M356.327 215.989C360.669 209.413 369.962 204.327 379.669 203.637C383.484 203.363 368.453 211.703 362.457 220.077C357.795 226.653 352.719 237.416 351.086 243.323C351.717 231.146 351.975 222.488 356.327 215.989Z" fill="#F0F0F0"/>
<path d="M347.685 218.751C343.064 211.923 332.386 206.695 320.808 206.081C316.27 205.851 333.523 214.422 339.963 223.2C344.966 230.018 350.094 241.328 351.5 247.521C351.872 234.665 352.316 225.579 347.685 218.751Z" fill="#F0F0F0"/>
<path d="M357.816 224.483C363.429 217.019 374.893 211.714 386.585 211.736C391.175 211.736 372.629 220.417 364.876 229.985C358.881 237.416 352.13 249.921 349.825 256.859C351.407 242.216 352.203 231.936 357.816 224.483Z" fill="#F0F0F0"/>
<path d="M346.414 228.45C340.852 220.296 328.023 213.939 314.192 213.227C308.744 212.942 329.47 223.244 337.203 233.788C343.137 241.986 349.339 255.565 351.034 263.04C351.407 247.565 351.965 236.659 346.414 228.45Z" fill="#F0F0F0"/>
<path d="M358.188 234.829C364.246 226.784 376.62 221.052 389.2 221.085C394.152 221.085 374.149 230.445 365.827 240.813C359.367 248.836 352.079 262.317 349.598 269.802C351.221 254.009 352.13 242.874 358.188 234.829Z" fill="#F0F0F0"/>
<path d="M345.535 239.235C339.332 230.127 325.129 223.124 309.716 222.335C303.668 222.017 326.679 233.448 335.27 245.164C341.948 254.272 348.791 269.353 350.673 277.617C351.117 260.453 351.706 248.354 345.535 239.235Z" fill="#F0F0F0"/>
<path d="M330.328 311.122L331.362 320.251C331.418 321.238 331.826 322.165 332.504 322.843C333.182 323.522 334.079 323.9 335.011 323.901H360.71C361.643 323.9 362.539 323.522 363.218 322.843C363.896 322.165 364.304 321.238 364.36 320.251L365.393 311.122C365.421 310.595 365.348 310.069 365.177 309.574C365.006 309.079 364.742 308.626 364.4 308.243C364.059 307.86 363.647 307.555 363.19 307.347C362.733 307.139 362.241 307.033 361.744 307.033H333.978C333.481 307.033 332.988 307.139 332.532 307.347C332.075 307.555 331.663 307.86 331.321 308.243C330.98 308.626 330.715 309.079 330.545 309.574C330.374 310.069 330.3 310.595 330.328 311.122V311.122Z" fill="#E6E6E6"/>
<path d="M328.799 313.051H366.913C367.183 313.05 367.443 312.945 367.645 312.755C367.846 312.566 367.976 312.304 368.009 312.02L368.918 303.318C368.934 303.155 368.918 302.991 368.87 302.835C368.822 302.679 368.744 302.536 368.641 302.414C368.538 302.292 368.412 302.194 368.271 302.127C368.13 302.06 367.977 302.025 367.823 302.025H327.889C327.734 302.025 327.582 302.06 327.441 302.127C327.3 302.194 327.174 302.292 327.07 302.414C326.967 302.536 326.889 302.679 326.841 302.835C326.794 302.991 326.777 303.155 326.793 303.318L327.703 312.02C327.736 312.304 327.865 312.566 328.067 312.755C328.269 312.945 328.529 313.05 328.799 313.051V313.051Z" fill="#F5F5F5"/>
<path d="M271.746 419.11H288.307V323.901H271.746V419.11Z" fill="#E6E6E6"/>
<path d="M276.708 419.111H271.746V400.884H281.908L276.708 419.111Z" fill="#F0F0F0"/>
<path d="M478.051 419.11H494.612V323.901H478.051V419.11Z" fill="#E6E6E6"/>
<path d="M271.746 407.931H482.393V323.901H271.746V407.931Z" fill="#F0F0F0"/>
<path d="M477.421 419.111H482.383V400.884H472.221L477.421 419.111Z" fill="#F0F0F0"/>
<path d="M275.592 363.445H478.537V329.819H275.592V363.445Z" fill="#E6E6E6"/>
<path d="M305.332 340.264H445.478C450.316 340.264 454.947 336.11 458.286 328.789H292.535C295.863 336.11 300.494 340.264 305.332 340.264Z" fill="#F0F0F0"/>
<path d="M275.592 402.495H478.537V368.87H275.592V402.495Z" fill="#E6E6E6"/>
<path d="M305.332 379.315H445.478C450.316 379.315 454.947 375.172 458.286 367.851H292.535C295.863 375.172 300.494 379.315 305.332 379.315Z" fill="#F0F0F0"/>
<path d="M479.84 301.586C479.84 301.586 478.93 323.901 444.217 323.901C409.503 323.901 408.604 301.586 408.604 301.586H479.84Z" fill="#F5F5F5"/>
<path d="M479.84 290.002C479.84 290.002 478.93 312.36 444.217 312.36C409.503 312.36 408.604 290.046 408.604 290.046L479.84 290.002Z" fill="#F5F5F5"/>
<path d="M291.449 468.606C402.146 468.606 491.883 463.051 491.883 456.199C491.883 449.347 402.146 443.792 291.449 443.792C180.753 443.792 91.0157 449.347 91.0157 456.199C91.0157 463.051 180.753 468.606 291.449 468.606Z" fill="#F5F5F5"/>
<path d="M413.328 148.366C407.126 151.96 405.058 162.614 407.963 167.25C397.212 170.669 402.794 190.266 420.368 191.362C437.942 192.458 451.318 185.651 442.687 171.119C451.225 158.92 447.297 145.297 439.813 146.798C431.781 129.734 404.882 130.238 413.328 148.366Z" fill="#263238"/>
<path d="M432.039 192.677C429.328 192.668 426.67 191.88 424.348 190.397C424.311 190.383 424.277 190.36 424.249 190.33C424.221 190.301 424.2 190.265 424.187 190.226C424.173 190.186 424.168 190.144 424.172 190.102C424.176 190.061 424.188 190.02 424.208 189.984C424.228 189.948 424.256 189.917 424.288 189.894C424.321 189.87 424.358 189.855 424.397 189.848C424.436 189.841 424.476 189.844 424.514 189.855C424.552 189.867 424.587 189.887 424.617 189.915C427.612 191.816 431.151 192.514 434.59 191.882C438.029 191.251 441.141 189.331 443.359 186.473C446.181 182.769 447.494 176.829 442.563 171.283C442.539 171.256 442.52 171.225 442.508 171.191C442.496 171.156 442.49 171.12 442.491 171.083C442.492 171.047 442.499 171.011 442.514 170.977C442.528 170.944 442.548 170.914 442.573 170.888C442.598 170.863 442.628 170.843 442.66 170.83C442.692 170.817 442.727 170.811 442.761 170.812C442.796 170.813 442.83 170.821 442.861 170.836C442.893 170.851 442.921 170.873 442.945 170.899C448.052 176.708 446.718 182.955 443.762 186.824C442.33 188.649 440.538 190.118 438.513 191.129C436.487 192.14 434.278 192.669 432.039 192.677V192.677Z" fill="#263238"/>
<path d="M406.02 170.888C405.967 170.887 405.916 170.868 405.873 170.835C405.831 170.802 405.799 170.755 405.782 170.702C403.032 162.351 406.712 151.138 413.215 148.07C413.278 148.046 413.348 148.047 413.41 148.073C413.473 148.099 413.525 148.149 413.556 148.212C413.569 148.245 413.577 148.281 413.577 148.317C413.578 148.353 413.572 148.389 413.559 148.423C413.547 148.456 413.528 148.487 413.505 148.513C413.481 148.539 413.453 148.56 413.421 148.574C407.136 151.533 403.59 162.405 406.268 170.494C406.279 170.528 406.284 170.565 406.281 170.601C406.279 170.638 406.27 170.673 406.255 170.706C406.239 170.739 406.218 170.768 406.192 170.792C406.166 170.815 406.135 170.833 406.102 170.845L406.02 170.888Z" fill="#263238"/>
<path d="M404.335 158.821H404.242C404.179 158.794 404.128 158.743 404.099 158.678C404.07 158.613 404.066 158.539 404.086 158.471C405.947 153.243 409.462 149.264 413.246 148.081C413.311 148.06 413.382 148.069 413.442 148.103C413.502 148.138 413.547 148.197 413.566 148.267C413.585 148.337 413.577 148.412 413.544 148.475C413.511 148.539 413.456 148.586 413.39 148.607C409.762 149.703 406.381 153.594 404.572 158.668C404.551 158.715 404.517 158.754 404.475 158.782C404.432 158.809 404.384 158.823 404.335 158.821Z" fill="#263238"/>
<path d="M418.807 450.357L412.832 450.368L411.829 426.574L421.888 426.837L418.807 450.357Z" fill="#FFB573"/>
<path d="M408.418 245.033C408.418 245.033 407.891 311.067 406.578 339.815C406.526 340.669 406.526 341.525 406.578 342.379C408.542 371.193 411.798 426.574 411.798 426.574L421.919 426.848C421.919 426.848 430.737 382.625 425.278 342.566C434.055 297.257 438.779 256.826 430.83 245.022L408.418 245.033Z" fill="#407BFF"/>
<path opacity="0.2" d="M425.371 271.26C422.27 282.286 425.289 317.73 426.891 334.083C429.072 322.268 430.933 310.902 432.308 300.425L425.371 271.26Z" fill="black"/>
<path d="M412.16 447.289H419.923C420.087 447.282 420.246 447.342 420.369 447.456C420.492 447.57 420.569 447.73 420.585 447.902L421.371 454.643C421.375 454.851 421.34 455.059 421.267 455.253C421.195 455.447 421.087 455.623 420.949 455.772C420.811 455.921 420.647 456.04 420.465 456.121C420.284 456.201 420.089 456.243 419.892 456.243C416.471 456.243 414.837 455.98 410.527 455.991C407.87 455.991 406.268 456.276 402.598 456.276C398.928 456.276 398.928 452.549 400.468 452.21C407.384 450.686 408.273 449.842 410.682 447.826C411.105 447.477 411.625 447.288 412.16 447.289Z" fill="#263238"/>
<path d="M414.713 196.436C414.331 198.705 413.897 200.82 413.432 203.012C412.966 205.204 412.491 207.396 411.943 209.588C410.858 213.972 409.731 218.268 408.242 222.609C407.495 224.852 406.625 227.048 405.637 229.185C405.089 230.37 404.457 231.51 403.745 232.593C403.539 232.889 403.353 233.174 403.084 233.503C402.826 233.852 402.539 234.175 402.226 234.467C401.433 235.261 400.478 235.85 399.435 236.188C398.341 236.539 397.181 236.588 396.065 236.331C395.186 236.115 394.347 235.744 393.584 235.235C392.425 234.448 391.398 233.463 390.544 232.319C389.078 230.385 387.91 228.217 387.081 225.897C386.9 225.403 386.884 224.858 387.037 224.354C387.19 223.85 387.502 223.417 387.921 223.129C388.34 222.84 388.84 222.714 389.337 222.771C389.834 222.828 390.297 223.065 390.648 223.442L390.772 223.584C392.055 225.021 393.437 226.354 394.907 227.574C395.481 228.039 396.119 228.408 396.799 228.67C397.047 228.735 397.222 228.735 397.243 228.67C397.264 228.604 397.098 228.56 396.954 228.571C396.809 228.582 396.716 228.637 396.757 228.571C396.806 228.475 396.861 228.384 396.923 228.297C397.025 228.164 397.115 228.021 397.191 227.869C397.625 227.115 398.005 226.327 398.329 225.513C399.081 223.635 399.744 221.719 400.313 219.77C401.492 215.759 402.567 211.583 403.497 207.385C404.428 203.188 405.348 198.902 406.175 194.715C406.429 193.558 407.097 192.55 408.038 191.904C408.979 191.258 410.12 191.024 411.22 191.251C412.321 191.478 413.295 192.149 413.939 193.122C414.583 194.095 414.845 195.295 414.672 196.469L414.713 196.436Z" fill="#FFB573"/>
<path d="M405.317 236.067C405.317 238.764 444.951 239.29 444.951 235.728L424.699 230.248L405.317 236.067" fill="#263238"/>
<path d="M412.594 189.367C423.044 187.514 433.72 187.625 444.134 189.696C444.745 189.798 445.329 190.032 445.851 190.384C446.374 190.735 446.823 191.196 447.17 191.738C447.518 192.28 447.757 192.892 447.873 193.536C447.989 194.18 447.98 194.843 447.845 195.483C442.242 222.083 442.563 231.026 443.1 245.033H408.428C406.692 221.666 405.771 208.328 405.544 200.754C405.358 194.979 407.229 190.211 412.594 189.367Z" fill="#FFB573"/>
<path opacity="0.2" d="M444.031 197.094C443.812 200.806 444.276 204.528 445.395 208.054C445.84 205.522 446.356 202.804 446.946 199.834L444.031 197.094Z" fill="black"/>
<path d="M432.752 169.946C431.719 175.261 430.778 185.027 434.293 188.578C434.293 188.578 432.918 193.981 423.593 193.981C413.328 193.981 418.683 188.578 418.683 188.578C424.286 187.153 424.141 182.747 423.17 178.615L432.752 169.946Z" fill="#FFB573"/>
<path opacity="0.2" d="M428.845 173.486L423.17 178.648C423.411 179.611 423.573 180.593 423.655 181.585C425.795 181.256 428.731 178.769 428.958 176.39C429.086 175.423 429.047 174.439 428.845 173.486V173.486Z" fill="black"/>
<path d="M438.169 160.718C436.246 169.387 435.616 173.102 430.716 176.84C423.356 182.473 413.721 178.089 413.142 168.981C412.625 160.794 415.84 147.982 424.513 145.965C426.418 145.51 428.402 145.578 430.275 146.163C432.148 146.748 433.849 147.831 435.217 149.309C436.585 150.786 437.574 152.61 438.091 154.607C438.607 156.603 438.634 158.707 438.169 160.718V160.718Z" fill="#FFB573"/>
<path d="M435.047 147.675C426.384 148.694 429.02 165.814 435.533 167.469C443.162 163.512 447.866 148.486 435.047 147.675Z" fill="#263238"/>
<path d="M477.452 434.685L471.466 436.614L462.731 417.214L471.942 414.551L477.452 434.685Z" fill="#FFB573"/>
<path d="M469.74 434.674L477.431 431.517C477.566 431.462 477.714 431.459 477.85 431.51C477.987 431.56 478.102 431.66 478.175 431.791L481.618 437.951C481.7 438.104 481.751 438.275 481.765 438.451C481.78 438.627 481.759 438.804 481.703 438.971C481.647 439.137 481.557 439.289 481.441 439.416C481.325 439.542 481.184 439.641 481.028 439.704C478.33 440.8 477.028 441.359 473.647 442.751C471.58 443.606 468.334 446.456 465.46 447.628C462.586 448.801 461.325 446.017 462.359 445.053C465.16 442.461 467.366 439.226 468.809 435.594C468.897 435.382 469.025 435.19 469.185 435.032C469.345 434.874 469.534 434.752 469.74 434.674V434.674Z" fill="#263238"/>
<path d="M417.939 245.033C417.939 245.033 430.685 314.157 435.512 341.481C440.505 369.977 462.752 417.171 462.752 417.171L471.983 414.496C471.983 414.496 459.34 364.014 453.448 338.993C452.29 293.684 453.655 256.793 443.11 244.989L417.939 245.033Z" fill="#407BFF"/>
<path d="M424.606 160.663C424.493 161.375 424.048 161.89 423.573 161.759C423.097 161.627 422.87 161.035 422.983 160.323C423.097 159.611 423.552 159.095 424.017 159.172C424.482 159.249 424.73 159.95 424.606 160.663Z" fill="#263238"/>
<path d="M417.008 159.293C416.895 160.005 416.44 160.52 415.975 160.389C415.509 160.257 415.272 159.676 415.385 158.953C415.499 158.23 415.954 157.725 416.419 157.857C416.884 157.988 417.122 158.58 417.008 159.293Z" fill="#263238"/>
<path d="M416.605 157.934L415.065 157.145C415.065 157.145 415.685 158.635 416.605 157.934Z" fill="#263238"/>
<path d="M419.138 161.002C418.284 162.518 417.241 163.904 416.037 165.123C416.338 165.443 416.701 165.69 417.101 165.847C417.5 166.004 417.927 166.067 418.352 166.033L419.138 161.002Z" fill="#ED893E"/>
<path d="M421.557 169.486C421.21 169.486 420.864 169.453 420.523 169.387C420.497 169.383 420.472 169.373 420.45 169.359C420.427 169.345 420.408 169.326 420.392 169.303C420.377 169.281 420.366 169.255 420.36 169.228C420.354 169.201 420.353 169.173 420.358 169.146C420.368 169.092 420.397 169.043 420.439 169.011C420.481 168.978 420.533 168.964 420.585 168.97C421.42 169.139 422.28 169.098 423.097 168.85C423.913 168.603 424.664 168.156 425.289 167.546C425.307 167.524 425.329 167.507 425.354 167.496C425.379 167.484 425.406 167.478 425.433 167.478C425.461 167.478 425.488 167.484 425.512 167.496C425.537 167.507 425.56 167.524 425.578 167.546C425.613 167.586 425.632 167.639 425.632 167.694C425.632 167.748 425.613 167.801 425.578 167.842C424.496 168.932 423.05 169.523 421.557 169.486V169.486Z" fill="#263238"/>
<path d="M439.348 168.192C438.524 169.676 437.184 170.758 435.616 171.206C433.548 171.765 432.515 169.781 433.156 167.721C433.703 165.869 435.461 163.337 437.539 163.677C437.99 163.764 438.414 163.969 438.772 164.273C439.13 164.577 439.411 164.97 439.59 165.418C439.77 165.865 439.841 166.353 439.799 166.837C439.757 167.322 439.602 167.787 439.348 168.192Z" fill="#FFB573"/>
<path d="M427.904 159.567C427.82 159.566 427.739 159.537 427.672 159.483C427.605 159.43 427.556 159.356 427.532 159.271C426.984 157.397 424.72 156.586 424.699 156.586C424.648 156.569 424.601 156.543 424.56 156.506C424.519 156.47 424.486 156.426 424.462 156.376C424.438 156.325 424.423 156.271 424.42 156.214C424.416 156.158 424.423 156.102 424.441 156.048C424.456 155.994 424.482 155.944 424.516 155.901C424.55 155.858 424.592 155.822 424.639 155.796C424.686 155.771 424.738 155.756 424.791 155.752C424.844 155.748 424.897 155.756 424.948 155.774C425.051 155.774 427.625 156.728 428.297 159.062C428.313 159.116 428.319 159.173 428.314 159.23C428.309 159.286 428.293 159.341 428.268 159.39C428.243 159.44 428.209 159.485 428.168 159.521C428.127 159.556 428.079 159.583 428.028 159.599L427.904 159.567Z" fill="#263238"/>
<path d="M415.313 155.15C415.244 155.149 415.177 155.129 415.117 155.093C415.057 155.056 415.007 155.004 414.972 154.942C414.92 154.843 414.907 154.726 414.936 154.617C414.965 154.508 415.034 154.416 415.127 154.361C415.671 154.012 416.287 153.806 416.921 153.76C417.556 153.714 418.192 153.83 418.776 154.098C418.87 154.149 418.941 154.238 418.974 154.344C419.007 154.451 418.999 154.567 418.952 154.668C418.903 154.767 418.82 154.843 418.719 154.877C418.618 154.912 418.509 154.904 418.414 154.854V154.854C417.948 154.651 417.443 154.568 416.94 154.61C416.437 154.651 415.951 154.818 415.52 155.095C415.458 155.135 415.386 155.154 415.313 155.15V155.15Z" fill="#263238"/>
<path d="M446.966 191.219C449.913 195.307 452.59 199.439 455.133 203.801C456.394 205.993 457.635 208.185 458.772 210.52C460.007 212.939 461.028 215.474 461.821 218.093C461.935 218.444 462.018 218.849 462.111 219.189L462.183 219.507L462.276 219.967C462.318 220.254 462.346 220.543 462.359 220.833C462.406 221.784 462.34 222.738 462.162 223.672C461.868 225.152 461.428 226.596 460.85 227.979C459.83 230.423 458.627 232.776 457.252 235.015C454.635 239.32 451.693 243.392 448.455 247.192C448.1 247.613 447.611 247.879 447.081 247.94C446.552 248 446.02 247.85 445.589 247.518C445.158 247.187 444.858 246.698 444.748 246.145C444.638 245.593 444.725 245.017 444.992 244.529V244.474C447.276 240.254 449.54 235.914 451.494 231.618C452.452 229.546 453.284 227.412 453.986 225.228C454.287 224.301 454.495 223.342 454.606 222.367C454.644 222.08 454.644 221.789 454.606 221.502V221.436V221.304C454.533 221.085 454.482 220.888 454.389 220.658C453.584 218.603 452.637 216.614 451.556 214.706C450.419 212.679 449.21 210.651 447.969 208.624C445.447 204.612 442.8 200.579 440.113 196.677C439.469 195.698 439.209 194.492 439.39 193.314C439.57 192.136 440.177 191.078 441.08 190.366C441.983 189.653 443.112 189.342 444.228 189.497C445.345 189.652 446.36 190.262 447.059 191.197L446.966 191.219Z" fill="#FFB573"/>
<path d="M424.214 159.304L422.673 158.515C422.673 158.515 423.283 160.016 424.214 159.304Z" fill="#263238"/>
<path d="M406.516 198.135C407.154 195.37 407.977 192.656 408.976 190.014C410.562 189.511 412.183 189.145 413.824 188.918C417.168 192.059 419.918 195.845 421.929 200.075C426.364 195.318 434.851 190.507 440.02 188.753C441.768 188.636 443.522 188.87 445.188 189.444C441.663 201.237 438.066 213.095 444.444 216.142C444.33 221.743 444.63 228.691 444.899 235.717C438.872 235.015 414.972 233.799 405.265 236.056C404.769 228.932 404.593 222.904 404.624 217.698C400.107 211.594 404.634 203.286 406.516 198.135Z" fill="#263238"/>
<g opacity="0.2">
<path opacity="0.2" d="M416.016 220.066C415.962 220.073 415.911 220.095 415.867 220.129C415.823 220.164 415.789 220.21 415.768 220.263C415.035 222.443 415.057 224.828 415.83 226.993C415.117 226.357 414.414 225.732 413.762 225.096C414.345 223.777 414.57 222.311 414.413 220.864C414.256 219.417 413.723 218.044 412.873 216.898C412.841 216.854 412.798 216.818 412.75 216.795C412.701 216.772 412.647 216.762 412.594 216.767C412.539 216.771 412.487 216.792 412.443 216.827C412.399 216.862 412.366 216.91 412.346 216.964C411.589 219.205 411.637 221.663 412.481 223.869C411.55 222.97 410.661 222.072 409.844 221.206C410.455 219.879 410.7 218.397 410.552 216.93C410.404 215.462 409.868 214.068 409.007 212.909C408.975 212.864 408.932 212.829 408.883 212.806C408.835 212.783 408.781 212.773 408.728 212.777C408.673 212.782 408.621 212.803 408.577 212.838C408.533 212.873 408.499 212.92 408.48 212.975C407.728 215.22 407.776 217.68 408.614 219.89C407.198 218.323 406.02 216.898 405.141 215.715C404.825 214.389 404.198 213.171 403.317 212.172C402.437 211.174 401.332 210.428 400.107 210.005C400.057 209.995 400.005 209.999 399.957 210.015C399.909 210.03 399.864 210.058 399.828 210.096C399.792 210.133 399.764 210.179 399.748 210.23C399.732 210.281 399.727 210.335 399.734 210.388C400.665 215.243 404.035 216.087 404.717 216.208C405.203 216.855 405.751 217.567 406.412 218.334C404.792 217.564 402.99 217.335 401.244 217.677C401.191 217.689 401.142 217.718 401.104 217.759C401.066 217.799 401.039 217.851 401.027 217.907C401.011 217.961 401.009 218.018 401.02 218.074C401.03 218.13 401.054 218.181 401.089 218.225C401.977 219.299 403.132 220.089 404.421 220.505C405.711 220.922 407.084 220.948 408.387 220.581C408.966 221.217 409.586 221.863 410.237 222.532C408.048 221.868 405.711 222.015 403.611 222.948C403.561 222.976 403.52 223.018 403.491 223.069C403.462 223.12 403.446 223.179 403.446 223.239C403.446 223.298 403.462 223.357 403.491 223.408C403.52 223.459 403.561 223.501 403.611 223.529C404.791 224.308 406.144 224.746 407.533 224.798C408.922 224.85 410.3 224.514 411.529 223.825C412.398 224.691 413.318 225.557 414.269 226.423C412.151 225.409 409.754 225.261 407.539 226.006C407.488 226.028 407.443 226.064 407.408 226.11C407.374 226.156 407.351 226.211 407.343 226.269C407.337 226.326 407.345 226.384 407.365 226.437C407.385 226.491 407.416 226.538 407.457 226.576C408.545 227.511 409.856 228.108 411.244 228.301C412.633 228.495 414.044 228.277 415.323 227.672L415.406 227.617C415.439 227.581 415.46 227.535 415.468 227.486L416.636 228.494C416.672 228.546 416.723 228.584 416.781 228.604C417.401 229.13 418.032 229.645 418.673 230.149C418.729 230.2 418.8 230.228 418.874 230.228C418.948 230.228 419.02 230.2 419.076 230.149V230.149C419.1 230.114 419.117 230.074 419.126 230.032C419.135 229.989 419.137 229.946 419.13 229.903C419.123 229.86 419.109 229.819 419.087 229.782C419.065 229.746 419.037 229.714 419.003 229.689C418.414 229.217 417.825 228.746 417.256 228.253C417.793 226.947 417.987 225.512 417.816 224.099C417.644 222.687 417.115 221.35 416.285 220.23C416.257 220.18 416.218 220.139 416.171 220.11C416.124 220.081 416.07 220.066 416.016 220.066V220.066Z" fill="white"/>
<path opacity="0.2" d="M405.823 203.089C405.877 203.082 405.929 203.06 405.972 203.025C406.016 202.991 406.05 202.945 406.071 202.892C406.804 200.712 406.782 198.326 406.009 196.162C406.723 196.798 407.426 197.423 408.077 198.058C407.495 199.378 407.269 200.843 407.426 202.291C407.583 203.738 408.116 205.111 408.966 206.256C408.998 206.301 409.041 206.337 409.09 206.36C409.138 206.383 409.192 206.392 409.245 206.388C409.3 206.383 409.352 206.362 409.396 206.327C409.44 206.292 409.474 206.245 409.493 206.191C410.25 203.95 410.202 201.492 409.359 199.286C410.289 200.184 411.178 201.083 411.995 201.949C411.384 203.276 411.139 204.758 411.287 206.225C411.435 207.693 411.971 209.086 412.832 210.246C412.865 210.291 412.907 210.326 412.956 210.349C413.005 210.372 413.058 210.382 413.111 210.377C413.166 210.373 413.218 210.352 413.262 210.317C413.306 210.282 413.34 210.234 413.359 210.18C414.111 207.934 414.063 205.475 413.225 203.264C414.641 204.832 415.82 206.256 416.698 207.44C417.014 208.765 417.641 209.984 418.522 210.983C419.402 211.981 420.507 212.727 421.733 213.15C421.782 213.159 421.834 213.156 421.882 213.14C421.931 213.124 421.975 213.096 422.011 213.059C422.047 213.022 422.075 212.976 422.091 212.925C422.107 212.874 422.112 212.82 422.105 212.767C421.174 207.911 417.804 207.067 417.122 206.947C416.636 206.3 416.088 205.588 415.427 204.821C417.046 205.593 418.851 205.819 420.595 205.467C420.648 205.458 420.697 205.432 420.736 205.393C420.774 205.354 420.801 205.303 420.813 205.248C420.828 205.194 420.831 205.136 420.82 205.081C420.809 205.025 420.785 204.973 420.751 204.93C419.862 203.856 418.708 203.066 417.418 202.649C416.129 202.233 414.755 202.207 413.452 202.574C412.873 201.938 412.253 201.291 411.602 200.623C413.791 201.287 416.128 201.14 418.228 200.206C418.278 200.178 418.32 200.137 418.349 200.085C418.378 200.034 418.393 199.976 418.393 199.916C418.393 199.856 418.378 199.798 418.349 199.747C418.32 199.695 418.278 199.654 418.228 199.626C417.048 198.846 415.696 198.409 414.306 198.357C412.917 198.305 411.539 198.64 410.31 199.33C409.441 198.464 408.521 197.598 407.57 196.732C409.688 197.746 412.085 197.894 414.3 197.149C414.35 197.125 414.394 197.088 414.429 197.043C414.463 196.997 414.486 196.943 414.496 196.886C414.502 196.828 414.494 196.771 414.474 196.718C414.455 196.664 414.423 196.617 414.383 196.579C413.294 195.644 411.984 195.047 410.595 194.854C409.207 194.66 407.795 194.878 406.516 195.483L406.433 195.537C406.401 195.574 406.379 195.62 406.371 195.669L405.203 194.661C405.167 194.609 405.116 194.571 405.058 194.551C404.438 194.025 403.807 193.51 403.166 193.006C403.11 192.955 403.039 192.927 402.965 192.927C402.891 192.927 402.819 192.955 402.763 193.006V193.006C402.716 193.076 402.697 193.163 402.708 193.249C402.72 193.334 402.762 193.412 402.825 193.466C403.425 193.937 404.014 194.409 404.583 194.902C404.046 196.207 403.853 197.643 404.024 199.055C404.195 200.468 404.724 201.805 405.554 202.924C405.582 202.974 405.621 203.016 405.668 203.045C405.715 203.074 405.769 203.089 405.823 203.089V203.089Z" fill="white"/>
<path opacity="0.2" d="M437.694 228.067C437.641 228.074 437.591 228.095 437.548 228.128C437.505 228.16 437.47 228.203 437.446 228.253C436.722 230.434 436.744 232.816 437.508 234.982C436.794 234.358 436.091 233.722 435.44 233.086C436.023 231.768 436.248 230.305 436.091 228.859C435.934 227.413 435.401 226.042 434.551 224.899C434.519 224.854 434.477 224.819 434.428 224.796C434.379 224.773 434.326 224.764 434.273 224.77C434.22 224.775 434.169 224.795 434.126 224.827C434.082 224.86 434.047 224.903 434.024 224.954C433.272 227.2 433.32 229.659 434.158 231.87C433.228 230.96 432.339 230.072 431.522 229.206C432.135 227.883 432.382 226.402 432.234 224.935C432.086 223.469 431.549 222.077 430.685 220.921C430.655 220.873 430.612 220.836 430.563 220.813C430.514 220.79 430.459 220.781 430.406 220.789C430.353 220.796 430.303 220.817 430.26 220.849C430.216 220.882 430.181 220.925 430.158 220.976C429.406 223.221 429.454 225.68 430.292 227.891C428.876 226.335 427.697 224.899 426.819 223.716C426.499 222.392 425.871 221.175 424.991 220.177C424.111 219.179 423.008 218.432 421.784 218.005C421.735 217.995 421.683 217.997 421.634 218.012C421.586 218.028 421.541 218.055 421.505 218.093C421.468 218.133 421.44 218.181 421.423 218.234C421.407 218.288 421.403 218.345 421.412 218.4C422.342 223.244 425.723 224.088 426.395 224.209C426.881 224.855 427.429 225.579 428.09 226.346C426.47 225.576 424.667 225.346 422.921 225.688C422.869 225.703 422.822 225.733 422.784 225.773C422.746 225.813 422.719 225.863 422.704 225.918C422.689 225.971 422.686 226.027 422.697 226.081C422.708 226.134 422.732 226.184 422.766 226.225C423.65 227.307 424.804 228.102 426.095 228.519C427.386 228.936 428.762 228.958 430.065 228.582C430.643 229.217 431.264 229.875 431.915 230.544C429.726 229.874 427.387 230.021 425.289 230.96C425.241 230.99 425.202 231.031 425.173 231.081C425.144 231.131 425.127 231.187 425.123 231.245C425.122 231.303 425.136 231.36 425.163 231.41C425.191 231.461 425.23 231.502 425.278 231.53C426.458 232.31 427.81 232.748 429.199 232.802C430.588 232.856 431.967 232.523 433.197 231.837C434.065 232.692 434.985 233.558 435.936 234.434C433.818 233.421 431.422 233.273 429.207 234.018C429.155 234.04 429.11 234.076 429.076 234.122C429.041 234.168 429.019 234.223 429.01 234.281C429.004 234.338 429.012 234.395 429.034 234.447C429.056 234.499 429.09 234.544 429.134 234.577C430.222 235.511 431.533 236.109 432.922 236.302C434.31 236.495 435.722 236.278 437.001 235.673L437.073 235.607C437.103 235.571 437.128 235.531 437.146 235.487L438.314 236.495C438.346 236.546 438.394 236.584 438.448 236.604C439.069 237.131 439.699 237.646 440.34 238.161C440.396 238.212 440.468 238.24 440.542 238.24C440.616 238.24 440.687 238.212 440.743 238.161C440.793 238.091 440.814 238.003 440.802 237.917C440.791 237.831 440.747 237.753 440.681 237.7C440.082 237.229 439.503 236.747 438.924 236.265C439.463 234.96 439.659 233.525 439.49 232.112C439.32 230.7 438.792 229.362 437.962 228.242C437.936 228.191 437.897 228.148 437.85 228.117C437.803 228.086 437.749 228.069 437.694 228.067V228.067Z" fill="white"/>
<path opacity="0.2" d="M457.573 235.64C457.518 235.645 457.465 235.666 457.422 235.7C457.378 235.735 457.344 235.783 457.325 235.837C456.587 238.016 456.606 240.401 457.376 242.567C456.663 241.931 455.97 241.295 455.309 240.671C455.893 239.352 456.121 237.887 455.966 236.44C455.811 234.992 455.279 233.618 454.43 232.473C454.397 232.426 454.352 232.39 454.302 232.367C454.251 232.343 454.195 232.335 454.141 232.341C454.087 232.349 454.036 232.371 453.993 232.406C453.949 232.44 453.915 232.486 453.892 232.538C453.141 234.78 453.188 237.236 454.027 239.443C453.096 238.544 452.218 237.646 451.401 236.78C452.012 235.453 452.257 233.971 452.109 232.504C451.961 231.036 451.425 229.643 450.564 228.483C450.531 228.438 450.489 228.403 450.44 228.38C450.391 228.357 450.338 228.347 450.285 228.352C450.23 228.356 450.178 228.377 450.134 228.412C450.09 228.447 450.056 228.494 450.037 228.549C449.28 230.794 449.328 233.255 450.171 235.465C448.755 233.897 447.566 232.473 446.698 231.289C446.382 229.964 445.755 228.745 444.874 227.746C443.994 226.748 442.889 226.002 441.663 225.579C441.613 225.567 441.561 225.568 441.511 225.583C441.462 225.598 441.416 225.626 441.379 225.664C441.342 225.702 441.315 225.749 441.3 225.801C441.284 225.853 441.281 225.909 441.291 225.962C442.221 230.818 445.591 231.662 446.274 231.782C446.749 232.429 447.308 233.141 447.969 233.908C446.348 233.141 444.546 232.911 442.8 233.251C442.749 233.268 442.703 233.297 442.665 233.337C442.627 233.378 442.599 233.427 442.583 233.481C442.569 233.536 442.568 233.594 442.581 233.65C442.594 233.705 442.619 233.756 442.656 233.799C443.544 234.871 444.696 235.66 445.983 236.076C447.271 236.493 448.642 236.52 449.944 236.155C450.533 236.791 451.143 237.437 451.794 238.106C449.608 237.442 447.274 237.589 445.178 238.522C445.128 238.549 445.086 238.59 445.057 238.64C445.028 238.69 445.012 238.748 445.013 238.807C445.012 238.866 445.024 238.923 445.05 238.975C445.075 239.026 445.112 239.071 445.157 239.103C446.341 239.879 447.694 240.315 449.085 240.367C450.475 240.419 451.854 240.085 453.086 239.399C453.954 240.261 454.864 241.127 455.815 241.997C453.697 240.983 451.301 240.835 449.086 241.58C449.034 241.601 448.989 241.637 448.956 241.683C448.924 241.73 448.904 241.785 448.899 241.843C448.894 241.9 448.902 241.958 448.921 242.011C448.941 242.065 448.973 242.112 449.013 242.15C450.102 243.084 451.413 243.68 452.801 243.873C454.189 244.067 455.601 243.85 456.88 243.246C456.904 243.251 456.928 243.251 456.952 243.246C456.991 243.214 457.017 243.167 457.025 243.115L458.193 244.123C458.228 244.172 458.274 244.21 458.327 244.233C458.948 244.759 459.578 245.274 460.219 245.778C460.275 245.829 460.347 245.857 460.421 245.857C460.495 245.857 460.566 245.829 460.622 245.778V245.778C460.648 245.744 460.667 245.705 460.678 245.663C460.689 245.621 460.691 245.577 460.686 245.534C460.68 245.49 460.666 245.449 460.644 245.412C460.622 245.375 460.594 245.343 460.56 245.318L458.803 243.882C459.342 242.578 459.538 241.142 459.369 239.73C459.199 238.317 458.671 236.979 457.841 235.859C457.82 235.8 457.784 235.748 457.737 235.709C457.689 235.67 457.632 235.646 457.573 235.64V235.64Z" fill="white"/>
<path opacity="0.2" d="M412.119 236.879C412.065 236.883 412.014 236.903 411.971 236.936C411.927 236.969 411.893 237.013 411.871 237.065C411.133 239.243 411.152 241.629 411.922 243.794C411.209 243.17 410.516 242.534 409.855 241.898C410.44 240.58 410.667 239.115 410.512 237.667C410.357 236.219 409.825 234.846 408.976 233.7C408.942 233.656 408.898 233.621 408.848 233.599C408.798 233.578 408.744 233.57 408.69 233.576C408.637 233.583 408.585 233.604 408.541 233.637C408.497 233.67 408.462 233.714 408.439 233.766C407.687 236.011 407.735 238.471 408.573 240.682C407.643 239.772 406.764 238.884 405.947 238.018C406.558 236.692 406.803 235.21 406.655 233.742C406.507 232.275 405.971 230.881 405.11 229.722C405.078 229.676 405.036 229.641 404.986 229.62C404.937 229.599 404.883 229.592 404.831 229.601C404.777 229.603 404.725 229.622 404.681 229.655C404.637 229.688 404.603 229.734 404.583 229.787C403.826 232.032 403.874 234.493 404.717 236.703C403.493 235.375 402.333 233.981 401.244 232.527C400.924 231.204 400.296 229.987 399.416 228.989C398.536 227.991 397.433 227.244 396.209 226.817C396.158 226.807 396.105 226.809 396.055 226.824C396.004 226.839 395.958 226.867 395.92 226.905C395.887 226.945 395.862 226.992 395.848 227.043C395.834 227.094 395.83 227.148 395.837 227.201C396.768 232.056 400.138 232.9 400.82 233.021C401.295 233.667 401.854 234.38 402.515 235.213C400.897 234.434 399.092 234.204 397.346 234.555C397.296 234.569 397.249 234.597 397.211 234.635C397.173 234.673 397.145 234.721 397.129 234.774C397.115 234.829 397.114 234.887 397.127 234.943C397.14 234.999 397.165 235.05 397.202 235.092C398.083 236.174 399.235 236.969 400.525 237.386C401.814 237.803 403.189 237.825 404.49 237.448C405.079 238.084 405.689 238.742 406.34 239.41C404.155 238.736 401.818 238.883 399.724 239.827C399.675 239.851 399.634 239.89 399.604 239.939C399.575 239.987 399.559 240.043 399.559 240.101C399.557 240.159 399.569 240.217 399.594 240.269C399.62 240.321 399.657 240.365 399.703 240.397C400.885 241.176 402.238 241.615 403.629 241.669C405.02 241.723 406.4 241.39 407.632 240.704C408.501 241.558 409.41 242.424 410.361 243.29C408.242 242.279 405.845 242.135 403.632 242.885C403.582 242.904 403.538 242.938 403.505 242.983C403.472 243.027 403.452 243.081 403.446 243.137C403.438 243.194 403.445 243.252 403.465 243.306C403.485 243.359 403.517 243.407 403.559 243.444C404.648 244.377 405.959 244.973 407.347 245.167C408.735 245.36 410.147 245.143 411.426 244.54C411.45 244.545 411.475 244.545 411.498 244.54C411.535 244.51 411.561 244.467 411.571 244.419L412.739 245.427C412.774 245.476 412.82 245.514 412.873 245.537C413.504 246.063 414.124 246.578 414.765 247.093C414.821 247.144 414.893 247.172 414.967 247.172C415.041 247.172 415.112 247.144 415.168 247.093V247.093C415.194 247.059 415.213 247.02 415.224 246.978C415.235 246.936 415.237 246.892 415.232 246.849C415.226 246.806 415.212 246.764 415.19 246.727C415.169 246.69 415.14 246.658 415.106 246.633L413.349 245.197C413.888 243.891 414.084 242.454 413.914 241.04C413.745 239.625 413.217 238.286 412.387 237.163C412.383 237.09 412.353 237.02 412.303 236.968C412.254 236.915 412.188 236.884 412.119 236.879V236.879Z" fill="white"/>
<path opacity="0.2" d="M437.032 190.704C436.978 190.712 436.927 190.734 436.884 190.769C436.841 190.803 436.806 190.849 436.784 190.901C436.06 193.083 436.082 195.465 436.846 197.631C436.133 196.995 435.43 196.37 434.778 195.735C435.361 194.415 435.586 192.95 435.429 191.502C435.272 190.055 434.739 188.682 433.889 187.537C433.857 187.492 433.814 187.456 433.766 187.433C433.717 187.41 433.663 187.401 433.61 187.405C433.556 187.41 433.503 187.431 433.459 187.465C433.415 187.5 433.382 187.548 433.362 187.602C432.61 189.844 432.658 192.3 433.497 194.507C432.566 193.608 431.677 192.71 430.861 191.844C431.471 190.517 431.716 189.035 431.568 187.568C431.42 186.1 430.885 184.707 430.023 183.547C429.991 183.502 429.949 183.465 429.9 183.442C429.851 183.419 429.797 183.41 429.744 183.416C429.689 183.42 429.637 183.441 429.593 183.476C429.549 183.511 429.515 183.558 429.496 183.613C428.744 185.858 428.792 188.318 429.63 190.529C428.214 188.961 427.036 187.537 426.157 186.353C425.841 185.028 425.214 183.809 424.334 182.81C423.453 181.812 422.348 181.066 421.123 180.643C421.073 180.634 421.021 180.637 420.973 180.653C420.925 180.669 420.881 180.696 420.844 180.734C420.808 180.771 420.78 180.817 420.764 180.868C420.748 180.919 420.743 180.973 420.75 181.026C421.681 185.882 425.061 186.726 425.733 186.846C426.219 187.493 426.767 188.205 427.428 188.972C425.808 188.202 424.006 187.973 422.26 188.315C422.209 188.332 422.162 188.361 422.124 188.402C422.087 188.442 422.059 188.491 422.043 188.545C422.027 188.599 422.025 188.657 422.036 188.712C422.046 188.768 422.07 188.819 422.105 188.863C422.993 189.937 424.148 190.727 425.437 191.143C426.727 191.56 428.1 191.586 429.403 191.219C429.982 191.855 430.602 192.501 431.253 193.17C429.064 192.506 426.727 192.653 424.627 193.587C424.58 193.616 424.54 193.658 424.511 193.707C424.483 193.757 424.466 193.813 424.462 193.871C424.461 193.931 424.475 193.989 424.502 194.041C424.529 194.093 424.569 194.137 424.617 194.167C425.797 194.947 427.149 195.384 428.539 195.436C429.928 195.488 431.306 195.152 432.535 194.463C433.404 195.329 434.324 196.195 435.275 197.061C433.156 196.047 430.76 195.899 428.545 196.644C428.494 196.666 428.448 196.702 428.414 196.748C428.38 196.794 428.357 196.849 428.349 196.907C428.343 196.966 428.351 197.024 428.373 197.078C428.394 197.132 428.429 197.179 428.473 197.214C429.559 198.148 430.868 198.744 432.255 198.938C433.642 199.131 435.052 198.914 436.329 198.31L436.412 198.255C436.444 198.219 436.466 198.173 436.474 198.124L437.642 199.132C437.68 199.182 437.73 199.22 437.787 199.242C438.407 199.768 439.037 200.283 439.678 200.787C439.735 200.838 439.806 200.866 439.88 200.866C439.954 200.866 440.025 200.838 440.082 200.787V200.787C440.131 200.717 440.152 200.63 440.14 200.543C440.129 200.457 440.085 200.379 440.02 200.327C439.42 199.856 438.841 199.384 438.262 198.891C438.802 197.587 438.997 196.152 438.828 194.739C438.659 193.326 438.131 191.988 437.301 190.868C437.271 190.82 437.232 190.781 437.185 190.752C437.138 190.723 437.086 190.707 437.032 190.704Z" fill="white"/>
<path opacity="0.2" d="M427.211 211.528C427.265 211.523 427.316 211.503 427.359 211.471C427.403 211.438 427.438 211.393 427.46 211.342C428.197 209.163 428.178 206.778 427.408 204.612C428.121 205.237 428.814 205.873 429.475 206.508C428.891 207.827 428.663 209.292 428.818 210.739C428.973 212.187 429.505 213.561 430.354 214.706C430.388 214.751 430.432 214.786 430.482 214.807C430.532 214.829 430.586 214.837 430.64 214.83C430.693 214.824 430.745 214.803 430.789 214.77C430.833 214.737 430.868 214.692 430.892 214.641C431.643 212.395 431.595 209.936 430.757 207.725C431.688 208.631 432.566 209.519 433.393 210.388C432.783 211.715 432.538 213.197 432.686 214.664C432.834 216.132 433.369 217.525 434.231 218.685C434.265 218.729 434.309 218.764 434.359 218.786C434.408 218.807 434.463 218.815 434.516 218.809C434.57 218.802 434.621 218.781 434.665 218.748C434.709 218.715 434.745 218.671 434.768 218.619C435.521 216.373 435.47 213.912 434.623 211.703C435.848 213.031 437.007 214.425 438.097 215.879C438.416 217.204 439.046 218.423 439.928 219.421C440.81 220.419 441.915 221.165 443.141 221.589C443.191 221.6 443.243 221.598 443.291 221.582C443.34 221.567 443.384 221.539 443.421 221.502C443.456 221.461 443.482 221.412 443.497 221.359C443.511 221.305 443.513 221.249 443.503 221.195C442.583 216.35 439.203 215.507 438.521 215.386C438.045 214.739 437.487 214.027 436.825 213.194C438.443 213.973 440.248 214.202 441.994 213.852C442.045 213.837 442.091 213.81 442.129 213.772C442.167 213.733 442.195 213.685 442.211 213.632C442.225 213.577 442.226 213.519 442.213 213.464C442.201 213.408 442.175 213.357 442.139 213.315C441.258 212.233 440.106 211.437 438.816 211.02C437.526 210.603 436.152 210.582 434.851 210.958C434.272 210.322 433.652 209.665 433 208.996C435.185 209.671 437.522 209.524 439.616 208.58C439.666 208.553 439.708 208.513 439.737 208.462C439.767 208.412 439.782 208.354 439.782 208.295C439.785 208.238 439.773 208.181 439.748 208.13C439.722 208.08 439.684 208.038 439.637 208.01C438.455 207.23 437.102 206.792 435.711 206.738C434.32 206.684 432.94 207.017 431.708 207.703C430.84 206.848 429.93 205.982 428.979 205.116C431.1 206.122 433.495 206.267 435.709 205.522C435.759 205.502 435.803 205.468 435.835 205.424C435.868 205.379 435.889 205.326 435.895 205.27C435.904 205.213 435.899 205.154 435.879 205.1C435.858 205.045 435.825 204.998 435.781 204.963C434.694 204.026 433.383 203.428 431.994 203.234C430.605 203.041 429.193 203.26 427.914 203.867C427.891 203.862 427.866 203.862 427.842 203.867C427.812 203.903 427.788 203.944 427.77 203.988L426.602 202.979C426.569 202.928 426.522 202.89 426.467 202.87C425.847 202.344 425.216 201.774 424.575 201.313C424.519 201.262 424.448 201.234 424.374 201.234C424.3 201.234 424.228 201.262 424.172 201.313V201.313C424.123 201.383 424.102 201.471 424.113 201.557C424.125 201.643 424.168 201.721 424.234 201.774L425.992 203.209C425.452 204.516 425.257 205.952 425.426 207.367C425.596 208.782 426.123 210.121 426.953 211.243C426.963 211.313 426.993 211.378 427.039 211.429C427.085 211.481 427.146 211.515 427.211 211.528V211.528Z" fill="white"/>
</g>
<path d="M431.75 220.954L362.488 228.363C360.641 228.562 358.944 229.53 357.769 231.055C356.595 232.58 356.039 234.536 356.224 236.495L358.602 261.604C360.405 260.249 362.513 259.419 364.714 259.197C366.915 258.975 369.132 259.368 371.145 260.339C373.157 261.309 374.895 262.822 376.184 264.726C377.473 266.631 378.268 268.86 378.49 271.192C378.713 273.525 378.354 275.878 377.451 278.017C376.548 280.157 375.131 282.008 373.342 283.385C371.553 284.763 369.455 285.619 367.257 285.869C365.059 286.118 362.837 285.752 360.814 284.807L363.202 309.916C363.392 311.874 364.306 313.673 365.743 314.919C367.18 316.166 369.024 316.759 370.872 316.569L440.133 309.171C441.981 308.966 443.678 307.995 444.853 306.469C446.028 304.944 446.587 302.988 446.408 301.027L439.43 227.595C439.235 225.638 438.318 223.842 436.879 222.599C435.441 221.355 433.597 220.763 431.75 220.954V220.954Z" fill="#407BFF"/>
<path opacity="0.3" d="M431.75 220.954L362.488 228.363C360.641 228.562 358.944 229.53 357.769 231.055C356.595 232.58 356.039 234.536 356.224 236.495L358.602 261.604C360.405 260.249 362.513 259.419 364.714 259.197C366.915 258.975 369.132 259.368 371.145 260.339C373.157 261.309 374.895 262.822 376.184 264.726C377.473 266.631 378.268 268.86 378.49 271.192C378.713 273.525 378.354 275.878 377.451 278.017C376.548 280.157 375.131 282.008 373.342 283.385C371.553 284.763 369.455 285.619 367.257 285.869C365.059 286.118 362.837 285.752 360.814 284.807L363.202 309.916C363.392 311.874 364.306 313.673 365.743 314.919C367.18 316.166 369.024 316.759 370.872 316.569L440.133 309.171C441.981 308.966 443.678 307.995 444.853 306.469C446.028 304.944 446.587 302.988 446.408 301.027L439.43 227.595C439.235 225.638 438.318 223.842 436.879 222.599C435.441 221.355 433.597 220.763 431.75 220.954V220.954Z" fill="black"/>
<path d="M450.647 243.476L447.442 241.997L439.916 244.035C439.054 244.275 438.29 244.81 437.745 245.559L436.153 247.751C435.814 248.231 435.642 248.821 435.667 249.42C435.691 250.02 435.911 250.592 436.288 251.039L438.086 253.143C438.518 253.644 439.117 253.948 439.755 253.989C440.394 254.029 441.023 253.805 441.508 253.362L445.591 249.647C445.591 249.647 450.512 247.203 450.647 243.476Z" fill="#FFB573"/>
<path d="M385.407 229.787L388.735 229.338C389.184 229.284 389.604 229.076 389.93 228.746C390.257 228.415 390.473 227.98 390.544 227.508L390.999 224.702C391.06 224.368 391.047 224.023 390.96 223.696C390.873 223.368 390.716 223.066 390.5 222.814C390.285 222.562 390.017 222.367 389.718 222.244C389.418 222.12 389.096 222.073 388.777 222.104L384.89 222.4C384.343 222.432 383.83 222.691 383.464 223.123C383.098 223.554 382.908 224.122 382.936 224.702L383.039 227.661C383.045 227.972 383.113 228.279 383.239 228.56C383.365 228.841 383.546 229.09 383.77 229.291C383.994 229.492 384.256 229.641 384.538 229.726C384.82 229.812 385.116 229.833 385.407 229.787Z" fill="#FFB573"/>
<path d="M437.208 149.242C429 153.626 414.579 151.61 414.579 151.61C414.579 151.61 422.622 137.669 437.208 149.242Z" fill="#263238"/>
<path d="M292.772 427.319L288.648 450.083L278.207 447.409L282.332 424.645L292.772 427.319Z" fill="#7F3E3B"/>
<path d="M278.538 442.784L290.147 445.458C290.327 445.495 290.487 445.603 290.596 445.759C290.705 445.915 290.755 446.109 290.736 446.302L289.93 455.344C289.903 455.571 289.832 455.789 289.721 455.986C289.61 456.182 289.462 456.351 289.286 456.483C289.11 456.615 288.91 456.707 288.699 456.752C288.487 456.798 288.269 456.796 288.059 456.747C284.409 455.837 283.324 455.267 278.703 454.204C273.317 452.944 271.405 453.284 265.078 451.815C261.253 450.927 261.429 446.675 263.145 446.664C267.677 446.676 272.132 445.416 276.057 443.014C276.826 442.605 277.713 442.523 278.538 442.784V442.784Z" fill="#263238"/>
<path opacity="0.2" d="M292.783 427.33L290.653 439.058L280.202 436.383L282.332 424.645L292.783 427.33Z" fill="black"/>
<path d="M310.946 339.65C323.196 301.444 332.892 256.354 332.892 256.354L297.952 254.009C297.952 254.009 292.783 312.513 290.116 339.497C287.325 367.533 278.651 430.827 278.651 430.827L294.416 434.213C294.416 434.213 309.199 374.613 310.946 339.65Z" fill="#263238"/>
<path opacity="0.2" d="M316.776 277.617L325.253 288.73C323.092 297.312 320.57 306.957 317.8 316.81C316.21 303.816 315.867 290.684 316.776 277.617V277.617Z" fill="#263238"/>
<path d="M278.879 433.205L293.351 436.559C293.64 436.627 293.942 436.579 294.2 436.425C294.457 436.272 294.652 436.022 294.747 435.726L296.339 430.783C296.394 430.615 296.415 430.437 296.401 430.261C296.387 430.084 296.338 429.912 296.257 429.757C296.176 429.602 296.065 429.467 295.931 429.36C295.797 429.254 295.644 429.178 295.481 429.139L279.778 425.248C279.613 425.206 279.442 425.203 279.275 425.237C279.108 425.271 278.95 425.342 278.812 425.446C278.673 425.549 278.556 425.683 278.47 425.838C278.384 425.993 278.329 426.165 278.31 426.344L277.948 431.824C277.916 432.135 277.993 432.448 278.165 432.703C278.336 432.958 278.591 433.137 278.879 433.205V433.205Z" fill="#263238"/>
<path opacity="0.1" d="M278.879 433.205L293.351 436.559C293.64 436.627 293.942 436.579 294.2 436.425C294.457 436.272 294.652 436.022 294.747 435.726L296.339 430.783C296.394 430.615 296.415 430.437 296.401 430.261C296.387 430.084 296.338 429.912 296.257 429.757C296.176 429.602 296.065 429.467 295.931 429.36C295.797 429.254 295.644 429.178 295.481 429.139L279.778 425.248C279.613 425.206 279.442 425.203 279.275 425.237C279.108 425.271 278.95 425.342 278.812 425.446C278.673 425.549 278.556 425.683 278.47 425.838C278.384 425.993 278.329 426.165 278.31 426.344L277.948 431.824C277.916 432.135 277.993 432.448 278.165 432.703C278.336 432.958 278.591 433.137 278.879 433.205V433.205Z" fill="white"/>
<path d="M350.249 426.53L350.9 450.018L340.304 449.864L339.653 426.377L350.249 426.53Z" fill="#7F3E3B"/>
<path d="M340.035 445.042L351.303 445.217C351.486 445.216 351.663 445.287 351.798 445.417C351.934 445.547 352.019 445.726 352.037 445.918L352.947 454.95C352.964 455.178 352.936 455.408 352.865 455.624C352.793 455.841 352.68 456.039 352.532 456.206C352.384 456.373 352.205 456.506 352.006 456.595C351.807 456.685 351.592 456.729 351.376 456.725C347.633 456.605 346.455 456.276 341.731 456.199C336.211 456.1 335.022 456.835 328.55 456.736C324.633 456.67 324.002 452.462 325.677 452.089C330.123 451.147 334.256 448.977 337.658 445.798C338.331 445.234 339.181 444.964 340.035 445.042V445.042Z" fill="#263238"/>
<path opacity="0.2" d="M350.259 426.541L350.59 438.641L339.984 438.488L339.653 426.377L350.259 426.541Z" fill="black"/>
<path d="M347.613 338.872C344.615 298.682 347.148 277.003 342.744 257.045L310.946 254.951C310.946 254.951 320.818 314.026 326.266 340.746C331.714 367.467 337.575 432.372 337.575 432.372L353.205 432.58C353.205 432.58 355.118 370.229 347.613 338.872Z" fill="#263238"/>
<path d="M337.616 435.353L352.409 435.594C352.715 435.598 353.011 435.477 353.236 435.257C353.461 435.037 353.598 434.734 353.619 434.411L353.939 429.238C353.952 429.067 353.932 428.895 353.88 428.732C353.828 428.57 353.745 428.421 353.636 428.294C353.528 428.166 353.396 428.064 353.249 427.993C353.102 427.921 352.943 427.882 352.782 427.878L336.686 427.352C336.507 427.346 336.329 427.382 336.165 427.458C336.001 427.534 335.856 427.649 335.739 427.793C335.623 427.938 335.539 428.108 335.493 428.292C335.448 428.475 335.442 428.668 335.477 428.854L336.51 434.334C336.566 434.608 336.703 434.855 336.903 435.039C337.102 435.223 337.353 435.333 337.616 435.353V435.353Z" fill="#263238"/>
<path opacity="0.1" d="M337.616 435.353L352.409 435.594C352.715 435.598 353.011 435.477 353.236 435.257C353.461 435.037 353.598 434.734 353.619 434.411L353.939 429.238C353.952 429.067 353.932 428.895 353.88 428.732C353.828 428.57 353.745 428.421 353.636 428.294C353.528 428.166 353.396 428.064 353.249 427.993C353.102 427.921 352.943 427.882 352.782 427.878L336.686 427.352C336.507 427.346 336.329 427.382 336.165 427.458C336.001 427.534 335.856 427.649 335.739 427.793C335.623 427.938 335.539 428.108 335.493 428.292C335.448 428.475 335.442 428.668 335.477 428.854L336.51 434.334C336.566 434.608 336.703 434.855 336.903 435.039C337.102 435.223 337.353 435.333 337.616 435.353V435.353Z" fill="white"/>
<path d="M309.922 193.126C308.703 195.921 307.431 198.398 306.046 200.952C304.661 203.505 303.203 205.982 301.59 208.415C299.96 210.927 298.178 213.325 296.256 215.594C294.123 218.206 291.623 220.454 288.844 222.258L288.482 222.477C287.864 222.862 287.176 223.105 286.464 223.188C285.751 223.271 285.03 223.193 284.347 222.959C282.332 222.269 280.378 221.491 278.465 220.658C276.553 219.825 274.692 218.904 272.862 217.94C271.033 216.975 269.244 215.956 267.487 214.86C265.73 213.764 264.014 212.668 262.318 211.342C261.711 210.885 261.274 210.219 261.081 209.457C260.888 208.695 260.952 207.885 261.262 207.168C261.572 206.451 262.109 205.871 262.779 205.528C263.449 205.186 264.211 205.102 264.934 205.292H265.047C266.898 205.763 268.81 206.333 270.671 206.848L276.263 208.415C278.114 208.952 279.975 209.402 281.804 209.884C283.634 210.366 285.464 210.739 287.263 211.133L282.807 211.846C284.355 210.485 285.743 208.932 286.942 207.221C288.358 205.292 289.723 203.165 291.077 200.973C292.431 198.781 293.661 196.491 294.881 194.167C296.101 191.844 297.342 189.444 298.437 187.23L298.499 187.109C299.323 185.654 300.634 184.582 302.17 184.105C303.707 183.628 305.356 183.783 306.79 184.537C308.224 185.292 309.337 186.591 309.908 188.177C310.479 189.762 310.465 191.518 309.871 193.093L309.922 193.126Z" fill="#7F3E3B"/>
<path d="M312.465 173.968C300.122 175.459 290.757 195.724 290.757 195.724L303.492 210.092C303.492 210.092 309.168 202.924 315.267 193.86C321.924 183.985 322.234 172.795 312.465 173.968Z" fill="#407BFF"/>
<path d="M310.946 177.004C315.691 175.218 336.945 178.1 336.945 178.1C332.81 183.755 329.357 230.587 328.974 257.505C324.457 258.163 307.131 256.902 303.131 255.916C303.647 245.351 307.803 195.789 310.946 177.004Z" fill="white"/>
<path d="M297.228 191.208C297.785 186.338 300.011 181.855 303.481 178.61C306.952 175.365 311.425 173.584 316.052 173.606C324.933 173.682 333.783 174.717 342.465 176.697C343.817 177.001 345.098 177.588 346.232 178.426C347.366 179.263 348.331 180.334 349.068 181.573C349.805 182.813 350.301 184.196 350.525 185.642C350.749 187.088 350.697 188.567 350.373 189.992C343.829 219.09 345.556 246.699 343.809 259.544C337.58 261.972 330.965 263.089 324.333 262.832C324.333 262.832 324.488 251.751 325.945 233.043C327.103 218.17 329.181 183.196 333.461 177.388C333.461 177.388 318.12 175.196 313.375 176.96C309.85 198.058 307.266 261.966 307.266 261.977C299.761 261.407 296.225 256.979 296.339 255.664C294.819 229.809 295.584 206.366 297.228 191.208Z" fill="#407BFF"/>
<path d="M334.009 158.843C332.572 163.227 330.907 170.998 333.564 175.36C333.699 175.563 333.79 175.794 333.83 176.039C333.87 176.283 333.858 176.534 333.796 176.773C333.734 177.012 333.622 177.233 333.469 177.421C333.317 177.609 333.127 177.758 332.913 177.859C328.643 180.47 323.708 181.597 318.802 181.081C312.135 180.511 312.6 177.322 314.316 175.25C314.721 174.772 315.283 174.474 315.887 174.417C322.183 173.617 322.245 169.595 321.335 165.649L334.009 158.843Z" fill="#7F3E3B"/>
<path opacity="0.2" d="M328.84 161.638L321.345 165.682C321.582 166.616 321.718 167.576 321.748 168.543C324.478 168.543 328.344 166.603 328.788 164.378C329.017 163.483 329.034 162.542 328.84 161.638V161.638Z" fill="black"/>
<path d="M324.014 143.605C324.296 139.651 322.267 136.266 319.484 136.043C316.7 135.82 314.215 138.844 313.933 142.798C313.651 146.751 315.68 150.137 318.463 150.36C321.247 150.583 323.732 147.558 324.014 143.605Z" fill="#263238"/>
<path d="M338.061 146.864C336.676 155.511 336.273 160.652 331.745 164.674C324.932 170.713 315.37 165.606 314.336 156.695C313.396 148.683 315.815 135.871 324.064 133.285C332.313 130.698 339.446 138.206 338.061 146.864Z" fill="#7F3E3B"/>
<path d="M336.283 154.174C336.18 154.174 336.056 154.032 335.942 154.098C332.241 156.29 331.042 151.577 331.269 148.442C331.345 147.397 331.629 146.38 332.101 145.458C332.573 144.536 333.223 143.731 334.009 143.094C329.998 143.576 326.111 140.836 326.049 138.282C321.614 140.354 316.27 140.474 313.861 136.09C311.452 131.706 314.895 125.974 319.485 127.498C317.624 123.969 325.491 116.91 333.73 127.322C333.988 119.771 345.504 127.322 343.612 134.742C348.946 136.693 353.516 147.434 344.47 149.725C343.871 159.676 336.283 154.174 336.283 154.174Z" fill="#263238"/>
<path d="M340.645 156.892C339.393 158.521 337.605 159.586 335.642 159.873C333.161 160.169 332.613 157.495 333.885 155.062C335.032 152.87 337.699 150.086 339.911 150.941C342.124 151.796 342.258 154.81 340.645 156.892Z" fill="#7F3E3B"/>
<path d="M326.235 147.511C326.173 148.234 325.77 148.771 325.325 148.727C324.881 148.683 324.571 148.07 324.633 147.346C324.695 146.623 325.098 146.097 325.542 146.141C325.987 146.184 326.287 146.798 326.235 147.511Z" fill="#263238"/>
<path d="M318.223 146.568C318.161 147.28 317.758 147.817 317.314 147.774C316.869 147.73 316.569 147.116 316.621 146.404C316.673 145.691 317.086 145.143 317.531 145.187C317.975 145.231 318.327 145.845 318.223 146.568Z" fill="#263238"/>
<path d="M321.356 146.974C320.368 149.075 319.112 151.022 317.624 152.76C318.053 153.157 318.558 153.449 319.104 153.618C319.65 153.786 320.225 153.826 320.787 153.736L321.356 146.974Z" fill="#630F0F"/>
<path d="M322.875 157.221C323.626 157.277 324.379 157.171 325.09 156.909C325.801 156.647 326.454 156.235 327.01 155.698C327.029 155.678 327.043 155.654 327.053 155.628C327.062 155.602 327.067 155.574 327.066 155.546C327.066 155.518 327.06 155.49 327.05 155.465C327.039 155.439 327.024 155.416 327.005 155.396C326.986 155.377 326.964 155.362 326.939 155.351C326.914 155.341 326.888 155.336 326.862 155.337C326.835 155.337 326.809 155.343 326.785 155.354C326.761 155.366 326.739 155.382 326.721 155.402C326.091 155.992 325.339 156.416 324.525 156.639C323.711 156.862 322.859 156.878 322.038 156.684C322.013 156.678 321.987 156.677 321.961 156.682C321.936 156.687 321.911 156.698 321.89 156.713C321.869 156.729 321.85 156.749 321.837 156.772C321.823 156.795 321.814 156.821 321.81 156.849C321.801 156.904 321.812 156.96 321.841 157.007C321.87 157.054 321.914 157.088 321.966 157.101C322.296 157.155 322.586 157.199 322.875 157.221Z" fill="#263238"/>
<path d="M328.881 145.768C328.946 145.784 329.013 145.784 329.078 145.768C329.126 145.746 329.169 145.713 329.205 145.673C329.241 145.632 329.269 145.585 329.287 145.532C329.305 145.48 329.314 145.425 329.311 145.369C329.309 145.314 329.296 145.259 329.274 145.209C329.031 144.589 328.654 144.038 328.172 143.602C327.691 143.166 327.119 142.857 326.504 142.699C326.4 142.683 326.294 142.711 326.209 142.777C326.124 142.842 326.067 142.94 326.049 143.05C326.034 143.16 326.06 143.272 326.122 143.362C326.184 143.452 326.276 143.513 326.38 143.532V143.532C326.865 143.665 327.314 143.916 327.691 144.267C328.068 144.617 328.363 145.056 328.55 145.549C328.585 145.611 328.633 145.663 328.691 145.701C328.748 145.739 328.814 145.762 328.881 145.768Z" fill="#263238"/>
<path d="M314.864 143.072C314.928 143.09 314.995 143.091 315.06 143.076C315.125 143.061 315.185 143.029 315.236 142.984C315.604 142.63 316.046 142.373 316.526 142.234C317.005 142.095 317.509 142.078 317.996 142.184C318.096 142.214 318.203 142.202 318.294 142.148C318.386 142.095 318.453 142.005 318.482 141.899C318.511 141.792 318.499 141.676 318.449 141.578C318.398 141.48 318.314 141.406 318.213 141.373C317.598 141.224 316.958 141.236 316.348 141.405C315.738 141.575 315.175 141.899 314.709 142.348C314.672 142.387 314.642 142.433 314.622 142.484C314.602 142.535 314.592 142.589 314.592 142.644C314.592 142.699 314.602 142.754 314.622 142.805C314.642 142.855 314.672 142.902 314.709 142.94C314.748 142.998 314.802 143.044 314.864 143.072V143.072Z" fill="#263238"/>
<path d="M352.833 189.4C353.505 190.792 354.053 191.997 354.591 193.301C355.128 194.606 355.624 195.866 356.162 197.159C357.196 199.746 358.095 202.376 358.943 205.04C360.667 210.427 361.987 215.949 362.892 221.556L363.171 223.748L363.315 224.844V225.107V225.59C363.315 225.94 363.367 226.291 363.367 226.686C363.327 228.683 362.953 230.658 362.261 232.516C361.232 235.355 359.922 238.07 358.353 240.616C356.93 242.999 355.387 245.3 353.733 247.51C352.111 249.709 350.386 251.819 348.564 253.834C348.04 254.421 347.335 254.79 346.576 254.873C345.818 254.956 345.056 254.748 344.43 254.286C343.805 253.824 343.356 253.14 343.166 252.357C342.976 251.574 343.057 250.744 343.395 250.02V249.932C345.535 245.208 347.799 240.43 349.598 235.772C350.063 234.61 350.476 233.448 350.838 232.319C351.198 231.265 351.499 230.189 351.737 229.097C351.905 228.418 351.965 227.714 351.913 227.014C351.913 227.014 351.913 227.08 351.913 227.014L351.861 226.795L351.665 225.886L351.283 224.077C350.09 219.169 348.63 214.339 346.91 209.61C346.083 207.199 345.142 204.82 344.232 202.431C343.778 201.247 343.292 200.064 342.806 198.891L341.359 195.472L341.276 195.274C340.549 193.661 340.457 191.808 341.019 190.122C341.581 188.437 342.752 187.057 344.274 186.287C345.795 185.517 347.543 185.419 349.133 186.015C350.723 186.611 352.024 187.852 352.75 189.465L352.833 189.4Z" fill="#7F3E3B"/>
<path d="M343.529 177.004C357.299 180.687 361.103 199.351 361.103 199.351L344.005 212.35C344.005 212.35 339.767 207.648 338.485 196.6C337.896 191.329 340.738 176.861 343.529 177.004Z" fill="#407BFF"/>
<path d="M345.649 247.696L337.689 250.852L343.788 259.511C343.788 259.511 350.662 255.73 349.36 251.532L345.649 247.696Z" fill="#7F3E3B"/>
<path d="M331.765 252.08C329.622 251.698 327.421 251.909 325.377 252.694L329.326 227.815C329.631 225.872 329.198 223.88 328.12 222.275C327.043 220.671 325.41 219.585 323.578 219.255L254.937 207.001C253.108 206.681 251.233 207.14 249.723 208.28C248.212 209.42 247.188 211.147 246.874 213.084L242.863 238.018C244.905 237.223 247.108 237.012 249.252 237.405C251.158 237.744 252.965 238.542 254.534 239.738C256.104 240.934 257.393 242.495 258.304 244.303C259.215 246.11 259.722 248.115 259.787 250.163C259.852 252.21 259.473 254.247 258.679 256.115C257.885 257.983 256.697 259.633 255.207 260.938C253.717 262.243 251.965 263.169 250.085 263.643C248.204 264.117 246.247 264.127 244.362 263.673C242.477 263.219 240.716 262.312 239.214 261.023L235.255 285.903C234.949 287.845 235.383 289.837 236.46 291.442C237.538 293.046 239.171 294.132 241.002 294.462L309.643 306.716C311.474 307.037 313.35 306.577 314.862 305.438C316.374 304.298 317.401 302.571 317.717 300.633L321.666 275.743C323.17 277.011 324.927 277.899 326.804 278.339C328.68 278.779 330.627 278.759 332.495 278.281C334.363 277.803 336.104 276.879 337.585 275.579C339.065 274.28 340.247 272.64 341.039 270.783C341.832 268.927 342.214 266.903 342.157 264.866C342.101 262.83 341.606 260.833 340.712 259.03C339.818 257.226 338.547 255.663 336.997 254.458C335.446 253.254 333.657 252.44 331.765 252.08Z" fill="#407BFF"/>
<path opacity="0.6" d="M331.765 252.08C329.622 251.698 327.421 251.909 325.377 252.694L329.326 227.815C329.631 225.872 329.198 223.88 328.12 222.275C327.043 220.671 325.41 219.585 323.578 219.255L254.937 207.001C253.108 206.681 251.233 207.14 249.723 208.28C248.212 209.42 247.188 211.147 246.874 213.084L242.863 238.018C244.905 237.223 247.108 237.012 249.252 237.405C251.158 237.744 252.965 238.542 254.534 239.738C256.104 240.934 257.393 242.495 258.304 244.303C259.215 246.11 259.722 248.115 259.787 250.163C259.852 252.21 259.473 254.247 258.679 256.115C257.885 257.983 256.697 259.633 255.207 260.938C253.717 262.243 251.965 263.169 250.085 263.643C248.204 264.117 246.247 264.127 244.362 263.673C242.477 263.219 240.716 262.312 239.214 261.023L235.255 285.903C234.949 287.845 235.383 289.837 236.46 291.442C237.538 293.046 239.171 294.132 241.002 294.462L309.643 306.716C311.474 307.037 313.35 306.577 314.862 305.438C316.374 304.298 317.401 302.571 317.717 300.633L321.666 275.743C323.17 277.011 324.927 277.899 326.804 278.339C328.68 278.779 330.627 278.759 332.495 278.281C334.363 277.803 336.104 276.879 337.585 275.579C339.065 274.28 340.247 272.64 341.039 270.783C341.832 268.927 342.214 266.903 342.157 264.866C342.101 262.83 341.606 260.833 340.712 259.03C339.818 257.226 338.547 255.663 336.997 254.458C335.446 253.254 333.657 252.44 331.765 252.08Z" fill="white"/>
<path d="M333.967 259.357L336.583 262.01C337.086 262.523 337.746 262.829 338.443 262.874C339.14 262.918 339.829 262.697 340.387 262.251L343.788 259.544L337.689 250.885L333.916 254.897C333.638 255.19 333.419 255.54 333.271 255.925C333.122 256.31 333.049 256.723 333.053 257.139C333.058 257.554 333.142 257.965 333.299 258.346C333.456 258.727 333.683 259.071 333.967 259.357V259.357Z" fill="#7F3E3B"/>
<path d="M257.336 209.336L258.287 205.599C258.446 205.159 258.731 204.783 259.101 204.524C259.472 204.264 259.91 204.134 260.354 204.152V204.152C261.701 204.094 263.046 204.313 264.313 204.799L269.689 206.903L269.43 209.226C269.213 211.221 267.115 212.887 264.737 212.964C263.141 212.986 261.548 212.806 259.992 212.427L259.413 212.295C259.084 212.27 258.763 212.171 258.473 212.003C258.184 211.834 257.931 211.602 257.734 211.321C257.537 211.04 257.399 210.717 257.33 210.375C257.261 210.032 257.263 209.678 257.336 209.336V209.336Z" fill="#7F3E3B"/>
<path d="M172.661 157.747C176.104 153.506 181.283 142.491 171.545 138.282C164.36 135.17 149.112 136.759 140.357 151.215C134.371 153.407 132.603 167.524 146.425 170.494C160.246 173.464 172.661 157.747 172.661 157.747Z" fill="#263238"/>
<path d="M203.891 429.72L188.095 431.112L190.772 450.796L203.973 449.656L203.891 429.72Z" fill="#FFC3BD"/>
<path opacity="0.2" d="M203.891 429.73L188.085 431.122L189.594 442.148L203.942 440.888L203.891 429.73Z" fill="black"/>
<path d="M173.695 371.774C167.492 346.566 151.428 316.558 161.61 292.303L205.865 292.161C205.865 292.161 206.961 342.083 207.271 365.593C207.581 390.176 205.648 436.427 205.648 436.427L187.547 437.885C187.547 437.885 175.142 400.04 173.695 371.774Z" fill="#407BFF"/>
<path d="M186.648 438.641L206.206 437.118C206.373 437.102 206.529 437.024 206.647 436.898C206.765 436.771 206.836 436.604 206.847 436.427L207.261 428.755C207.268 428.649 207.252 428.542 207.216 428.443C207.179 428.343 207.122 428.254 207.049 428.18C206.976 428.107 206.888 428.052 206.793 428.018C206.697 427.985 206.596 427.975 206.496 427.988L184.787 431.046C184.688 431.057 184.593 431.092 184.509 431.147C184.424 431.202 184.352 431.276 184.298 431.364C184.243 431.452 184.208 431.551 184.194 431.656C184.181 431.76 184.189 431.866 184.218 431.966L185.934 438.126C185.982 438.284 186.079 438.42 186.208 438.513C186.337 438.607 186.492 438.652 186.648 438.641V438.641Z" fill="#263238"/>
<path opacity="0.2" d="M161.455 316.163C161.284 322.117 161.512 328.076 162.138 333.995C164.298 341.919 167.058 349.854 169.539 357.548C172.785 335.76 172.796 310.365 161.455 316.163Z" fill="black"/>
<path d="M145.422 430.947L129.564 431.112L129.543 450.949L142.796 450.84L145.422 430.947Z" fill="#FFC3BD"/>
<path d="M128.293 447.902C128.308 447.792 128.345 447.686 128.402 447.592C128.458 447.498 128.533 447.417 128.62 447.355C128.708 447.293 128.807 447.251 128.911 447.232C129.015 447.213 129.121 447.217 129.223 447.245C133.203 448.922 140.749 447.639 143.602 447.058C143.917 446.989 144.242 446.99 144.557 447.06C144.872 447.129 145.17 447.267 145.432 447.464C147.766 449.051 150.295 450.29 152.948 451.146C153.517 452.759 153.66 454.506 153.361 456.199H126.628C127.383 453.483 127.939 450.709 128.293 447.902V447.902Z" fill="#263238"/>
<path d="M189.025 447.902C189.041 447.792 189.078 447.686 189.135 447.592C189.191 447.498 189.266 447.417 189.353 447.355C189.441 447.293 189.54 447.251 189.643 447.232C189.747 447.213 189.854 447.217 189.956 447.245C193.936 448.922 201.482 447.639 204.335 447.058C204.65 446.989 204.975 446.99 205.29 447.06C205.605 447.129 205.902 447.267 206.165 447.464C209.204 449.744 217.309 451.146 217.309 451.146C217.878 452.759 218.018 454.507 217.712 456.199H187.361C188.115 453.483 188.672 450.709 189.025 447.902V447.902Z" fill="#263238"/>
<path opacity="0.2" d="M145.422 430.958L129.554 431.111L129.543 442.225L143.954 442.093L145.422 430.958Z" fill="black"/>
<path d="M127.331 363.62C125.181 338.16 118.441 303.866 126.091 292.161H177.882C177.882 292.161 167.327 342.927 162.996 366.426C158.499 390.855 145.567 437.764 145.567 437.764L128.417 437.819C128.417 437.819 121.914 392.686 127.331 363.62Z" fill="#407BFF"/>
<path opacity="0.2" d="M130.443 432.613C130.331 432.611 130.223 432.572 130.134 432.501C130.045 432.43 129.979 432.331 129.947 432.219C128.717 427.835 128.913 377.473 132.014 363.686C132.014 361.866 131.652 358.293 131.239 353.767C129.823 338.423 127.197 309.927 131.115 293.761C131.149 293.616 131.236 293.491 131.358 293.413C131.479 293.336 131.624 293.314 131.761 293.35C131.898 293.386 132.016 293.479 132.089 293.607C132.161 293.736 132.183 293.89 132.149 294.035C128.272 310.026 130.887 338.412 132.293 353.668C132.717 358.271 133.058 361.899 133.079 363.74C133.084 363.788 133.084 363.836 133.079 363.883C130.102 376.925 129.812 427.67 131.011 431.912C131.05 432.05 131.036 432.198 130.972 432.326C130.909 432.453 130.8 432.548 130.67 432.591C130.598 432.622 130.519 432.629 130.443 432.613Z" fill="white"/>
<path d="M127.228 438.499H146.652C146.807 438.503 146.959 438.448 147.079 438.343C147.198 438.239 147.278 438.091 147.303 437.929L148.585 430.618C148.604 430.508 148.599 430.394 148.57 430.286C148.542 430.177 148.492 430.077 148.422 429.992C148.353 429.907 148.267 429.839 148.17 429.794C148.073 429.749 147.967 429.727 147.861 429.731L126.711 430.728C126.622 430.73 126.534 430.752 126.453 430.793C126.372 430.833 126.3 430.89 126.241 430.961C126.182 431.032 126.137 431.115 126.109 431.205C126.082 431.295 126.072 431.39 126.08 431.484L126.515 437.797C126.53 437.987 126.612 438.164 126.743 438.294C126.875 438.424 127.048 438.497 127.228 438.499V438.499Z" fill="#263238"/>
<path d="M195.476 203.483C196.51 207.867 197.461 212.251 198.381 216.635C199.301 221.019 200.169 225.403 200.976 229.787L202.216 236.363L203.374 242.939C204.17 247.323 204.873 251.773 205.596 256.201L203.911 252.201C204.137 253.021 204.622 253.733 205.286 254.217C206.609 255.165 208.101 255.818 209.669 256.135C211.76 256.647 213.893 256.944 216.037 257.023C217.185 257.089 218.363 257.133 219.552 257.111C220.141 257.111 220.741 257.111 221.34 257.111C221.94 257.111 222.591 257.111 223.005 257.111L224.473 257.22C225.708 257.304 226.884 257.812 227.823 258.666C228.762 259.521 229.414 260.676 229.68 261.957C229.946 263.239 229.812 264.577 229.298 265.771C228.784 266.965 227.917 267.949 226.83 268.575C226.003 269.057 225.413 269.419 224.71 269.802C224.007 270.186 223.356 270.515 222.643 270.898C221.258 271.534 219.841 272.137 218.374 272.641C216.884 273.158 215.369 273.59 213.835 273.934C212.22 274.276 210.587 274.517 208.946 274.658C207.172 274.792 205.391 274.762 203.622 274.57C201.656 274.395 199.718 273.96 197.854 273.277C195.762 272.538 193.776 271.498 191.951 270.186C190.026 268.773 188.312 267.062 186.865 265.111C186.24 264.288 185.777 263.342 185.5 262.328L185.18 261.111C184.043 256.793 182.875 252.485 181.799 248.145L180.156 241.657L178.595 235.147C177.561 230.763 176.527 226.445 175.587 222.082C174.646 217.72 173.705 213.314 172.889 208.93C172.303 205.793 172.896 202.538 174.54 199.857C176.184 197.176 178.75 195.282 181.692 194.576C184.634 193.871 187.719 194.41 190.292 196.08C192.864 197.749 194.72 200.418 195.466 203.516L195.476 203.483Z" fill="#FFC3BD"/>
<path d="M222.281 258.196L222.498 265.276C225.196 272.148 232.929 266.931 232.929 266.931L237.601 266.021C238.415 265.801 239.129 265.284 239.617 264.56C240.105 263.835 240.336 262.952 240.268 262.064L240.144 257.111C240.176 256.088 239.829 255.093 239.178 254.337C238.527 253.582 237.624 253.126 236.661 253.066L232.526 253.154C231.319 253.176 230.136 253.515 229.083 254.14L222.281 258.196Z" fill="#FFC3BD"/>
<path d="M187.557 191.274C197.068 196.578 203.281 215.298 203.281 215.298C201.275 224.066 193.191 240.057 185.707 239.958C185.707 239.958 174.718 224.932 173.53 214.06C172.082 200.919 168.33 180.555 187.557 191.274Z" fill="#263238"/>
<path d="M178.771 188.161C164.093 186.682 149.307 186.932 134.681 188.907C126.225 190.167 120.209 195.746 121.242 214.115C123.31 251.379 120.105 280.423 124.571 293.816C124.571 293.816 189.615 313.544 208.16 294.638C212.667 249.8 197.492 212.58 190.586 197.094C189.505 194.655 187.85 192.553 185.781 190.988C183.711 189.424 181.297 188.45 178.771 188.161V188.161Z" fill="#263238"/>
<path d="M173.881 192.238C172.196 190.485 170.428 191.504 169.612 188.863C169.251 186.789 169.58 184.647 170.542 182.802L150.477 171.316C150.87 179.141 151.17 185.323 147.893 188.435C146.941 194.266 157.196 200.086 170.852 200.173C179.546 200.228 176.31 194.759 173.881 192.238Z" fill="#FFC3BD"/>
<path opacity="0.2" d="M170.242 183.459L154.405 179.262C158.406 185.936 165.611 189.586 169.488 187.975C169.377 186.426 169.636 184.873 170.242 183.459V183.459Z" fill="black"/>
<path d="M163.688 145.165C153.206 142.699 144.15 151.927 146.177 161.989C148.203 172.05 149.805 178.845 156.369 182.265C169.415 189.082 175.783 182.506 176.848 171.995C177.809 162.526 174.326 147.653 163.688 145.165Z" fill="#FFC3BD"/>
<path opacity="0.2" d="M161.631 163.03C160.399 162.703 159.096 162.904 158.003 163.589C159.235 163.658 160.468 163.468 161.631 163.03V163.03Z" fill="black"/>
<path opacity="0.2" d="M161.703 163.962C161.124 163.933 160.546 164.04 160.01 164.274C159.474 164.509 158.993 164.866 158.602 165.321C159.717 165.112 160.775 164.648 161.703 163.962V163.962Z" fill="black"/>
<path d="M147.5 170.494C153.361 171.886 155.77 168.773 155.77 165.288C155.77 161.583 152.472 155.325 148.854 154.174C150.146 145.954 171.514 157.462 169.477 146.075C169.477 146.075 168.898 144.124 163.378 143.028C157.858 141.932 143.106 145.461 144.14 157.155C145.174 168.85 147.5 170.494 147.5 170.494Z" fill="#263238"/>
<path d="M140.036 151.796C141.471 148.744 141.876 145.262 141.184 141.932C141.184 141.932 147.613 146.436 140.036 151.796Z" fill="#263238"/>
<path d="M166.996 173.617C167.435 173.582 167.87 173.513 168.299 173.409C168.332 173.401 168.364 173.387 168.392 173.366C168.42 173.345 168.443 173.319 168.462 173.288C168.48 173.257 168.492 173.223 168.498 173.188C168.504 173.152 168.503 173.115 168.495 173.08C168.489 173.044 168.476 173.01 168.457 172.979C168.438 172.949 168.413 172.923 168.384 172.903C168.354 172.884 168.322 172.871 168.287 172.865C168.253 172.86 168.218 172.862 168.185 172.872C167.112 173.15 165.992 173.157 164.915 172.895C163.838 172.632 162.834 172.107 161.983 171.359C161.958 171.333 161.93 171.312 161.898 171.297C161.866 171.283 161.831 171.276 161.796 171.276C161.762 171.276 161.727 171.283 161.695 171.297C161.663 171.312 161.635 171.333 161.61 171.359C161.562 171.413 161.536 171.483 161.536 171.557C161.536 171.63 161.562 171.701 161.61 171.754C162.347 172.427 163.202 172.939 164.127 173.259C165.052 173.579 166.027 173.701 166.996 173.617Z" fill="#263238"/>
<path d="M143.789 170.976C144.459 171.94 145.303 172.754 146.272 173.371C147.241 173.988 148.315 174.396 149.433 174.571C152.441 175.009 153.568 172.061 152.41 169.277C151.376 166.767 148.564 163.523 145.711 164.356C142.858 165.189 142.155 168.576 143.789 170.976Z" fill="#FFC3BD"/>
<path d="M163.337 163.139C163.461 164.027 163.998 164.685 164.546 164.597C165.094 164.509 165.446 163.709 165.322 162.822C165.198 161.934 164.67 161.287 164.122 161.375C163.575 161.463 163.264 162.208 163.337 163.139Z" fill="#263238"/>
<path d="M173.188 161.737C173.312 162.635 173.85 163.282 174.398 163.194C174.946 163.107 175.297 162.318 175.173 161.43C175.049 160.542 174.522 159.884 173.974 159.972C173.426 160.06 173.075 160.849 173.188 161.737Z" fill="#263238"/>
<path d="M169.467 162.909L169.942 170.428C169.942 170.428 172.268 170.855 173.53 169.431C172.729 166.921 171.329 164.675 169.467 162.909V162.909Z" fill="#ED847E"/>
<path d="M160.091 161.112C160.006 161.136 159.917 161.136 159.832 161.111C159.748 161.086 159.671 161.037 159.611 160.97C159.551 160.902 159.508 160.819 159.489 160.728C159.47 160.637 159.474 160.543 159.502 160.454C159.698 159.64 160.074 158.886 160.599 158.255C161.124 157.625 161.782 157.135 162.52 156.827C162.645 156.785 162.78 156.798 162.896 156.861C163.012 156.925 163.1 157.034 163.14 157.166C163.18 157.3 163.168 157.445 163.108 157.57C163.049 157.695 162.945 157.79 162.82 157.835V157.835C162.237 158.087 161.719 158.481 161.308 158.986C160.896 159.491 160.603 160.092 160.453 160.739C160.429 160.83 160.383 160.912 160.32 160.978C160.256 161.043 160.177 161.09 160.091 161.112V161.112Z" fill="#263238"/>
<path d="M176.424 157.747C176.342 157.755 176.26 157.74 176.186 157.704C176.111 157.667 176.047 157.61 176 157.539C175.646 156.995 175.174 156.548 174.624 156.237C174.073 155.927 173.46 155.76 172.837 155.753C172.7 155.753 172.568 155.695 172.471 155.592C172.374 155.489 172.32 155.35 172.32 155.205C172.32 155.059 172.374 154.92 172.471 154.817C172.568 154.714 172.7 154.657 172.837 154.657C173.624 154.65 174.402 154.846 175.102 155.228C175.802 155.609 176.405 156.166 176.858 156.849C176.896 156.905 176.923 156.968 176.938 157.035C176.953 157.103 176.955 157.172 176.945 157.241C176.934 157.309 176.911 157.374 176.877 157.433C176.842 157.492 176.797 157.543 176.744 157.583C176.705 157.632 176.656 157.672 176.6 157.701C176.545 157.729 176.485 157.745 176.424 157.747V157.747Z" fill="#263238"/>
<path d="M236.661 229.426C234.496 229.587 232.409 230.343 230.603 231.618L228.732 206.41C228.579 204.449 227.701 202.632 226.289 201.354C224.877 200.077 223.046 199.444 221.196 199.592L151.8 205.39C149.952 205.555 148.239 206.487 147.035 207.983C145.831 209.479 145.233 211.419 145.37 213.38L150.849 286.955C150.997 288.918 151.873 290.738 153.286 292.017C154.699 293.295 156.533 293.926 158.385 293.772L227.77 287.963C229.622 287.803 231.338 286.874 232.545 285.377C233.752 283.879 234.351 281.937 234.211 279.973L232.329 254.82C234.299 255.799 236.477 256.214 238.645 256.025C241.76 255.47 244.565 253.697 246.508 251.057C248.451 248.416 249.391 245.1 249.142 241.762C248.892 238.424 247.473 235.305 245.163 233.022C242.852 230.738 239.819 229.455 236.661 229.426V229.426Z" fill="#407BFF"/>
<path d="M136.035 219.364L135.002 221.381L133.813 223.639C133.048 225.173 132.262 226.708 131.549 228.264C130.116 231.296 128.832 234.406 127.703 237.58C127.156 239.114 126.67 240.638 126.308 242.139C125.895 243.577 125.571 245.041 125.336 246.523C124.902 248.907 124.829 251.349 125.119 253.757L122.741 249.373C123.731 250.812 124.912 252.093 126.246 253.176C128 254.66 129.84 256.025 131.756 257.264C133.751 258.623 135.891 259.927 138.041 261.232L141.328 263.171C142.362 263.829 143.602 264.487 144.585 265.122L145.081 265.44C146.178 266.145 147.026 267.213 147.495 268.48C147.964 269.747 148.027 271.141 147.674 272.449C147.321 273.758 146.573 274.907 145.544 275.719C144.515 276.532 143.263 276.964 141.98 276.948C140.408 276.948 139.064 276.839 137.617 276.718C136.17 276.597 134.795 276.411 133.389 276.17C130.532 275.715 127.704 275.071 124.923 274.241C121.979 273.366 119.109 272.234 116.343 270.854C113.072 269.257 110.067 267.111 107.442 264.498C106.498 263.543 105.788 262.358 105.374 261.045L105.085 260.103C103.466 254.897 102.861 249.397 103.307 243.937C103.658 239.18 104.518 234.481 105.871 229.93C107.13 225.654 108.692 221.484 110.543 217.457C111.443 215.484 112.363 213.534 113.396 211.638C113.903 210.684 114.43 209.73 114.968 208.788L115.815 207.363L116.26 206.64L116.797 205.796C118.458 203.132 121.034 201.259 123.976 200.577C126.919 199.894 129.996 200.456 132.555 202.142C135.113 203.828 136.95 206.505 137.675 209.605C138.401 212.704 137.957 215.981 136.439 218.74L136.035 219.364Z" fill="#FFC3BD"/>
<path d="M127.962 191.274C110.822 200.984 104.434 222.674 104.434 222.674C107.824 229.524 128.272 236.922 135.963 234.906C135.963 234.906 143.334 220.658 144.853 207.922C146.259 196.118 138 185.586 127.962 191.274Z" fill="#263238"/>
<path d="M139.953 266.328L140.305 273.408C143.137 280.225 150.766 274.844 150.766 274.844L155.429 273.835C156.237 273.599 156.941 273.066 157.414 272.332C157.887 271.597 158.099 270.709 158.013 269.824L157.806 264.881C157.832 263.852 157.476 262.854 156.815 262.1C156.154 261.346 155.241 260.896 154.271 260.848L150.136 261.023C148.927 261.082 147.751 261.458 146.714 262.119L139.953 266.328Z" fill="#FFC3BD"/>
</g>
<defs>
<clipPath id="clip0">
<rect width="548" height="548" fill="white"/>
</clipPath>
</defs>
</svg>
