<svg width="42" height="60" viewBox="0 0 42 60" fill="none" xmlns="http://www.w3.org/2000/svg">
<path d="M5.99548 51.7358L1.56487 26.1976L3.00667 27.617C11.0561 35.541 24.6244 32.2879 28.2054 21.5753L32.633 47.1165L5.99548 51.7358Z" fill="url(#paint0_linear)"/>
<path d="M38.6335 52.8532L4.78236 59.1831C2.59252 59.5935 0.486565 58.1496 0.0791524 55.9597C-0.331256 53.7699 1.11266 51.6639 3.3025 51.2565L37.1537 44.9266C39.3435 44.5162 41.4495 45.9601 41.8569 48.15C42.2643 50.3368 40.8204 52.4428 38.6335 52.8532Z" fill="#3F4147"/>
<path d="M23.2057 19.1938L6.98409 22.2254C4.79425 22.6358 2.68829 21.1919 2.28087 19.0021C1.87047 16.8122 3.31439 14.7063 5.50423 14.2988L21.7258 11.2672C23.9157 10.8568 26.0216 12.3007 26.429 14.4906C26.8364 16.6774 25.3955 18.7834 23.2057 19.1938Z" fill="#3F4147"/>
<path d="M18.865 7.6934L6.35204 10.033C4.24608 10.4255 2.22101 9.03847 1.82558 6.93251C1.43314 4.82654 2.82014 2.80146 4.92611 2.40603L17.4391 0.066407C19.545 -0.326027 21.5701 1.06097 21.9655 3.16694C22.358 5.2729 20.971 7.30097 18.865 7.6934Z" fill="#3F4147"/>
<path d="M0.00719288 54.9593L2.19105 18.0585C2.32286 15.8357 4.23111 14.1402 6.4539 14.272C8.67669 14.4038 10.3722 16.312 10.2404 18.5348L8.05658 55.4356C7.92477 57.6584 6.01653 59.3539 3.79374 59.2221C1.57094 59.0903 -0.124617 57.1821 0.00719288 54.9593Z" fill="#3F4147"/>
<path d="M26.1324 13.5559L41.6291 47.1644C42.5607 49.1865 41.677 51.5801 39.6549 52.5147C37.6328 53.4464 35.2393 52.5627 34.3046 50.5406L18.808 16.932C17.8763 14.91 18.76 12.5164 20.7821 11.5818C22.8042 10.6501 25.2007 11.5338 26.1324 13.5559Z" fill="#3F4147"/>
<defs>
<linearGradient id="paint0_linear" x1="3.92504" y1="26.6243" x2="31.0067" y2="47.2439" gradientUnits="userSpaceOnUse">
<stop stop-color="#33D2FF"/>
<stop offset="0.5375" stop-color="#3D68DE"/>
<stop offset="1" stop-color="#9845E8"/>
</linearGradient>
</defs>
</svg>
