<svg width="44" height="43" viewBox="0 0 44 43" fill="none" xmlns="http://www.w3.org/2000/svg">
<rect width="44" height="43" rx="10" fill="#326BFF"/>
<path d="M15.5946 31.5513L14.8369 23L16.3566 29.5C21.2101 28.9856 24.3511 24.124 22.8253 19.4879L21.3483 15L25.7914 21.5L27.6871 29.5387L15.5946 31.5513Z" fill="url(#paint0_linear)"/>
<path d="M30.5477 32.1914L15.055 34.9698C14.0619 35.1482 13.1053 34.52 12.9193 33.5661C12.7332 32.6135 13.3881 31.6958 14.3824 31.5174L29.8752 28.739C30.8682 28.5606 31.8248 29.1888 32.0108 30.1427C32.1969 31.0953 31.542 32.013 30.5477 32.1914Z" fill="white"/>
<path d="M23.5429 17.3555L15.9078 18.7253C14.9889 18.8905 14.1052 18.3093 13.9343 17.4278L13.884 17.1661C13.7118 16.2847 14.3177 15.4369 15.2365 15.2729L22.8717 13.9031C23.7905 13.7379 24.6742 14.3191 24.8452 15.2006L24.8954 15.4622C25.0677 16.3425 24.4618 17.1903 23.5429 17.3555Z" fill="white"/>
<path d="M21.5681 12.3477L15.6261 13.4137C14.7425 13.5717 13.8927 13.0133 13.7268 12.1656L13.6778 11.9148C13.5131 11.0671 14.0951 10.2519 14.9788 10.0927L20.9207 9.02673C21.8044 8.86876 22.6541 9.42708 22.82 10.2748L22.8691 10.5256C23.0337 11.3746 22.4517 12.1897 21.5681 12.3477Z" fill="white"/>
<path d="M12.8482 33.1353L13.8564 16.7993C13.9117 15.9046 14.7124 15.2221 15.6451 15.2751L15.9216 15.2908C16.8543 15.3438 17.5658 16.112 17.5105 17.0067L16.5187 33.0774C16.4546 34.118 15.5219 34.9127 14.4371 34.8512C13.5044 34.7981 12.7929 34.03 12.8482 33.1353Z" fill="white"/>
<path d="M24.7449 14.8461L31.8948 29.7241C32.2857 30.5381 31.9149 31.5016 31.0664 31.8778C30.0796 32.3143 28.9094 31.9007 28.4543 30.9529L21.4201 16.316C21.0291 15.5021 21.3999 14.5386 22.2484 14.1624L22.4998 14.0514C23.3483 13.6764 24.3539 14.0321 24.7449 14.8461Z" fill="white"/>
<defs>
<linearGradient id="paint0_linear" x1="14.6548" y1="20.6158" x2="26.5699" y2="30.0726" gradientUnits="userSpaceOnUse">
<stop stop-color="white"/>
<stop offset="1" stop-color="white"/>
</linearGradient>
</defs>
</svg>
